M48
;Layer_Color=9474304
;FILE_FORMAT=4:4
METRIC,LZ
;TYPE=PLATED
T1F00S00C0.3000
T2F00S00C0.6500
T3F00S00C0.7000
T5F00S00C0.9144
T6F00S00C1.0000
T8F00S00C3.1800
;TYPE=NON_PLATED
T9F00S00C1.0500
T10F00S00C1.3000
%
T01
X01011682Y0100965
X01011428Y01060958
X01011682Y01111758
X01011428Y01187958
X01154989Y01117905
X0118364Y01142492
X01124458Y01044702
X01115314Y01051306
X01114552Y01023874
X0112776
X01193546Y01077722
X01250493Y01085393
X01248461Y01114603
X01279652Y01101344
X012954Y0109601
Y01028954
X01430274Y01028192
X01413256Y01120394
X01400556Y01150366
X01351026Y0114681
X01349502Y0112395
X01287526Y01163574
X01279398Y01179576
X01252474Y01179322
X0123444Y0115951
X01225804
X01217676
X01207516Y01173226
X0160581Y01181508
X01615694Y01180592
X01627124
X01605788Y0116332
X01606042Y01149858
X01605804Y01136508
X01605802Y01121508
X016058Y01106508
X01605798Y01091508
X01637538Y01086104
X01671828Y0108585
X01704086Y01086358
X01718818Y01102106
X01735836
X01735328Y01128014
X01718564
X01719326Y01171194
X01733252Y01171292
X01765554Y01178306
X01795526Y01175766
X0181229Y0117221
X01812036Y0118618
X0181229Y01156716
X01871472Y01145286
X01871218Y01103376
X01872742Y01073404
X0194183Y0115697
X01933702Y01210564
X01953006Y0122428
X01980184Y0121031
X01867916Y01225042
X01808734Y01204722
X01791138Y01221864
X0177666Y0122161
X01762182Y01221356
X01761928Y01235834
X01776406Y01236088
X01778762Y01252728
X01764284Y01266698
X01744218Y01261364
X0172974Y01274826
X0173482Y01291844
X01734312Y0130302
X01790446Y0130175
X01790192Y01289558
Y01276858
X01803654Y01276604
Y01289558
X0180721Y0130979
X01803751Y01317598
X01801552Y01326258
X01791672Y0132547
X0177673Y012827
X01730432Y012305
X01718818Y0123063
X01705356Y01230376
X01711026Y01206216
X01718594Y01198344
X01744218Y01199642
X01741354Y01215006
X01684528Y01218184
X01686998Y01194686
X01627124Y0119507
X01615694
X01605812Y01196508
X0161925Y01209802
X01627378Y01220724
X01618234Y01229868
X01622044Y01243076
X01605818Y01241508
X0160582Y01256508
X01605822Y01271508
X01605824Y01286508
X01605826Y01301508
X01605828Y01316508
X0160583Y01331508
X01605832Y01346508
X01605824Y01361438
X01605826Y01376438
X01605828Y01391438
X0160583Y01406438
X01605832Y01421438
X0160584Y01436368
X01617988Y01436314
X01617996Y01451244
X0161799Y01466508
Y01481508
Y01496508
Y01511508
X01617726Y0152273
X01616456Y01533144
X0166243Y01533906
X01677372Y01530448
X01713738Y01544066
X01728724Y01542034
X01768008Y01551988
X01778762Y0154305
X01804416Y01527048
X0183007Y01561338
X0184658Y01560068
X01861566
X01853438Y01548384
X01885188Y0154432
X01895856Y01515364
X01895094Y0148844
X01935226
X01939544Y0146304
X01972818Y01460246
X01982978Y01486154
X0196596Y01574546
X01893062Y01577594
X01869396Y01442564
X01842218Y01438754
X0184171Y01424784
Y01411576
X01841964Y01382112
X01857502Y01369568
X01807166Y01383532
X01786846
Y01409948
X01807166
Y01436364
X01786846
Y0146278
X01807166
X01841964Y0146771
X01773682Y01497076
X01717504Y014716
X01738808Y01430372
X01752048Y01430626
X01752302Y01416656
X01738078Y01416402
X0175133Y01392936
X01661922Y01375918
X01669542Y01237996
X01871008Y013047
X01878838Y01317752
X01935226Y01408176
X01492504Y01405128
X0148082Y01404874
X01478026Y01379728
X01492504
X01494282Y01421638
Y01436116
X01477264Y01431544
X01446325Y01441753
X0145796Y01398524
X01429766Y01372362
X01443482Y01343914
X01391666Y01330151
X01378966Y0135128
X0136906
X01347216Y01325118
X01322414Y01321654
X01322832Y0126619
X01291844Y01288288
X01261684Y0126619
X01267714Y01230376
X01278382Y01227836
X0129184Y01229932
X0129159Y01208024
X01394509Y01236267
X01397254Y01269746
X01397Y01287272
X01405636Y0128778
X01353058Y01293876
X01433068Y01255522
X01414018Y01415796
X01406398Y01468628
X01426464Y01484122
X0142621Y01495044
X01420368Y01520444
X01409192Y01560322
X01410208Y01573115
X01431036Y01566926
X0145923Y01585722
X01512062Y01577848
X01517904Y01563878
X01549908Y0152781
X01550162Y01518412
X01488948Y0151003
X01478026
X01477772Y01522222
X01474978Y01533144
X01467866Y01489964
X013826Y01484708
X01368806Y0148209
X01362072Y01497076
X01332738Y01519682
X01326388Y01559052
X01340358Y01570228
X01350772Y01569466
X01365758Y01560068
X01307592Y01575054
X0129032Y01573276
X01290056Y01581912
X0126365Y01573022
X01228852Y01570736
X01241298Y01557782
X01213104Y01556194
X01200912Y01558036
X01196086Y0153289
X01210056Y01532887
X01195832Y01499663
X01231138Y01503172
X01234186Y01483614
X01269492Y01486154
X01283208Y01508506
Y01521206
X01296748Y01462962
X01301496Y01427988
X01299972Y01369568
X01290828Y01375664
X01286764Y013462
X01261266Y01321654
X01230692Y0129108
X01215136Y01374648
X01256538Y01399032
X01262634Y01393444
X01227836Y0143002
X01329958Y01474009
X0117729Y01526794
X01175258Y0153924
X01168146Y0155067
X011557Y01551178
X011466Y01552194
X01142238Y01578102
X01116838
X01077214Y01571752
X01036574Y01560322
X01011174Y01493012
Y01416558
Y01340358
X01011428Y01264412
X01057656Y01259078
X01058418Y01284986
X0113538Y01293622
X01144524Y01273302
X01148334Y01312672
X01152906Y01340866
X01176528Y01303274
X01187704Y01299464
X01143254Y01493266
X01173025Y01572059
X0115951Y01630172
X01183386Y01669796
X01182878Y0168232
Y0169291
X01183132Y01718056
Y01727708
X01182878Y0173732
Y0174832
X01184148Y01758442
X01152906Y0178308
X01060196Y01780032
X01031748Y01784858
X01025652Y01794256
X0103759Y01755902
X01009142Y01755648
X01009396Y01674622
X0103759Y01675384
X01100074Y01718056
X01053592Y01866392
X0116713Y01865122
X01130808Y01960118
X0120523Y01960626
X0124587Y01951228
X012446Y01921256
X01245108Y01892554
X01250696Y01871218
X0124968Y01853692
X01267714Y01842262
X01284224Y01840484
X0130556
X01322578Y01833372
X01338072Y01827784
X01360932Y01827276
X0138303Y01827022
X01401572Y01825752
X01418844Y01853946
X01431036Y01855978
X01418336Y01890522
X01448816
X01467612Y01891792
X014796Y0188879
X01483106Y01896872
X01491996Y0189611
X01475994Y0190373
X01528318Y01892554
X01537716Y01899158
X0154686Y01892554
X01580388
X01580642Y01856232
X01458468Y0183261
X01438656Y01761744
X01371854Y01774698
X0133985Y01796542
X01312164Y01797558
X01306322Y01763776
X01272032Y017526
X01254605Y01733804
X01269936Y01707896
X01274826Y01700022
X0126642Y01691312
X0128797Y01683512
X01297178Y01686306
Y0169672
X01310179Y01700435
X01304036Y01707388
X01318514Y01692402
X01325372Y01697736
X01332719Y01693298
X01342898Y01695196
X01353426Y01697114
X01369947Y01701504
X01358138Y01663192
X01328834Y0166292
X01321308Y01670558
X0129286Y0167259
X01249426Y01670812
X01246632Y0165862
X01236724Y01605414
X01205992Y01613916
X01290056Y01599184
Y01590548
X01321308Y01594104
X0132821Y01602432
X01328852Y01632346
X01358784Y01633006
X0139Y01632382
X01390018Y01601808
X01397762Y01594104
X01359444Y0160179
X01389358Y0166358
X01397762Y01670558
X01433068Y01669542
X01427226Y01685036
X01467612Y0169672
X01474724Y01669796
X01484376Y0159639
X01496314
X01508252Y01596644
X0152019
X0155194Y01613408
X01569212Y01629918
X0150368Y0195326
X01422146Y01952752
X01345946Y0191516
X01347216Y01897634
X013589Y01899412
X01356106Y0187452
X01318768Y01915668
X01276096Y01961642
X0120523Y01902714
X0119634Y01827276
X012065Y01780794
X01241345Y01776476
X0124714Y01786382
X01256792Y01777238
X0119126Y01712468
X01194054Y01702816
X01592072Y01699006
X01591818Y01717802
X01592072Y01753616
X01591564Y01775968
X01591818Y01794764
X01607058Y01795018
X01622963Y01792635
X01626362Y01754124
X01663349Y01752249
X01666494Y01698752
X01614424Y0169672
X01614932Y01631188
X01667002Y01594866
X01713738Y01601724
X0176911Y01592326
X01828038Y01593342
X0188087Y01613916
X01935734Y0159004
X01942592Y01633982
X01971294Y0163449
X01971548Y01690878
X019431
X01943354Y0175895
X01942846Y01824228
X0194183Y0188849
X01862836Y01842389
X018542Y01833626
X01845564Y01824736
X01863344Y01824482
X0184531Y01842516
X01821942Y01878076
X01782572Y0187706
X01773428Y01888236
Y01905508
X01793494Y01905762
X01821434Y01924558
X0175514Y01888998
X01712214Y01900682
X01687068Y01899412
X01637284Y01888951
X0162814Y01856232
X01624838Y01843786
X01616202
X01607566
X01592561Y01855489
X0158877Y01900936
X01589278Y01955038
X01711198Y01947926
X01724406Y01820164
X01689354Y01803654
X01672082Y01820418
X01730502Y0165481
X01812544Y0165354
X01799336Y0172339
X01886458Y01731264
X012319Y01989328
T02
X01164364Y0108071
X01222164
X01078484Y015494
Y016072
T03
X01028836Y01938835
X0102214Y01955
X01028836Y01971165
X01045Y0197786
X01061164Y01971165
X0106786Y01955
X01061164Y01938835
X01045Y0193214
X01938873Y01938873
X01932178Y01955038
X01938873Y01971203
X01955038Y01977898
X01971203Y01971203
X01977898Y01955038
X01971203Y01938873
X01955038Y01932178
T05
X01979676Y01142746
Y011684
T06
X01055624Y016764
Y017562
T08
X01045Y01955
X01955038Y01955038
T09
X0175514Y01762418
T10
X0175514Y01687918
M30
