M48
;Layer_Color=9474304
;FILE_FORMAT=4:4
METRIC,LZ
;TYPE=PLATED
T4F00S00C0.7000
T7F00S00C1.0000
;TYPE=NON_PLATED
%
G90
G05
T04
G00X01150064Y0104771
M15
G01Y0104071
M16
G00X01150064Y0108071
M15
G01Y0109071
M16
G00X01236464Y0108071
M15
G01Y0109071
M16
G00X01236464Y0104771
M15
G01Y0104071
M16
G00X01078484Y015351
M15
G01X01088484
M16
G00X01045484Y015351
M15
G01X01038484
M16
G00X01045484Y016215
M15
G01X01038484
M16
G00X01078484Y016215
M15
G01X01088484
M16
T07
G00X01922194Y01019302
M15
G01X01944194
M16
G00X01920194Y01082302
M15
G01X01946194
M16
G00X01981194Y01042302
M15
G01Y01064302
M16
M17
M30
