%TF.GenerationSoftware,Altium Limited,Altium Designer,22.10.1 (41)*%
G04 Layer_Color=255*
%FSLAX45Y45*%
%MOMM*%
%TF.SameCoordinates,DED9D2F0-87CF-4F18-B91E-279B35946A49*%
%TF.FilePolarity,Positive*%
%TF.FileFunction,Pads,Top*%
%TF.Part,Single*%
G01*
G75*
%TA.AperFunction,SMDPad,CuDef*%
%ADD10R,0.66000X0.92200*%
%ADD11R,2.30000X4.50000*%
%ADD12R,4.20000X1.27000*%
%ADD13R,1.40000X1.00000*%
%ADD14R,6.74000X6.74000*%
%ADD15O,0.20000X0.95000*%
%ADD16O,0.95000X0.20000*%
%TA.AperFunction,ConnectorPad*%
%ADD17R,0.30000X2.00000*%
%ADD18R,2.00000X3.00000*%
%TA.AperFunction,SMDPad,CuDef*%
%ADD19R,5.90000X2.70000*%
G04:AMPARAMS|DCode=20|XSize=0.32mm|YSize=1.2mm|CornerRadius=0mm|HoleSize=0mm|Usage=FLASHONLY|Rotation=225.000|XOffset=0mm|YOffset=0mm|HoleType=Round|Shape=Rectangle|*
%AMROTATEDRECTD20*
4,1,4,-0.31113,0.53740,0.53740,-0.31113,0.31113,-0.53740,-0.53740,0.31113,-0.31113,0.53740,0.0*
%
%ADD20ROTATEDRECTD20*%

G04:AMPARAMS|DCode=21|XSize=1.2mm|YSize=0.32mm|CornerRadius=0mm|HoleSize=0mm|Usage=FLASHONLY|Rotation=225.000|XOffset=0mm|YOffset=0mm|HoleType=Round|Shape=Rectangle|*
%AMROTATEDRECTD21*
4,1,4,0.31113,0.53740,0.53740,0.31113,-0.31113,-0.53740,-0.53740,-0.31113,0.31113,0.53740,0.0*
%
%ADD21ROTATEDRECTD21*%

%ADD22R,1.00000X5.20000*%
%ADD23R,0.70000X1.50000*%
%ADD24R,1.85000X1.40000*%
%ADD25R,0.85000X0.90000*%
G04:AMPARAMS|DCode=26|XSize=0.922mm|YSize=0.66mm|CornerRadius=0mm|HoleSize=0mm|Usage=FLASHONLY|Rotation=45.000|XOffset=0mm|YOffset=0mm|HoleType=Round|Shape=Rectangle|*
%AMROTATEDRECTD26*
4,1,4,-0.09263,-0.55932,-0.55932,-0.09263,0.09263,0.55932,0.55932,0.09263,-0.09263,-0.55932,0.0*
%
%ADD26ROTATEDRECTD26*%

%ADD27R,0.92200X0.66000*%
G04:AMPARAMS|DCode=28|XSize=0.922mm|YSize=0.66mm|CornerRadius=0mm|HoleSize=0mm|Usage=FLASHONLY|Rotation=315.000|XOffset=0mm|YOffset=0mm|HoleType=Round|Shape=Rectangle|*
%AMROTATEDRECTD28*
4,1,4,-0.55932,0.09263,-0.09263,0.55932,0.55932,-0.09263,0.09263,-0.55932,-0.55932,0.09263,0.0*
%
%ADD28ROTATEDRECTD28*%

G04:AMPARAMS|DCode=29|XSize=1.61mm|YSize=0.58mm|CornerRadius=0.0725mm|HoleSize=0mm|Usage=FLASHONLY|Rotation=270.000|XOffset=0mm|YOffset=0mm|HoleType=Round|Shape=RoundedRectangle|*
%AMROUNDEDRECTD29*
21,1,1.61000,0.43500,0,0,270.0*
21,1,1.46500,0.58000,0,0,270.0*
1,1,0.14500,-0.21750,-0.73250*
1,1,0.14500,-0.21750,0.73250*
1,1,0.14500,0.21750,0.73250*
1,1,0.14500,0.21750,-0.73250*
%
%ADD29ROUNDEDRECTD29*%
%ADD30R,1.20000X1.40000*%
%ADD31R,1.52400X1.27000*%
%ADD32R,0.60000X1.70000*%
%ADD33R,2.50000X2.80000*%
%ADD34R,1.50000X0.30000*%
%ADD35R,1.50000X0.60000*%
G04:AMPARAMS|DCode=36|XSize=1.5mm|YSize=3mm|CornerRadius=0.375mm|HoleSize=0mm|Usage=FLASHONLY|Rotation=180.000|XOffset=0mm|YOffset=0mm|HoleType=Round|Shape=RoundedRectangle|*
%AMROUNDEDRECTD36*
21,1,1.50000,2.25000,0,0,180.0*
21,1,0.75000,3.00000,0,0,180.0*
1,1,0.75000,-0.37500,1.12500*
1,1,0.75000,0.37500,1.12500*
1,1,0.75000,0.37500,-1.12500*
1,1,0.75000,-0.37500,-1.12500*
%
%ADD36ROUNDEDRECTD36*%
%ADD37R,2.00000X3.00000*%
%ADD38R,1.50000X3.00000*%
%ADD39R,1.55000X2.40000*%
%ADD40R,2.70000X5.90000*%
G04:AMPARAMS|DCode=41|XSize=0.9mm|YSize=0.85mm|CornerRadius=0mm|HoleSize=0mm|Usage=FLASHONLY|Rotation=45.000|XOffset=0mm|YOffset=0mm|HoleType=Round|Shape=Rectangle|*
%AMROTATEDRECTD41*
4,1,4,-0.01768,-0.61872,-0.61872,-0.01768,0.01768,0.61872,0.61872,0.01768,-0.01768,-0.61872,0.0*
%
%ADD41ROTATEDRECTD41*%

%ADD42R,1.50000X1.50000*%
%ADD43O,0.24000X0.85000*%
%ADD44O,0.85000X0.24000*%
G04:AMPARAMS|DCode=45|XSize=0.55mm|YSize=0.6mm|CornerRadius=0mm|HoleSize=0mm|Usage=FLASHONLY|Rotation=225.000|XOffset=0mm|YOffset=0mm|HoleType=Round|Shape=Rectangle|*
%AMROTATEDRECTD45*
4,1,4,-0.01768,0.40659,0.40659,-0.01768,0.01768,-0.40659,-0.40659,0.01768,-0.01768,0.40659,0.0*
%
%ADD45ROTATEDRECTD45*%

%ADD46R,0.90000X0.85000*%
%ADD47R,0.80000X0.80000*%
%ADD48R,1.27000X1.52400*%
%ADD49R,1.40000X1.50000*%
G04:AMPARAMS|DCode=50|XSize=0.9mm|YSize=0.85mm|CornerRadius=0mm|HoleSize=0mm|Usage=FLASHONLY|Rotation=315.000|XOffset=0mm|YOffset=0mm|HoleType=Round|Shape=Rectangle|*
%AMROTATEDRECTD50*
4,1,4,-0.61872,0.01768,-0.01768,0.61872,0.61872,-0.01768,0.01768,-0.61872,-0.61872,0.01768,0.0*
%
%ADD50ROTATEDRECTD50*%

G04:AMPARAMS|DCode=51|XSize=1.4mm|YSize=1.2mm|CornerRadius=0mm|HoleSize=0mm|Usage=FLASHONLY|Rotation=315.000|XOffset=0mm|YOffset=0mm|HoleType=Round|Shape=Rectangle|*
%AMROTATEDRECTD51*
4,1,4,-0.91924,0.07071,-0.07071,0.91924,0.91924,-0.07071,0.07071,-0.91924,-0.91924,0.07071,0.0*
%
%ADD51ROTATEDRECTD51*%

%ADD52R,1.40000X1.85000*%
%ADD53R,2.40000X1.55000*%
%ADD54R,0.97790X0.55880*%
%ADD55R,1.38199X0.91399*%
%ADD56R,0.91399X1.38199*%
G04:AMPARAMS|DCode=57|XSize=3.405mm|YSize=9.71718mm|CornerRadius=0.3405mm|HoleSize=0mm|Usage=FLASHONLY|Rotation=0.000|XOffset=0mm|YOffset=0mm|HoleType=Round|Shape=RoundedRectangle|*
%AMROUNDEDRECTD57*
21,1,3.40500,9.03618,0,0,0.0*
21,1,2.72400,9.71718,0,0,0.0*
1,1,0.68100,1.36200,-4.51809*
1,1,0.68100,-1.36200,-4.51809*
1,1,0.68100,-1.36200,4.51809*
1,1,0.68100,1.36200,4.51809*
%
%ADD57ROUNDEDRECTD57*%
G04:AMPARAMS|DCode=58|XSize=1.5mm|YSize=0.45mm|CornerRadius=0.045mm|HoleSize=0mm|Usage=FLASHONLY|Rotation=0.000|XOffset=0mm|YOffset=0mm|HoleType=Round|Shape=RoundedRectangle|*
%AMROUNDEDRECTD58*
21,1,1.50000,0.36000,0,0,0.0*
21,1,1.41000,0.45000,0,0,0.0*
1,1,0.09000,0.70500,-0.18000*
1,1,0.09000,-0.70500,-0.18000*
1,1,0.09000,-0.70500,0.18000*
1,1,0.09000,0.70500,0.18000*
%
%ADD58ROUNDEDRECTD58*%
%ADD59R,6.30000X2.50000*%
%ADD60R,3.50000X2.95000*%
%ADD61R,2.95000X3.50000*%
%ADD62R,1.00000X1.40000*%
G04:AMPARAMS|DCode=63|XSize=1.5mm|YSize=3mm|CornerRadius=0.375mm|HoleSize=0mm|Usage=FLASHONLY|Rotation=270.000|XOffset=0mm|YOffset=0mm|HoleType=Round|Shape=RoundedRectangle|*
%AMROUNDEDRECTD63*
21,1,1.50000,2.25000,0,0,270.0*
21,1,0.75000,3.00000,0,0,270.0*
1,1,0.75000,-1.12500,-0.37500*
1,1,0.75000,-1.12500,0.37500*
1,1,0.75000,1.12500,0.37500*
1,1,0.75000,1.12500,-0.37500*
%
%ADD63ROUNDEDRECTD63*%
%ADD64R,3.00000X1.50000*%
%ADD65R,3.00000X2.00000*%
%ADD66R,1.50000X3.30000*%
%ADD67R,1.23000X1.80000*%
%ADD68R,1.80000X1.23000*%
%ADD69R,0.60000X1.50000*%
%ADD70R,0.30000X1.50000*%
%ADD71R,0.55880X0.97790*%
%TA.AperFunction,ComponentPad*%
%ADD87C,1.05000*%
%ADD88C,1.30000*%
%ADD89C,1.00000*%
%ADD90C,0.65000*%
%ADD91O,2.50000X1.00000*%
%ADD92O,2.00000X1.00000*%
%ADD93R,1.90500X1.65100*%
%ADD94O,1.90500X1.65100*%
%ADD95O,4.00000X2.00000*%
%ADD96O,2.00000X4.00000*%
%ADD97O,4.40000X2.20000*%
%ADD98C,6.35000*%
%ADD99O,1.00000X2.00000*%
%ADD100O,1.00000X2.50000*%
D10*
X14363699Y15979140D02*
D03*
X14516100D02*
D03*
X13322301Y15082520D02*
D03*
X13169901D02*
D03*
X14157961Y18414999D02*
D03*
X14310361D02*
D03*
X14163040Y15481300D02*
D03*
X14315440D02*
D03*
X14615160Y15478760D02*
D03*
X14462759D02*
D03*
X17469679Y14877760D02*
D03*
X17317281D02*
D03*
X16510001Y12438380D02*
D03*
X16357600D02*
D03*
X17795239Y11628120D02*
D03*
X17947639D02*
D03*
X16182339Y11186160D02*
D03*
X16334740D02*
D03*
X12545060Y11661140D02*
D03*
X12697460D02*
D03*
X14549120Y16921480D02*
D03*
X14396719D02*
D03*
X18556799Y14885381D02*
D03*
X18709200D02*
D03*
X18569501Y13269940D02*
D03*
X18417101D02*
D03*
X18554260Y14555180D02*
D03*
X18706660D02*
D03*
X18554260Y14720280D02*
D03*
X18706660D02*
D03*
X18708940Y11720800D02*
D03*
X18861340D02*
D03*
X18711481Y11169620D02*
D03*
X18863879D02*
D03*
X13332460Y17462500D02*
D03*
X13180060D02*
D03*
X13530580Y17622520D02*
D03*
X13682980D02*
D03*
Y17299940D02*
D03*
X13530580D02*
D03*
X13332460Y17134840D02*
D03*
X13180060D02*
D03*
X13332460Y17297400D02*
D03*
X13180060D02*
D03*
X14310361Y18247360D02*
D03*
X14157961D02*
D03*
X12743180Y16586200D02*
D03*
X12590780D02*
D03*
X13548360Y15473680D02*
D03*
X13700760D02*
D03*
X14467841Y16718280D02*
D03*
X14620239D02*
D03*
X13548360Y15311121D02*
D03*
X13700760D02*
D03*
X13332460Y17625060D02*
D03*
X13180060D02*
D03*
X13860780Y15476221D02*
D03*
X14013181D02*
D03*
X14462759Y15313660D02*
D03*
X14615160D02*
D03*
X13858240Y18516600D02*
D03*
X14010640D02*
D03*
X16405859Y18432780D02*
D03*
X16558260D02*
D03*
X15943581Y18417540D02*
D03*
X15791180D02*
D03*
X16405859Y18267680D02*
D03*
X16558260D02*
D03*
X12943840Y11186160D02*
D03*
X12791440D02*
D03*
X14394019Y14897099D02*
D03*
X14546419D02*
D03*
D11*
X17551401Y18094180D02*
D03*
Y16454179D02*
D03*
D12*
X15239999Y10233660D02*
D03*
Y10487660D02*
D03*
Y10741660D02*
D03*
Y10995660D02*
D03*
Y11249660D02*
D03*
Y11503660D02*
D03*
Y11757660D02*
D03*
Y12011660D02*
D03*
Y12265660D02*
D03*
Y12519660D02*
D03*
Y12773660D02*
D03*
Y13027660D02*
D03*
Y13281660D02*
D03*
Y13535660D02*
D03*
Y13789661D02*
D03*
Y14043660D02*
D03*
Y14297659D02*
D03*
Y14551660D02*
D03*
Y14805659D02*
D03*
Y15059660D02*
D03*
X10855960Y15054581D02*
D03*
Y14800580D02*
D03*
Y14546581D02*
D03*
Y14292580D02*
D03*
Y14038580D02*
D03*
Y13784579D02*
D03*
Y13530580D02*
D03*
Y13276579D02*
D03*
Y13022580D02*
D03*
Y12768580D02*
D03*
Y12514580D02*
D03*
Y12260580D02*
D03*
Y12006580D02*
D03*
Y11752580D02*
D03*
Y11498580D02*
D03*
Y11244580D02*
D03*
Y10990580D02*
D03*
Y10736580D02*
D03*
Y10482580D02*
D03*
Y10228580D02*
D03*
X15768320Y15059660D02*
D03*
Y14805659D02*
D03*
Y14551660D02*
D03*
Y14297659D02*
D03*
Y14043660D02*
D03*
Y13789661D02*
D03*
Y13535660D02*
D03*
Y13281660D02*
D03*
Y13027660D02*
D03*
Y12773660D02*
D03*
Y12519660D02*
D03*
Y12265660D02*
D03*
Y12011660D02*
D03*
Y11757660D02*
D03*
Y11503660D02*
D03*
Y11249660D02*
D03*
Y10995660D02*
D03*
Y10741660D02*
D03*
Y10487660D02*
D03*
Y10233660D02*
D03*
X10309860Y10228580D02*
D03*
Y10482580D02*
D03*
Y10736580D02*
D03*
Y10990580D02*
D03*
Y11244580D02*
D03*
Y11498580D02*
D03*
Y11752580D02*
D03*
Y12006580D02*
D03*
Y12260580D02*
D03*
Y12514580D02*
D03*
Y12768580D02*
D03*
Y13022580D02*
D03*
Y13276579D02*
D03*
Y13530580D02*
D03*
Y13784579D02*
D03*
Y14038580D02*
D03*
Y14292580D02*
D03*
Y14546581D02*
D03*
Y14800580D02*
D03*
Y15054581D02*
D03*
D13*
X17320261Y16019780D02*
D03*
X17540260Y16114780D02*
D03*
Y15924780D02*
D03*
X16910100Y15226759D02*
D03*
Y15036760D02*
D03*
X17130099Y15131760D02*
D03*
X11901660Y15886180D02*
D03*
Y15696181D02*
D03*
X12121660Y15791180D02*
D03*
X11598420Y15200880D02*
D03*
Y15390880D02*
D03*
X11378420Y15295880D02*
D03*
D14*
X13594260Y16323640D02*
D03*
D15*
X14014259Y15836140D02*
D03*
X13974260D02*
D03*
X13934261D02*
D03*
X13894260D02*
D03*
X13854260D02*
D03*
X13814259D02*
D03*
X13774260D02*
D03*
X13734261D02*
D03*
X13694260D02*
D03*
X13654260D02*
D03*
X13614259D02*
D03*
X13574260D02*
D03*
X13534261D02*
D03*
X13494260D02*
D03*
X13454260D02*
D03*
X13414259D02*
D03*
X13374260D02*
D03*
X13334261D02*
D03*
X13294260D02*
D03*
X13254260D02*
D03*
X13214259D02*
D03*
X13174260D02*
D03*
Y16811140D02*
D03*
X13214259D02*
D03*
X13254260D02*
D03*
X13294260Y16811140D02*
D03*
X13334261D02*
D03*
X13374260Y16811140D02*
D03*
X13414259D02*
D03*
X13454260D02*
D03*
X13494260D02*
D03*
X13534261D02*
D03*
X13574260D02*
D03*
X13614259D02*
D03*
X13654260D02*
D03*
X13694260Y16811140D02*
D03*
X13734261Y16811140D02*
D03*
X13774260Y16811140D02*
D03*
X13814259Y16811140D02*
D03*
X13854260Y16811140D02*
D03*
X13894260Y16811140D02*
D03*
X13934261D02*
D03*
X13974260D02*
D03*
X14014259D02*
D03*
D16*
X13106760Y15903641D02*
D03*
Y15943640D02*
D03*
Y15983641D02*
D03*
Y16023640D02*
D03*
X13106760Y16063640D02*
D03*
X13106760Y16103641D02*
D03*
X13106760Y16143642D02*
D03*
X13106760Y16183640D02*
D03*
X13106760Y16223640D02*
D03*
X13106760Y16263641D02*
D03*
Y16303641D02*
D03*
Y16343640D02*
D03*
Y16383641D02*
D03*
Y16423640D02*
D03*
Y16463640D02*
D03*
Y16503641D02*
D03*
Y16543640D02*
D03*
X13106760Y16583640D02*
D03*
Y16623640D02*
D03*
X13106760Y16663641D02*
D03*
Y16703641D02*
D03*
Y16743642D02*
D03*
X14081760D02*
D03*
Y16703641D02*
D03*
Y16663641D02*
D03*
Y16623640D02*
D03*
Y16583640D02*
D03*
Y16543642D02*
D03*
Y16503641D02*
D03*
Y16463640D02*
D03*
Y16423640D02*
D03*
Y16383641D02*
D03*
Y16343640D02*
D03*
Y16303641D02*
D03*
Y16263641D02*
D03*
Y16223640D02*
D03*
Y16183640D02*
D03*
Y16143642D02*
D03*
Y16103641D02*
D03*
Y16063640D02*
D03*
Y16023640D02*
D03*
Y15983641D02*
D03*
Y15943640D02*
D03*
Y15903641D02*
D03*
D17*
X16255341Y18732500D02*
D03*
X16205341D02*
D03*
X16155341D02*
D03*
X16105341D02*
D03*
X16055341D02*
D03*
X16005341D02*
D03*
X15955341D02*
D03*
X15855341D02*
D03*
X15805341D02*
D03*
X15755341D02*
D03*
X15705341D02*
D03*
X15905341D02*
D03*
X15655341D02*
D03*
X15555341D02*
D03*
X15455341D02*
D03*
X15405341D02*
D03*
X15355341D02*
D03*
X15305341D02*
D03*
X15255341D02*
D03*
X15605341D02*
D03*
X15505341D02*
D03*
X15205341D02*
D03*
X15155341D02*
D03*
X15105341D02*
D03*
X15055341D02*
D03*
X15005341D02*
D03*
X14955341D02*
D03*
X14905341D02*
D03*
X14855341D02*
D03*
X14805341D02*
D03*
X14755341D02*
D03*
X14705341D02*
D03*
X14505341D02*
D03*
X14455341D02*
D03*
X14405341D02*
D03*
X14355341D02*
D03*
X14305341D02*
D03*
X14255341D02*
D03*
X14205341D02*
D03*
X14155341D02*
D03*
X14105341D02*
D03*
X14055341D02*
D03*
X14655341D02*
D03*
X14605341D02*
D03*
X14555341D02*
D03*
X16405341D02*
D03*
X16355341D02*
D03*
X16305341D02*
D03*
X16455341D02*
D03*
X14005341D02*
D03*
D18*
X13751340Y18995000D02*
D03*
X16709340D02*
D03*
D19*
X16748759Y11108080D02*
D03*
Y11508080D02*
D03*
D20*
X13890672Y12787076D02*
D03*
X13855316Y12751721D02*
D03*
X13819962Y12716366D02*
D03*
X13784605Y12681010D02*
D03*
X13749251Y12645655D02*
D03*
X13713895Y12610300D02*
D03*
X13678540Y12574944D02*
D03*
X13643185Y12539589D02*
D03*
X13607829Y12504234D02*
D03*
X13572475Y12468878D02*
D03*
X13537119Y12433523D02*
D03*
X13501762Y12398167D02*
D03*
X13466408Y12362812D02*
D03*
X13431053Y12327457D02*
D03*
X13395697Y12292102D02*
D03*
X13360342Y12256746D02*
D03*
X13324986Y12221391D02*
D03*
X13289632Y12186036D02*
D03*
X13254276Y12150680D02*
D03*
X13218919Y12115325D02*
D03*
X13183565Y12079969D02*
D03*
X13148210Y12044614D02*
D03*
X13112854Y12009259D02*
D03*
X13077499Y11973904D02*
D03*
X13042143Y11938548D02*
D03*
X11946128Y13034564D02*
D03*
X11981484Y13069919D02*
D03*
X12016839Y13105273D02*
D03*
X12052194Y13140630D02*
D03*
X12087550Y13175986D02*
D03*
X12122905Y13211340D02*
D03*
X12158260Y13246696D02*
D03*
X12193616Y13282051D02*
D03*
X12228971Y13317406D02*
D03*
X12264326Y13352762D02*
D03*
X12299682Y13388116D02*
D03*
X12335037Y13423473D02*
D03*
X12370392Y13458829D02*
D03*
X12405748Y13494183D02*
D03*
X12441103Y13529538D02*
D03*
X12476458Y13564894D02*
D03*
X12511814Y13600249D02*
D03*
X12547169Y13635603D02*
D03*
X12582524Y13670959D02*
D03*
X12617880Y13706316D02*
D03*
X12653235Y13741672D02*
D03*
X12688591Y13777026D02*
D03*
X12723946Y13812381D02*
D03*
X12759301Y13847736D02*
D03*
X12794656Y13883092D02*
D03*
D21*
Y11938548D02*
D03*
X12759301Y11973904D02*
D03*
X12723946Y12009259D02*
D03*
X12688591Y12044614D02*
D03*
X12653235Y12079969D02*
D03*
X12617880Y12115325D02*
D03*
X12582524Y12150680D02*
D03*
X12547169Y12186036D02*
D03*
X12511814Y12221391D02*
D03*
X12476458Y12256746D02*
D03*
X12441103Y12292102D02*
D03*
X12405748Y12327457D02*
D03*
X12370392Y12362812D02*
D03*
X12335037Y12398167D02*
D03*
X12299682Y12433523D02*
D03*
X12264326Y12468878D02*
D03*
X12228971Y12504234D02*
D03*
X12193616Y12539589D02*
D03*
X12158260Y12574944D02*
D03*
X12122905Y12610300D02*
D03*
X12087550Y12645655D02*
D03*
X12052194Y12681010D02*
D03*
X12016839Y12716366D02*
D03*
X11981484Y12751721D02*
D03*
X11946128Y12787076D02*
D03*
X13042143Y13883092D02*
D03*
X13077499Y13847736D02*
D03*
X13112854Y13812381D02*
D03*
X13148210Y13777026D02*
D03*
X13183565Y13741672D02*
D03*
X13218919Y13706316D02*
D03*
X13254276Y13670959D02*
D03*
X13289632Y13635603D02*
D03*
X13324986Y13600249D02*
D03*
X13360342Y13564894D02*
D03*
X13395697Y13529538D02*
D03*
X13431053Y13494183D02*
D03*
X13466408Y13458829D02*
D03*
X13501762Y13423473D02*
D03*
X13537119Y13388116D02*
D03*
X13572475Y13352762D02*
D03*
X13607829Y13317406D02*
D03*
X13643185Y13282051D02*
D03*
X13678540Y13246696D02*
D03*
X13713895Y13211340D02*
D03*
X13749251Y13175986D02*
D03*
X13784605Y13140630D02*
D03*
X13819962Y13105273D02*
D03*
X13855316Y13069919D02*
D03*
X13890672Y13034564D02*
D03*
D22*
X13187680Y19156680D02*
D03*
D23*
X13337680Y19341679D02*
D03*
X13037680D02*
D03*
X13337680Y18971680D02*
D03*
X13037680D02*
D03*
D24*
X18297720Y15134300D02*
D03*
Y14854900D02*
D03*
X18549620Y12783820D02*
D03*
Y13063220D02*
D03*
X18917480Y14636459D02*
D03*
Y14357060D02*
D03*
X18227040Y13063220D02*
D03*
Y12783820D02*
D03*
X18036099Y14854900D02*
D03*
Y15134300D02*
D03*
X19176559Y14641541D02*
D03*
Y14362140D02*
D03*
D25*
X17770641Y13587440D02*
D03*
X17925639D02*
D03*
X13219400Y14864079D02*
D03*
X13374400D02*
D03*
X14334460Y15819119D02*
D03*
X14489461D02*
D03*
X12716540Y16106140D02*
D03*
X12561540D02*
D03*
X13160980Y11506200D02*
D03*
X13315981D02*
D03*
X19206239Y15280640D02*
D03*
X19051241D02*
D03*
X10679460Y18272760D02*
D03*
X10524460D02*
D03*
X19048700Y15521941D02*
D03*
X19203700D02*
D03*
X19048700Y15031720D02*
D03*
X19203700D02*
D03*
X11675140Y16695419D02*
D03*
X11520140D02*
D03*
X11675140Y16837660D02*
D03*
X11520140D02*
D03*
X11677680Y17238980D02*
D03*
X11522680D02*
D03*
X11677680Y17373599D02*
D03*
X11522680D02*
D03*
X11680220Y17510760D02*
D03*
X11525220D02*
D03*
X18568260Y13432500D02*
D03*
X18413260D02*
D03*
X18418340Y13587440D02*
D03*
X18573340D02*
D03*
X18253300D02*
D03*
X18098300D02*
D03*
X17631059Y15050481D02*
D03*
X17476060D02*
D03*
X18334520Y11169360D02*
D03*
X18489520D02*
D03*
X19579620Y11465560D02*
D03*
X19424620D02*
D03*
X19597400Y12103100D02*
D03*
X19442400D02*
D03*
X13536900Y17462500D02*
D03*
X13691901D02*
D03*
X13684280Y17137379D02*
D03*
X13529280D02*
D03*
X13112720Y19540221D02*
D03*
X13267720D02*
D03*
X12057440Y16017239D02*
D03*
X11902440D02*
D03*
X11833980Y18272760D02*
D03*
X11678980D02*
D03*
X11673461Y18856960D02*
D03*
X11518461D02*
D03*
X10675678D02*
D03*
X10520678D02*
D03*
X13477180Y15090140D02*
D03*
X13632179D02*
D03*
X12363480Y16624300D02*
D03*
X12208480D02*
D03*
X14316740Y15308580D02*
D03*
X14161740D02*
D03*
X13867101Y15303500D02*
D03*
X14022099D02*
D03*
X11357640Y16040100D02*
D03*
X11202640D02*
D03*
X11357640Y15529559D02*
D03*
X11202640D02*
D03*
X11510100Y15052040D02*
D03*
X11355100D02*
D03*
D26*
X13008797Y14481622D02*
D03*
X13116560Y14373860D02*
D03*
X14222002Y12635958D02*
D03*
X14114238Y12743722D02*
D03*
X11658058Y13340622D02*
D03*
X11765822Y13232858D02*
D03*
X11651522Y13118558D02*
D03*
X11543758Y13226321D02*
D03*
X12482102Y14098997D02*
D03*
X12374338Y14206763D02*
D03*
D27*
X13789661Y14963139D02*
D03*
Y15115540D02*
D03*
X13383260Y15323820D02*
D03*
Y15476221D02*
D03*
X13220700Y15323820D02*
D03*
Y15476221D02*
D03*
X16073120Y18072099D02*
D03*
Y18224500D02*
D03*
X16407700Y12114500D02*
D03*
Y12266900D02*
D03*
X17911380Y12523440D02*
D03*
Y12371040D02*
D03*
X17916460Y12048460D02*
D03*
Y11896060D02*
D03*
X11717020Y15864841D02*
D03*
Y16017239D02*
D03*
X17223740Y14320520D02*
D03*
Y14168120D02*
D03*
X12964160Y15283180D02*
D03*
Y15130780D02*
D03*
X18564420Y13940500D02*
D03*
Y14092900D02*
D03*
X18561880Y14240221D02*
D03*
Y14392619D02*
D03*
X17183099Y11563100D02*
D03*
Y11410700D02*
D03*
X17350301Y11563060D02*
D03*
Y11410660D02*
D03*
X16415320Y11809700D02*
D03*
Y11962100D02*
D03*
X17220760Y13996381D02*
D03*
Y13843980D02*
D03*
X17388400D02*
D03*
Y13996381D02*
D03*
X17134840Y12458700D02*
D03*
Y12611100D02*
D03*
X17304320Y12459940D02*
D03*
Y12612340D02*
D03*
X17479840Y14562801D02*
D03*
Y14715199D02*
D03*
X17312199Y14562801D02*
D03*
Y14715199D02*
D03*
X12387580Y17180560D02*
D03*
Y17332961D02*
D03*
X12219940Y17180560D02*
D03*
Y17332961D02*
D03*
X14704060Y16004539D02*
D03*
Y15852139D02*
D03*
X16720821Y18544540D02*
D03*
Y18392140D02*
D03*
X15908020Y18224500D02*
D03*
Y18072099D02*
D03*
X16238220Y18224500D02*
D03*
Y18072099D02*
D03*
X17767300Y12976860D02*
D03*
Y13129260D02*
D03*
X17129761Y12913361D02*
D03*
Y12760960D02*
D03*
D28*
X12367802Y11867422D02*
D03*
X12260038Y11759658D02*
D03*
X14413959Y13987238D02*
D03*
X14521722Y14095003D02*
D03*
X14231078Y14274258D02*
D03*
X14338841Y14382022D02*
D03*
X14297118Y14104079D02*
D03*
X14404881Y14211842D02*
D03*
X14028963Y13655582D02*
D03*
X13921198Y13547818D02*
D03*
X13598618Y14299658D02*
D03*
X13706383Y14407422D02*
D03*
X13498102Y14191522D02*
D03*
X13390338Y14083759D02*
D03*
X14152338Y13352238D02*
D03*
X14260101Y13460002D02*
D03*
D29*
X12692380Y15207339D02*
D03*
X12565380D02*
D03*
X12438380D02*
D03*
X12311380D02*
D03*
Y15928340D02*
D03*
X12438380D02*
D03*
X12565380D02*
D03*
X12692380D02*
D03*
D30*
X12219287Y16789684D02*
D03*
Y17009685D02*
D03*
X12379288D02*
D03*
Y16789684D02*
D03*
D31*
X11965940Y14724380D02*
D03*
Y15171420D02*
D03*
X17129761Y18790919D02*
D03*
Y18343880D02*
D03*
X11097260Y18272760D02*
D03*
Y17825720D02*
D03*
X11104880Y18856960D02*
D03*
Y19303999D02*
D03*
D32*
X17936302Y19244421D02*
D03*
X17836302D02*
D03*
X17736302D02*
D03*
X17636302D02*
D03*
D33*
X18211302Y19489421D02*
D03*
X17361302D02*
D03*
D34*
X10926520Y15808000D02*
D03*
Y15758000D02*
D03*
Y15708000D02*
D03*
Y15658000D02*
D03*
Y15608000D02*
D03*
Y15858000D02*
D03*
Y15908000D02*
D03*
Y15958000D02*
D03*
D35*
Y16023000D02*
D03*
Y15542999D02*
D03*
Y15463000D02*
D03*
Y16103000D02*
D03*
D36*
X13370560Y10957560D02*
D03*
X13878560D02*
D03*
X13624561D02*
D03*
X13116560D02*
D03*
D37*
X14462759Y10233660D02*
D03*
X12786360D02*
D03*
D38*
X14132561Y10957560D02*
D03*
D39*
X16827060Y13663741D02*
D03*
Y13358740D02*
D03*
X16408400Y13662759D02*
D03*
Y13357761D02*
D03*
X17512860Y13483400D02*
D03*
Y13178400D02*
D03*
X17169960Y13178400D02*
D03*
Y13483400D02*
D03*
X12758420Y18918021D02*
D03*
Y18613020D02*
D03*
D40*
X16831920Y12865100D02*
D03*
X16431920D02*
D03*
X17658740Y11191240D02*
D03*
X18058740D02*
D03*
D41*
X13717461Y14631479D02*
D03*
X13607858Y14741081D02*
D03*
X13224701Y14484158D02*
D03*
X13115099Y14593761D02*
D03*
X14636942Y14207298D02*
D03*
X14527339Y14316901D02*
D03*
X13785658Y13859702D02*
D03*
X13895261Y13750099D02*
D03*
D42*
X17148100Y12022799D02*
D03*
D43*
X17068100Y12165300D02*
D03*
X17108099D02*
D03*
X17148100D02*
D03*
X17188100D02*
D03*
X17228101D02*
D03*
Y11880300D02*
D03*
X17188100D02*
D03*
X17148100D02*
D03*
X17108099D02*
D03*
X17068100D02*
D03*
D44*
X17290601Y12102800D02*
D03*
Y12062800D02*
D03*
Y12022799D02*
D03*
Y11982800D02*
D03*
Y11942800D02*
D03*
X17005600D02*
D03*
Y11982800D02*
D03*
Y12022799D02*
D03*
Y12062800D02*
D03*
Y12102800D02*
D03*
D45*
X13797708Y12455732D02*
D03*
X13857812Y12395628D02*
D03*
X12283440Y13614400D02*
D03*
X12223336Y13674504D02*
D03*
D46*
X13627100Y11299160D02*
D03*
Y11454160D02*
D03*
X13878560Y11355040D02*
D03*
Y11510040D02*
D03*
X12961620Y11348660D02*
D03*
Y11503659D02*
D03*
X19580859Y11883420D02*
D03*
Y11728420D02*
D03*
X16722659Y11960859D02*
D03*
Y11805860D02*
D03*
X16572800Y11810940D02*
D03*
Y11965939D02*
D03*
X17601500Y12044679D02*
D03*
Y11889680D02*
D03*
X17753900Y11892220D02*
D03*
Y12047219D02*
D03*
X16722659Y12120820D02*
D03*
Y12275819D02*
D03*
X16572800D02*
D03*
Y12120820D02*
D03*
X17764320Y13283881D02*
D03*
Y13438879D02*
D03*
X16672121Y15041560D02*
D03*
Y15196561D02*
D03*
X18257080Y13278799D02*
D03*
Y13433800D02*
D03*
X19580859Y11101040D02*
D03*
Y11256040D02*
D03*
X11211560Y15218381D02*
D03*
Y15373380D02*
D03*
X11673840Y11398280D02*
D03*
Y11243280D02*
D03*
X12189460Y11398280D02*
D03*
Y11243280D02*
D03*
X12814301Y11349960D02*
D03*
Y11504960D02*
D03*
X12666980Y11502420D02*
D03*
Y11347420D02*
D03*
X16888460Y18380679D02*
D03*
Y18535680D02*
D03*
D47*
X13381979Y11348720D02*
D03*
X13221980D02*
D03*
D48*
X10232420Y18567400D02*
D03*
X10679460D02*
D03*
X10883900D02*
D03*
X11330940D02*
D03*
X11523980D02*
D03*
X11971020D02*
D03*
X12900661Y14871700D02*
D03*
X12453620D02*
D03*
X14937740Y15410181D02*
D03*
X15384779D02*
D03*
X16047720D02*
D03*
X15600681D02*
D03*
D49*
X19524840Y15275560D02*
D03*
X19824840D02*
D03*
X19522301Y15031720D02*
D03*
X19822301D02*
D03*
Y15521941D02*
D03*
X19522301D02*
D03*
D50*
X13930821Y14631860D02*
D03*
X13821219Y14522260D02*
D03*
X13539661Y14583601D02*
D03*
X13430058Y14473999D02*
D03*
X13206538Y14253020D02*
D03*
X13316141Y14362621D02*
D03*
D51*
X14104021Y14043289D02*
D03*
X14259584Y13887726D02*
D03*
X14146448Y13774590D02*
D03*
X13990883Y13930151D02*
D03*
D52*
X18820959Y15106360D02*
D03*
X18541560D02*
D03*
D53*
X18843719Y14082739D02*
D03*
X19148720D02*
D03*
X16959241Y14791400D02*
D03*
X16654240D02*
D03*
D54*
X18870865Y11546560D02*
D03*
Y11451560D02*
D03*
Y11356559D02*
D03*
X18597815D02*
D03*
Y11451560D02*
D03*
Y11546560D02*
D03*
X11532870Y15878560D02*
D03*
Y15783560D02*
D03*
Y15688560D02*
D03*
X11259820D02*
D03*
Y15783560D02*
D03*
Y15878560D02*
D03*
D55*
X18351500Y11536680D02*
D03*
Y11356340D02*
D03*
D56*
X18099600Y13407100D02*
D03*
X17919260D02*
D03*
X17647479Y14854900D02*
D03*
X17827820D02*
D03*
D57*
X17970061Y14232600D02*
D03*
D58*
X18260060Y14655099D02*
D03*
X17680060D02*
D03*
Y14590100D02*
D03*
Y14525101D02*
D03*
Y14460100D02*
D03*
Y14395100D02*
D03*
Y14330099D02*
D03*
Y14265100D02*
D03*
Y14200101D02*
D03*
Y14135100D02*
D03*
Y14070100D02*
D03*
Y14005099D02*
D03*
Y13940100D02*
D03*
Y13875101D02*
D03*
Y13810100D02*
D03*
X18260060D02*
D03*
Y13875101D02*
D03*
Y13940100D02*
D03*
Y14005099D02*
D03*
Y14070100D02*
D03*
Y14135100D02*
D03*
Y14200101D02*
D03*
Y14265100D02*
D03*
Y14330099D02*
D03*
Y14395100D02*
D03*
Y14460100D02*
D03*
Y14525101D02*
D03*
Y14590100D02*
D03*
D59*
X16746220Y14421339D02*
D03*
Y14006340D02*
D03*
D60*
X18577119Y11975113D02*
D03*
X18577136Y12520113D02*
D03*
D61*
X18820413Y13487840D02*
D03*
X19365413Y13487823D02*
D03*
D62*
X19444720Y11316480D02*
D03*
X19254720D02*
D03*
X19349719Y11096480D02*
D03*
X19449800Y11941320D02*
D03*
X19259801D02*
D03*
X19354800Y11721320D02*
D03*
X12530840Y11461260D02*
D03*
X12340840D02*
D03*
X12435840Y11241260D02*
D03*
X13961198Y14896320D02*
D03*
X14151199D02*
D03*
X14056200Y15116319D02*
D03*
D63*
X18994119Y16357600D02*
D03*
Y16611600D02*
D03*
D64*
Y16865601D02*
D03*
D65*
X19718021Y16027400D02*
D03*
Y17195799D02*
D03*
D66*
X13271500Y18653760D02*
D03*
X13042900D02*
D03*
D67*
X10601180Y17183099D02*
D03*
X10841180D02*
D03*
D68*
X12758420Y19216859D02*
D03*
Y19456860D02*
D03*
D69*
X11612640Y10948780D02*
D03*
X12252640D02*
D03*
X12172640D02*
D03*
X11692640D02*
D03*
D70*
X11757640D02*
D03*
X11807640D02*
D03*
X11857640D02*
D03*
X12107640D02*
D03*
X12057640D02*
D03*
X12007640D02*
D03*
X11957640D02*
D03*
X11907640D02*
D03*
D71*
X11836900Y11576050D02*
D03*
X11931900D02*
D03*
X12026900D02*
D03*
Y11303000D02*
D03*
X11931900D02*
D03*
X11836900D02*
D03*
D87*
X17551401Y17624181D02*
D03*
D88*
Y16879179D02*
D03*
D89*
X10556240Y16764000D02*
D03*
Y17562000D02*
D03*
X19550380Y19778979D02*
D03*
X19321780Y19550380D02*
D03*
X19550380Y19321780D02*
D03*
X19778979Y19550380D02*
D03*
X19712025Y19712025D02*
D03*
X19388734D02*
D03*
Y19388734D02*
D03*
X19712025D02*
D03*
X10450000Y19778600D02*
D03*
X10221400Y19550000D02*
D03*
X10450000Y19321400D02*
D03*
X10678600Y19550000D02*
D03*
X10611645Y19711646D02*
D03*
X10288355D02*
D03*
Y19388354D02*
D03*
X10611645D02*
D03*
D90*
X10784840Y16072000D02*
D03*
Y15494000D02*
D03*
X12221640Y10807100D02*
D03*
X11643640D02*
D03*
D91*
X10834840Y16214999D02*
D03*
Y15350999D02*
D03*
D92*
X10419840Y16214999D02*
D03*
Y15350999D02*
D03*
D93*
X19796761Y11427460D02*
D03*
D94*
Y11684000D02*
D03*
D95*
X19331940Y10193020D02*
D03*
D96*
X19811940Y10533020D02*
D03*
D97*
X19331940Y10823020D02*
D03*
D98*
X19550380Y19550380D02*
D03*
X10450000Y19550000D02*
D03*
D99*
X12364640Y10442100D02*
D03*
X11500640D02*
D03*
D100*
X12364640Y10857100D02*
D03*
X11500640D02*
D03*
%TF.MD5,4b1c5c879cf236c5f611b0f1eebe84e4*%
M02*
