%TF.GenerationSoftware,Altium Limited,Altium Designer,22.10.1 (41)*%
G04 Layer_Color=65535*
%FSLAX45Y45*%
%MOMM*%
%TF.SameCoordinates,DED9D2F0-87CF-4F18-B91E-279B35946A49*%
%TF.FilePolarity,Positive*%
%TF.FileFunction,Legend,Top*%
%TF.Part,Single*%
G01*
G75*
%TA.AperFunction,NonConductor*%
%ADD114C,0.20000*%
%ADD115C,0.12700*%
%ADD116C,0.25400*%
%ADD117C,0.51200*%
%ADD118C,0.15200*%
%ADD138C,0.25000*%
%ADD139C,0.15240*%
%ADD140C,0.15000*%
%ADD141C,0.17780*%
%ADD142C,0.10000*%
D114*
X15377000Y10111700D02*
G03*
X15377000Y10111700I-10000J0D01*
G01*
X12786200Y16014706D02*
G03*
X12786200Y16014706I-10000J0D01*
G01*
X17646301Y19084421D02*
G03*
X17646301Y19084421I-10000J0D01*
G01*
X10738960Y15176540D02*
G03*
X10738960Y15176540I-10000J0D01*
G01*
X19024440Y10815320D02*
G03*
X19024440Y10815320I-10000J0D01*
G01*
X18530980Y11601420D02*
G03*
X18530980Y11601420I-10000J0D01*
G01*
X17687959Y14722820D02*
G03*
X17687959Y14722820I-10000J0D01*
G01*
X15905321Y10111700D02*
G03*
X15905321Y10111700I-10000J0D01*
G01*
X10192860Y15176540D02*
G03*
X10192860Y15176540I-10000J0D01*
G01*
X11165680Y15877541D02*
G03*
X11165680Y15877541I-10000J0D01*
G01*
X11847920Y11210925D02*
G03*
X11847920Y11210925I-10000J0D01*
G01*
X18373920Y14956500D02*
Y15032700D01*
X18221519Y14956500D02*
Y15032700D01*
X18336302Y19669421D02*
Y19884421D01*
X17236302D02*
X18336302D01*
X17236302Y19669421D02*
Y19884421D01*
X16944560Y13736240D02*
X16967059D01*
X16944560Y13286240D02*
X16967059D01*
X16687061Y13736240D02*
X16709560D01*
X16687061Y13286240D02*
X16709560D01*
X16967059D02*
Y13736240D01*
X16687061Y13286240D02*
Y13736240D01*
X16525900Y13735260D02*
X16548399D01*
X16525900Y13285260D02*
X16548399D01*
X16268401Y13735260D02*
X16290900D01*
X16268401Y13285260D02*
X16290900D01*
X16548399D02*
Y13735260D01*
X16268401Y13285260D02*
Y13735260D01*
X16606920Y12560100D02*
X16656920D01*
X16606920Y13170100D02*
X16656920D01*
X18473421Y12885420D02*
Y12961620D01*
X18625819Y12885420D02*
Y12961620D01*
X17053760Y11283080D02*
Y11333080D01*
X16443761Y11283080D02*
Y11333080D01*
X17833740Y11496240D02*
X17883740D01*
X17833740Y10886240D02*
X17883740D01*
X16978101Y11852800D02*
X17013101D01*
X16978101D02*
Y11887799D01*
X17283101Y11852800D02*
X17318100D01*
Y11887799D01*
Y12157799D02*
Y12192800D01*
X17283101D02*
X17318100D01*
X16978101D02*
X17013101D01*
X16978101Y12157799D02*
Y12192800D01*
X19624840Y15360561D02*
X19724840D01*
X19624840Y15190559D02*
X19724840D01*
X19622301Y15116721D02*
X19722301D01*
X19622301Y14946719D02*
X19722301D01*
X18993680Y14458659D02*
Y14534860D01*
X18841280Y14458659D02*
Y14534860D01*
X18643159Y15030161D02*
X18719360D01*
X18643159Y15182561D02*
X18719360D01*
X18771220Y14222740D02*
X19221220D01*
X18771220Y13942740D02*
X19221220D01*
X18771220Y14200240D02*
Y14222740D01*
X19221220Y14200240D02*
Y14222740D01*
X18771220Y13942740D02*
Y13965240D01*
X19221220Y13942740D02*
Y13965240D01*
X17652859Y13105901D02*
Y13555901D01*
X17372861Y13105901D02*
Y13555901D01*
X17630360D02*
X17652859D01*
X17630360Y13105901D02*
X17652859D01*
X17372861Y13555901D02*
X17395360D01*
X17372861Y13105901D02*
X17395360D01*
X17029961Y13105901D02*
Y13555901D01*
X17309959Y13105901D02*
Y13555901D01*
X17029961Y13105901D02*
X17052460D01*
X17029961Y13555901D02*
X17052460D01*
X17287460Y13105901D02*
X17309959D01*
X17287460Y13555901D02*
X17309959D01*
X18303239Y12885420D02*
Y12961620D01*
X18150841Y12885420D02*
Y12961620D01*
X16581740Y14651401D02*
X17031740D01*
X16581740Y14931400D02*
X17031740D01*
Y14651401D02*
Y14673900D01*
X16581740Y14651401D02*
Y14673900D01*
X17031740Y14908900D02*
Y14931400D01*
X16581740Y14908900D02*
Y14931400D01*
X17959900Y14956500D02*
Y15032700D01*
X18112300Y14956500D02*
Y15032700D01*
X19781940Y10758020D02*
Y10883020D01*
X19576939D02*
X19781940D01*
X18881940D02*
X19086940D01*
X18881940Y10089300D02*
Y10883020D01*
X19781940Y10091820D02*
Y10308020D01*
X19622301Y15436940D02*
X19722301D01*
X19622301Y15606940D02*
X19722301D01*
X12898421Y18540520D02*
Y18990520D01*
X12618420Y18540520D02*
Y18990520D01*
X12875920D02*
X12898421D01*
X12875920Y18540520D02*
X12898421D01*
X12618420Y18990520D02*
X12640920D01*
X12618420Y18540520D02*
X12640920D01*
X10746580Y17157700D02*
Y17207700D01*
X10696180Y17081500D02*
X10746180D01*
X10696180Y17284700D02*
X10746180D01*
X19252760Y14463741D02*
Y14539940D01*
X19100360Y14463741D02*
Y14539940D01*
X12733820Y19362260D02*
X12783820D01*
X12860020Y19311861D02*
Y19361861D01*
X12656820Y19311861D02*
Y19361861D01*
D115*
X17298309Y17947054D02*
G03*
X17238667Y17922350I253096J-695375D01*
G01*
X17126952Y17857851D02*
G03*
X17075735Y17818552I424447J-606173D01*
G01*
X16984528Y17727344D02*
G03*
X16945229Y17676128I566872J-475662D01*
G01*
X16880734Y17564420D02*
G03*
X16856029Y17504778I670662J-312735D01*
G01*
X16822643Y17380183D02*
G03*
X16814217Y17316177I728758J-128500D01*
G01*
X16814217Y17187183D02*
G03*
X16822643Y17123180I737186J64495D01*
G01*
X16856027Y16998589D02*
G03*
X16880733Y16938945I695371J253094D01*
G01*
X16945226Y16827235D02*
G03*
X17056241Y16701755I606174J424447D01*
G01*
X17039272Y16646680D02*
G03*
X17059346Y16698975I0J30000D01*
G01*
X16953023Y16646680D02*
G03*
X16873022Y16566679I0J-80000D01*
G01*
Y16531680D02*
G03*
X16953023Y16451680I80000J0D01*
G01*
X18149777D02*
G03*
X18229778Y16531680I0J80000D01*
G01*
Y16566679D02*
G03*
X18149777Y16646680I-80000J0D01*
G01*
X18043454Y16698975D02*
G03*
X18063528Y16646680I20074J-22295D01*
G01*
X18046558Y16701755D02*
G03*
X18157573Y16827234I-495156J549927D01*
G01*
X18222067Y16938945D02*
G03*
X18246773Y16998589I-670668J312737D01*
G01*
X18280159Y17123187D02*
G03*
X18288585Y17187190I-728759J128500D01*
G01*
X18288583Y17316171D02*
G03*
X18280157Y17380176I-737186J-64495D01*
G01*
X18246771Y17504778D02*
G03*
X18222067Y17564420I-695369J-253094D01*
G01*
X18157571Y17676128D02*
G03*
X18118272Y17727344I-606172J-424446D01*
G01*
X18027058Y17818556D02*
G03*
X17975842Y17857857I-475666J-566877D01*
G01*
X17864137Y17922348D02*
G03*
X17804494Y17947052I-312738J-670668D01*
G01*
X19890379Y19550380D02*
G03*
X19890379Y19550380I-340000J0D01*
G01*
X10790000Y19550000D02*
G03*
X10790000Y19550000I-340000J0D01*
G01*
X18229488Y17007115D02*
X18266656Y17127213D01*
X17298586Y17947156D02*
X17301749Y17933238D01*
X17236040Y17921118D02*
X17245062Y17904007D01*
X17133859Y17845369D02*
X17245062Y17904007D01*
X17127190Y17858017D02*
X17133859Y17845369D01*
X17073508Y17816673D02*
X17086668Y17802461D01*
X16994434Y17717039D02*
X17086668Y17802461D01*
X16984700Y17727550D02*
X16994434Y17717039D01*
X16943546Y17673714D02*
X16959956Y17663382D01*
X16892970Y17556998D02*
X16959956Y17663382D01*
X16880835Y17564639D02*
X16892970Y17556998D01*
X16855017Y17501982D02*
X16873557Y17496245D01*
X16836389Y17376147D02*
X16873557Y17496245D01*
X16822681Y17380391D02*
X16836389Y17376147D01*
X16813960Y17313185D02*
X16833360Y17312440D01*
X16828542Y17186816D02*
X16833360Y17312440D01*
X16814200Y17187367D02*
X16828542Y17186816D01*
X16823175Y17120193D02*
X16842105Y17124496D01*
X16869965Y17001906D01*
X16855975Y16998727D02*
X16869965Y17001906D01*
X16882033Y16936169D02*
X16899194Y16945219D01*
X16957834Y16834016D01*
X16945158Y16827332D02*
X16957834Y16834016D01*
X16953023Y16646680D02*
X17039272D01*
X16873022Y16531680D02*
Y16566679D01*
X16953023Y16451680D02*
X17175023D01*
X17927777D02*
X18149777D01*
X18229778Y16531680D02*
Y16566679D01*
X18063528Y16646680D02*
X18149777D01*
X18143089Y16839978D02*
X18159329Y16829753D01*
X18143089Y16839978D02*
X18210074Y16946362D01*
X18222020Y16938841D01*
X18229488Y17007115D02*
X18247807Y17001447D01*
X18266656Y17127213D02*
X18280133Y17123041D01*
X18269685Y17190919D02*
X18288840Y17190186D01*
X18269685Y17190919D02*
X18274504Y17316544D01*
X18288599Y17316002D01*
X18260941Y17378864D02*
X18279636Y17383112D01*
X18233081Y17501454D02*
X18260941Y17378864D01*
X18233081Y17501454D02*
X18246843Y17504582D01*
X18203850Y17558141D02*
X18220816Y17567088D01*
X18145210Y17669344D02*
X18203850Y17558141D01*
X18145210Y17669344D02*
X18157709Y17675932D01*
X18102306Y17716533D02*
X18116389Y17729578D01*
X18016882Y17808771D02*
X18102306Y17716533D01*
X18016882Y17808771D02*
X18027264Y17818384D01*
X17963223Y17843246D02*
X17973466Y17859512D01*
X17856841Y17910233D02*
X17963223Y17843246D01*
X17856841Y17910233D02*
X17864394Y17922227D01*
X17796088Y17929646D02*
X17801778Y17948035D01*
X17111400Y16291679D02*
X17191400D01*
X17151401Y16251680D02*
Y16331680D01*
X15113000Y15182660D02*
X15367000D01*
X15113000Y10110660D02*
X15367000D01*
Y15155161D02*
Y15182660D01*
Y10110660D02*
Y10138160D01*
X15113000Y10110660D02*
Y10138160D01*
Y15155161D02*
Y15182660D01*
X12237880Y15303841D02*
Y15831841D01*
X12765880Y15303841D02*
Y15831841D01*
X10728960Y10105580D02*
X10982960D01*
X10728960Y15177580D02*
X10982960D01*
X10728960Y10105580D02*
Y10133080D01*
Y15150079D02*
Y15177580D01*
X10982960Y15150079D02*
Y15177580D01*
Y10105580D02*
Y10133080D01*
X17750060Y14709599D02*
Y14717599D01*
Y13747600D02*
Y13755600D01*
X18190060Y14709599D02*
Y14717599D01*
Y13747600D02*
Y13755600D01*
X17750060Y14717599D02*
X17768060D01*
X18172060D02*
X18190060D01*
X17750060Y13747600D02*
X17768060D01*
X18172060D02*
X18190060D01*
X15641319Y15155161D02*
Y15182660D01*
Y10110660D02*
Y10138160D01*
X15895320Y10110660D02*
Y10138160D01*
Y15155161D02*
Y15182660D01*
X15641319Y10110660D02*
X15895320D01*
X15641319Y15182660D02*
X15895320D01*
X10436860Y10105580D02*
Y10133080D01*
Y15150079D02*
Y15177580D01*
X10182860Y15150079D02*
Y15177580D01*
Y10105580D02*
Y10133080D01*
Y15177580D02*
X10436860D01*
X10182860Y10105580D02*
X10436860D01*
D116*
X13920332Y18622508D02*
G03*
X13920332Y18622508I-10000J0D01*
G01*
X16365221Y13858240D02*
G03*
X16390620Y13832840I25400J0D01*
G01*
Y14594839D02*
G03*
X16365221Y14569440I0J-25400D01*
G01*
X17101820Y13832840D02*
G03*
X17127220Y13858240I0J25400D01*
G01*
Y14569440D02*
G03*
X17101820Y14594839I-25400J0D01*
G01*
X10779760Y18092419D02*
X11706860D01*
Y17609821D02*
Y18092419D01*
X10132060D02*
X10431780D01*
X10132060Y17757140D02*
Y18092419D01*
Y16383000D02*
Y16537939D01*
Y16383000D02*
X10454640D01*
X10756900D02*
X11706860D01*
Y16537939D01*
X13705341Y19182500D02*
Y19255200D01*
X13706340Y18692500D02*
Y18807500D01*
Y18692500D02*
X13821339D01*
X13705341Y19255200D02*
X16754340D01*
X16639340Y18692500D02*
X16754340D01*
Y19182500D02*
Y19255200D01*
Y18692500D02*
Y18807500D01*
X13920340Y19256609D02*
Y19507208D01*
X16510579Y19254813D02*
Y19505412D01*
X13848741Y12898781D02*
Y12930479D01*
X12932410Y13846809D02*
X13848741Y12930479D01*
X11978640Y12893040D02*
X12932410Y13846809D01*
X11978640Y12893040D02*
X12910820Y11960860D01*
X13848741Y12898781D01*
X10498420Y15838600D02*
X10549220Y15787801D01*
X10498420Y15737000D02*
X10549220Y15787801D01*
X10320620D02*
X10549220D01*
X10126257Y15314026D02*
Y16250591D01*
Y15314026D02*
X10265083D01*
X10126257Y16250591D02*
X10265083D01*
X10556520Y15314026D02*
X10677936D01*
X10556520Y16250591D02*
X10677936D01*
X11001081D02*
X11069511D01*
Y15314026D02*
Y16250591D01*
X11001081Y15314026D02*
X11069511D01*
X14513560Y10449560D02*
Y11071860D01*
X14259560D02*
X14513560D01*
X12735560Y10449560D02*
Y11071860D01*
X12989560D01*
X12926060Y10081260D02*
X14323061D01*
X16365221Y13858240D02*
Y14569440D01*
X17127220Y13858240D02*
Y14569440D01*
X16390620Y14594839D02*
X17101820D01*
X16390620Y13832840D02*
X17101820D01*
X18197127Y12657613D02*
X18323128D01*
X18197127Y11837613D02*
Y12657613D01*
Y11837613D02*
X18323128D01*
X18831126D02*
X18957127D01*
Y12657613D01*
X18831126D02*
X18957127D01*
X19502913Y13741833D02*
Y13867833D01*
X18682913D02*
X19502913D01*
X18682913Y13741833D02*
Y13867833D01*
Y13107832D02*
Y13233833D01*
Y13107832D02*
X19502913D01*
Y13233833D01*
X19870419Y16167101D02*
Y17056100D01*
X18879820Y15976601D02*
Y16230600D01*
Y15976601D02*
X19502119D01*
X18879820Y16992599D02*
Y17246600D01*
X19502119D01*
X12401614Y11023341D02*
Y11091771D01*
X11465049D02*
X12401614D01*
X11465049Y11023341D02*
Y11091771D01*
Y10578780D02*
Y10700197D01*
X12401614Y10578780D02*
Y10700197D01*
X11465049Y10148517D02*
Y10287343D01*
X12401614Y10148517D02*
Y10287343D01*
X11465049Y10148517D02*
X12401614D01*
X11927840Y10342880D02*
Y10571480D01*
X11978640Y10520680D01*
X11877040D02*
X11927840Y10571480D01*
X12550140Y19248422D02*
Y19181776D01*
X12583463Y19215099D02*
X12516817D01*
X10454942Y17180559D02*
X10388297D01*
X10421619Y17147237D02*
Y17213882D01*
X12563445Y14656708D02*
X12496800D01*
Y14606725D01*
X12530123D01*
X12496800D01*
Y14556740D01*
X12596768D02*
Y14656708D01*
X12646752D01*
X12663413Y14640047D01*
Y14606725D01*
X12646752Y14590063D01*
X12596768D01*
X12630090D02*
X12663413Y14556740D01*
X12763381Y14640047D02*
X12746719Y14656708D01*
X12713397D01*
X12696736Y14640047D01*
Y14623386D01*
X12713397Y14606725D01*
X12746719D01*
X12763381Y14590063D01*
Y14573401D01*
X12746719Y14556740D01*
X12713397D01*
X12696736Y14573401D01*
X12796703Y14656708D02*
X12863348D01*
X12830026D01*
Y14556740D01*
X11555065Y14834508D02*
X11488420D01*
Y14784525D01*
X11521743D01*
X11488420D01*
Y14734540D01*
X11655033Y14834508D02*
X11588388D01*
Y14734540D01*
X11655033D01*
X11588388Y14784525D02*
X11621710D01*
X11688356Y14834508D02*
Y14734540D01*
X11755001D01*
X14686279Y15720969D02*
Y15621001D01*
X14719603Y15654323D01*
X14752925Y15621001D01*
Y15720969D01*
X14786247Y15621001D02*
Y15720969D01*
Y15654323D02*
X14836232Y15687645D01*
X14786247Y15654323D02*
X14836232Y15621001D01*
X14886217Y15720969D02*
Y15637662D01*
X14902876Y15621001D01*
X14936198D01*
X14952861Y15637662D01*
Y15720969D01*
X14986183Y15621001D02*
Y15720969D01*
X15036166D01*
X15052827Y15704306D01*
Y15670984D01*
X15036166Y15654323D01*
X14986183D01*
X15718124Y15714465D02*
X15701463Y15731128D01*
X15668141D01*
X15651480Y15714465D01*
Y15697804D01*
X15668141Y15681145D01*
X15701463D01*
X15718124Y15664484D01*
Y15647821D01*
X15701463Y15631160D01*
X15668141D01*
X15651480Y15647821D01*
X15751448Y15631160D02*
Y15731128D01*
X15801431D01*
X15818092Y15714465D01*
Y15681145D01*
X15801431Y15664484D01*
X15751448D01*
X15784770D02*
X15818092Y15631160D01*
X15918060Y15714465D02*
X15901399Y15731128D01*
X15868077D01*
X15851416Y15714465D01*
Y15697804D01*
X15868077Y15681145D01*
X15901399D01*
X15918060Y15664484D01*
Y15647821D01*
X15901399Y15631160D01*
X15868077D01*
X15851416Y15647821D01*
X15951382Y15731128D02*
X16018028D01*
X15984706D01*
Y15631160D01*
X13197176Y11191572D02*
X13111481D01*
X13154327Y11234420D02*
Y11148724D01*
X19394775Y15280972D02*
X19309081D01*
X19351929Y15323820D02*
Y15238124D01*
X19394775Y15029512D02*
X19309081D01*
X19351929Y15072360D02*
Y14986664D01*
X19758659Y11925603D02*
X19825305D01*
X19791983Y11958925D02*
Y11892280D01*
X19397316Y15524812D02*
X19311620D01*
X19354468Y15567661D02*
Y15481964D01*
D117*
X11827580Y19349719D02*
G03*
X11827580Y19349719I-75000J0D01*
G01*
X11697073Y19598288D02*
X11752580Y19657060D01*
X11808087Y19598288D01*
X11752580Y19504660D02*
Y19657060D01*
X11999731Y19292876D02*
X12059920Y19349719D01*
X11907520D02*
X12059920D01*
X12001148Y19405228D02*
X12059920Y19349719D01*
X11695735Y19102570D02*
X11752580Y19042380D01*
Y19194780D01*
Y19042380D02*
X11808087Y19101152D01*
X11445240Y19349719D02*
X11505429Y19406564D01*
X11445240Y19349719D02*
X11597640D01*
X11445240D02*
X11504012Y19294212D01*
D118*
X10084428Y17023018D02*
Y16950462D01*
X10089265Y16935951D01*
X10098939Y16926277D01*
X10113450Y16921440D01*
X10123125D01*
X10137636Y16926277D01*
X10147310Y16935951D01*
X10152147Y16950462D01*
Y17023018D01*
X10089265D02*
Y16950462D01*
X10094102Y16935951D01*
X10103776Y16926277D01*
X10113450Y16921440D01*
X10069917Y17023018D02*
X10103776D01*
X10137636D02*
X10166658D01*
X10227121Y16979485D02*
X10231958Y16989159D01*
Y16969810D01*
X10227121Y16979485D01*
X10222284Y16984322D01*
X10212610Y16989159D01*
X10193262D01*
X10183588Y16984322D01*
X10178751Y16979485D01*
Y16969810D01*
X10183588Y16964973D01*
X10193262Y16960136D01*
X10217447Y16950462D01*
X10227121Y16945625D01*
X10231958Y16940788D01*
X10178751Y16974648D02*
X10183588Y16969810D01*
X10193262Y16964973D01*
X10217447Y16955299D01*
X10227121Y16950462D01*
X10231958Y16945625D01*
Y16931114D01*
X10227121Y16926277D01*
X10217447Y16921440D01*
X10198099D01*
X10188425Y16926277D01*
X10183588Y16931114D01*
X10178751Y16940788D01*
Y16921440D01*
X10183588Y16931114D01*
X10253242Y16960136D02*
X10311286D01*
Y16969810D01*
X10306449Y16979485D01*
X10301612Y16984322D01*
X10291938Y16989159D01*
X10277427D01*
X10262916Y16984322D01*
X10253242Y16974648D01*
X10248404Y16960136D01*
Y16950462D01*
X10253242Y16935951D01*
X10262916Y16926277D01*
X10277427Y16921440D01*
X10287101D01*
X10301612Y16926277D01*
X10311286Y16935951D01*
X10306449Y16960136D02*
Y16974648D01*
X10301612Y16984322D01*
X10277427Y16989159D02*
X10267753Y16984322D01*
X10258079Y16974648D01*
X10253242Y16960136D01*
Y16950462D01*
X10258079Y16935951D01*
X10267753Y16926277D01*
X10277427Y16921440D01*
X10384809Y17023018D02*
Y16921440D01*
X10389646Y17023018D02*
Y16921440D01*
X10384809Y16974648D02*
X10375135Y16984322D01*
X10365461Y16989159D01*
X10355787D01*
X10341276Y16984322D01*
X10331602Y16974648D01*
X10326765Y16960136D01*
Y16950462D01*
X10331602Y16935951D01*
X10341276Y16926277D01*
X10355787Y16921440D01*
X10365461D01*
X10375135Y16926277D01*
X10384809Y16935951D01*
X10355787Y16989159D02*
X10346113Y16984322D01*
X10336439Y16974648D01*
X10331602Y16960136D01*
Y16950462D01*
X10336439Y16935951D01*
X10346113Y16926277D01*
X10355787Y16921440D01*
X10370298Y17023018D02*
X10389646D01*
X10384809Y16921440D02*
X10404158D01*
X10548302Y17018181D02*
X10543465Y17013344D01*
X10548302Y17008507D01*
X10553139Y17013344D01*
Y17018181D01*
X10548302Y17023018D01*
X10538628D01*
X10528954Y17018181D01*
X10524117Y17008507D01*
Y16921440D01*
X10538628Y17023018D02*
X10533791Y17018181D01*
X10528954Y17008507D01*
Y16921440D01*
X10509606Y16989159D02*
X10548302D01*
X10509606Y16921440D02*
X10543465D01*
X10599575Y16989159D02*
X10585064Y16984322D01*
X10575390Y16974648D01*
X10570553Y16960136D01*
Y16950462D01*
X10575390Y16935951D01*
X10585064Y16926277D01*
X10599575Y16921440D01*
X10609249D01*
X10623760Y16926277D01*
X10633434Y16935951D01*
X10638272Y16950462D01*
Y16960136D01*
X10633434Y16974648D01*
X10623760Y16984322D01*
X10609249Y16989159D01*
X10599575D01*
X10589901Y16984322D01*
X10580227Y16974648D01*
X10575390Y16960136D01*
Y16950462D01*
X10580227Y16935951D01*
X10589901Y16926277D01*
X10599575Y16921440D01*
X10609249D02*
X10618923Y16926277D01*
X10628597Y16935951D01*
X10633434Y16950462D01*
Y16960136D01*
X10628597Y16974648D01*
X10618923Y16984322D01*
X10609249Y16989159D01*
X10667778D02*
Y16921440D01*
X10672615Y16989159D02*
Y16921440D01*
Y16960136D02*
X10677452Y16974648D01*
X10687126Y16984322D01*
X10696800Y16989159D01*
X10711311D01*
X10716148Y16984322D01*
Y16979485D01*
X10711311Y16974648D01*
X10706474Y16979485D01*
X10711311Y16984322D01*
X10653266Y16989159D02*
X10672615D01*
X10653266Y16921440D02*
X10687126D01*
X10837558Y17023018D02*
Y16921440D01*
X10842395Y17023018D02*
Y16921440D01*
Y16974648D02*
X10852069Y16984322D01*
X10861744Y16989159D01*
X10871418D01*
X10885929Y16984322D01*
X10895603Y16974648D01*
X10900440Y16960136D01*
Y16950462D01*
X10895603Y16935951D01*
X10885929Y16926277D01*
X10871418Y16921440D01*
X10861744D01*
X10852069Y16926277D01*
X10842395Y16935951D01*
X10871418Y16989159D02*
X10881092Y16984322D01*
X10890766Y16974648D01*
X10895603Y16960136D01*
Y16950462D01*
X10890766Y16935951D01*
X10881092Y16926277D01*
X10871418Y16921440D01*
X10823047Y17023018D02*
X10842395D01*
X10943490Y16989159D02*
X10928979Y16984322D01*
X10919305Y16974648D01*
X10914468Y16960136D01*
Y16950462D01*
X10919305Y16935951D01*
X10928979Y16926277D01*
X10943490Y16921440D01*
X10953164D01*
X10967675Y16926277D01*
X10977349Y16935951D01*
X10982187Y16950462D01*
Y16960136D01*
X10977349Y16974648D01*
X10967675Y16984322D01*
X10953164Y16989159D01*
X10943490D01*
X10933816Y16984322D01*
X10924142Y16974648D01*
X10919305Y16960136D01*
Y16950462D01*
X10924142Y16935951D01*
X10933816Y16926277D01*
X10943490Y16921440D01*
X10953164D02*
X10962838Y16926277D01*
X10972512Y16935951D01*
X10977349Y16950462D01*
Y16960136D01*
X10972512Y16974648D01*
X10962838Y16984322D01*
X10953164Y16989159D01*
X11026204D02*
X11011693Y16984322D01*
X11002019Y16974648D01*
X10997181Y16960136D01*
Y16950462D01*
X11002019Y16935951D01*
X11011693Y16926277D01*
X11026204Y16921440D01*
X11035878D01*
X11050389Y16926277D01*
X11060063Y16935951D01*
X11064900Y16950462D01*
Y16960136D01*
X11060063Y16974648D01*
X11050389Y16984322D01*
X11035878Y16989159D01*
X11026204D01*
X11016530Y16984322D01*
X11006856Y16974648D01*
X11002019Y16960136D01*
Y16950462D01*
X11006856Y16935951D01*
X11016530Y16926277D01*
X11026204Y16921440D01*
X11035878D02*
X11045552Y16926277D01*
X11055226Y16935951D01*
X11060063Y16950462D01*
Y16960136D01*
X11055226Y16974648D01*
X11045552Y16984322D01*
X11035878Y16989159D01*
X11108918Y16921440D02*
X11104081Y16926277D01*
X11099243Y16940788D01*
Y17023018D01*
X11094407D01*
Y16940788D01*
X11099243Y16926277D01*
X11108918Y16921440D01*
X11118592D01*
X11128266Y16926277D01*
X11133103Y16935951D01*
X11079895Y16989159D02*
X11118592D01*
X11164060Y17023018D02*
Y16921440D01*
X11168897Y17023018D02*
Y16921440D01*
X11149549Y17023018D02*
X11168897D01*
X11149549Y16921440D02*
X11183408D01*
X11230811Y16989159D02*
X11216300Y16984322D01*
X11206626Y16974648D01*
X11201789Y16960136D01*
Y16950462D01*
X11206626Y16935951D01*
X11216300Y16926277D01*
X11230811Y16921440D01*
X11240486D01*
X11254997Y16926277D01*
X11264671Y16935951D01*
X11269508Y16950462D01*
Y16960136D01*
X11264671Y16974648D01*
X11254997Y16984322D01*
X11240486Y16989159D01*
X11230811D01*
X11221137Y16984322D01*
X11211463Y16974648D01*
X11206626Y16960136D01*
Y16950462D01*
X11211463Y16935951D01*
X11221137Y16926277D01*
X11230811Y16921440D01*
X11240486D02*
X11250160Y16926277D01*
X11259834Y16935951D01*
X11264671Y16950462D01*
Y16960136D01*
X11259834Y16974648D01*
X11250160Y16984322D01*
X11240486Y16989159D01*
X11294177Y16979485D02*
Y16974648D01*
X11289340D01*
Y16979485D01*
X11294177Y16984322D01*
X11303851Y16989159D01*
X11323199D01*
X11332873Y16984322D01*
X11337711Y16979485D01*
X11342548Y16969810D01*
Y16935951D01*
X11347385Y16926277D01*
X11352222Y16921440D01*
X11337711Y16979485D02*
Y16935951D01*
X11342548Y16926277D01*
X11352222Y16921440D01*
X11357059D01*
X11337711Y16969810D02*
X11332873Y16964973D01*
X11303851Y16960136D01*
X11289340Y16955299D01*
X11284503Y16945625D01*
Y16935951D01*
X11289340Y16926277D01*
X11303851Y16921440D01*
X11318362D01*
X11328037Y16926277D01*
X11337711Y16935951D01*
X11303851Y16960136D02*
X11294177Y16955299D01*
X11289340Y16945625D01*
Y16935951D01*
X11294177Y16926277D01*
X11303851Y16921440D01*
X11429615Y17023018D02*
Y16921440D01*
X11434452Y17023018D02*
Y16921440D01*
X11429615Y16974648D02*
X11419941Y16984322D01*
X11410266Y16989159D01*
X11400592D01*
X11386081Y16984322D01*
X11376407Y16974648D01*
X11371570Y16960136D01*
Y16950462D01*
X11376407Y16935951D01*
X11386081Y16926277D01*
X11400592Y16921440D01*
X11410266D01*
X11419941Y16926277D01*
X11429615Y16935951D01*
X11400592Y16989159D02*
X11390918Y16984322D01*
X11381244Y16974648D01*
X11376407Y16960136D01*
Y16950462D01*
X11381244Y16935951D01*
X11390918Y16926277D01*
X11400592Y16921440D01*
X11415104Y17023018D02*
X11434452D01*
X11429615Y16921440D02*
X11448963D01*
D138*
X14191760Y15818640D02*
G03*
X14191760Y15818640I-12500J0D01*
G01*
X13964720Y12979401D02*
G03*
X13964720Y12979401I-12500J0D01*
G01*
X12514988Y16772684D02*
G03*
X12514988Y16772684I-12500J0D01*
G01*
X16707060Y13221240D02*
G03*
X16707060Y13221240I-12500J0D01*
G01*
X16288400Y13220261D02*
G03*
X16288400Y13220261I-12500J0D01*
G01*
X16925601Y12177800D02*
G03*
X16925601Y12177800I-12500J0D01*
G01*
X13904247Y13855057D02*
G03*
X13904247Y13855057I-12500J0D01*
G01*
X18718719Y14215240D02*
G03*
X18718719Y14215240I-12500J0D01*
G01*
X17657860Y13620900D02*
G03*
X17657860Y13620900I-12500J0D01*
G01*
X17049960Y13040900D02*
G03*
X17049960Y13040900I-12500J0D01*
G01*
X17109241Y14658900D02*
G03*
X17109241Y14658900I-12500J0D01*
G01*
X12903419Y19055521D02*
G03*
X12903419Y19055521I-12500J0D01*
G01*
D139*
X14290041Y15902940D02*
Y16057880D01*
X14589760Y15902940D02*
Y16060420D01*
X17288020Y16101060D02*
Y16164560D01*
X17354060D01*
X17290559Y15875000D02*
Y15938499D01*
Y15875000D02*
X17356599D01*
X13147040Y11275060D02*
X13451840D01*
X13147040D02*
Y11422380D01*
X12899239Y14476234D02*
X13010593Y14587590D01*
X13112968Y14266096D02*
X13222527Y14375656D01*
X13713460Y14889481D02*
X13870940D01*
X13713460Y15189200D02*
X13868401D01*
X13395959Y15006320D02*
Y15163800D01*
X13096240Y15006320D02*
Y15161259D01*
X12362413Y11976981D02*
X12473769Y11865625D01*
X12152275Y11763251D02*
X12261835Y11653691D01*
X14306195Y13990831D02*
X14415755Y13881271D01*
X14516333Y14204561D02*
X14627689Y14093205D01*
X13307060Y15250160D02*
X13464540D01*
X13307060Y15549879D02*
X13462000D01*
X13144501Y15250160D02*
X13301981D01*
X13144501Y15549879D02*
X13299440D01*
X12118340Y14693900D02*
Y15201900D01*
X11813540Y14693900D02*
Y15201900D01*
Y14693900D02*
X11846560D01*
X11813540Y15201900D02*
X11846560D01*
X12085320D02*
X12118340D01*
X12085320Y14693900D02*
X12118340D01*
X16977361Y18313400D02*
Y18821400D01*
X17282159Y18313400D02*
Y18821400D01*
X17249139D02*
X17282159D01*
X17249139Y18313400D02*
X17282159D01*
X16977361D02*
X17010381D01*
X16977361Y18821400D02*
X17010381D01*
X15996919Y17998441D02*
X16154401D01*
X15996919Y18298160D02*
X16151860D01*
X14084300Y18333720D02*
Y18491200D01*
X14384019Y18336259D02*
Y18491200D01*
X14089380Y15400020D02*
Y15557500D01*
X14389101Y15402560D02*
Y15557500D01*
X14688820Y15402560D02*
Y15560040D01*
X14389101Y15402560D02*
Y15557500D01*
X17543340Y14801559D02*
Y14959039D01*
X17243620Y14801559D02*
Y14956500D01*
X16331500Y12040840D02*
X16488980D01*
X16331500Y12340560D02*
X16486440D01*
X16583659Y12362180D02*
Y12519660D01*
X16283940Y12362180D02*
Y12517120D01*
X17830099Y12597100D02*
X17987579D01*
X17832640Y12297380D02*
X17987579D01*
X17835181Y12122120D02*
X17992661D01*
X17837720Y11822400D02*
X17992661D01*
X17721581Y11546840D02*
Y11704320D01*
X18021300Y11549380D02*
Y11704320D01*
X16108681Y11104880D02*
Y11262360D01*
X16408400Y11107420D02*
Y11262360D01*
X14123315Y14277850D02*
X14232875Y14168291D01*
X14333453Y14491582D02*
X14444809Y14380225D01*
X12471400Y11579860D02*
Y11737340D01*
X12771120Y11582400D02*
Y11737340D01*
X14189355Y14107671D02*
X14298915Y13998111D01*
X14399493Y14321400D02*
X14510849Y14210045D01*
X11640820Y15791180D02*
X11798300D01*
X11640820Y16090900D02*
X11795760D01*
X14220206Y12529991D02*
X14331561Y12641347D01*
X14008270Y12741925D02*
X14117831Y12851485D01*
X13147040Y11422380D02*
X13451840D01*
Y11275060D02*
Y11422380D01*
X17142461Y14394180D02*
X17299940D01*
X17145000Y14094460D02*
X17299940D01*
X10201940Y18414999D02*
X10709940D01*
X10201940Y18719800D02*
X10709940D01*
X10201940Y18686780D02*
Y18719800D01*
X10709940Y18686780D02*
Y18719800D01*
Y18414999D02*
Y18448019D01*
X10201940Y18414999D02*
Y18448019D01*
X10853420Y18414999D02*
X11361420D01*
X10853420Y18719800D02*
X11361420D01*
X10853420Y18686780D02*
Y18719800D01*
X11361420Y18686780D02*
Y18719800D01*
Y18414999D02*
Y18448019D01*
X10853420Y18414999D02*
Y18448019D01*
X14023573Y13765141D02*
X14134929Y13653786D01*
X13813435Y13551411D02*
X13922995Y13441850D01*
X13492651Y14301456D02*
X13604007Y14190099D01*
X13704585Y14513390D02*
X13814145Y14403828D01*
X13492712Y14301080D02*
X13604070Y14189725D01*
X13282574Y14087350D02*
X13392136Y13977791D01*
X12882880Y15356841D02*
X13040359D01*
X12885420Y15057120D02*
X13040359D01*
X14622780Y16845280D02*
Y17002760D01*
X14323061Y16845280D02*
Y17000220D01*
X18483141Y14809180D02*
Y14964120D01*
X18782860Y14809180D02*
Y14966660D01*
X18485680Y13866840D02*
X18640620D01*
X18483141Y14166560D02*
X18640620D01*
X18643159Y13191200D02*
Y13346140D01*
X18343440Y13188660D02*
Y13346140D01*
X18483141Y14166560D02*
X18638080D01*
X18480600Y14466280D02*
X18638080D01*
X18480600Y14478979D02*
Y14633920D01*
X18780321Y14478979D02*
Y14636459D01*
X18480600Y14644080D02*
Y14799020D01*
X18780321Y14644080D02*
Y14801559D01*
X18634010Y11614120D02*
X18834669D01*
X18634010Y11289000D02*
X18834669D01*
X18635280Y11644600D02*
Y11799540D01*
X18935001Y11644600D02*
Y11802080D01*
X17106900Y11636760D02*
X17261839D01*
X17106900Y11337040D02*
X17264380D01*
X17274100Y11636720D02*
X17429041D01*
X17274100Y11337000D02*
X17431580D01*
X16336580Y11736040D02*
X16491521D01*
X16334039Y12035760D02*
X16491521D01*
X17837981Y13325819D02*
Y13483299D01*
X18180881Y13328360D02*
Y13483299D01*
X17144560Y14070039D02*
X17299500D01*
X17144560Y13770320D02*
X17302040D01*
X17309660D02*
X17464600D01*
X17307120Y14070039D02*
X17464600D01*
X17056100Y12385040D02*
X17211040D01*
X17053560Y12684760D02*
X17211040D01*
X17225580Y12386280D02*
X17380521D01*
X17223039Y12686000D02*
X17380521D01*
X17093761Y15276540D02*
X17159801D01*
Y15213040D02*
Y15276540D01*
X17096300Y14986980D02*
X17162340D01*
Y15050481D01*
X17401100Y14489140D02*
X17556039D01*
X17398560Y14788860D02*
X17556039D01*
X17233459Y14489140D02*
X17388400D01*
X17230920Y14788860D02*
X17388400D01*
X18637820Y11093420D02*
Y11248360D01*
X18937540Y11093420D02*
Y11250900D01*
X19494501Y11066780D02*
Y11132820D01*
X19431000Y11066780D02*
X19494501D01*
X19204939Y11064240D02*
Y11130280D01*
Y11064240D02*
X19268440D01*
X19499580Y11691620D02*
Y11757660D01*
X19436079Y11691620D02*
X19499580D01*
X19210020Y11689080D02*
Y11755120D01*
Y11689080D02*
X19273520D01*
X13406120Y17383760D02*
Y17538699D01*
X13106400Y17381219D02*
Y17538699D01*
X13456920Y17546320D02*
Y17701260D01*
X13756641Y17546320D02*
Y17703799D01*
Y17221201D02*
Y17376140D01*
X13456920Y17218660D02*
Y17376140D01*
X13406120Y17056100D02*
Y17211040D01*
X13106400Y17053560D02*
Y17211040D01*
X13406120Y17218660D02*
Y17373599D01*
X13106400Y17216119D02*
Y17373599D01*
X12308840Y17106900D02*
X12463780D01*
X12306300Y17406619D02*
X12463780D01*
X14384019Y18168620D02*
Y18323560D01*
X14084300Y18166080D02*
Y18323560D01*
X12085320Y15935960D02*
X12151360D01*
Y15872459D02*
Y15935960D01*
X12087860Y15646400D02*
X12153900D01*
Y15709900D01*
X11348720Y15151100D02*
X11414760D01*
X11348720D02*
Y15214600D01*
X11346180Y15440660D02*
X11412220D01*
X11346180Y15377161D02*
Y15440660D01*
X12580620Y11211560D02*
Y11277600D01*
X12517120Y11211560D02*
X12580620D01*
X12291060Y11209020D02*
Y11275060D01*
Y11209020D02*
X12354560D01*
X12816840Y16507460D02*
Y16662399D01*
X12517120Y16504919D02*
Y16662399D01*
X13474699Y15397479D02*
Y15552420D01*
X13774420Y15397479D02*
Y15554961D01*
X12141200Y17106900D02*
X12296140D01*
X12138660Y17406619D02*
X12296140D01*
X14394180Y16642081D02*
Y16797020D01*
X14693900Y16642081D02*
Y16799561D01*
X14627859Y16078200D02*
X14782800D01*
X14627859Y15778481D02*
X14785339D01*
X13474699Y15234920D02*
Y15389861D01*
X13774420Y15234920D02*
Y15392400D01*
X13406120Y17546320D02*
Y17701260D01*
X13106400Y17543781D02*
Y17701260D01*
X13787120Y15400020D02*
Y15554961D01*
X14086839Y15400020D02*
Y15557500D01*
X14389101Y15237460D02*
Y15392400D01*
X14688820Y15237460D02*
Y15394940D01*
X16644620Y18618201D02*
X16799561D01*
X16644620Y18318480D02*
X16802100D01*
X13784579Y18440401D02*
Y18595340D01*
X14084300Y18440401D02*
Y18597881D01*
X16332201Y18356580D02*
Y18511520D01*
X16631920Y18356580D02*
Y18514059D01*
X16017239Y18338800D02*
Y18493739D01*
X15717520Y18336259D02*
Y18493739D01*
X16332201Y18191479D02*
Y18346420D01*
X16631920Y18191479D02*
Y18348959D01*
X15831821Y18298160D02*
X15986760D01*
X15831821Y17998441D02*
X15989301D01*
X16162019Y18298160D02*
X16316960D01*
X16162019Y17998441D02*
X16319501D01*
X17688560Y12903200D02*
X17843500D01*
X17686020Y13202921D02*
X17843500D01*
X17053560Y12987019D02*
X17208501D01*
X17053560Y12687300D02*
X17211040D01*
X14044576Y13355830D02*
X14154135Y13246271D01*
X14254713Y13569560D02*
X14366069Y13458205D01*
X11552091Y13338824D02*
X11661651Y13448386D01*
X11764025Y13126891D02*
X11875381Y13238248D01*
X13017500Y11107420D02*
Y11262360D01*
X12717780Y11104880D02*
Y11262360D01*
X11647929Y13010796D02*
X11757489Y13120355D01*
X11434199Y13220934D02*
X11545555Y13332289D01*
X12478509Y13991235D02*
X12588069Y14100795D01*
X12264779Y14201373D02*
X12376135Y14312729D01*
X14320358Y14820900D02*
Y14975841D01*
X14620079Y14820900D02*
Y14978380D01*
X11216640Y17795239D02*
X11249660D01*
X11216640Y18303239D02*
X11249660D01*
X10944860D02*
X10977880D01*
X10944860Y17795239D02*
X10977880D01*
X10944860D02*
Y18303239D01*
X11249660Y17795239D02*
Y18303239D01*
X12001500Y18686780D02*
Y18719800D01*
X11493500Y18686780D02*
Y18719800D01*
Y18414999D02*
Y18448019D01*
X12001500Y18414999D02*
Y18448019D01*
X11493500Y18414999D02*
X12001500D01*
X11493500Y18719800D02*
X12001500D01*
X10952480Y19334480D02*
X10985500D01*
X10952480Y18826480D02*
X10985500D01*
X11224260D02*
X11257280D01*
X11224260Y19334480D02*
X11257280D01*
Y18826480D02*
Y19334480D01*
X10952480Y18826480D02*
Y19334480D01*
X12423140Y14719299D02*
Y14752319D01*
X12931140Y14719299D02*
Y14752319D01*
Y14991080D02*
Y15024100D01*
X12423140Y14991080D02*
Y15024100D01*
X12931140D01*
X12423140Y14719299D02*
X12931140D01*
X15415260Y15529559D02*
Y15562579D01*
X14907260Y15529559D02*
Y15562579D01*
Y15257780D02*
Y15290800D01*
X15415260Y15257780D02*
Y15290800D01*
X14907260Y15257780D02*
X15415260D01*
X14907260Y15562579D02*
X15415260D01*
X15570200Y15257780D02*
Y15290800D01*
X16078200Y15257780D02*
Y15290800D01*
Y15529559D02*
Y15562579D01*
X15570200Y15529559D02*
Y15562579D01*
X16078200D01*
X15570200Y15257780D02*
X16078200D01*
X11296015Y15946120D02*
X11496675D01*
X11296015Y15621001D02*
X11496675D01*
X11769340Y11339195D02*
Y11539855D01*
X12094460Y11339195D02*
Y11539855D01*
X13911420Y15079980D02*
Y15146021D01*
X13974919D01*
X14200980Y15082520D02*
Y15148560D01*
X14137479D02*
X14200980D01*
D140*
X14061760Y16843640D02*
X14114259D01*
Y16791141D02*
Y16843640D01*
X13074260D02*
X13126759D01*
X13074260Y16791141D02*
Y16843640D01*
Y15803641D02*
Y15856142D01*
Y15803641D02*
X13126759D01*
X14061760D02*
X14114259D01*
Y15856142D01*
D141*
X19672301Y11541760D02*
X19923759D01*
X19669760Y11808460D02*
X19923759D01*
X19669760Y11300460D02*
Y11808460D01*
Y11300460D02*
X19923759D01*
Y11808460D01*
D142*
X10938180Y17056100D02*
Y17310100D01*
X10505280D02*
X10938180D01*
X10505280Y17056100D02*
Y17310100D01*
Y17056100D02*
X10938180D01*
X12631420Y19553860D02*
X12885420D01*
X12631420Y19120959D02*
Y19553860D01*
Y19120959D02*
X12885420D01*
Y19553860D01*
%TF.MD5,051224a3992264a784ea99be1b95db29*%
M02*
