%TF.GenerationSoftware,Altium Limited,Altium Designer,22.10.1 (41)*%
G04 Layer_Color=128*
%FSLAX45Y45*%
%MOMM*%
%TF.SameCoordinates,DED9D2F0-87CF-4F18-B91E-279B35946A49*%
%TF.FilePolarity,Positive*%
%TF.FileFunction,Paste,Bot*%
%TF.Part,Single*%
G01*
G75*
%TA.AperFunction,SMDPad,CuDef*%
%ADD110C,2.00000*%
%ADD111R,1.60000X1.20000*%
%ADD112R,2.20000X1.20000*%
%ADD113R,1.60000X0.70000*%
D110*
X17058640Y18252440D02*
D03*
X17035780Y16647160D02*
D03*
X17061180Y17208501D02*
D03*
X17675861Y11008360D02*
D03*
X12519660Y14325600D02*
D03*
X12491720Y18135600D02*
D03*
X18549620Y17734280D02*
D03*
X16144240Y15745461D02*
D03*
X17254221Y10640060D02*
D03*
X11965940Y14792960D02*
D03*
X17035780Y16261079D02*
D03*
X16423640Y16606520D02*
D03*
X19743420Y12992101D02*
D03*
X11714480Y14315440D02*
D03*
X19164301Y17734280D02*
D03*
X16832581Y10350500D02*
D03*
X15877541Y16596359D02*
D03*
X19527521Y12486640D02*
D03*
X17051019Y17741901D02*
D03*
X12697460Y14566901D02*
D03*
X12791440Y18127980D02*
D03*
X12796520Y17828259D02*
D03*
X13883640Y15069820D02*
D03*
D111*
X11556240Y16479021D02*
D03*
Y17977000D02*
D03*
D112*
X10596240Y16479021D02*
D03*
Y18032001D02*
D03*
D113*
X11656240Y16602000D02*
D03*
Y17151999D02*
D03*
Y16822000D02*
D03*
Y16712000D02*
D03*
Y16931999D02*
D03*
Y17041998D02*
D03*
Y17262000D02*
D03*
Y17371999D02*
D03*
Y17481998D02*
D03*
%TF.MD5,b275ffadd852da84fd9e802bf112f1cc*%
M02*
