%TF.GenerationSoftware,Altium Limited,Altium Designer,22.10.1 (41)*%
G04 Layer_Color=32896*
%FSLAX45Y45*%
%MOMM*%
%TF.SameCoordinates,7AF7A6CA-8E19-454E-BC3C-B9F665CB1F4E*%
%TF.FilePolarity,Positive*%
%TF.FileFunction,Legend,Bot*%
%TF.Part,Single*%
G01*
G75*
%TA.AperFunction,NonConductor*%
%ADD113C,0.51200*%
%ADD114C,0.12700*%
%ADD115C,0.20000*%
%ADD116C,0.25400*%
%ADD117C,0.30000*%
%ADD118C,0.40000*%
%ADD119C,0.15240*%
G36*
X24958040Y8348980D02*
X25021539Y8285480D01*
X24894540D01*
X24958040Y8348980D01*
D02*
G37*
D113*
X21151920Y9646920D02*
G03*
X21151920Y9646920I-75000J0D01*
G01*
X21325488Y9591413D02*
X21384261Y9646920D01*
X21231860D02*
X21384261D01*
X21324071Y9703765D02*
X21384261Y9646920D01*
X21021413Y9398352D02*
X21076920Y9339580D01*
Y9491980D01*
Y9339580D02*
X21133765Y9399769D01*
X20769580Y9646920D02*
X20828352Y9702427D01*
X20769580Y9646920D02*
X20921980D01*
X20769580D02*
X20829768Y9590075D01*
X21020074Y9894071D02*
X21076920Y9954260D01*
Y9801860D02*
Y9954260D01*
X21132426Y9895488D01*
D114*
X10835280Y20703540D02*
G03*
X10835280Y20703540I-340000J0D01*
G01*
X26329279Y20693381D02*
G03*
X26329279Y20693381I-340000J0D01*
G01*
X10650808Y9235424D02*
Y9296440D01*
X10620300Y9265932D02*
X10681316D01*
D115*
X16636839Y9456420D02*
G03*
X16636839Y9456420I-10000J0D01*
G01*
X14135425Y8324020D02*
G03*
X14135425Y8324020I-10000J0D01*
G01*
X11319918Y8483403D02*
G03*
X11399918Y8563403I0J80000D01*
G01*
X11692183Y8491112D02*
G03*
X11751825Y8466407I312737J670667D01*
G01*
X11876416Y8433023D02*
G03*
X11940421Y8424596I128500J728759D01*
G01*
X11204917Y8563403D02*
G03*
X11284917Y8483403I80000J0D01*
G01*
X11452212Y8669726D02*
G03*
X11399918Y8649652I-22295J-20074D01*
G01*
X11454992Y8666621D02*
G03*
X11580473Y8555605I549928J495158D01*
G01*
X12069416Y8424597D02*
G03*
X12133420Y8433023I-64495J737184D01*
G01*
X12258015Y8466409D02*
G03*
X12317658Y8491114I-253092J695366D01*
G01*
X12429365Y8555608D02*
G03*
X12480581Y8594908I-424446J606172D01*
G01*
X12571789Y8686115D02*
G03*
X12611088Y8737331I-566873J475663D01*
G01*
X12675587Y8849047D02*
G03*
X12700292Y8908689I-670670J312739D01*
G01*
X11399918Y9673908D02*
G03*
X11452212Y9653834I30000J0D01*
G01*
X11580472Y9767953D02*
G03*
X11454991Y9656937I424446J-606172D01*
G01*
X11284917Y9840157D02*
G03*
X11204917Y9760157I0J-80000D01*
G01*
X11399918D02*
G03*
X11319918Y9840157I-80000J0D01*
G01*
X11751825Y9857153D02*
G03*
X11692182Y9832448I253095J-695372D01*
G01*
X11940429Y9898965D02*
G03*
X11876425Y9890539I64495J-737185D01*
G01*
X12611093Y9586222D02*
G03*
X12571793Y9637439I-606177J-424449D01*
G01*
X12700290Y9414874D02*
G03*
X12675585Y9474517I-695373J-253095D01*
G01*
X12317657Y9832447D02*
G03*
X12258015Y9857152I-312736J-670665D01*
G01*
X12133413Y9890538D02*
G03*
X12069409Y9898964I-128500J-728760D01*
G01*
X12480582Y9728652D02*
G03*
X12429365Y9767952I-475662J-566873D01*
G01*
X25765540Y9830560D02*
G03*
X25765540Y9830560I-10000J0D01*
G01*
X19799300Y8989060D02*
Y9022080D01*
Y8989060D02*
X20307300D01*
Y9022080D01*
X19799300Y9260840D02*
Y9293860D01*
X20307300D01*
Y9260840D02*
Y9293860D01*
X16624300Y9516110D02*
Y9716770D01*
X16299181Y9516110D02*
Y9716770D01*
X22395180Y9113520D02*
Y9621520D01*
X22699980Y9113520D02*
Y9621520D01*
X22666960Y9113520D02*
X22699980D01*
X22666960Y9621520D02*
X22699980D01*
X22395180D02*
X22428200D01*
X22395180Y9113520D02*
X22428200D01*
X21869400Y9110980D02*
Y9618980D01*
X21564600Y9110980D02*
Y9618980D01*
X21597620D01*
X21564600Y9110980D02*
X21597620D01*
X21836380D02*
X21869400D01*
X21836380Y9618980D02*
X21869400D01*
X22806660D02*
X22839680D01*
X22806660Y9110980D02*
Y9618980D01*
Y9110980D02*
X22839680D01*
X23078439Y9618980D02*
X23111459D01*
Y9110980D02*
Y9618980D01*
X23078439Y9110980D02*
X23111459D01*
X21983701Y9618980D02*
X22016721D01*
X21983701Y9110980D02*
Y9618980D01*
Y9110980D02*
X22016721D01*
X22255479Y9618980D02*
X22288499D01*
Y9110980D02*
Y9618980D01*
X22255479Y9110980D02*
X22288499D01*
X23233380D02*
Y9618980D01*
X23538181Y9110980D02*
Y9618980D01*
X23505161Y9110980D02*
X23538181D01*
X23505161Y9618980D02*
X23538181D01*
X23233380D02*
X23266400D01*
X23233380Y9110980D02*
X23266400D01*
X24729440Y9570720D02*
X24792940D01*
Y9636760D01*
X24503380Y9573260D02*
Y9639300D01*
Y9573260D02*
X24566879D01*
X25085040Y8364220D02*
Y8618220D01*
X24577040Y8364220D02*
X25085040D01*
X24577040Y8618220D02*
X25085040D01*
X24577040Y8364220D02*
Y8618220D01*
X24843739Y8364220D02*
Y8615680D01*
X24350980Y9575800D02*
X24414481D01*
Y9641840D01*
X24124921Y9578340D02*
Y9644380D01*
Y9578340D02*
X24188420D01*
X10570301Y8931438D02*
Y9031437D01*
X10740299Y8931438D02*
Y9031437D01*
X17183099Y9464040D02*
X17246600D01*
Y9530080D01*
X16957040Y9466580D02*
X17020540D01*
X16957040D02*
Y9532620D01*
X15267580Y9897918D02*
X15424602D01*
Y8947922D02*
Y9622922D01*
Y8322920D02*
Y8647918D01*
X15267580Y8322920D02*
X15424602D01*
Y9622922D02*
Y9897918D01*
X13714598D02*
X14194601D01*
X13714598Y8972921D02*
Y9897918D01*
Y8322920D02*
Y8622919D01*
Y8322920D02*
X14049599D01*
X10104120Y10017760D02*
X26416000D01*
X16000664Y8831260D02*
Y8952677D01*
Y8400999D02*
Y8539825D01*
Y8400999D02*
X16937233D01*
X16000664Y9275821D02*
Y9344254D01*
X16937233D01*
X16474440Y8595360D02*
Y8823960D01*
X16525240Y8773160D01*
X16423640D02*
X16474440Y8823960D01*
X16937233Y8831260D02*
Y8952677D01*
Y8400999D02*
Y8539825D01*
Y9275821D02*
Y9344254D01*
X19598640Y9260840D02*
Y9293860D01*
X19090640D02*
X19598640D01*
X19090640Y9260840D02*
Y9293860D01*
X19598640Y8989060D02*
Y9022080D01*
X19090640Y8989060D02*
X19598640D01*
X19090640D02*
Y9022080D01*
X11284915Y8483402D02*
X11319916D01*
X11689405Y8492414D02*
X11698458Y8509574D01*
X11940052Y8438921D02*
X11940606Y8424581D01*
X11755145Y8480344D02*
X11877736Y8452485D01*
X11751965Y8466358D02*
X11755145Y8480344D01*
X11873433Y8433557D02*
X11877736Y8452485D01*
X11044916Y8721781D02*
Y8801781D01*
X11204915Y8563402D02*
Y8785403D01*
X11004916Y8761781D02*
X11084916D01*
X11580571Y8555538D02*
X11587251Y8568212D01*
X11698458Y8509574D01*
X11399916Y8563402D02*
Y8649650D01*
X12065681Y8443742D02*
X12066422Y8424342D01*
X12129384Y8446770D02*
X12133631Y8433059D01*
X11940052Y8438921D02*
X12065681Y8443742D01*
X12129384Y8446770D02*
X12249480Y8483935D01*
X12255221Y8465398D01*
X12310237Y8503351D02*
X12317877Y8491215D01*
X12310237Y8503351D02*
X12416617Y8570336D01*
X12426950Y8553928D01*
X12470277Y8604814D02*
X12555698Y8697051D01*
X12470277Y8604814D02*
X12480788Y8595081D01*
X12555698Y8697051D02*
X12569911Y8683889D01*
X12598608Y8744240D02*
X12611252Y8737570D01*
X12598608Y8744240D02*
X12657247Y8855441D01*
X12674356Y8846419D01*
X12686477Y8912128D02*
X12700391Y8908964D01*
X11204915Y9538157D02*
Y9760158D01*
X11399916Y9673910D02*
Y9760158D01*
X11582989Y9769709D02*
X11593215Y9753468D01*
X11699601Y9820453D01*
X11692077Y9832401D02*
X11699601Y9820453D01*
X11284915Y9840158D02*
X11319916D01*
X11754683Y9858187D02*
X11760352Y9839869D01*
X11880449Y9877034D01*
X11944157Y9880067D02*
X12069780Y9884882D01*
X11876278Y9890511D02*
X11880449Y9877034D01*
X12069242Y9898979D02*
X12069780Y9884882D01*
X11943420Y9899218D02*
X11944157Y9880067D01*
X12596485Y9573605D02*
X12612751Y9583847D01*
X12596485Y9573605D02*
X12663470Y9467220D01*
X12562007Y9627260D02*
X12571623Y9637644D01*
X12663470Y9467220D02*
X12675464Y9474774D01*
X12682885Y9406468D02*
X12701275Y9412158D01*
X12254692Y9843460D02*
X12257822Y9857222D01*
X12132102Y9871319D02*
X12254692Y9843460D01*
X12132102Y9871319D02*
X12136349Y9890013D01*
X12469769Y9712686D02*
X12562007Y9627260D01*
X12469769Y9712686D02*
X12482815Y9726773D01*
X12311380Y9814230D02*
X12422581Y9755591D01*
X12311380Y9814230D02*
X12320326Y9831197D01*
X12422581Y9755591D02*
X12429170Y9768088D01*
X19923759Y9926320D02*
X19956779D01*
X19923759Y9418320D02*
Y9926320D01*
Y9418320D02*
X19956779D01*
X20195540Y9926320D02*
X20228560D01*
Y9418320D02*
Y9926320D01*
X20195540Y9418320D02*
X20228560D01*
X20195540Y8382000D02*
X20228560D01*
Y8890000D01*
X20195540D02*
X20228560D01*
X19923759Y8382000D02*
X19956779D01*
X19923759D02*
Y8890000D01*
X19956779D01*
X21008340Y9263380D02*
Y9296400D01*
X20500340D02*
X21008340D01*
X20500340Y9263380D02*
Y9296400D01*
X21008340Y8991600D02*
Y9024620D01*
X20500340Y8991600D02*
X21008340D01*
X20500340D02*
Y9024620D01*
X25305542Y9595058D02*
Y9720062D01*
X25510541D01*
X25305542Y8290062D02*
Y9145062D01*
X25755539Y8382762D02*
Y8827262D01*
X25882538Y8674862D01*
X25628540D02*
X25755539Y8827262D01*
X26000543Y9720062D02*
X26205542D01*
X25305542Y8290062D02*
X26205542D01*
Y9720062D01*
X24986301Y8701720D02*
X24938849D01*
X24717059Y8702586D02*
X24669609D01*
X24693333Y8726311D02*
Y8678860D01*
D116*
X17520920Y8732300D02*
Y9354600D01*
X17774921D01*
X18790919Y8732300D02*
Y9354600D01*
X18536920D02*
X18790919D01*
X17711420Y8364000D02*
X18600420D01*
X21518880Y8293100D02*
Y10017760D01*
X23703281Y8293100D02*
Y10017760D01*
X18971260Y8293100D02*
Y10017760D01*
X17386301Y8293100D02*
Y10017760D01*
X15727679Y8290560D02*
Y10015220D01*
X13324840Y8293100D02*
Y10017760D01*
X10863580Y8293100D02*
Y10017760D01*
D117*
X24078490Y8445129D02*
X24099519Y8341360D01*
X17925259Y9499120D02*
Y9600687D01*
X17874477D01*
X17857549Y9583759D01*
Y9549903D01*
X17874477Y9532976D01*
X17925259D01*
X17891405D02*
X17857549Y9499120D01*
X18126788Y9588839D02*
X18143716Y9605767D01*
X18177573D01*
X18194501Y9588839D01*
Y9521128D01*
X18177573Y9504200D01*
X18143716D01*
X18126788Y9521128D01*
Y9554983D01*
X18160645D01*
X24453929Y8444987D02*
X24487784D01*
X24470857D01*
Y8360348D01*
X24487784Y8343420D01*
X24504712D01*
X24521640Y8360348D01*
X24420073Y8343420D02*
Y8411131D01*
X24386217Y8444987D01*
X24352362Y8411131D01*
Y8343420D01*
Y8394203D01*
X24420073D01*
X24250793Y8428059D02*
X24267722Y8444987D01*
X24301578D01*
X24318506Y8428059D01*
Y8360348D01*
X24301578Y8343420D01*
X24267722D01*
X24250793Y8360348D01*
X24216937Y8444987D02*
Y8343420D01*
Y8377276D01*
X24149226Y8444987D01*
X24200011Y8394203D01*
X24149226Y8343420D01*
X24013805D02*
Y8444987D01*
X23963020D01*
X23946094Y8428059D01*
Y8394203D01*
X23963020Y8377276D01*
X24013805D01*
X23912238Y8444987D02*
X23878381D01*
X23895309D01*
Y8343420D01*
X23912238D01*
X23878381D01*
X23827597D02*
Y8444987D01*
X23759886Y8343420D01*
Y8444987D01*
X24437820Y8553388D02*
Y8654955D01*
X24387038D01*
X24370110Y8638027D01*
Y8604171D01*
X24387038Y8587243D01*
X24437820D01*
X24336253Y8654955D02*
Y8553388D01*
X24302397Y8587243D01*
X24268542Y8553388D01*
Y8654955D01*
X24234686Y8553388D02*
Y8654955D01*
X24183902D01*
X24166974Y8638027D01*
Y8604171D01*
X24183902Y8587243D01*
X24234686D01*
X24200830D02*
X24166974Y8553388D01*
X24133118Y8536460D02*
X24065407D01*
X24031551Y8654955D02*
X23997694D01*
X24014622D01*
Y8553388D01*
X24031551D01*
X23997694D01*
X23946912D02*
Y8654955D01*
X23879201Y8553388D01*
Y8654955D01*
X10173908Y8851419D02*
X10275475D01*
Y8902203D01*
X10258547Y8919131D01*
X10224691D01*
X10207763Y8902203D01*
Y8851419D01*
X10275475Y8952987D02*
X10173908D01*
X10207763Y8986842D01*
X10173908Y9020698D01*
X10275475D01*
X10173908Y9054554D02*
X10275475D01*
Y9105337D01*
X10258547Y9122265D01*
X10224691D01*
X10207763Y9105337D01*
Y9054554D01*
Y9088410D02*
X10173908Y9122265D01*
X10156980Y9156121D02*
Y9223832D01*
X10275475Y9257688D02*
X10173908D01*
Y9325400D01*
X10275475Y9426967D02*
Y9359256D01*
X10173908D01*
Y9426967D01*
X10224691Y9359256D02*
Y9393111D01*
X10275475Y9460823D02*
X10173908D01*
Y9511606D01*
X10190836Y9528534D01*
X10258547D01*
X10275475Y9511606D01*
Y9460823D01*
X13153328Y9278139D02*
X13254895D01*
Y9328923D01*
X13237967Y9345851D01*
X13204111D01*
X13187183Y9328923D01*
Y9278139D01*
Y9311995D02*
X13153328Y9345851D01*
X13254895Y9379707D02*
Y9447418D01*
Y9413562D01*
X13153328D01*
X13237967Y9548985D02*
X13254895Y9532057D01*
Y9498202D01*
X13237967Y9481274D01*
X13170256D01*
X13153328Y9498202D01*
Y9532057D01*
X13170256Y9548985D01*
X13136400Y9582841D02*
Y9650552D01*
X13254895Y9684408D02*
X13153328D01*
Y9735192D01*
X13170256Y9752120D01*
X13187183D01*
X13204111Y9735192D01*
Y9684408D01*
Y9735192D01*
X13221039Y9752120D01*
X13237967D01*
X13254895Y9735192D01*
Y9684408D01*
X13153328Y9785976D02*
X13221039D01*
X13254895Y9819831D01*
X13221039Y9853687D01*
X13153328D01*
X13204111D01*
Y9785976D01*
X13254895Y9887543D02*
Y9955254D01*
Y9921398D01*
X13153328D01*
X15921895Y9371251D02*
Y9303540D01*
X15871111D01*
Y9337396D01*
Y9303540D01*
X15820328D01*
Y9405107D02*
Y9438963D01*
Y9422035D01*
X15921895D01*
X15904967Y9405107D01*
Y9557458D02*
X15921895Y9540530D01*
Y9506674D01*
X15904967Y9489747D01*
X15837256D01*
X15820328Y9506674D01*
Y9540530D01*
X15837256Y9557458D01*
X15803400Y9591314D02*
Y9659025D01*
X15921895Y9692881D02*
X15837256D01*
X15820328Y9709809D01*
Y9743665D01*
X15837256Y9760592D01*
X15921895D01*
X15904967Y9862160D02*
X15921895Y9845232D01*
Y9811376D01*
X15904967Y9794448D01*
X15888039D01*
X15871111Y9811376D01*
Y9845232D01*
X15854182Y9862160D01*
X15837256D01*
X15820328Y9845232D01*
Y9811376D01*
X15837256Y9794448D01*
X15921895Y9896016D02*
X15820328D01*
Y9946799D01*
X15837256Y9963727D01*
X15854182D01*
X15871111Y9946799D01*
Y9896016D01*
Y9946799D01*
X15888039Y9963727D01*
X15904967D01*
X15921895Y9946799D01*
Y9896016D01*
X13509747Y9338231D02*
X13526675Y9321303D01*
Y9287447D01*
X13509747Y9270519D01*
X13492819D01*
X13475891Y9287447D01*
Y9321303D01*
X13458963Y9338231D01*
X13442036D01*
X13425108Y9321303D01*
Y9287447D01*
X13442036Y9270519D01*
X13526675Y9372087D02*
X13425108D01*
Y9422870D01*
X13442036Y9439798D01*
X13509747D01*
X13526675Y9422870D01*
Y9372087D01*
X13408180Y9473654D02*
Y9541365D01*
X13509747Y9642932D02*
X13526675Y9626005D01*
Y9592149D01*
X13509747Y9575221D01*
X13442036D01*
X13425108Y9592149D01*
Y9626005D01*
X13442036Y9642932D01*
X13425108Y9676788D02*
X13492819D01*
X13526675Y9710644D01*
X13492819Y9744500D01*
X13425108D01*
X13475891D01*
Y9676788D01*
X13425108Y9778356D02*
X13526675D01*
Y9829139D01*
X13509747Y9846067D01*
X13475891D01*
X13458963Y9829139D01*
Y9778356D01*
Y9812211D02*
X13425108Y9846067D01*
X13526675Y9879923D02*
X13425108D01*
Y9930706D01*
X13442036Y9947634D01*
X13509747D01*
X13526675Y9930706D01*
Y9879923D01*
X18435800Y9605767D02*
Y9504200D01*
X18368089D01*
D118*
X21797591Y8320400D02*
X21645239D01*
X21696024Y8371183D01*
X21645239Y8421967D01*
X21797591D01*
Y8472751D02*
X21645239D01*
X21696024D01*
X21797591Y8574318D01*
X21721416Y8498143D01*
X21645239Y8574318D01*
X21797591Y8625101D02*
X21670631D01*
X21645239Y8650493D01*
Y8701277D01*
X21670631Y8726669D01*
X21797591D01*
X21645239Y8777452D02*
X21797591D01*
Y8853627D01*
X21772198Y8879019D01*
X21721416D01*
X21696024Y8853627D01*
Y8777452D01*
X22216692Y8421967D02*
Y8320400D01*
X22140515D01*
Y8371183D01*
Y8320400D01*
X22064340D01*
X22216692Y8574318D02*
Y8472751D01*
X22064340D01*
Y8574318D01*
X22140515Y8472751D02*
Y8523534D01*
X22216692Y8625101D02*
X22064340D01*
Y8726669D01*
X22602779Y8424507D02*
X22628171Y8399115D01*
Y8348332D01*
X22602779Y8322940D01*
X22577386D01*
X22551994Y8348332D01*
Y8399115D01*
X22526604Y8424507D01*
X22501212D01*
X22475819Y8399115D01*
Y8348332D01*
X22501212Y8322940D01*
X22475819Y8475291D02*
X22628171D01*
Y8551466D01*
X22602779Y8576858D01*
X22551994D01*
X22526604Y8551466D01*
Y8475291D01*
Y8526074D02*
X22475819Y8576858D01*
X22602779Y8729209D02*
X22628171Y8703817D01*
Y8653033D01*
X22602779Y8627641D01*
X22577386D01*
X22551994Y8653033D01*
Y8703817D01*
X22526604Y8729209D01*
X22501212D01*
X22475819Y8703817D01*
Y8653033D01*
X22501212Y8627641D01*
X22628171Y8779992D02*
Y8881559D01*
Y8830776D01*
X22475819D01*
X23039651Y8421967D02*
Y8320400D01*
X22963475D01*
Y8371183D01*
Y8320400D01*
X22887300D01*
Y8472751D02*
X23039651D01*
Y8548926D01*
X23014259Y8574318D01*
X22963475D01*
X22938083Y8548926D01*
Y8472751D01*
Y8523534D02*
X22887300Y8574318D01*
X23014259Y8726669D02*
X23039651Y8701277D01*
Y8650493D01*
X23014259Y8625101D01*
X22988867D01*
X22963475Y8650493D01*
Y8701277D01*
X22938083Y8726669D01*
X22912692D01*
X22887300Y8701277D01*
Y8650493D01*
X22912692Y8625101D01*
X23039651Y8777452D02*
Y8879019D01*
Y8828236D01*
X22887300D01*
X23466371Y8320400D02*
X23314020D01*
Y8421967D01*
Y8472751D02*
X23466371D01*
Y8548926D01*
X23440979Y8574318D01*
X23390195D01*
X23364803Y8548926D01*
Y8472751D01*
Y8523534D02*
X23314020Y8574318D01*
X23440979Y8726669D02*
X23466371Y8701277D01*
Y8650493D01*
X23440979Y8625101D01*
X23415587D01*
X23390195Y8650493D01*
Y8701277D01*
X23364803Y8726669D01*
X23339412D01*
X23314020Y8701277D01*
Y8650493D01*
X23339412Y8625101D01*
X23466371Y8777452D02*
Y8879019D01*
Y8828236D01*
X23314020D01*
X25062820Y8810612D02*
X25037428Y8785220D01*
X24986646D01*
X24961253Y8810612D01*
Y8912179D01*
X24986646Y8937571D01*
X25037428D01*
X25062820Y8912179D01*
Y8886787D01*
X25037428Y8861395D01*
X24961253D01*
X24910469Y8937571D02*
Y8836003D01*
X24859686Y8785220D01*
X24808902Y8836003D01*
Y8937571D01*
X24758119Y8861395D02*
X24656551D01*
X24605768Y8785220D02*
X24554984D01*
X24580376D01*
Y8937571D01*
X24605768Y8912179D01*
X24478809Y8785220D02*
Y8886787D01*
X24428026Y8937571D01*
X24377242Y8886787D01*
Y8785220D01*
Y8861395D01*
X24478809D01*
X24326459D02*
X24224892D01*
X24275674Y8912179D02*
Y8810612D01*
D119*
X18834100Y9466580D02*
Y9568147D01*
X18783318D01*
X18766389Y9551219D01*
Y9517363D01*
X18783318Y9500436D01*
X18834100D01*
X18732533Y9568147D02*
X18664821D01*
Y9551219D01*
X18732533Y9483508D01*
Y9466580D01*
X16660646Y8552164D02*
Y8467524D01*
X16643719Y8450597D01*
X16609863D01*
X16592935Y8467524D01*
Y8552164D01*
X16491368Y8535236D02*
X16508296Y8552164D01*
X16542151D01*
X16559079Y8535236D01*
Y8518308D01*
X16542151Y8501380D01*
X16508296D01*
X16491368Y8484452D01*
Y8467524D01*
X16508296Y8450597D01*
X16542151D01*
X16559079Y8467524D01*
X16457512Y8552164D02*
Y8450597D01*
X16406728D01*
X16389801Y8467524D01*
Y8484452D01*
X16406728Y8501380D01*
X16457512D01*
X16406728D01*
X16389801Y8518308D01*
Y8535236D01*
X16406728Y8552164D01*
X16457512D01*
X16288232Y8450597D02*
X16355945D01*
X16288232Y8518308D01*
Y8535236D01*
X16305161Y8552164D01*
X16339017D01*
X16355945Y8535236D01*
X16556538Y9979644D02*
Y9895004D01*
X16539610Y9878077D01*
X16505756D01*
X16488828Y9895004D01*
Y9979644D01*
X16454971Y9895004D02*
X16438045Y9878077D01*
X16404189D01*
X16387260Y9895004D01*
Y9962716D01*
X16404189Y9979644D01*
X16438045D01*
X16454971Y9962716D01*
Y9945788D01*
X16438045Y9928860D01*
X16387260D01*
X21062515Y8645348D02*
X21079443Y8628421D01*
Y8594565D01*
X21062515Y8577637D01*
X21045589D01*
X21028661Y8594565D01*
Y8628421D01*
X21011732Y8645348D01*
X20994804D01*
X20977876Y8628421D01*
Y8594565D01*
X20994804Y8577637D01*
X21079443Y8679204D02*
X20977876D01*
X21011732Y8713060D01*
X20977876Y8746916D01*
X21079443D01*
X20977876Y8780772D02*
Y8814627D01*
Y8797699D01*
X21079443D01*
X21062515Y8780772D01*
Y8865411D02*
X21079443Y8882339D01*
Y8916195D01*
X21062515Y8933122D01*
X20994804D01*
X20977876Y8916195D01*
Y8882339D01*
X20994804Y8865411D01*
X21062515D01*
X21268288Y8447204D02*
X21251360Y8430276D01*
X21217503D01*
X21200577Y8447204D01*
Y8464132D01*
X21217503Y8481060D01*
X21251360D01*
X21268288Y8497988D01*
Y8514916D01*
X21251360Y8531843D01*
X21217503D01*
X21200577Y8514916D01*
X21302144Y8430276D02*
Y8531843D01*
X21335999Y8497988D01*
X21369855Y8531843D01*
Y8430276D01*
X21403711Y8514916D02*
X21420639Y8531843D01*
X21454495D01*
X21471422Y8514916D01*
Y8447204D01*
X21454495Y8430276D01*
X21420639D01*
X21403711Y8447204D01*
Y8464132D01*
X21420639Y8481060D01*
X21471422D01*
X21091292Y8357436D02*
X21108218Y8374364D01*
X21142075D01*
X21159003Y8357436D01*
Y8340508D01*
X21142075Y8323580D01*
X21108218D01*
X21091292Y8306652D01*
Y8289724D01*
X21108218Y8272797D01*
X21142075D01*
X21159003Y8289724D01*
X21057436Y8374364D02*
Y8272797D01*
X21023579Y8306652D01*
X20989725Y8272797D01*
Y8374364D01*
X20955869Y8357436D02*
X20938940Y8374364D01*
X20905086D01*
X20888158Y8357436D01*
Y8340508D01*
X20905086Y8323580D01*
X20888158Y8306652D01*
Y8289724D01*
X20905086Y8272797D01*
X20938940D01*
X20955869Y8289724D01*
Y8306652D01*
X20938940Y8323580D01*
X20955869Y8340508D01*
Y8357436D01*
X20938940Y8323580D02*
X20905086D01*
X20766171Y8497136D02*
X20783099Y8514064D01*
X20816956D01*
X20833884Y8497136D01*
Y8480208D01*
X20816956Y8463280D01*
X20783099D01*
X20766171Y8446352D01*
Y8429424D01*
X20783099Y8412497D01*
X20816956D01*
X20833884Y8429424D01*
X20732317Y8514064D02*
Y8412497D01*
X20698460Y8446352D01*
X20664604Y8412497D01*
Y8514064D01*
X20630748D02*
X20563037D01*
Y8497136D01*
X20630748Y8429424D01*
Y8412497D01*
X21088753Y8509836D02*
X21105679Y8526764D01*
X21139536D01*
X21156464Y8509836D01*
Y8492908D01*
X21139536Y8475980D01*
X21105679D01*
X21088753Y8459052D01*
Y8442124D01*
X21105679Y8425197D01*
X21139536D01*
X21156464Y8442124D01*
X21054897Y8526764D02*
Y8425197D01*
X21021040Y8459052D01*
X20987184Y8425197D01*
Y8526764D01*
X20885617D02*
X20919473Y8509836D01*
X20953328Y8475980D01*
Y8442124D01*
X20936401Y8425197D01*
X20902545D01*
X20885617Y8442124D01*
Y8459052D01*
X20902545Y8475980D01*
X20953328D01*
X14711664Y8784156D02*
X14728592Y8801084D01*
X14762447D01*
X14779375Y8784156D01*
Y8767228D01*
X14762447Y8750300D01*
X14728592D01*
X14711664Y8733372D01*
Y8716444D01*
X14728592Y8699517D01*
X14762447D01*
X14779375Y8716444D01*
X14677808Y8801084D02*
Y8699517D01*
X14627023D01*
X14610097Y8716444D01*
Y8784156D01*
X14627023Y8801084D01*
X14677808D01*
X14576241Y8699517D02*
X14542384D01*
X14559312D01*
Y8801084D01*
X14576241Y8784156D01*
X21471423Y8572517D02*
Y8674084D01*
X21420639D01*
X21403712Y8657156D01*
Y8623300D01*
X21420639Y8606372D01*
X21471423D01*
X21437567D02*
X21403712Y8572517D01*
X21302144Y8674084D02*
X21336000Y8657156D01*
X21369856Y8623300D01*
Y8589444D01*
X21352928Y8572517D01*
X21319072D01*
X21302144Y8589444D01*
Y8606372D01*
X21319072Y8623300D01*
X21369856D01*
X21268288Y8589444D02*
X21251361Y8572517D01*
X21217505D01*
X21200577Y8589444D01*
Y8657156D01*
X21217505Y8674084D01*
X21251361D01*
X21268288Y8657156D01*
Y8640228D01*
X21251361Y8623300D01*
X21200577D01*
X21471423Y8280417D02*
Y8381984D01*
X21420639D01*
X21403712Y8365056D01*
Y8331200D01*
X21420639Y8314272D01*
X21471423D01*
X21437567D02*
X21403712Y8280417D01*
X21302144Y8381984D02*
X21336000Y8365056D01*
X21369856Y8331200D01*
Y8297344D01*
X21352928Y8280417D01*
X21319072D01*
X21302144Y8297344D01*
Y8314272D01*
X21319072Y8331200D01*
X21369856D01*
X21268288Y8365056D02*
X21251361Y8381984D01*
X21217505D01*
X21200577Y8365056D01*
Y8348128D01*
X21217505Y8331200D01*
X21200577Y8314272D01*
Y8297344D01*
X21217505Y8280417D01*
X21251361D01*
X21268288Y8297344D01*
Y8314272D01*
X21251361Y8331200D01*
X21268288Y8348128D01*
Y8365056D01*
X21251361Y8331200D02*
X21217505D01*
X20833884Y8270257D02*
Y8371824D01*
X20783099D01*
X20766171Y8354896D01*
Y8321040D01*
X20783099Y8304112D01*
X20833884D01*
X20800027D02*
X20766171Y8270257D01*
X20664604Y8371824D02*
X20698460Y8354896D01*
X20732317Y8321040D01*
Y8287184D01*
X20715388Y8270257D01*
X20681532D01*
X20664604Y8287184D01*
Y8304112D01*
X20681532Y8321040D01*
X20732317D01*
X20630748Y8371824D02*
X20563037D01*
Y8354896D01*
X20630748Y8287184D01*
Y8270257D01*
X20833884Y8559817D02*
Y8661384D01*
X20783099D01*
X20766171Y8644456D01*
Y8610600D01*
X20783099Y8593672D01*
X20833884D01*
X20800027D02*
X20766171Y8559817D01*
X20664604Y8661384D02*
X20698460Y8644456D01*
X20732317Y8610600D01*
Y8576744D01*
X20715388Y8559817D01*
X20681532D01*
X20664604Y8576744D01*
Y8593672D01*
X20681532Y8610600D01*
X20732317D01*
X20563037Y8661384D02*
X20596893Y8644456D01*
X20630748Y8610600D01*
Y8576744D01*
X20613821Y8559817D01*
X20579965D01*
X20563037Y8576744D01*
Y8593672D01*
X20579965Y8610600D01*
X20630748D01*
X16657336Y9707077D02*
X16758904D01*
Y9757861D01*
X16741975Y9774788D01*
X16708121D01*
X16691193Y9757861D01*
Y9707077D01*
Y9740933D02*
X16657336Y9774788D01*
X16758904Y9876356D02*
Y9808644D01*
X16708121D01*
X16725047Y9842500D01*
Y9859428D01*
X16708121Y9876356D01*
X16674265D01*
X16657336Y9859428D01*
Y9825572D01*
X16674265Y9808644D01*
X16741975Y9910212D02*
X16758904Y9927139D01*
Y9960995D01*
X16741975Y9977923D01*
X16725047D01*
X16708121Y9960995D01*
Y9944067D01*
Y9960995D01*
X16691193Y9977923D01*
X16674265D01*
X16657336Y9960995D01*
Y9927139D01*
X16674265Y9910212D01*
X16154416Y9712157D02*
X16255983D01*
Y9762940D01*
X16239056Y9779868D01*
X16205200D01*
X16188272Y9762940D01*
Y9712157D01*
Y9746013D02*
X16154416Y9779868D01*
X16255983Y9881435D02*
Y9813724D01*
X16205200D01*
X16222128Y9847580D01*
Y9864508D01*
X16205200Y9881435D01*
X16171344D01*
X16154416Y9864508D01*
Y9830652D01*
X16171344Y9813724D01*
X16154416Y9983003D02*
Y9915291D01*
X16222128Y9983003D01*
X16239056D01*
X16255983Y9966075D01*
Y9932219D01*
X16239056Y9915291D01*
X17030716Y9139805D02*
X17132283D01*
Y9190588D01*
X17115356Y9207516D01*
X17081500D01*
X17064572Y9190588D01*
Y9139805D01*
Y9173660D02*
X17030716Y9207516D01*
X17132283Y9309083D02*
Y9241372D01*
X17081500D01*
X17098428Y9275228D01*
Y9292155D01*
X17081500Y9309083D01*
X17047644D01*
X17030716Y9292155D01*
Y9258300D01*
X17047644Y9241372D01*
X17030716Y9342939D02*
Y9376795D01*
Y9359867D01*
X17132283D01*
X17115356Y9342939D01*
X17030717Y8828237D02*
X17132285D01*
Y8879021D01*
X17115356Y8895948D01*
X17081500D01*
X17064572Y8879021D01*
Y8828237D01*
Y8862093D02*
X17030717Y8895948D01*
X17132285Y8997516D02*
Y8929804D01*
X17081500D01*
X17098428Y8963660D01*
Y8980588D01*
X17081500Y8997516D01*
X17047644D01*
X17030717Y8980588D01*
Y8946732D01*
X17047644Y8929804D01*
X17115356Y9031372D02*
X17132285Y9048299D01*
Y9082155D01*
X17115356Y9099083D01*
X17047644D01*
X17030717Y9082155D01*
Y9048299D01*
X17047644Y9031372D01*
X17115356D01*
X10510503Y9599463D02*
X10408936D01*
Y9548679D01*
X10425864Y9531752D01*
X10459720D01*
X10476648Y9548679D01*
Y9599463D01*
Y9565607D02*
X10510503Y9531752D01*
X10425864Y9497896D02*
X10408936Y9480968D01*
Y9447112D01*
X10425864Y9430184D01*
X10442792D01*
X10459720Y9447112D01*
Y9464040D01*
Y9447112D01*
X10476648Y9430184D01*
X10493576D01*
X10510503Y9447112D01*
Y9480968D01*
X10493576Y9497896D01*
Y9396328D02*
X10510503Y9379401D01*
Y9345545D01*
X10493576Y9328617D01*
X10425864D01*
X10408936Y9345545D01*
Y9379401D01*
X10425864Y9396328D01*
X10442792D01*
X10459720Y9379401D01*
Y9328617D01*
X24026678Y9187197D02*
Y9288764D01*
X23975896D01*
X23958968Y9271836D01*
Y9237980D01*
X23975896Y9221052D01*
X24026678D01*
X23992822D02*
X23958968Y9187197D01*
X23925111Y9288764D02*
X23857401D01*
Y9271836D01*
X23925111Y9204124D01*
Y9187197D01*
X24999500Y9169417D02*
Y9270984D01*
X24948717D01*
X24931789Y9254056D01*
Y9220200D01*
X24948717Y9203272D01*
X24999500D01*
X24965643D02*
X24931789Y9169417D01*
X24830222Y9270984D02*
X24864076Y9254056D01*
X24897932Y9220200D01*
Y9186344D01*
X24881004Y9169417D01*
X24847148D01*
X24830222Y9186344D01*
Y9203272D01*
X24847148Y9220200D01*
X24897932D01*
X24024139Y9331977D02*
Y9433544D01*
X23973357D01*
X23956429Y9416616D01*
Y9382760D01*
X23973357Y9365832D01*
X24024139D01*
X23990283D02*
X23956429Y9331977D01*
X23922572Y9416616D02*
X23905644Y9433544D01*
X23871788D01*
X23854861Y9416616D01*
Y9399688D01*
X23871788Y9382760D01*
X23888716D01*
X23871788D01*
X23854861Y9365832D01*
Y9348904D01*
X23871788Y9331977D01*
X23905644D01*
X23922572Y9348904D01*
X24999500Y9311657D02*
Y9413224D01*
X24948717D01*
X24931789Y9396296D01*
Y9362440D01*
X24948717Y9345512D01*
X24999500D01*
X24965643D02*
X24931789Y9311657D01*
X24830222D02*
X24897932D01*
X24830222Y9379368D01*
Y9396296D01*
X24847148Y9413224D01*
X24881004D01*
X24897932Y9396296D01*
X17200044Y8898472D02*
X17267757D01*
X17284685Y8881544D01*
Y8847689D01*
X17267757Y8830761D01*
X17200044D01*
X17183118Y8847689D01*
Y8881544D01*
X17216972Y8864617D02*
X17183118Y8898472D01*
Y8881544D02*
X17200044Y8898472D01*
X17284685Y9000039D02*
X17267757Y8966184D01*
X17233900Y8932328D01*
X17200044D01*
X17183118Y8949256D01*
Y8983112D01*
X17200044Y9000039D01*
X17216972D01*
X17233900Y8983112D01*
Y8932328D01*
X23961508Y9486064D02*
Y9553776D01*
X23978436Y9570704D01*
X24012291D01*
X24029219Y9553776D01*
Y9486064D01*
X24012291Y9469137D01*
X23978436D01*
X23995363Y9502992D02*
X23961508Y9469137D01*
X23978436D02*
X23961508Y9486064D01*
X23859941Y9469137D02*
X23927652D01*
X23859941Y9536848D01*
Y9553776D01*
X23876868Y9570704D01*
X23910724D01*
X23927652Y9553776D01*
X24930099Y9465744D02*
Y9533456D01*
X24947028Y9550384D01*
X24980882D01*
X24997810Y9533456D01*
Y9465744D01*
X24980882Y9448817D01*
X24947028D01*
X24963956Y9482672D02*
X24930099Y9448817D01*
X24947028D02*
X24930099Y9465744D01*
X24896243Y9448817D02*
X24862389D01*
X24879317D01*
Y9550384D01*
X24896243Y9533456D01*
X25753061Y9420844D02*
X25786917D01*
X25769989D01*
Y9336204D01*
X25786917Y9319277D01*
X25803842D01*
X25820770Y9336204D01*
X25719205Y9319277D02*
X25685349D01*
X25702277D01*
Y9420844D01*
X25719205Y9403916D01*
X10408936Y9083859D02*
X10510503D01*
Y9033076D01*
X10493576Y9016148D01*
X10425864D01*
X10408936Y9033076D01*
Y9083859D01*
X10493576Y8982292D02*
X10510503Y8965364D01*
Y8931508D01*
X10493576Y8914581D01*
X10425864D01*
X10408936Y8931508D01*
Y8965364D01*
X10425864Y8982292D01*
X10442792D01*
X10459720Y8965364D01*
Y8914581D01*
X12180156Y9215104D02*
Y9113537D01*
X12129373D01*
X12112445Y9130464D01*
Y9147392D01*
X12129373Y9164320D01*
X12180156D01*
X12129373D01*
X12112445Y9181248D01*
Y9198176D01*
X12129373Y9215104D01*
X12180156D01*
X12078589Y9113537D02*
Y9181248D01*
X12044733Y9215104D01*
X12010878Y9181248D01*
Y9113537D01*
Y9164320D01*
X12078589D01*
X11977022Y9215104D02*
X11909310D01*
X11943166D01*
Y9113537D01*
X11875455D02*
X11841599D01*
X11858527D01*
Y9215104D01*
X11875455Y9198176D01*
%TF.MD5,ed14835f3d1f4b8634c3352620d6ceed*%
M02*
