%TF.GenerationSoftware,Altium Limited,Altium Designer,22.10.1 (41)*%
G04 Layer_Color=16711935*
%FSLAX45Y45*%
%MOMM*%
%TF.SameCoordinates,7AF7A6CA-8E19-454E-BC3C-B9F665CB1F4E*%
%TF.FilePolarity,Negative*%
%TF.FileFunction,Soldermask,Bot*%
%TF.Part,Single*%
G01*
G75*
%TA.AperFunction,SMDPad,CuDef*%
%ADD35R,0.55880X0.97790*%
%ADD103R,1.27000X1.52400*%
%ADD104R,1.52400X1.27000*%
%ADD120R,2.05000X3.05000*%
%ADD121R,1.55000X3.05000*%
G04:AMPARAMS|DCode=122|XSize=1.55mm|YSize=3.05mm|CornerRadius=0.4mm|HoleSize=0mm|Usage=FLASHONLY|Rotation=0.000|XOffset=0mm|YOffset=0mm|HoleType=Round|Shape=RoundedRectangle|*
%AMROUNDEDRECTD122*
21,1,1.55000,2.25000,0,0,0.0*
21,1,0.75000,3.05000,0,0,0.0*
1,1,0.80000,0.37500,-1.12500*
1,1,0.80000,-0.37500,-1.12500*
1,1,0.80000,-0.37500,1.12500*
1,1,0.80000,0.37500,1.12500*
%
%ADD122ROUNDEDRECTD122*%
%ADD123R,0.90000X0.95000*%
%ADD124R,1.20400X1.60400*%
%ADD125R,0.95000X0.90000*%
%ADD126R,1.43199X0.96400*%
%ADD127R,1.55000X1.45000*%
G04:AMPARAMS|DCode=128|XSize=0.95mm|YSize=0.9mm|CornerRadius=0mm|HoleSize=0mm|Usage=FLASHONLY|Rotation=45.000|XOffset=0mm|YOffset=0mm|HoleType=Round|Shape=Rectangle|*
%AMROTATEDRECTD128*
4,1,4,-0.01768,-0.65408,-0.65408,-0.01768,0.01768,0.65408,0.65408,0.01768,-0.01768,-0.65408,0.0*
%
%ADD128ROTATEDRECTD128*%

%ADD129R,0.65000X1.55000*%
%ADD130R,1.25000X1.65000*%
%ADD131R,0.75000X1.65000*%
%ADD132R,1.25000X2.25000*%
%ADD133R,4.55000X2.35000*%
%ADD134R,0.35000X1.55000*%
G04:AMPARAMS|DCode=135|XSize=0.95mm|YSize=0.9mm|CornerRadius=0mm|HoleSize=0mm|Usage=FLASHONLY|Rotation=315.000|XOffset=0mm|YOffset=0mm|HoleType=Round|Shape=Rectangle|*
%AMROTATEDRECTD135*
4,1,4,-0.65408,0.01768,-0.01768,0.65408,0.65408,-0.01768,0.01768,-0.65408,-0.65408,0.01768,0.0*
%
%ADD135ROTATEDRECTD135*%

%TA.AperFunction,ComponentPad*%
%ADD136C,1.05000*%
%ADD137C,6.40000*%
%ADD138O,1.05000X2.55000*%
%ADD139O,1.05000X2.05000*%
%ADD140R,1.70100X1.95500*%
%ADD141O,1.70100X1.95500*%
%ADD142O,4.05000X2.05000*%
%ADD143C,1.35000*%
%ADD144C,1.10000*%
%ADD145O,2.05000X4.05000*%
%ADD146O,4.45000X2.25000*%
D35*
X16556741Y9752965D02*
D03*
X16366739D02*
D03*
X16461740D02*
D03*
X16556741Y9479915D02*
D03*
X16366739D02*
D03*
X16461740D02*
D03*
D103*
X19829781Y9141460D02*
D03*
X20276820D02*
D03*
X19568159D02*
D03*
X19121120D02*
D03*
X20977859Y9144000D02*
D03*
X20530820D02*
D03*
D104*
X22547580Y9591040D02*
D03*
Y9144000D02*
D03*
X21717000Y9588500D02*
D03*
Y9141460D02*
D03*
X22959061Y9588500D02*
D03*
Y9141460D02*
D03*
X22136099Y9588500D02*
D03*
Y9141460D02*
D03*
X23385780Y9588500D02*
D03*
Y9141460D02*
D03*
X20076160Y9895840D02*
D03*
Y9448800D02*
D03*
Y8412480D02*
D03*
Y8859520D02*
D03*
D120*
X17571719Y8516400D02*
D03*
X18740120D02*
D03*
D121*
X17901920Y9240300D02*
D03*
D122*
X18155920D02*
D03*
X18409920D02*
D03*
D123*
X24340820Y9438640D02*
D03*
X24185818D02*
D03*
X24721820D02*
D03*
X24566818D02*
D03*
D124*
X24648160Y9602958D02*
D03*
X24743161Y9822962D02*
D03*
X24553159D02*
D03*
X24269701Y9608038D02*
D03*
X24364700Y9828042D02*
D03*
X24174699D02*
D03*
X17101820Y9496278D02*
D03*
X17196822Y9716282D02*
D03*
X17006819D02*
D03*
D125*
X24566818Y9278620D02*
D03*
Y9123619D02*
D03*
X24185818Y9288780D02*
D03*
Y9133779D02*
D03*
X16857980Y9927620D02*
D03*
X16212820Y9620280D02*
D03*
X16710660D02*
D03*
X16857980Y9622820D02*
D03*
Y9467820D02*
D03*
Y9772620D02*
D03*
X16212820Y9465280D02*
D03*
X16710660D02*
D03*
D126*
X10652760Y9395460D02*
D03*
Y9575800D02*
D03*
D127*
X10655300Y9131442D02*
D03*
Y8831438D02*
D03*
D128*
X20420137Y9610283D02*
D03*
X20529742Y9500677D02*
D03*
X19663603Y8700577D02*
D03*
X19553996Y8810183D02*
D03*
D129*
X16789639Y9201262D02*
D03*
X16149640D02*
D03*
X16229640D02*
D03*
X16709639D02*
D03*
D130*
X15327579Y9747921D02*
D03*
X13829599D02*
D03*
D131*
X14874602Y9847920D02*
D03*
X15204604D02*
D03*
X15094600D02*
D03*
X14984602D02*
D03*
X14654601D02*
D03*
X14544604D02*
D03*
X14764603D02*
D03*
X14324603D02*
D03*
X14434602D02*
D03*
D132*
X15327579Y8787922D02*
D03*
X13774599D02*
D03*
D133*
X12847417Y9161780D02*
D03*
X11207420D02*
D03*
D134*
X16344641Y9201262D02*
D03*
X16394638D02*
D03*
X16294638D02*
D03*
X16544641D02*
D03*
X16594638D02*
D03*
X16444641D02*
D03*
X16494638D02*
D03*
X16644640D02*
D03*
D135*
X20572923Y8820343D02*
D03*
X20463316Y8710737D02*
D03*
X19559077Y9493057D02*
D03*
X19668683Y9602663D02*
D03*
D136*
X10656925Y20541895D02*
D03*
X10333635D02*
D03*
Y20865186D02*
D03*
X10656925D02*
D03*
X10723880Y20703540D02*
D03*
X10495280Y20474940D02*
D03*
X10266680Y20703540D02*
D03*
X10495280Y20932140D02*
D03*
X26150925Y20531737D02*
D03*
X25827634D02*
D03*
Y20855026D02*
D03*
X26150925D02*
D03*
X26217880Y20693381D02*
D03*
X25989279Y20464781D02*
D03*
X25760681Y20693381D02*
D03*
X25989279Y20921980D02*
D03*
X15042601Y8747923D02*
D03*
X14244598D02*
D03*
D137*
X10495280Y20703540D02*
D03*
X25989279Y20693381D02*
D03*
D138*
X14358701Y19442561D02*
D03*
X15222704D02*
D03*
X16901643Y9109578D02*
D03*
X16037640D02*
D03*
D139*
X14358701Y19857562D02*
D03*
X15222704D02*
D03*
X16901643Y8694583D02*
D03*
X16037640D02*
D03*
D140*
X24958040Y8491220D02*
D03*
D141*
X24701500D02*
D03*
D142*
X25755539Y9030061D02*
D03*
D143*
X11632418Y9161780D02*
D03*
D144*
X12377420D02*
D03*
D145*
X25275540Y9370060D02*
D03*
D146*
X25755539Y9660062D02*
D03*
%TF.MD5,07c8475e8156303557e9a2da57159f14*%
M02*
