M48
;Layer_Color=9474304
;FILE_FORMAT=4:4
METRIC,LZ
;TYPE=PLATED
T5F00S00C0.7000
T8F00S00C1.0000
;TYPE=NON_PLATED
%
G90
G05
T05
G00X01603764Y00872958
M15
G01Y00865958
M16
G00X01603764Y00905958
M15
G01Y00915958
M16
G00X01690164Y00905958
M15
G01Y00915958
M16
G00X01690164Y00872958
M15
G01Y00865958
M16
G00X0152227Y01949256
M15
G01Y01939256
M16
G00X0143587Y01949256
M15
G01Y01939256
M16
G00X0143587Y01982256
M15
G01Y01989256
M16
G00X0152227Y01982256
M15
G01Y01989256
M16
T08
G00X02527554Y00926006
M15
G01Y00948006
M16
G00X02588554Y00966006
M15
G01X02562554
M16
G00X02586554Y00903006
M15
G01X02564554
M16
M17
M30
