%TF.GenerationSoftware,Altium Limited,Altium Designer,22.10.1 (41)*%
G04 Layer_Physical_Order=2*
G04 Layer_Color=32768*
%FSLAX45Y45*%
%MOMM*%
%TF.SameCoordinates,FE0E7334-CCE0-4667-BD18-01278DCCDDAB*%
%TF.FilePolarity,Negative*%
%TF.FileFunction,Copper,L2,Inr,Plane*%
%TF.Part,Single*%
G01*
G75*
%TA.AperFunction,NonConductor*%
%ADD94C,1.01600*%
%TA.AperFunction,ComponentPad*%
%ADD95C,1.42240*%
%ADD96C,1.50800*%
%ADD97O,4.10800X1.50800*%
%ADD98O,1.50800X3.70800*%
%ADD99C,1.55800*%
%ADD100C,1.80800*%
%TA.AperFunction,ViaPad*%
%ADD101C,0.80800*%
%ADD102C,0.90000*%
%ADD103C,0.90800*%
G36*
X21173360Y20096487D02*
X15717439D01*
Y20259048D01*
X21173360D01*
Y20096487D01*
D02*
G37*
D94*
X26022052Y21193381D02*
X26087033Y21184827D01*
X25956509Y21193381D02*
X26022052D01*
X25891525Y21184827D02*
X25956509Y21193381D01*
X25828214Y21167862D02*
X25891525Y21184827D01*
X25767661Y21142780D02*
X25828214Y21167862D01*
X25710898Y21110008D02*
X25767661Y21142780D01*
X25658899Y21070108D02*
X25710898Y21110008D01*
X25612552Y21023761D02*
X25658899Y21070108D01*
X25572653Y20971762D02*
X25612552Y21023761D01*
X25539880Y20914999D02*
X25572653Y20971762D01*
X25514799Y20854446D02*
X25539880Y20914999D01*
X25497835Y20791136D02*
X25514799Y20854446D01*
X25489281Y20726154D02*
X25497835Y20791136D01*
X25489281Y20693381D02*
Y20726154D01*
X21173360Y20233640D02*
X25489281D01*
X21173360Y20096487D02*
Y20233640D01*
X15717439Y20096487D02*
X21173360D01*
X15717439D02*
Y20233640D01*
X10993120D02*
X15717439D01*
X10992740Y20693381D02*
X10993120Y20233640D01*
X10992740Y20693381D02*
Y20726152D01*
X10984185Y20791135D02*
X10992740Y20726152D01*
X10967221Y20854443D02*
X10984185Y20791135D01*
X10942138Y20914999D02*
X10967221Y20854443D01*
X10909367Y20971761D02*
X10942138Y20914999D01*
X10869466Y21023759D02*
X10909367Y20971761D01*
X10823120Y21070107D02*
X10869466Y21023759D01*
X10771121Y21110007D02*
X10823120Y21070107D01*
X10714359Y21142778D02*
X10771121Y21110007D01*
X10653804Y21167860D02*
X10714359Y21142778D01*
X10590494Y21184825D02*
X10653804Y21167860D01*
X10525512Y21193381D02*
X10590494Y21184825D01*
X10459968Y21193381D02*
X10525512D01*
X10394985Y21184825D02*
X10459968Y21193381D01*
X10331675Y21167860D02*
X10394985Y21184825D01*
X10271121Y21142778D02*
X10331675Y21167860D01*
X10214359Y21110007D02*
X10271121Y21142778D01*
X10162360Y21070107D02*
X10214359Y21110007D01*
X10116013Y21023759D02*
X10162360Y21070107D01*
X10076113Y20971761D02*
X10116013Y21023759D01*
X10043341Y20914999D02*
X10076113Y20971761D01*
X10018259Y20854443D02*
X10043341Y20914999D01*
X10001295Y20791135D02*
X10018259Y20854443D01*
X9992740Y20726152D02*
X10001295Y20791135D01*
X9992740Y20693381D02*
Y20726152D01*
X26489279Y20726154D02*
X26489658Y20693381D01*
X26480725Y20791136D02*
X26489279Y20726154D01*
X26463760Y20854446D02*
X26480725Y20791136D01*
X26438678Y20914999D02*
X26463760Y20854446D01*
X26405908Y20971762D02*
X26438678Y20914999D01*
X26366006Y21023761D02*
X26405908Y20971762D01*
X26319659Y21070108D02*
X26366006Y21023761D01*
X26267661Y21110008D02*
X26319659Y21070108D01*
X26210898Y21142780D02*
X26267661Y21110008D01*
X26150345Y21167862D02*
X26210898Y21142780D01*
X26087033Y21184827D02*
X26150345Y21167862D01*
X25489281Y20233640D02*
Y20693381D01*
X9992359Y20690840D02*
X9992740Y20693381D01*
X9992359Y20690840D02*
X9992360Y8194040D01*
X26489658Y20693381D02*
X26489661Y8194040D01*
X9992360D02*
X26489661D01*
D95*
X24701500Y8491220D02*
D03*
X24958040D02*
D03*
D96*
X14244598Y8747923D02*
D03*
X15042601D02*
D03*
D97*
X25755539Y9660062D02*
D03*
D98*
X25275540Y9370060D02*
D03*
D99*
X12377420Y9161780D02*
D03*
D100*
X11632418D02*
D03*
D101*
X15276553Y13667241D02*
D03*
X13124181Y13583920D02*
D03*
X12943840Y13589000D02*
D03*
X13032739Y13500101D02*
D03*
X13124181Y13408659D02*
D03*
X12946381Y13411200D02*
D03*
X14338300Y17975580D02*
D03*
X14526260Y18148300D02*
D03*
X14754860Y17853661D02*
D03*
X14825980Y17790160D02*
D03*
X18785840Y15684500D02*
D03*
X13185139Y12758420D02*
D03*
X16309340Y13553439D02*
D03*
X15770860Y13769341D02*
D03*
Y13700760D02*
D03*
X15628619Y13655040D02*
D03*
X15541158Y13698219D02*
D03*
X15410358Y13662660D02*
D03*
X15341953Y13744005D02*
D03*
X18901305Y15673177D02*
D03*
X17429480Y12443460D02*
D03*
X15146021Y12547600D02*
D03*
X14902307Y12535027D02*
D03*
X14904195Y12445475D02*
D03*
X14900957Y12627569D02*
D03*
X15102840Y12265415D02*
D03*
X14950439Y12354560D02*
D03*
X19773900Y11656060D02*
D03*
X19776440Y11747500D02*
D03*
X23995380Y11996420D02*
D03*
X16355060Y12778099D02*
D03*
X16553180Y13439140D02*
D03*
X14635480Y14257021D02*
D03*
X14104620Y13929359D02*
D03*
X14376045Y12953645D02*
D03*
X14487498Y13181200D02*
D03*
X14074139Y12758420D02*
D03*
X14660880Y12898120D02*
D03*
X14571980Y12961620D02*
D03*
X14551660Y13108940D02*
D03*
X14620239Y9702800D02*
D03*
X13837279Y17767300D02*
D03*
X24062981Y13589861D02*
D03*
X24132539Y13672820D02*
D03*
X24051260Y14062296D02*
D03*
X24150320Y14131920D02*
D03*
X23726140Y14279880D02*
D03*
X19446240Y13850620D02*
D03*
X13241020Y15773399D02*
D03*
X12560300Y14874240D02*
D03*
X12756538Y14427858D02*
D03*
X10993120Y15003780D02*
D03*
X15514320Y18529300D02*
D03*
X23723599Y14493240D02*
D03*
X23655286Y14211780D02*
D03*
X15382240Y18414999D02*
D03*
X25709879Y13182600D02*
D03*
X24879300Y10139680D02*
D03*
X24884380Y10414000D02*
D03*
X24958040Y10716260D02*
D03*
X25021539Y10901680D02*
D03*
X25633679Y12936220D02*
D03*
X25560020Y12682220D02*
D03*
X25483820Y12425680D02*
D03*
X25407620Y12161520D02*
D03*
X25331419Y11902440D02*
D03*
X25255220Y11714480D02*
D03*
X25179021Y11412220D02*
D03*
X25100281Y11158220D02*
D03*
X24651180Y11785600D02*
D03*
Y11887200D02*
D03*
X23817580Y13909039D02*
D03*
X24193279Y13758958D02*
D03*
X14008099Y15557500D02*
D03*
X18615660Y9837420D02*
D03*
X18414999Y9824720D02*
D03*
X18163541Y9817100D02*
D03*
X16461740Y11605260D02*
D03*
X16546690Y11614010D02*
D03*
X16537939Y12006580D02*
D03*
X16372839Y11592560D02*
D03*
X16498570Y12474580D02*
D03*
X17899380Y9827260D02*
D03*
X25471120Y19837399D02*
D03*
X25311099Y19832320D02*
D03*
X25488901Y15511780D02*
D03*
X25331419Y15509241D02*
D03*
X10825480Y10132060D02*
D03*
X10980420Y10134600D02*
D03*
X10830560Y15003780D02*
D03*
X10198100Y10524490D02*
D03*
Y10627360D02*
D03*
Y10424160D02*
D03*
X21701759Y14472920D02*
D03*
X21973540Y14483080D02*
D03*
X22133560Y14599921D02*
D03*
X18534380Y10957560D02*
D03*
X18529300Y11257280D02*
D03*
X22633940Y10162540D02*
D03*
X21158200Y15664180D02*
D03*
X20510500Y15003780D02*
D03*
X20886420Y15560040D02*
D03*
X17188181Y12532360D02*
D03*
X16824960Y12694920D02*
D03*
X16312408Y12464886D02*
D03*
X17115541Y10184618D02*
D03*
X16711681Y10187158D02*
D03*
X16541501Y10182078D02*
D03*
Y10270978D02*
D03*
X16711681D02*
D03*
X16945361D02*
D03*
X17115541Y10268438D02*
D03*
X16945361Y10187158D02*
D03*
X19738341Y12743180D02*
D03*
X23535640Y10604500D02*
D03*
X21717000Y8978900D02*
D03*
X13284200Y10675620D02*
D03*
X13276579Y10546080D02*
D03*
X13271500Y10414000D02*
D03*
X10342880Y9634220D02*
D03*
X10182860Y9631680D02*
D03*
X10345420Y9756140D02*
D03*
X10182860Y9753600D02*
D03*
X15173959Y18425160D02*
D03*
X15003780Y18343880D02*
D03*
X15173959Y18341341D02*
D03*
X15288260D02*
D03*
X15003780Y18427699D02*
D03*
X15226671Y10581011D02*
D03*
X14124940Y11209020D02*
D03*
X14003020Y11206480D02*
D03*
X14124940Y11285220D02*
D03*
X14003020Y11282680D02*
D03*
X13099503Y15801851D02*
D03*
X14908481Y12712637D02*
D03*
X15415668Y12435853D02*
D03*
X11894820Y15996919D02*
D03*
X11942902Y15923082D02*
D03*
X13708380Y19021077D02*
D03*
X13710921Y18929637D02*
D03*
X13335001Y18747740D02*
D03*
X12364720Y14533881D02*
D03*
X11343640Y13058141D02*
D03*
X11412220Y12811760D02*
D03*
X11485880Y12580620D02*
D03*
X12593320Y15974060D02*
D03*
X12732607Y16050192D02*
D03*
X12456160Y15958820D02*
D03*
X12905740Y16006993D02*
D03*
X14932660Y16543021D02*
D03*
X11320780Y12298680D02*
D03*
X11788140Y15224760D02*
D03*
X11320780Y12029440D02*
D03*
X13514188Y15964848D02*
D03*
X13321674Y16157565D02*
D03*
X11315700Y11783060D02*
D03*
X11310620Y11534140D02*
D03*
X23939030Y13983093D02*
D03*
X24290021Y13830299D02*
D03*
X20698460Y15024100D02*
D03*
X22133560Y14716760D02*
D03*
X23891240Y14419580D02*
D03*
X23807420Y14350999D02*
D03*
X22291040Y14599921D02*
D03*
X22293581Y14716760D02*
D03*
X15011400Y12268200D02*
D03*
X14419580Y13253720D02*
D03*
X20297141Y11084560D02*
D03*
X22046422Y11092958D02*
D03*
X19598640Y15196820D02*
D03*
X23385780Y9779000D02*
D03*
X22956520Y9758680D02*
D03*
X13418208Y16061484D02*
D03*
X22547580Y9763760D02*
D03*
X14993620Y9695180D02*
D03*
X14823441D02*
D03*
X14488161D02*
D03*
X14323061D02*
D03*
X21719540Y9743440D02*
D03*
X22131020Y9756140D02*
D03*
X19253200Y10731500D02*
D03*
X15580360Y12136120D02*
D03*
X20594321Y14879320D02*
D03*
X18341341Y12301220D02*
D03*
X20469859Y14069060D02*
D03*
Y14173199D02*
D03*
X17363440Y12504420D02*
D03*
X20796291Y14874129D02*
D03*
X18237199Y12301220D02*
D03*
X15991840Y12164060D02*
D03*
X22288499Y10513060D02*
D03*
Y10617200D02*
D03*
X22194521D02*
D03*
Y10513060D02*
D03*
X24399240Y12255500D02*
D03*
X24052827Y10704532D02*
D03*
X24569420Y11887200D02*
D03*
Y11785600D02*
D03*
X23929340Y11569951D02*
D03*
X15422881Y11722100D02*
D03*
X22425661Y14328140D02*
D03*
X22463760Y10939780D02*
D03*
X22567900D02*
D03*
Y10838180D02*
D03*
X22463760D02*
D03*
X22723300Y11714480D02*
D03*
X21242020Y14091920D02*
D03*
X23037801Y12344400D02*
D03*
X22133560Y14483080D02*
D03*
X20571460Y14173199D02*
D03*
Y14069060D02*
D03*
X17975580Y16344901D02*
D03*
X18122900D02*
D03*
X18437860D02*
D03*
X17355820Y16347440D02*
D03*
X17660620Y16344901D02*
D03*
X19088100Y16347440D02*
D03*
X17820641Y16344901D02*
D03*
X18905220Y16347440D02*
D03*
X17195799D02*
D03*
X18750281D02*
D03*
X18590260D02*
D03*
X17510760D02*
D03*
X18282919Y16344901D02*
D03*
X16060420Y11638280D02*
D03*
X15539720Y11602080D02*
D03*
X15422881Y11602720D02*
D03*
X15539720Y11719560D02*
D03*
X12591526Y16662399D02*
D03*
X15704820Y12456160D02*
D03*
X14739619Y13583920D02*
D03*
X20469859Y12438380D02*
D03*
X20574001D02*
D03*
X20678140D02*
D03*
Y12336780D02*
D03*
Y12235180D02*
D03*
X20574001Y12336780D02*
D03*
Y12235180D02*
D03*
X20469859Y12336780D02*
D03*
Y12235180D02*
D03*
X22291040Y14480540D02*
D03*
X19253200Y10629900D02*
D03*
X19357339D02*
D03*
Y10731500D02*
D03*
X20192999Y10982960D02*
D03*
Y11084560D02*
D03*
X20297141Y10982960D02*
D03*
X23037801Y11414760D02*
D03*
Y12034520D02*
D03*
X23105901Y11105693D02*
D03*
X23990300Y12273280D02*
D03*
X16238220Y13606779D02*
D03*
X23804880Y12730480D02*
D03*
X23802341Y12560300D02*
D03*
X13599159Y11968480D02*
D03*
D102*
X18300700Y16146780D02*
D03*
X15147815Y13818346D02*
D03*
X14739619Y13816397D02*
D03*
X14843761D02*
D03*
X14632941D02*
D03*
X17442180Y15613380D02*
D03*
X18171159Y16141701D02*
D03*
X17366820Y16120587D02*
D03*
X17512114Y16120026D02*
D03*
X16464281Y14330679D02*
D03*
X18671539Y16144240D02*
D03*
X17904460Y16128999D02*
D03*
X17604739Y16210280D02*
D03*
X15046960Y13820140D02*
D03*
X14945360Y13817599D02*
D03*
X17776138Y16126460D02*
D03*
D103*
X19023634Y15666844D02*
D03*
%TF.MD5,5c97ec65338c52c07d1ff3296eda505a*%
M02*
