%TF.GenerationSoftware,Altium Limited,Altium Designer,22.10.1 (41)*%
G04 Layer_Color=255*
%FSLAX45Y45*%
%MOMM*%
%TF.SameCoordinates,FE0E7334-CCE0-4667-BD18-01278DCCDDAB*%
%TF.FilePolarity,Positive*%
%TF.FileFunction,Pads,Bot*%
%TF.Part,Single*%
G01*
G75*
%TA.AperFunction,SMDPad,CuDef*%
%ADD12R,0.85000X0.90000*%
%ADD17R,1.00000X1.40000*%
%ADD32R,1.50000X1.40000*%
%ADD36R,0.60000X1.50000*%
%ADD37R,0.30000X1.50000*%
%ADD39R,2.00000X3.00000*%
%ADD40R,1.50000X3.00000*%
G04:AMPARAMS|DCode=41|XSize=1.5mm|YSize=3mm|CornerRadius=0.375mm|HoleSize=0mm|Usage=FLASHONLY|Rotation=0.000|XOffset=0mm|YOffset=0mm|HoleType=Round|Shape=RoundedRectangle|*
%AMROUNDEDRECTD41*
21,1,1.50000,2.25000,0,0,0.0*
21,1,0.75000,3.00000,0,0,0.0*
1,1,0.75000,0.37500,-1.12500*
1,1,0.75000,-0.37500,-1.12500*
1,1,0.75000,-0.37500,1.12500*
1,1,0.75000,0.37500,1.12500*
%
%ADD41ROUNDEDRECTD41*%
%ADD58R,0.90000X0.85000*%
G04:AMPARAMS|DCode=59|XSize=0.9mm|YSize=0.85mm|CornerRadius=0mm|HoleSize=0mm|Usage=FLASHONLY|Rotation=45.000|XOffset=0mm|YOffset=0mm|HoleType=Round|Shape=Rectangle|*
%AMROTATEDRECTD59*
4,1,4,-0.01768,-0.61872,-0.61872,-0.01768,0.01768,0.61872,0.61872,0.01768,-0.01768,-0.61872,0.0*
%
%ADD59ROTATEDRECTD59*%

G04:AMPARAMS|DCode=60|XSize=0.9mm|YSize=0.85mm|CornerRadius=0mm|HoleSize=0mm|Usage=FLASHONLY|Rotation=315.000|XOffset=0mm|YOffset=0mm|HoleType=Round|Shape=Rectangle|*
%AMROTATEDRECTD60*
4,1,4,-0.61872,0.01768,-0.01768,0.61872,0.61872,-0.01768,0.01768,-0.61872,-0.61872,0.01768,0.0*
%
%ADD60ROTATEDRECTD60*%

%ADD63R,0.55880X0.97790*%
%TA.AperFunction,ComponentPad*%
%ADD80O,1.65100X1.90500*%
%ADD81R,1.65100X1.90500*%
%ADD82C,6.35000*%
%ADD83C,1.00000*%
%ADD84O,1.00000X2.00000*%
%ADD85O,1.00000X2.50000*%
%ADD86C,0.65000*%
%ADD87O,4.40000X2.20000*%
%ADD88O,2.00000X4.00000*%
%ADD89O,4.00000X2.00000*%
%ADD90C,1.05000*%
%ADD91C,1.30000*%
%TA.AperFunction,SMDPad,CuDef*%
%ADD104R,1.52400X1.27000*%
%ADD105R,0.70000X1.60000*%
%ADD106R,1.20000X2.20000*%
%ADD107R,1.20000X1.60000*%
%ADD108R,4.50000X2.30000*%
%ADD109R,1.27000X1.52400*%
D12*
X24566818Y9438640D02*
D03*
X24721820D02*
D03*
X24185818D02*
D03*
X24340820D02*
D03*
D17*
X24553159Y9822962D02*
D03*
X24743161D02*
D03*
X24648160Y9602958D02*
D03*
X24174699Y9828042D02*
D03*
X24364700D02*
D03*
X24269701Y9608038D02*
D03*
X17006819Y9716282D02*
D03*
X17196822D02*
D03*
X17101820Y9496278D02*
D03*
D32*
X10655300Y8831438D02*
D03*
Y9131442D02*
D03*
D36*
X16709639Y9201262D02*
D03*
X16229640D02*
D03*
X16149640D02*
D03*
X16789639D02*
D03*
D37*
X16644640D02*
D03*
X16494638D02*
D03*
X16444641D02*
D03*
X16594638D02*
D03*
X16544641D02*
D03*
X16294638D02*
D03*
X16394638D02*
D03*
X16344641D02*
D03*
D39*
X18740120Y8516400D02*
D03*
X17571719D02*
D03*
D40*
X17901920Y9240300D02*
D03*
D41*
X18409920D02*
D03*
X18155920D02*
D03*
D58*
X24566818Y9123619D02*
D03*
Y9278620D02*
D03*
X24185818Y9133779D02*
D03*
Y9288780D02*
D03*
X10652760Y9409400D02*
D03*
Y9564400D02*
D03*
X16857980Y9467820D02*
D03*
Y9622820D02*
D03*
Y9772620D02*
D03*
Y9927620D02*
D03*
X16212820Y9465280D02*
D03*
Y9620280D02*
D03*
X16710660Y9465280D02*
D03*
Y9620280D02*
D03*
D59*
X19553996Y8810183D02*
D03*
X19663603Y8700577D02*
D03*
X20529742Y9500677D02*
D03*
X20420137Y9610283D02*
D03*
D60*
X19668683Y9602663D02*
D03*
X19559077Y9493057D02*
D03*
X20463316Y8710737D02*
D03*
X20572923Y8820343D02*
D03*
D63*
X16461740Y9479915D02*
D03*
X16366739D02*
D03*
X16556741D02*
D03*
X16461740Y9752965D02*
D03*
X16366739D02*
D03*
X16556741D02*
D03*
D80*
X24701500Y8491220D02*
D03*
D81*
X24958040D02*
D03*
D82*
X25989279Y20693381D02*
D03*
X10495280Y20703540D02*
D03*
D83*
X25989279Y20921980D02*
D03*
X25760681Y20693381D02*
D03*
X25989279Y20464781D02*
D03*
X26217880Y20693381D02*
D03*
X26150925Y20855026D02*
D03*
X25827634D02*
D03*
Y20531737D02*
D03*
X26150925D02*
D03*
X14244598Y8747923D02*
D03*
X15042601D02*
D03*
X10495280Y20932140D02*
D03*
X10266680Y20703540D02*
D03*
X10495280Y20474940D02*
D03*
X10723880Y20703540D02*
D03*
X10656925Y20865186D02*
D03*
X10333635D02*
D03*
Y20541895D02*
D03*
X10656925D02*
D03*
D84*
X15222704Y19857562D02*
D03*
X14358701D02*
D03*
X16037640Y8694583D02*
D03*
X16901643D02*
D03*
D85*
X15222704Y19442561D02*
D03*
X14358701D02*
D03*
X16037640Y9109578D02*
D03*
X16901643D02*
D03*
D86*
X15079701Y19492558D02*
D03*
X14501698D02*
D03*
X16180638Y9059581D02*
D03*
X16758641D02*
D03*
D87*
X25755539Y9660062D02*
D03*
D88*
X25275540Y9370060D02*
D03*
D89*
X25755539Y9030061D02*
D03*
D90*
X12377420Y9161780D02*
D03*
D91*
X11632418D02*
D03*
D104*
X22136099Y9141460D02*
D03*
Y9588500D02*
D03*
X22547580Y9144000D02*
D03*
Y9591040D02*
D03*
X21717000Y9141460D02*
D03*
Y9588500D02*
D03*
X23385780Y9141460D02*
D03*
Y9588500D02*
D03*
X22959061Y9141460D02*
D03*
Y9588500D02*
D03*
X20076160Y8859520D02*
D03*
Y8412480D02*
D03*
Y9448800D02*
D03*
Y9895840D02*
D03*
D105*
X14434602Y9847920D02*
D03*
X14324603D02*
D03*
X14764603D02*
D03*
X14544604D02*
D03*
X14654601D02*
D03*
X14984602D02*
D03*
X15094600D02*
D03*
X15204604D02*
D03*
X14874602D02*
D03*
D106*
X13774599Y8787922D02*
D03*
X15327579D02*
D03*
D107*
X13829599Y9747921D02*
D03*
X15327579D02*
D03*
D108*
X11207420Y9161780D02*
D03*
X12847417D02*
D03*
D109*
X20276820Y9141460D02*
D03*
X19829781D02*
D03*
X19121120D02*
D03*
X19568159D02*
D03*
X20530820Y9144000D02*
D03*
X20977859D02*
D03*
%TF.MD5,12e4b86c56b280314fbf82c15f617bd3*%
M02*
