%TF.GenerationSoftware,Altium Limited,Altium Designer,22.10.1 (41)*%
G04 Layer_Physical_Order=4*
G04 Layer_Color=16711680*
%FSLAX45Y45*%
%MOMM*%
%TF.SameCoordinates,FE0E7334-CCE0-4667-BD18-01278DCCDDAB*%
%TF.FilePolarity,Positive*%
%TF.FileFunction,Copper,L4,Bot,Signal*%
%TF.Part,Single*%
G01*
G75*
%TA.AperFunction,SMDPad,CuDef*%
%ADD12R,0.85000X0.90000*%
%ADD17R,1.00000X1.40000*%
%ADD32R,1.50000X1.40000*%
%ADD36R,0.60000X1.50000*%
%ADD37R,0.30000X1.50000*%
%ADD39R,2.00000X3.00000*%
%ADD40R,1.50000X3.00000*%
G04:AMPARAMS|DCode=41|XSize=1.5mm|YSize=3mm|CornerRadius=0.375mm|HoleSize=0mm|Usage=FLASHONLY|Rotation=0.000|XOffset=0mm|YOffset=0mm|HoleType=Round|Shape=RoundedRectangle|*
%AMROUNDEDRECTD41*
21,1,1.50000,2.25000,0,0,0.0*
21,1,0.75000,3.00000,0,0,0.0*
1,1,0.75000,0.37500,-1.12500*
1,1,0.75000,-0.37500,-1.12500*
1,1,0.75000,-0.37500,1.12500*
1,1,0.75000,0.37500,1.12500*
%
%ADD41ROUNDEDRECTD41*%
%ADD58R,0.90000X0.85000*%
G04:AMPARAMS|DCode=59|XSize=0.9mm|YSize=0.85mm|CornerRadius=0mm|HoleSize=0mm|Usage=FLASHONLY|Rotation=45.000|XOffset=0mm|YOffset=0mm|HoleType=Round|Shape=Rectangle|*
%AMROTATEDRECTD59*
4,1,4,-0.01768,-0.61872,-0.61872,-0.01768,0.01768,0.61872,0.61872,0.01768,-0.01768,-0.61872,0.0*
%
%ADD59ROTATEDRECTD59*%

G04:AMPARAMS|DCode=60|XSize=0.9mm|YSize=0.85mm|CornerRadius=0mm|HoleSize=0mm|Usage=FLASHONLY|Rotation=315.000|XOffset=0mm|YOffset=0mm|HoleType=Round|Shape=Rectangle|*
%AMROTATEDRECTD60*
4,1,4,-0.61872,0.01768,-0.01768,0.61872,0.61872,-0.01768,0.01768,-0.61872,-0.61872,0.01768,0.0*
%
%ADD60ROTATEDRECTD60*%

%ADD63R,0.55880X0.97790*%
%TA.AperFunction,Conductor*%
%ADD65C,0.19998*%
%ADD66C,0.20000*%
%ADD67C,0.25400*%
%ADD68C,0.19895*%
%ADD71C,0.30800*%
%ADD72C,0.71200*%
%ADD74C,1.00000*%
%ADD77C,0.91200*%
%TA.AperFunction,ComponentPad*%
%ADD80O,1.65100X1.90500*%
%ADD81R,1.65100X1.90500*%
%ADD82C,6.35000*%
%ADD83C,1.00000*%
%ADD84O,1.00000X2.00000*%
%ADD85O,1.00000X2.50000*%
%ADD86C,0.65000*%
%ADD87O,4.40000X2.20000*%
%ADD88O,2.00000X4.00000*%
%ADD89O,4.00000X2.00000*%
%ADD90C,1.05000*%
%ADD91C,1.30000*%
%TA.AperFunction,ViaPad*%
%ADD92C,0.60000*%
%ADD93C,0.80000*%
%TA.AperFunction,SMDPad,CuDef*%
%ADD104R,1.52400X1.27000*%
%ADD105R,0.70000X1.60000*%
%ADD106R,1.20000X2.20000*%
%ADD107R,1.20000X1.60000*%
%ADD108R,4.50000X2.30000*%
%ADD109R,1.27000X1.52400*%
%TA.AperFunction,Conductor*%
%ADD110C,1.27000*%
%ADD111C,0.60000*%
%ADD112C,2.00000*%
G36*
X26076907Y21133919D02*
X26133661Y21118712D01*
X26187943Y21096228D01*
X26238824Y21066850D01*
X26285437Y21031084D01*
X26326984Y20989537D01*
X26362750Y20942926D01*
X26392126Y20892043D01*
X26414609Y20837762D01*
X26429816Y20781007D01*
X26437524Y20722461D01*
X26437863Y20693092D01*
X26437866Y8245834D01*
X10044154D01*
X10044153Y20690840D01*
X10044091Y20691153D01*
X10044534Y20693381D01*
Y20722755D01*
X10052203Y20781007D01*
X10067409Y20837761D01*
X10089893Y20892043D01*
X10119271Y20942924D01*
X10155038Y20989537D01*
X10196584Y21031084D01*
X10243195Y21066849D01*
X10294079Y21096227D01*
X10348359Y21118710D01*
X10405113Y21133917D01*
X10463362Y21141586D01*
X10522118D01*
X10580367Y21133917D01*
X10637121Y21118710D01*
X10691402Y21096227D01*
X10742284Y21066849D01*
X10788897Y21031082D01*
X10830443Y20989536D01*
X10866209Y20942924D01*
X10895587Y20892041D01*
X10918070Y20837761D01*
X10933277Y20781007D01*
X10940946Y20722758D01*
Y20693381D01*
X10940950Y20693359D01*
X10940946Y20693336D01*
X10941326Y20233597D01*
X10943295Y20223740D01*
X10945269Y20213818D01*
X10945281Y20213802D01*
X10945285Y20213779D01*
X10950936Y20205338D01*
X10956497Y20197015D01*
X10956514Y20197003D01*
X10956527Y20196985D01*
X10965065Y20191290D01*
X10973300Y20185786D01*
X10973321Y20185783D01*
X10973340Y20185771D01*
X10983304Y20183798D01*
X10993121Y20181845D01*
X15665645D01*
Y20096487D01*
X15669588Y20076666D01*
X15680815Y20059863D01*
X15697620Y20048636D01*
X15717439Y20044693D01*
X21173360D01*
X21193181Y20048636D01*
X21209985Y20059863D01*
X21221213Y20076666D01*
X21225156Y20096487D01*
Y20181845D01*
X25489279D01*
X25509100Y20185786D01*
X25525903Y20197015D01*
X25537131Y20213818D01*
X25541074Y20233640D01*
Y20693381D01*
Y20722757D01*
X25548743Y20781010D01*
X25563950Y20837762D01*
X25586433Y20892043D01*
X25615811Y20942926D01*
X25651578Y20989539D01*
X25693124Y21031084D01*
X25739734Y21066850D01*
X25790619Y21096228D01*
X25844901Y21118710D01*
X25901654Y21133919D01*
X25959903Y21141586D01*
X26018658D01*
X26076907Y21133919D01*
D02*
G37*
%LPC*%
G36*
X15235402Y19981941D02*
Y19870262D01*
X15298753D01*
Y19907562D01*
X15296162Y19927246D01*
X15288564Y19945589D01*
X15276479Y19961339D01*
X15260728Y19973424D01*
X15242386Y19981023D01*
X15235402Y19981941D01*
D02*
G37*
G36*
X14371400D02*
Y19870262D01*
X14434752D01*
Y19907562D01*
X14432161Y19927246D01*
X14424564Y19945589D01*
X14412477Y19961339D01*
X14396727Y19973424D01*
X14378384Y19981023D01*
X14371400Y19981941D01*
D02*
G37*
G36*
X15210002Y19981941D02*
X15203020Y19981023D01*
X15184677Y19973424D01*
X15168927Y19961339D01*
X15156841Y19945589D01*
X15149243Y19927246D01*
X15146652Y19907562D01*
Y19870262D01*
X15210002D01*
Y19981941D01*
D02*
G37*
G36*
X14346001D02*
X14339018Y19981023D01*
X14320676Y19973424D01*
X14304926Y19961339D01*
X14292841Y19945589D01*
X14285242Y19927246D01*
X14282651Y19907562D01*
Y19870262D01*
X14346001D01*
Y19981941D01*
D02*
G37*
G36*
X15210002Y19844862D02*
X15146652D01*
Y19807562D01*
X15149243Y19787878D01*
X15156841Y19769537D01*
X15168927Y19753787D01*
X15184677Y19741701D01*
X15203020Y19734103D01*
X15210002Y19733183D01*
Y19844862D01*
D02*
G37*
G36*
X14346001D02*
X14282651D01*
Y19807562D01*
X14285242Y19787878D01*
X14292841Y19769537D01*
X14304926Y19753787D01*
X14320676Y19741701D01*
X14339018Y19734103D01*
X14346001Y19733183D01*
Y19844862D01*
D02*
G37*
G36*
X15298753D02*
X15235402D01*
Y19733183D01*
X15242386Y19734103D01*
X15260728Y19741701D01*
X15276479Y19753787D01*
X15288564Y19769537D01*
X15296162Y19787878D01*
X15298753Y19807562D01*
Y19844862D01*
D02*
G37*
G36*
X14434752D02*
X14371400D01*
Y19733183D01*
X14378384Y19734103D01*
X14396727Y19741701D01*
X14412477Y19753787D01*
X14424564Y19769537D01*
X14432161Y19787878D01*
X14434752Y19807562D01*
Y19844862D01*
D02*
G37*
G36*
X15235403Y19591940D02*
Y19455263D01*
X15298753D01*
Y19517561D01*
X15296162Y19537247D01*
X15288564Y19555588D01*
X15276479Y19571338D01*
X15260728Y19583424D01*
X15242386Y19591022D01*
X15235403Y19591940D01*
D02*
G37*
G36*
X14371400D02*
Y19455263D01*
X14434752D01*
Y19517561D01*
X14432161Y19537247D01*
X14424564Y19555588D01*
X14412477Y19571338D01*
X14396727Y19583424D01*
X14378384Y19591022D01*
X14371400Y19591940D01*
D02*
G37*
G36*
X15210004D02*
X15203020Y19591022D01*
X15184677Y19583424D01*
X15168927Y19571338D01*
X15156841Y19555588D01*
X15149243Y19537247D01*
X15146652Y19517561D01*
Y19455263D01*
X15210004D01*
Y19591940D01*
D02*
G37*
G36*
X14346001D02*
X14339018Y19591022D01*
X14320676Y19583424D01*
X14304926Y19571338D01*
X14292841Y19555588D01*
X14285242Y19537247D01*
X14282651Y19517561D01*
Y19455263D01*
X14346001D01*
Y19591940D01*
D02*
G37*
G36*
X15298753Y19429861D02*
X15235403D01*
Y19293182D01*
X15242386Y19294102D01*
X15260728Y19301700D01*
X15276479Y19313786D01*
X15288564Y19329536D01*
X15296162Y19347878D01*
X15298753Y19367561D01*
Y19429861D01*
D02*
G37*
G36*
X14434752D02*
X14371400D01*
Y19293182D01*
X14378384Y19294102D01*
X14396727Y19301700D01*
X14412477Y19313786D01*
X14424564Y19329536D01*
X14432161Y19347878D01*
X14434752Y19367561D01*
Y19429861D01*
D02*
G37*
G36*
X15210004D02*
X15146652D01*
Y19367561D01*
X15149243Y19347878D01*
X15156841Y19329536D01*
X15168927Y19313786D01*
X15184677Y19301700D01*
X15203020Y19294102D01*
X15210004Y19293182D01*
Y19429861D01*
D02*
G37*
G36*
X14346001D02*
X14282651D01*
Y19367561D01*
X14285242Y19347878D01*
X14292841Y19329536D01*
X14304926Y19313786D01*
X14320676Y19301700D01*
X14339018Y19294102D01*
X14346001Y19293182D01*
Y19429861D01*
D02*
G37*
G36*
X10716260Y20135078D02*
X10154920D01*
X10145009Y20133105D01*
X10136608Y20127492D01*
X10130994Y20119090D01*
X10129022Y20109180D01*
Y9768392D01*
X10127460Y9764620D01*
Y9742580D01*
X10129022Y9738808D01*
Y9646472D01*
X10127460Y9642700D01*
Y9620660D01*
X10129022Y9616888D01*
Y9565640D01*
X10130994Y9555729D01*
X10136608Y9547328D01*
X10145009Y9541714D01*
X10154920Y9539742D01*
X10380980D01*
X10390891Y9541714D01*
X10399292Y9547328D01*
X10728462Y9876498D01*
X10741162Y9871237D01*
Y9867900D01*
X10743134Y9857989D01*
X10748748Y9849588D01*
X10757149Y9843974D01*
X10767060Y9842002D01*
X11054080D01*
X11063991Y9843974D01*
X11072392Y9849588D01*
X11078006Y9857989D01*
X11079978Y9867900D01*
Y16308842D01*
X11953518D01*
X11958379Y16297108D01*
X11865405Y16204135D01*
X11856387Y16190639D01*
X11853221Y16174719D01*
Y16054175D01*
X11846945Y16026106D01*
X11839420Y16007941D01*
Y15985899D01*
X11847854Y15965540D01*
X11863439Y15949954D01*
X11883800Y15941521D01*
X11887982Y15935262D01*
X11887502Y15934100D01*
Y15924141D01*
X11878827Y15893463D01*
X11179951Y15194588D01*
X11171530Y15181984D01*
X11168573Y15167117D01*
Y9307420D01*
X11165984Y9302180D01*
X10957020D01*
Y9021380D01*
X11457820D01*
Y9302180D01*
X11248855D01*
X11246266Y9307420D01*
Y11511549D01*
X11258966Y11514076D01*
X11263654Y11502759D01*
X11279239Y11487174D01*
X11299600Y11478740D01*
X11321640D01*
X11342001Y11487174D01*
X11342472Y11487645D01*
X11372671Y11498047D01*
X11882120D01*
X11895932Y11500794D01*
X11907642Y11508618D01*
X12204822Y11805798D01*
X12212646Y11817508D01*
X12215393Y11831320D01*
Y14590050D01*
X12466789Y14841444D01*
X12478522Y14836584D01*
Y14833600D01*
X12480494Y14823689D01*
X12486108Y14815288D01*
X12494509Y14809674D01*
X12504420Y14807703D01*
X13370560D01*
X13380470Y14809674D01*
X13388873Y14815288D01*
X13724152Y15150568D01*
X15146552Y16572968D01*
X15152167Y16581369D01*
X15154137Y16591280D01*
X15152167Y16601192D01*
X15146552Y16609592D01*
X14895058Y16861087D01*
Y17560959D01*
X14906792Y17565819D01*
X15348688Y17123923D01*
Y15183830D01*
X14381358Y14216501D01*
X14373535Y14204791D01*
X14370789Y14190981D01*
Y13965453D01*
X14166672D01*
X14136473Y13975854D01*
X14136002Y13976326D01*
X14115640Y13984760D01*
X14093600D01*
X14073239Y13976326D01*
X14057654Y13960741D01*
X14049220Y13940379D01*
Y13918340D01*
X14057654Y13897980D01*
X14073239Y13882394D01*
X14093600Y13873959D01*
X14115640D01*
X14136002Y13882394D01*
X14136473Y13882864D01*
X14166672Y13893268D01*
X14373328D01*
Y13764259D01*
X14376076Y13750449D01*
X14383899Y13738739D01*
X14455367Y13667271D01*
X14450507Y13655537D01*
X12832080D01*
X12822169Y13653566D01*
X12813768Y13647952D01*
X12808154Y13639551D01*
X12806181Y13629640D01*
Y13347701D01*
X12808154Y13337788D01*
X12813768Y13329388D01*
X12822169Y13323775D01*
X12832080Y13321802D01*
X14408517D01*
X14408560Y13309120D01*
X14388199Y13300687D01*
X14372614Y13285101D01*
X14364180Y13264740D01*
Y13264073D01*
X14350182Y13235364D01*
X14175620Y13060802D01*
X14167795Y13049092D01*
X14165048Y13035280D01*
Y12334240D01*
X14167795Y12320428D01*
X14175620Y12308719D01*
X14248868Y12235470D01*
Y10467021D01*
Y10329848D01*
X14251614Y10316036D01*
X14259439Y10304327D01*
X14277138Y10286627D01*
X14280492Y10284387D01*
Y10269112D01*
X14277138Y10266872D01*
X14259439Y10249172D01*
X14251614Y10237463D01*
X14248868Y10223651D01*
Y10142853D01*
Y10033000D01*
X14251614Y10019188D01*
X14259439Y10007479D01*
X14288512Y9978406D01*
Y9953335D01*
X14288504Y9953320D01*
X14264204D01*
Y9742521D01*
X14270964D01*
X14278339Y9732181D01*
X14276566Y9727033D01*
X14276094Y9726561D01*
X14267661Y9706200D01*
Y9684160D01*
X14276094Y9663799D01*
X14291679Y9648214D01*
X14312041Y9639780D01*
X14334081D01*
X14354440Y9648214D01*
X14370026Y9663799D01*
X14378461Y9684160D01*
Y9706200D01*
X14370026Y9726561D01*
X14369556Y9727033D01*
X14367783Y9732181D01*
X14375156Y9742521D01*
X14404181D01*
X14411388Y9731736D01*
X14421744Y9721380D01*
X14432761Y9689359D01*
Y9684160D01*
X14441194Y9663799D01*
X14456779Y9648214D01*
X14477139Y9639780D01*
X14499181D01*
X14519540Y9648214D01*
X14535126Y9663799D01*
X14539500Y9674361D01*
X14551654Y9678047D01*
X14553059Y9677109D01*
X14556737Y9676377D01*
X14584708Y9659984D01*
X14588860Y9655834D01*
X14609219Y9647400D01*
X14631261D01*
X14651620Y9655834D01*
X14667206Y9671419D01*
X14670795Y9680082D01*
X14683250Y9682560D01*
X14698021Y9667789D01*
Y9583918D01*
X14260127D01*
X14196558Y9647487D01*
Y11336020D01*
X14194586Y11345931D01*
X14188972Y11354332D01*
X14180571Y11359946D01*
X14170660Y11361918D01*
X13959840D01*
X13949928Y11359946D01*
X13941528Y11354332D01*
X13935915Y11345931D01*
X13933942Y11336020D01*
Y9009380D01*
X13935915Y8999469D01*
X13941528Y8991068D01*
X14081262Y8851333D01*
Y8696873D01*
X14021349Y8636959D01*
X11002731D01*
X10905179Y8734511D01*
Y9420860D01*
X10902013Y9436779D01*
X10892995Y9450275D01*
X10755333Y9587937D01*
X10741837Y9596955D01*
X10725918Y9600122D01*
X10723160D01*
Y9632300D01*
X10582360D01*
Y9496500D01*
X10723159D01*
X10723160Y9496500D01*
Y9496499D01*
X10733954Y9491656D01*
X10821981Y9403629D01*
Y8717280D01*
X10825147Y8701361D01*
X10834165Y8687865D01*
X10956084Y8565946D01*
X10956085Y8565945D01*
X10969581Y8556927D01*
X10985500Y8553760D01*
X10985501Y8553761D01*
X14038580D01*
X14054498Y8556927D01*
X14067995Y8565945D01*
X14150253Y8648202D01*
X14196263D01*
X14197939Y8648536D01*
X14199643Y8648424D01*
X14202852Y8649513D01*
X14206174Y8650174D01*
X14207594Y8651123D01*
X14209212Y8651672D01*
X14211760Y8653906D01*
X14214577Y8655788D01*
X14215524Y8657208D01*
X14216809Y8658334D01*
X14218307Y8661373D01*
X14220190Y8664189D01*
X14229672Y8673862D01*
X14234673Y8672523D01*
X14254526D01*
X14259526Y8673862D01*
X14269009Y8664189D01*
X14270891Y8661373D01*
X14272391Y8658334D01*
X14273674Y8657208D01*
X14274623Y8655788D01*
X14277438Y8653906D01*
X14279987Y8651672D01*
X14281606Y8651123D01*
X14283025Y8650174D01*
X14286346Y8649513D01*
X14289555Y8648424D01*
X14291260Y8648536D01*
X14292935Y8648202D01*
X14994266D01*
X14995941Y8648536D01*
X14997646Y8648424D01*
X15000854Y8649513D01*
X15004176Y8650174D01*
X15005595Y8651123D01*
X15007214Y8651672D01*
X15009763Y8653906D01*
X15012578Y8655788D01*
X15013527Y8657208D01*
X15014812Y8658334D01*
X15016310Y8661373D01*
X15018192Y8664189D01*
X15027675Y8673862D01*
X15032675Y8672523D01*
X15052528D01*
X15057529Y8673862D01*
X15067010Y8664189D01*
X15068893Y8661373D01*
X15070390Y8658334D01*
X15071677Y8657208D01*
X15072626Y8655788D01*
X15075441Y8653906D01*
X15077989Y8651672D01*
X15079607Y8651123D01*
X15081027Y8650174D01*
X15084349Y8649513D01*
X15087556Y8648424D01*
X15089262Y8648536D01*
X15090936Y8648202D01*
X15209520D01*
X15219431Y8650174D01*
X15227832Y8655788D01*
X15229478Y8658252D01*
X15242178Y8654400D01*
Y8652522D01*
X15314879D01*
Y8787922D01*
Y8923323D01*
X15248119D01*
X15242180Y8923323D01*
X15235419Y8933222D01*
Y9556968D01*
X15233446Y9566878D01*
X15227834Y9575279D01*
X15227832Y9575280D01*
X15219431Y9580894D01*
X15219431Y9580894D01*
X15216890Y9581946D01*
X15206981Y9583918D01*
X14781219D01*
Y9642460D01*
X14793919Y9647443D01*
X14812421Y9639780D01*
X14834460D01*
X14854820Y9648214D01*
X14858498Y9651891D01*
X14888930Y9666743D01*
X14904756D01*
X14918568Y9669490D01*
X14927953Y9675761D01*
X14936523Y9674852D01*
X14943159Y9672236D01*
X14946654Y9663799D01*
X14962239Y9648214D01*
X14982600Y9639780D01*
X15004640D01*
X15025002Y9648214D01*
X15025702Y9648915D01*
X15055893Y9660864D01*
X15060773Y9661835D01*
X15072481Y9669659D01*
X15120120Y9717299D01*
X15127945Y9729008D01*
X15130617Y9742440D01*
X15130656Y9742521D01*
X15191904D01*
Y9847920D01*
Y9953320D01*
X15130701D01*
X15130693Y9953335D01*
Y10051942D01*
X15137880Y10059130D01*
X15145705Y10070839D01*
X15148451Y10084651D01*
Y10334597D01*
X15145705Y10348409D01*
X15137880Y10360118D01*
X15108282Y10389717D01*
X15108281Y10389717D01*
X15085719Y10412278D01*
X15128499Y10455056D01*
X15136324Y10466765D01*
X15139070Y10480577D01*
Y10499810D01*
X15136324Y10513622D01*
X15128499Y10525331D01*
X15109267Y10544563D01*
X15097557Y10552387D01*
X15083745Y10555135D01*
X15074574D01*
X15064133Y10557127D01*
X15062140Y10567570D01*
Y10576740D01*
X15059392Y10590552D01*
X15051569Y10602261D01*
X15032336Y10621494D01*
X15020627Y10629318D01*
X15006815Y10632065D01*
X14987582D01*
X14982607Y10644024D01*
Y10651067D01*
X14979858Y10664879D01*
X14972035Y10676588D01*
X14952802Y10695821D01*
X14941093Y10703645D01*
X14927281Y10706392D01*
X14908049D01*
X14894237Y10703645D01*
X14882529Y10695821D01*
X14842352Y10655646D01*
X14796033Y10701966D01*
Y10797798D01*
Y12626340D01*
X14793285Y12640152D01*
X14785461Y12651861D01*
X14750311Y12687010D01*
Y12835382D01*
X14763013Y12840643D01*
X14830528Y12773128D01*
X14838930Y12767514D01*
X14848840Y12765542D01*
X14865079D01*
X14870338Y12752842D01*
X14861514Y12744019D01*
X14853081Y12723657D01*
Y12701617D01*
X14861514Y12681256D01*
X14868906Y12673866D01*
X14853990Y12658951D01*
X14845557Y12638589D01*
Y12616550D01*
X14853990Y12596188D01*
X14869556Y12580623D01*
X14855341Y12566408D01*
X14846907Y12546047D01*
Y12524007D01*
X14855341Y12503645D01*
X14869679Y12489307D01*
X14857230Y12476857D01*
X14848795Y12456495D01*
Y12434455D01*
X14857230Y12414094D01*
X14872813Y12398509D01*
X14893175Y12390075D01*
X14899927Y12377375D01*
X14895039Y12365580D01*
Y12364914D01*
X14881042Y12336206D01*
X14876659Y12331822D01*
X14868834Y12320112D01*
X14866087Y12306300D01*
Y10896600D01*
X14868834Y10882788D01*
X14876659Y10871078D01*
X15156140Y10591596D01*
X15174802Y10561469D01*
X15179704Y10549630D01*
X15195290Y10534045D01*
X15215651Y10525611D01*
X15237691D01*
X15258054Y10534045D01*
X15273637Y10549630D01*
X15282071Y10569991D01*
Y10592031D01*
X15273637Y10612393D01*
X15258054Y10627977D01*
X15237691Y10636411D01*
X15233353D01*
X15201759Y10648064D01*
X14938274Y10911550D01*
Y12285705D01*
X14947940Y12290303D01*
X14957043Y12281739D01*
X14956000Y12279220D01*
Y12257180D01*
X14964433Y12236819D01*
X14980019Y12221234D01*
X15000380Y12212800D01*
X15001306D01*
X15002968Y12212215D01*
Y10945192D01*
X15005711Y10931401D01*
X15013524Y10919708D01*
X16233318Y9699914D01*
X16228458Y9688181D01*
X16225520D01*
Y9632980D01*
X16283220D01*
Y9636532D01*
X16295157Y9643566D01*
X16295920Y9643525D01*
X16306799Y9641360D01*
X16306802Y9641360D01*
X16502132D01*
X16515923Y9644104D01*
X16527615Y9651916D01*
X16545091Y9669391D01*
X16563254Y9678670D01*
X16610081D01*
Y9827260D01*
X16523935D01*
Y9852298D01*
X16644981Y9973345D01*
X16787579D01*
Y9940320D01*
X16928380D01*
Y9973345D01*
X17007478D01*
X17129947Y9850876D01*
X17124533Y9811682D01*
X17121420D01*
Y9786947D01*
X17121228Y9785977D01*
X17121420Y9785008D01*
Y9620883D01*
X17121420D01*
X17118681Y9609318D01*
X17096155D01*
X17089526Y9622018D01*
X17091496Y9624967D01*
X17093468Y9634878D01*
Y9805058D01*
X17091496Y9814968D01*
X17085883Y9823370D01*
X17052863Y9856390D01*
X17044461Y9862004D01*
X17034550Y9863975D01*
X16928380D01*
Y9914920D01*
X16787579D01*
Y9863353D01*
X16780800Y9862004D01*
X16772398Y9856390D01*
X16766785Y9847988D01*
X16764813Y9838078D01*
Y9688181D01*
X16723360D01*
Y9620280D01*
Y9552380D01*
X16756557D01*
X16764388Y9540727D01*
X16760555Y9533180D01*
X16640260D01*
Y9397380D01*
X16640260Y9397380D01*
X16640260D01*
X16634630Y9387068D01*
X16578273Y9330710D01*
X16565573Y9335971D01*
Y9367045D01*
X16582224Y9383696D01*
X16582225Y9383697D01*
X16590038Y9395389D01*
X16591650Y9403500D01*
X16592696Y9405620D01*
X16610081D01*
Y9554210D01*
X16474440D01*
Y9479915D01*
X16449040D01*
Y9554210D01*
X16313399D01*
Y9405620D01*
X16340656D01*
X16341565Y9403618D01*
X16342476Y9399040D01*
X16348093Y9390635D01*
X16358598Y9365269D01*
Y9301662D01*
X16329893D01*
X16328748Y9307429D01*
X16320326Y9320031D01*
X16255678Y9384679D01*
X16260939Y9397379D01*
X16283220D01*
Y9533180D01*
X16142419D01*
Y9397379D01*
X16171318D01*
X16173973Y9392069D01*
Y9372600D01*
X16176932Y9357734D01*
X16185352Y9345132D01*
X16217088Y9313395D01*
X16212228Y9301662D01*
X16162340D01*
Y9201262D01*
Y9100862D01*
X16182030D01*
X16186726Y9093831D01*
X16195129Y9088217D01*
X16195129Y9088217D01*
X16198766Y9086711D01*
X16207768Y9077709D01*
X16212640Y9065946D01*
Y9053215D01*
X16210628Y9048356D01*
X16208656Y9038446D01*
X16210628Y9028536D01*
X16216241Y9020134D01*
X16265628Y8970748D01*
X16274030Y8965134D01*
X16283940Y8963162D01*
X16648039D01*
X16657948Y8965134D01*
X16666351Y8970748D01*
X16720898Y9025295D01*
X16720898Y9025295D01*
X16726514Y9033697D01*
X16728484Y9043608D01*
X16726637Y9052887D01*
Y9065946D01*
X16731509Y9077709D01*
X16740514Y9086711D01*
X16744148Y9088217D01*
X16752551Y9093831D01*
X16757249Y9100862D01*
X16776939D01*
Y9201262D01*
X16802339D01*
Y9100862D01*
X16825592D01*
Y9034578D01*
X16828183Y9014894D01*
X16835780Y8996552D01*
X16847867Y8980802D01*
X16863617Y8968716D01*
X16881960Y8961118D01*
X16888943Y8960199D01*
Y9109578D01*
Y9258957D01*
X16881960Y9258037D01*
X16863617Y9250440D01*
X16857739Y9245929D01*
X16845039Y9252192D01*
Y9301662D01*
X16808949D01*
X16804089Y9313395D01*
X16872955Y9382262D01*
X17167860D01*
X17177771Y9384234D01*
X17186172Y9389848D01*
X17191786Y9398249D01*
X17193758Y9408160D01*
Y9583420D01*
X17191786Y9593331D01*
X17186172Y9601732D01*
X17177771Y9607346D01*
X17173567Y9608182D01*
X17174818Y9620882D01*
X17272221D01*
Y9785008D01*
X17272414Y9785977D01*
X17272221Y9786947D01*
Y9811682D01*
X17266634D01*
X17254755Y9857758D01*
Y9876218D01*
X17254756Y9876220D01*
X17252177Y9889180D01*
Y10342313D01*
X17737387Y10827522D01*
X19138042D01*
X19148563Y10815320D01*
Y10541000D01*
X19150534Y10531089D01*
X19156148Y10522688D01*
X19164549Y10517074D01*
X19174460Y10515102D01*
X20438882D01*
Y10010140D01*
X20439845Y10005302D01*
X20440762Y10000451D01*
X20440829Y10000349D01*
X20440854Y10000229D01*
X20443594Y9996126D01*
X20446300Y9991998D01*
X20446400Y9991929D01*
X20446468Y9991828D01*
X20450565Y9989090D01*
X20454648Y9986306D01*
X20454768Y9986282D01*
X20454869Y9986214D01*
X20459698Y9985253D01*
X20464540Y9984243D01*
X20729860Y9981787D01*
X20729889Y9981792D01*
X20729918Y9981786D01*
X20734380Y9982641D01*
X20739101Y9981702D01*
X23999893D01*
X24076164Y9905431D01*
X24079709Y9903062D01*
X24083099Y9900479D01*
X24083888Y9900270D01*
X24084567Y9899817D01*
X24088748Y9898985D01*
X24092868Y9897895D01*
X24097690Y9897595D01*
X24099300Y9885033D01*
Y9869478D01*
X24094060Y9866889D01*
X24088998D01*
X24074133Y9863932D01*
X24061530Y9855511D01*
X24046651Y9840632D01*
X24038231Y9828029D01*
X24035274Y9813163D01*
Y9484360D01*
X24038231Y9469494D01*
X24046651Y9456891D01*
X24092371Y9411171D01*
X24104974Y9402751D01*
X24110760Y9401599D01*
X24117918Y9398264D01*
Y9368241D01*
X24117918Y9368241D01*
X24115417Y9356680D01*
X24115419Y9356680D01*
X24115419Y9356575D01*
Y9220880D01*
X24160886D01*
Y9201679D01*
X24115419D01*
Y9146479D01*
X24185818D01*
Y9133779D01*
X24198518D01*
Y9061825D01*
X24198698Y9061690D01*
X24203725Y9054146D01*
X24205695Y9044235D01*
X24206750Y9042657D01*
X24212842Y9027948D01*
Y9016212D01*
X24208351Y9005368D01*
X24200052Y8997069D01*
X24189207Y8992578D01*
X24186784D01*
X24176872Y8990606D01*
X24168472Y8984992D01*
X24162859Y8976591D01*
X24160886Y8966680D01*
Y8444596D01*
X24162859Y8434685D01*
X24168472Y8426284D01*
X24314888Y8279867D01*
X24323289Y8274253D01*
X24333200Y8272282D01*
X24757381Y8272282D01*
X24767291Y8274254D01*
X24775693Y8279868D01*
X24844272Y8348448D01*
X24849886Y8356849D01*
X24851859Y8366760D01*
Y8370570D01*
X25065990D01*
Y8611870D01*
X24850090D01*
X24840678Y8619807D01*
X24478477Y8982007D01*
Y9394725D01*
X24489874Y9401789D01*
X24498920Y9397233D01*
Y9368240D01*
X24525385D01*
X24527972Y9363000D01*
Y9351760D01*
X24525385Y9346520D01*
X24496419D01*
Y9210720D01*
X24637219D01*
Y9346520D01*
X24608255D01*
X24605666Y9351760D01*
Y9363000D01*
X24608255Y9368240D01*
X24633675D01*
X24645088Y9356828D01*
X24653490Y9351214D01*
X24663400Y9349242D01*
X24782780D01*
X24792691Y9351214D01*
X24801093Y9356828D01*
X24806706Y9365229D01*
X24807568Y9369562D01*
X25149059D01*
Y9270060D01*
X25153368Y9237324D01*
X25166003Y9206819D01*
X25186104Y9180624D01*
X25212299Y9160523D01*
X25242804Y9147888D01*
X25275540Y9143578D01*
X25308276Y9147888D01*
X25338782Y9160523D01*
X25364977Y9180624D01*
X25385077Y9206819D01*
X25397713Y9237324D01*
X25402022Y9270060D01*
Y9369562D01*
X26012140D01*
X26022052Y9371534D01*
X26030453Y9377148D01*
X26036066Y9385549D01*
X26038037Y9395460D01*
Y9979660D01*
X26036066Y9989571D01*
X26030453Y9997972D01*
X26022052Y10003586D01*
X26012140Y10005558D01*
X25125681D01*
X25115768Y10003586D01*
X25107367Y9997972D01*
X24914795Y9805400D01*
X24906783Y9808093D01*
X24902658Y9811223D01*
Y9999980D01*
X24900687Y10009891D01*
X24895071Y10018292D01*
X24783278Y10130087D01*
Y10162985D01*
X24795010Y10167845D01*
X24809076Y10153780D01*
X24826006Y10123579D01*
X24832333Y10108299D01*
X24847919Y10092714D01*
X24868280Y10084280D01*
X24890320D01*
X24910681Y10092714D01*
X24926266Y10108299D01*
X24934700Y10128660D01*
Y10150700D01*
X24926266Y10171061D01*
X24910681Y10186646D01*
X24890320Y10195080D01*
X24887605D01*
X24857079Y10207866D01*
X24839194Y10225750D01*
Y10364246D01*
X24850928Y10369106D01*
X24852998Y10367034D01*
X24873360Y10358600D01*
X24895399D01*
X24915761Y10367034D01*
X24931346Y10382619D01*
X24939780Y10402980D01*
Y10425020D01*
X24931346Y10445381D01*
X24930875Y10445852D01*
X24920473Y10476051D01*
Y10658886D01*
X24933174Y10666596D01*
X24947020Y10660860D01*
X24969060D01*
X24989421Y10669294D01*
X25005006Y10684879D01*
X25013440Y10705240D01*
Y10727280D01*
X25005006Y10747641D01*
X25001344Y10751302D01*
X24986513Y10781738D01*
Y10842477D01*
X24999214Y10850963D01*
X25010519Y10846280D01*
X25032561D01*
X25052921Y10854714D01*
X25068506Y10870299D01*
X25076939Y10890660D01*
Y10912700D01*
X25068506Y10933061D01*
X25068034Y10933532D01*
X25057632Y10963731D01*
Y11105926D01*
X25070332Y11110660D01*
X25089259Y11102820D01*
X25111301D01*
X25131660Y11111254D01*
X25147246Y11126839D01*
X25155679Y11147200D01*
Y11169240D01*
X25147246Y11189601D01*
X25146774Y11190072D01*
X25136372Y11220271D01*
Y11359926D01*
X25149072Y11364660D01*
X25167999Y11356820D01*
X25190041D01*
X25210400Y11365254D01*
X25225986Y11380839D01*
X25234419Y11401200D01*
Y11423240D01*
X25225986Y11443601D01*
X25225516Y11444072D01*
X25215112Y11474271D01*
Y11659646D01*
X25227814Y11665868D01*
X25244200Y11659080D01*
X25266240D01*
X25286601Y11667514D01*
X25302187Y11683099D01*
X25310620Y11703460D01*
Y11725500D01*
X25302187Y11745861D01*
X25301715Y11746332D01*
X25291313Y11776531D01*
Y11847606D01*
X25304015Y11853828D01*
X25320399Y11847040D01*
X25342439D01*
X25362801Y11855474D01*
X25378386Y11871059D01*
X25386819Y11891420D01*
Y11913460D01*
X25378386Y11933821D01*
X25377914Y11934292D01*
X25367513Y11964491D01*
Y12106686D01*
X25380214Y12112908D01*
X25396600Y12106120D01*
X25418640D01*
X25439001Y12114554D01*
X25454585Y12130139D01*
X25463020Y12150500D01*
Y12172540D01*
X25454585Y12192901D01*
X25454115Y12193372D01*
X25443713Y12223571D01*
Y12370846D01*
X25456413Y12377068D01*
X25472800Y12370280D01*
X25494839D01*
X25515201Y12378714D01*
X25530786Y12394299D01*
X25539220Y12414660D01*
Y12436700D01*
X25530786Y12457061D01*
X25530315Y12457532D01*
X25519913Y12487731D01*
Y12627386D01*
X25532614Y12633608D01*
X25549001Y12626820D01*
X25571040D01*
X25591402Y12635254D01*
X25606985Y12650839D01*
X25615421Y12671200D01*
Y12693240D01*
X25606985Y12713601D01*
X25606516Y12714072D01*
X25596114Y12744271D01*
Y12878847D01*
X25608813Y12886555D01*
X25622659Y12880820D01*
X25644699D01*
X25665060Y12889255D01*
X25680646Y12904839D01*
X25689081Y12925200D01*
Y12947240D01*
X25680646Y12967601D01*
X25680176Y12968073D01*
X25669772Y12998271D01*
Y13127766D01*
X25682474Y13133987D01*
X25698859Y13127200D01*
X25720901D01*
X25741260Y13135634D01*
X25756845Y13151219D01*
X25765280Y13171581D01*
Y13193620D01*
X25756845Y13213982D01*
X25756375Y13214452D01*
X25745972Y13244650D01*
Y13558521D01*
X25743225Y13572331D01*
X25735403Y13584042D01*
X24800682Y14518762D01*
X24788972Y14526585D01*
X24775160Y14529333D01*
X23785651D01*
X23755452Y14539735D01*
X23754980Y14540205D01*
X23734621Y14548640D01*
X23712579D01*
X23692220Y14540205D01*
X23676634Y14524622D01*
X23668201Y14504260D01*
Y14482220D01*
X23676634Y14461859D01*
X23692220Y14446274D01*
X23712579Y14437840D01*
X23734621D01*
X23754980Y14446274D01*
X23755452Y14446745D01*
X23785651Y14457147D01*
X23833865D01*
X23841576Y14444446D01*
X23835840Y14430600D01*
Y14412939D01*
X23826955Y14405147D01*
X23824107Y14404053D01*
X23818440Y14406400D01*
X23796400D01*
X23776039Y14397966D01*
X23760454Y14382381D01*
X23752020Y14362019D01*
Y14342871D01*
X23742117Y14333226D01*
X23737160Y14335280D01*
X23715120D01*
X23694759Y14326846D01*
X23679173Y14311261D01*
X23670740Y14290900D01*
Y14278912D01*
X23666724Y14268285D01*
X23659007Y14267180D01*
X23644267D01*
X23623904Y14258746D01*
X23608321Y14243163D01*
X23599887Y14222800D01*
Y14200760D01*
X23608321Y14180399D01*
X23623904Y14164815D01*
X23644267Y14156380D01*
X23666306D01*
X23686668Y14164815D01*
X23687138Y14165285D01*
X23717337Y14175687D01*
X24097778D01*
X24101697Y14169949D01*
X24103441Y14163388D01*
X24103354Y14163301D01*
X24094920Y14142940D01*
Y14120900D01*
X24086066Y14110477D01*
X24082642Y14109261D01*
X24062280Y14117696D01*
X24040240D01*
X24019879Y14109261D01*
X24004294Y14093677D01*
X23995860Y14073315D01*
Y14051276D01*
X24003893Y14031886D01*
X24003676Y14030911D01*
X24002708Y14028856D01*
X23996475Y14020773D01*
X23970882Y14029588D01*
X23970412Y14030058D01*
X23950050Y14038493D01*
X23928011D01*
X23907649Y14030058D01*
X23892064Y14014474D01*
X23883630Y13994112D01*
Y13972073D01*
X23889528Y13957834D01*
X23882050Y13945132D01*
X23879631D01*
X23849432Y13955534D01*
X23848961Y13956006D01*
X23828600Y13964439D01*
X23806560D01*
X23786198Y13956006D01*
X23770615Y13940421D01*
X23762180Y13920061D01*
Y13898019D01*
X23770615Y13877660D01*
X23786198Y13862074D01*
X23806560Y13853641D01*
X23828600D01*
X23848961Y13862074D01*
X23849432Y13862544D01*
X23879631Y13872948D01*
X24237726D01*
X24242461Y13860246D01*
X24234621Y13841319D01*
Y13819279D01*
X24238406Y13810141D01*
X24227638Y13802946D01*
X24224661Y13805925D01*
X24204298Y13814359D01*
X24182259D01*
X24161897Y13805925D01*
X24146313Y13790341D01*
X24137878Y13769978D01*
Y13747939D01*
X24140787Y13740919D01*
X24132301Y13728220D01*
X24121519D01*
X24101160Y13719786D01*
X24085574Y13704201D01*
X24077139Y13683839D01*
Y13661800D01*
X24079187Y13656857D01*
X24077583Y13653271D01*
X24070245Y13645261D01*
X24051961D01*
X24031599Y13636826D01*
X24016014Y13621242D01*
X24007581Y13600880D01*
Y13578841D01*
X24016014Y13558478D01*
X24031599Y13542894D01*
X24051961Y13534460D01*
X24052626D01*
X24081334Y13520462D01*
X24767007Y12834789D01*
Y11999738D01*
X24757381Y11991838D01*
X24483060D01*
X24473149Y11989866D01*
X24464748Y11984252D01*
X24459134Y11975851D01*
X24457162Y11965940D01*
Y10307818D01*
X22388058D01*
Y10678160D01*
X22386086Y10688071D01*
X22381161Y10695442D01*
X22382349Y10700533D01*
X22385867Y10708142D01*
X22672040D01*
X22681950Y10710114D01*
X22690352Y10715728D01*
X22695966Y10724129D01*
X22697939Y10734040D01*
Y11031220D01*
X22695966Y11041131D01*
X22690352Y11049532D01*
X22681950Y11055146D01*
X22672040Y11057118D01*
X22504974D01*
X22153362Y11408731D01*
Y12730478D01*
X22153362Y12730480D01*
X22150087Y12755355D01*
X22162115Y12761287D01*
X22236900Y12686502D01*
X22236902Y12686501D01*
X22257079Y12673019D01*
X22280881Y12668285D01*
X23804880D01*
X23828680Y12673019D01*
X23848859Y12686501D01*
X23862341Y12706679D01*
X23867075Y12730480D01*
X23862341Y12754281D01*
X23848859Y12774459D01*
X23828680Y12787941D01*
X23804880Y12792675D01*
X22306642D01*
X21763956Y13335362D01*
Y14342802D01*
X21775688Y14347662D01*
X21839189Y14284161D01*
X21839189Y14284161D01*
X21859367Y14270679D01*
X21883168Y14265945D01*
X21883170Y14265945D01*
X22425661D01*
X22449461Y14270679D01*
X22469640Y14284161D01*
X22483121Y14304340D01*
X22487856Y14328140D01*
X22483121Y14351941D01*
X22469640Y14372119D01*
X22449461Y14385600D01*
X22425661Y14390335D01*
X22374271D01*
X22370963Y14395900D01*
X22368953Y14403035D01*
X22373386Y14409669D01*
X22375359Y14419580D01*
Y17571222D01*
X23975629D01*
X23985539Y17573193D01*
X23993941Y17578809D01*
X23998001Y17584883D01*
X24007307Y17594191D01*
X24018152Y17598682D01*
X24029887D01*
X24040732Y17594191D01*
X24050040Y17584883D01*
X24054099Y17578809D01*
X24062502Y17573193D01*
X24072411Y17571222D01*
X25214082D01*
Y15250160D01*
X25216054Y15240250D01*
X25221667Y15231848D01*
X25230069Y15226234D01*
X25239980Y15224261D01*
X25560020D01*
X25569931Y15226234D01*
X25578333Y15231848D01*
X25583946Y15240250D01*
X25585918Y15250160D01*
Y20027901D01*
X25583946Y20037811D01*
X25578333Y20046211D01*
X25569931Y20051826D01*
X25560020Y20053798D01*
X25239980D01*
X25230069Y20051826D01*
X25221667Y20046211D01*
X25216054Y20037811D01*
X25214082Y20027901D01*
Y18357146D01*
X25120033Y18263098D01*
X15378691D01*
X15373642Y18275798D01*
X15649472Y18551628D01*
X15655086Y18560030D01*
X15657057Y18569940D01*
X15657059Y18638519D01*
X15655086Y18648431D01*
X15649472Y18656831D01*
X15641071Y18662447D01*
X15631160Y18664418D01*
X15557500D01*
X15547589Y18662447D01*
X15544856Y18660620D01*
X15542818Y18660214D01*
X15534415Y18654601D01*
X15368973Y18489159D01*
X15202467D01*
X15044952Y18646672D01*
X15036551Y18652286D01*
X15026640Y18654259D01*
X14958060D01*
X14948149Y18652286D01*
X14947440Y18651813D01*
X14938605Y18650053D01*
X14930203Y18644440D01*
X14924590Y18636040D01*
X14922618Y18626128D01*
Y18495222D01*
X14439482D01*
X14262598Y18672107D01*
Y19524980D01*
X14260626Y19534891D01*
X14255013Y19543292D01*
X14034032Y19764272D01*
X14025632Y19769885D01*
X14015720Y19771858D01*
X10930187D01*
X10742158Y19959888D01*
Y20109180D01*
X10740186Y20119090D01*
X10734572Y20127492D01*
X10726171Y20133105D01*
X10716260Y20135078D01*
D02*
G37*
G36*
X14112241Y12827498D02*
X13136880D01*
X13126968Y12825526D01*
X13118568Y12819913D01*
X13112955Y12811511D01*
X13110982Y12801601D01*
Y12702540D01*
X13112955Y12692629D01*
X13118568Y12684228D01*
X13126968Y12678614D01*
X13136880Y12676642D01*
X14112241D01*
X14122151Y12678614D01*
X14130553Y12684228D01*
X14136166Y12692629D01*
X14138138Y12702540D01*
Y12801601D01*
X14136166Y12811511D01*
X14130553Y12819913D01*
X14122151Y12825526D01*
X14112241Y12827498D01*
D02*
G37*
G36*
X23048820Y12399800D02*
X23026781D01*
X23006419Y12391366D01*
X22990834Y12375781D01*
X22982401Y12355420D01*
Y12333380D01*
X22990808Y12313081D01*
X22998953Y12284479D01*
Y12094441D01*
X22990808Y12065839D01*
X22982401Y12045540D01*
Y12023500D01*
X22990834Y12003139D01*
X23006419Y11987554D01*
X23026781Y11979120D01*
X23048820D01*
X23069180Y11987554D01*
X23084766Y12003139D01*
X23093201Y12023500D01*
Y12045540D01*
X23084792Y12065839D01*
X23076646Y12094441D01*
Y12284479D01*
X23084792Y12313081D01*
X23093201Y12333380D01*
Y12355420D01*
X23084766Y12375781D01*
X23069180Y12391366D01*
X23048820Y12399800D01*
D02*
G37*
G36*
X24001320Y12328680D02*
X23979280D01*
X23958919Y12320246D01*
X23943333Y12304661D01*
X23934900Y12284300D01*
Y12262260D01*
X23943333Y12241899D01*
X23944383Y12240849D01*
X23953993Y12211656D01*
Y12054302D01*
X23946497Y12023172D01*
X23939980Y12007440D01*
Y11985400D01*
X23948415Y11965039D01*
X23963998Y11949454D01*
X23984360Y11941020D01*
X24006400D01*
X24026761Y11949454D01*
X24042346Y11965039D01*
X24050780Y11985400D01*
Y12007440D01*
X24042346Y12027801D01*
X24041296Y12028851D01*
X24031686Y12058044D01*
Y12215398D01*
X24039185Y12246528D01*
X24045700Y12262260D01*
Y12284300D01*
X24037267Y12304661D01*
X24021681Y12320246D01*
X24001320Y12328680D01*
D02*
G37*
G36*
X23813361Y12615700D02*
X23791319D01*
X23770959Y12607266D01*
X23755374Y12591681D01*
X23746941Y12571320D01*
Y12549280D01*
X23755348Y12528981D01*
X23763493Y12500379D01*
Y12393511D01*
X23123309Y11753327D01*
X22783221D01*
X22754619Y11761472D01*
X22734320Y11769880D01*
X22712280D01*
X22691919Y11761446D01*
X22676334Y11745861D01*
X22667900Y11725500D01*
Y11703460D01*
X22676334Y11683099D01*
X22691919Y11667514D01*
X22712280Y11659080D01*
X22734320D01*
X22754619Y11667488D01*
X22783221Y11675633D01*
X23139400D01*
X23154266Y11678591D01*
X23166869Y11687011D01*
X23829810Y12349951D01*
X23838229Y12362554D01*
X23841187Y12377420D01*
Y12500379D01*
X23849332Y12528981D01*
X23857739Y12549280D01*
Y12571320D01*
X23849306Y12591681D01*
X23833720Y12607266D01*
X23813361Y12615700D01*
D02*
G37*
G36*
X23940359Y11625351D02*
X23918320D01*
X23897958Y11616917D01*
X23882375Y11601333D01*
X23873965Y11581035D01*
X23859502Y11555050D01*
X23448991Y11144539D01*
X23165820D01*
X23137219Y11152685D01*
X23116920Y11161093D01*
X23094881D01*
X23074518Y11152659D01*
X23058934Y11137074D01*
X23050500Y11116713D01*
Y11094673D01*
X23058934Y11074311D01*
X23074518Y11058727D01*
X23094881Y11050293D01*
X23116920D01*
X23137219Y11058701D01*
X23165820Y11066846D01*
X23465080D01*
X23479947Y11069803D01*
X23492551Y11078224D01*
X23914438Y11500112D01*
X23940424Y11514578D01*
X23960721Y11522986D01*
X23976306Y11538570D01*
X23984740Y11558932D01*
Y11580971D01*
X23976306Y11601333D01*
X23960721Y11616917D01*
X23940359Y11625351D01*
D02*
G37*
G36*
X24399240Y12327113D02*
X24380705Y12324672D01*
X24363434Y12317518D01*
X24348602Y12306138D01*
X24247002Y12204538D01*
X24235622Y12189706D01*
X24228468Y12172435D01*
X24226027Y12153900D01*
Y11190423D01*
X23711717Y10676113D01*
X23535640D01*
X23517105Y10673672D01*
X23499834Y10666518D01*
X23485002Y10655138D01*
X23473622Y10640306D01*
X23466467Y10623035D01*
X23464027Y10604500D01*
X23466467Y10585965D01*
X23471106Y10574767D01*
X23463655Y10562067D01*
X23450131D01*
X23033467Y10978731D01*
Y11350804D01*
X23048885Y11359386D01*
X23069180Y11367794D01*
X23084766Y11383379D01*
X23093201Y11403740D01*
Y11425780D01*
X23084766Y11446141D01*
X23069180Y11461726D01*
X23048820Y11470160D01*
X23026781D01*
X23006419Y11461726D01*
X22990834Y11446141D01*
X22982426Y11425844D01*
X22967961Y11399858D01*
X22967151Y11399049D01*
X22958731Y11386446D01*
X22955772Y11371580D01*
Y10962640D01*
X22958731Y10947774D01*
X22967151Y10935171D01*
X23406570Y10495751D01*
X23419174Y10487331D01*
X23434039Y10484373D01*
X23871516D01*
X23886382Y10487331D01*
X23898984Y10495751D01*
X24037926Y10634693D01*
X24063911Y10649159D01*
X24084209Y10657566D01*
X24099794Y10673151D01*
X24108228Y10693512D01*
Y10715552D01*
X24099794Y10735914D01*
X24084209Y10751498D01*
X24063847Y10759932D01*
X24041808D01*
X24021446Y10751498D01*
X24005862Y10735914D01*
X23997453Y10715616D01*
X23982990Y10689630D01*
X23855424Y10562067D01*
X23816815D01*
X23811955Y10573800D01*
X24348277Y11110122D01*
X24359657Y11124954D01*
X24366812Y11142225D01*
X24369254Y11160760D01*
Y12124237D01*
X24449878Y12204862D01*
X24461258Y12219694D01*
X24468411Y12236965D01*
X24470853Y12255500D01*
X24468411Y12274034D01*
X24461258Y12291306D01*
X24449878Y12306138D01*
X24435046Y12317518D01*
X24417773Y12324672D01*
X24399240Y12327113D01*
D02*
G37*
G36*
X12375740Y14589281D02*
X12353700D01*
X12333339Y14580846D01*
X12317754Y14565260D01*
X12309320Y14544901D01*
Y14522861D01*
X12317754Y14502499D01*
X12333339Y14486914D01*
X12353700Y14478481D01*
X12375740D01*
X12385655Y14482587D01*
X12408357Y14487460D01*
X12625808Y14270010D01*
Y11023600D01*
X12628555Y11009788D01*
X12636379Y10998079D01*
X13202103Y10432356D01*
X13216100Y10403646D01*
Y10402980D01*
X13224535Y10382619D01*
X13240118Y10367034D01*
X13260480Y10358600D01*
X13282520D01*
X13302881Y10367034D01*
X13318466Y10382619D01*
X13326900Y10402980D01*
Y10425020D01*
X13318466Y10445381D01*
X13302881Y10460966D01*
X13282520Y10469400D01*
X13281853D01*
X13266528Y10476872D01*
X13266895Y10490420D01*
X13267188Y10490680D01*
X13287601D01*
X13307961Y10499114D01*
X13323546Y10514699D01*
X13331979Y10535060D01*
Y10557100D01*
X13323546Y10577461D01*
X13307961Y10593046D01*
X13292680Y10599376D01*
X13278149Y10607520D01*
X13281467Y10620220D01*
X13295219D01*
X13315581Y10628654D01*
X13331166Y10644239D01*
X13339600Y10664600D01*
Y10686640D01*
X13331166Y10707001D01*
X13315581Y10722586D01*
X13295219Y10731020D01*
X13294554D01*
X13265846Y10745018D01*
X13002792Y11008070D01*
Y11321070D01*
X13580806Y11899082D01*
X13609514Y11913080D01*
X13610181D01*
X13630540Y11921514D01*
X13646126Y11937099D01*
X13654559Y11957460D01*
Y11979500D01*
X13646126Y11999861D01*
X13630540Y12015446D01*
X13610181Y12023880D01*
X13588139D01*
X13567780Y12015446D01*
X13552194Y11999861D01*
X13543761Y11979500D01*
Y11978834D01*
X13529762Y11950126D01*
X12941177Y11361542D01*
X12933354Y11349832D01*
X12930608Y11336020D01*
Y10993120D01*
X12933354Y10979308D01*
X12941177Y10967598D01*
X13214803Y10693974D01*
X13226251Y10670493D01*
X13215768Y10663016D01*
X12792631Y11086153D01*
Y14365807D01*
X12803033Y14396005D01*
X12803503Y14396477D01*
X12811938Y14416838D01*
Y14438878D01*
X12803503Y14459239D01*
X12787919Y14474825D01*
X12767558Y14483258D01*
X12745518D01*
X12725156Y14474825D01*
X12709572Y14459239D01*
X12701138Y14438878D01*
Y14416838D01*
X12709572Y14396477D01*
X12710043Y14396005D01*
X12720444Y14365807D01*
Y11071202D01*
X12723192Y11057390D01*
X12731016Y11045680D01*
X13208395Y10568301D01*
X13221181Y10537775D01*
Y10535060D01*
X13222409Y10532094D01*
X13211642Y10524900D01*
X12697992Y11038550D01*
Y14284959D01*
X12695245Y14298772D01*
X12687421Y14310481D01*
X12446155Y14551747D01*
X12434446Y14559570D01*
X12430451Y14560365D01*
X12400046Y14576901D01*
X12396101Y14580846D01*
X12375740Y14589281D01*
D02*
G37*
G36*
X20177760Y9984740D02*
X20088860D01*
Y9908540D01*
X20177760D01*
Y9984740D01*
D02*
G37*
G36*
X20063460D02*
X19974561D01*
Y9908540D01*
X20063460D01*
Y9984740D01*
D02*
G37*
G36*
X20177760Y9883140D02*
X20088860D01*
Y9806940D01*
X20177760D01*
Y9883140D01*
D02*
G37*
G36*
X20063460D02*
X19974561D01*
Y9806940D01*
X20063460D01*
Y9883140D01*
D02*
G37*
G36*
X15412979Y9853320D02*
X15340279D01*
Y9760621D01*
X15412979D01*
Y9853320D01*
D02*
G37*
G36*
X13914999D02*
X13842299D01*
Y9760621D01*
X13914999D01*
Y9853320D01*
D02*
G37*
G36*
X13816899D02*
X13744199D01*
Y9760621D01*
X13816899D01*
Y9853320D01*
D02*
G37*
G36*
X15412979Y9735221D02*
X15340279D01*
Y9642521D01*
X15412979D01*
Y9735221D01*
D02*
G37*
G36*
X15265002Y9953320D02*
X15217303D01*
Y9847920D01*
Y9742521D01*
X15242178D01*
Y9642521D01*
X15314879D01*
Y9747921D01*
Y9853320D01*
X15265002D01*
Y9953320D01*
D02*
G37*
G36*
X13914999Y9735221D02*
X13842299D01*
Y9642521D01*
X13914999D01*
Y9735221D01*
D02*
G37*
G36*
X13816899D02*
X13744199D01*
Y9642521D01*
X13816899D01*
Y9735221D01*
D02*
G37*
G36*
X16697960Y9688181D02*
X16640260D01*
Y9632980D01*
X16697960D01*
Y9688181D01*
D02*
G37*
G36*
X16200121D02*
X16142419D01*
Y9632980D01*
X16200121D01*
Y9688181D01*
D02*
G37*
G36*
X20421906Y9708076D02*
X20381105Y9667276D01*
X20389018Y9659362D01*
X20404655Y9654045D01*
X20399496Y9648884D01*
X20420137Y9628244D01*
X20460938Y9669043D01*
X20421906Y9708076D01*
D02*
G37*
G36*
X20478897Y9651083D02*
X20438098Y9610283D01*
X20477130Y9571251D01*
X20517931Y9612051D01*
X20478897Y9651083D01*
D02*
G37*
G36*
X20363144Y9649315D02*
X20322343Y9608515D01*
X20361377Y9569483D01*
X20402176Y9610283D01*
X20381535Y9630924D01*
X20376375Y9625764D01*
X20371059Y9641402D01*
X20363144Y9649315D01*
D02*
G37*
G36*
X16697960Y9607580D02*
X16640260D01*
Y9552380D01*
X16697960D01*
Y9607580D01*
D02*
G37*
G36*
X16283220D02*
X16225520D01*
Y9552380D01*
X16283220D01*
Y9607580D01*
D02*
G37*
G36*
X16200121D02*
X16142419D01*
Y9552380D01*
X16200121D01*
Y9607580D01*
D02*
G37*
G36*
X18626680Y9892820D02*
X18604640D01*
X18584279Y9884386D01*
X18568694Y9868801D01*
X18560260Y9848440D01*
Y9826400D01*
X18568694Y9806039D01*
X18584279Y9790454D01*
X18604640Y9782020D01*
X18626680D01*
X18647041Y9790454D01*
X18647513Y9790925D01*
X18677711Y9801328D01*
X19804671D01*
X20040068Y9565930D01*
Y9537700D01*
X20000458D01*
X19999606Y9541979D01*
X19998988Y9546295D01*
X19998627Y9546910D01*
X19998486Y9547610D01*
X19996063Y9551237D01*
X19993842Y9554990D01*
X19993269Y9555418D01*
X19992873Y9556012D01*
X19989246Y9558435D01*
X19985756Y9561052D01*
X19975160Y9566132D01*
X19974469Y9566310D01*
X19973875Y9566706D01*
X19969595Y9567557D01*
X19965372Y9568639D01*
X19964665Y9568538D01*
X19963963Y9568678D01*
X19817081D01*
X19807169Y9566706D01*
X19798769Y9561092D01*
X19786382Y9548705D01*
X19773680Y9548706D01*
X19743983Y9578403D01*
X19766476Y9600895D01*
X19666914Y9700456D01*
X19570889Y9604431D01*
X19670451Y9504870D01*
X19686591Y9521011D01*
X19699290D01*
X19723776Y9496525D01*
X19722638Y9484962D01*
X19510780Y9273106D01*
X19505167Y9264704D01*
X19503197Y9254793D01*
X19497311Y9246293D01*
X19492581Y9243060D01*
X19479260D01*
Y9039860D01*
X19490041D01*
X19495631Y9035671D01*
X19500656Y9028127D01*
X19502628Y9018216D01*
X19508241Y9009815D01*
X19753049Y8765008D01*
X19761449Y8759394D01*
X19771359Y8757422D01*
X19974561D01*
X19984471Y8759394D01*
X19992873Y8765008D01*
X19996622Y8770620D01*
X20155698D01*
X20159448Y8765008D01*
X20167850Y8759394D01*
X20177760Y8757422D01*
X20332700D01*
X20342612Y8759394D01*
X20351012Y8765008D01*
X20598360Y9012354D01*
X20603973Y9020756D01*
X20605943Y9030667D01*
X20611829Y9039167D01*
X20616559Y9042400D01*
X20619720D01*
Y9245600D01*
X20611479D01*
X20605888Y9249789D01*
X20600864Y9257333D01*
X20598894Y9267244D01*
X20593279Y9275645D01*
X20307832Y9561092D01*
X20299431Y9566706D01*
X20289520Y9568678D01*
X20188356D01*
X20187656Y9568538D01*
X20186948Y9568639D01*
X20182724Y9567557D01*
X20178445Y9566706D01*
X20177850Y9566310D01*
X20177161Y9566132D01*
X20166563Y9561052D01*
X20163074Y9558435D01*
X20159448Y9556012D01*
X20159052Y9555418D01*
X20158479Y9554990D01*
X20156258Y9551237D01*
X20153835Y9547610D01*
X20153694Y9546910D01*
X20153331Y9546295D01*
X20152715Y9541979D01*
X20151862Y9537700D01*
X20112251D01*
Y9580880D01*
X20109505Y9594692D01*
X20101682Y9606401D01*
X19845142Y9862941D01*
X19833432Y9870765D01*
X19819620Y9873512D01*
X18677711D01*
X18647513Y9883915D01*
X18647041Y9884386D01*
X18626680Y9892820D01*
D02*
G37*
G36*
X20420137Y9592322D02*
X20379337Y9551523D01*
X20418369Y9512490D01*
X20459169Y9553290D01*
X20420137Y9592322D01*
D02*
G37*
G36*
X22558600Y9819160D02*
X22536560D01*
X22516199Y9810726D01*
X22500613Y9795141D01*
X22492180Y9774780D01*
Y9752740D01*
X22500613Y9732379D01*
X22501085Y9731907D01*
X22511488Y9701709D01*
Y9679940D01*
X22445979D01*
Y9502140D01*
X22649181D01*
Y9679940D01*
X22583672D01*
Y9701709D01*
X22594075Y9731907D01*
X22594547Y9732379D01*
X22602980Y9752740D01*
Y9774780D01*
X22594547Y9795141D01*
X22578961Y9810726D01*
X22558600Y9819160D01*
D02*
G37*
G36*
X23396800Y9834400D02*
X23374760D01*
X23354399Y9825966D01*
X23338814Y9810381D01*
X23330380Y9790020D01*
Y9767980D01*
X23338814Y9747619D01*
X23339285Y9747148D01*
X23349687Y9716949D01*
Y9677400D01*
X23284180D01*
Y9499600D01*
X23487379D01*
Y9677400D01*
X23421873D01*
Y9716949D01*
X23432275Y9747148D01*
X23432745Y9747619D01*
X23441180Y9767980D01*
Y9790020D01*
X23432745Y9810381D01*
X23417162Y9825966D01*
X23396800Y9834400D01*
D02*
G37*
G36*
X22967540Y9814080D02*
X22945500D01*
X22925139Y9805646D01*
X22909554Y9790061D01*
X22901120Y9769700D01*
Y9747660D01*
X22909554Y9727299D01*
X22910025Y9726828D01*
X22920427Y9696629D01*
Y9677400D01*
X22857460D01*
Y9499600D01*
X23060660D01*
Y9677400D01*
X22992613D01*
Y9696629D01*
X23003015Y9726828D01*
X23003487Y9727299D01*
X23011920Y9747660D01*
Y9769700D01*
X23003487Y9790061D01*
X22987901Y9805646D01*
X22967540Y9814080D01*
D02*
G37*
G36*
X22142039Y9811540D02*
X22120000D01*
X22099638Y9803106D01*
X22084055Y9787521D01*
X22075620Y9767160D01*
Y9745120D01*
X22084055Y9724759D01*
X22084525Y9724288D01*
X22094926Y9694089D01*
Y9677400D01*
X22034500D01*
Y9499600D01*
X22237700D01*
Y9677400D01*
X22167113D01*
Y9694089D01*
X22177515Y9724288D01*
X22177986Y9724759D01*
X22186420Y9745120D01*
Y9767160D01*
X22177986Y9787521D01*
X22162401Y9803106D01*
X22142039Y9811540D01*
D02*
G37*
G36*
X21730560Y9798840D02*
X21708521D01*
X21688159Y9790406D01*
X21672574Y9774821D01*
X21664140Y9754460D01*
Y9732420D01*
X21672574Y9712059D01*
X21673045Y9711588D01*
X21680446Y9690100D01*
X21671388Y9677400D01*
X21615401D01*
Y9499600D01*
X21818600D01*
Y9677400D01*
X21767693D01*
X21758633Y9690100D01*
X21766035Y9711588D01*
X21766505Y9712059D01*
X21774940Y9732420D01*
Y9754460D01*
X21766505Y9774821D01*
X21750922Y9790406D01*
X21730560Y9798840D01*
D02*
G37*
G36*
X19557309Y9590850D02*
X19461284Y9494825D01*
X19485542Y9470566D01*
X19221753Y9206776D01*
X19210020Y9211636D01*
Y9243060D01*
X19032220D01*
Y9039860D01*
X19210020D01*
Y9071283D01*
X19221753Y9076143D01*
X19472830Y8825066D01*
X19472836Y8825048D01*
X19456204Y8808415D01*
X19552229Y8712390D01*
X19651790Y8811951D01*
X19555765Y8907976D01*
X19532861Y8885073D01*
X19514908Y8885075D01*
X19258524Y9141461D01*
X19536586Y9419523D01*
X19560844Y9395264D01*
X19656870Y9491289D01*
X19557309Y9590850D01*
D02*
G37*
G36*
X16136940Y9301662D02*
X16094240D01*
Y9252196D01*
X16081540Y9245933D01*
X16075667Y9250440D01*
X16057326Y9258037D01*
X16050340Y9258957D01*
Y9109578D01*
Y8960199D01*
X16057326Y8961118D01*
X16075667Y8968716D01*
X16091417Y8980802D01*
X16103503Y8996552D01*
X16111101Y9014894D01*
X16113692Y9034578D01*
Y9100862D01*
X16136940D01*
Y9201262D01*
Y9301662D01*
D02*
G37*
G36*
X13097816Y9302180D02*
X12860117D01*
Y9174480D01*
X13097816D01*
Y9302180D01*
D02*
G37*
G36*
X12834717D02*
X12597016D01*
Y9174480D01*
X12834717D01*
Y9302180D01*
D02*
G37*
G36*
X22649181Y9232900D02*
X22560280D01*
Y9156700D01*
X22649181D01*
Y9232900D01*
D02*
G37*
G36*
X22534880D02*
X22445979D01*
Y9156700D01*
X22534880D01*
Y9232900D01*
D02*
G37*
G36*
X23487379Y9230360D02*
X23398480D01*
Y9154160D01*
X23487379D01*
Y9230360D01*
D02*
G37*
G36*
X23060660D02*
X22971761D01*
Y9154160D01*
X23060660D01*
Y9230360D01*
D02*
G37*
G36*
X22237700D02*
X22148801D01*
Y9154160D01*
X22237700D01*
Y9230360D01*
D02*
G37*
G36*
X23373080D02*
X23284180D01*
Y9154160D01*
X23373080D01*
Y9230360D01*
D02*
G37*
G36*
X22946359D02*
X22857460D01*
Y9154160D01*
X22946359D01*
Y9230360D01*
D02*
G37*
G36*
X22123399D02*
X22034500D01*
Y9154160D01*
X22123399D01*
Y9230360D01*
D02*
G37*
G36*
X24637219Y9191519D02*
X24579520D01*
Y9136319D01*
X24637219D01*
Y9191519D01*
D02*
G37*
G36*
X24554118D02*
X24496419D01*
Y9136319D01*
X24554118D01*
Y9191519D01*
D02*
G37*
G36*
X16914343Y9258957D02*
Y9122278D01*
X16977693D01*
Y9184578D01*
X16975102Y9204261D01*
X16967503Y9222603D01*
X16955418Y9238354D01*
X16939668Y9250440D01*
X16921326Y9258037D01*
X16914343Y9258957D01*
D02*
G37*
G36*
X16024940D02*
X16017958Y9258037D01*
X15999615Y9250440D01*
X15983865Y9238354D01*
X15971780Y9222603D01*
X15964182Y9204261D01*
X15961591Y9184578D01*
Y9122278D01*
X16024940D01*
Y9258957D01*
D02*
G37*
G36*
X12387676Y9239680D02*
X12367164D01*
X12347352Y9234371D01*
X12329588Y9224115D01*
X12315085Y9209612D01*
X12304829Y9191848D01*
X12299520Y9172036D01*
Y9151524D01*
X12304829Y9131712D01*
X12315085Y9113948D01*
X12329588Y9099445D01*
X12347352Y9089189D01*
X12367164Y9083880D01*
X12387676D01*
X12407488Y9089189D01*
X12425252Y9099445D01*
X12439755Y9113948D01*
X12450011Y9131712D01*
X12455320Y9151524D01*
Y9172036D01*
X12450011Y9191848D01*
X12439755Y9209612D01*
X12425252Y9224115D01*
X12407488Y9234371D01*
X12387676Y9239680D01*
D02*
G37*
G36*
X11644319Y9252180D02*
X11620516D01*
X11597525Y9246019D01*
X11576911Y9234118D01*
X11560080Y9217287D01*
X11548178Y9196673D01*
X11542018Y9173681D01*
Y9149879D01*
X11548178Y9126887D01*
X11560080Y9106273D01*
X11576911Y9089442D01*
X11597525Y9077541D01*
X11620516Y9071380D01*
X11644319D01*
X11667311Y9077541D01*
X11687925Y9089442D01*
X11704756Y9106273D01*
X11716657Y9126887D01*
X11722818Y9149879D01*
Y9173681D01*
X11716657Y9196673D01*
X11704756Y9217287D01*
X11687925Y9234118D01*
X11667311Y9246019D01*
X11644319Y9252180D01*
D02*
G37*
G36*
X24173119Y9121079D02*
X24115419D01*
Y9065879D01*
X24173119D01*
Y9121079D01*
D02*
G37*
G36*
X17910400Y9882660D02*
X17888361D01*
X17867999Y9874226D01*
X17852414Y9858641D01*
X17843980Y9838280D01*
Y9816240D01*
X17852388Y9795941D01*
X17860533Y9767339D01*
Y9420940D01*
X17857944Y9415699D01*
X17801520D01*
Y9064900D01*
X18002319D01*
Y9415699D01*
X17940816D01*
X17938226Y9420940D01*
Y9767339D01*
X17946371Y9795941D01*
X17954781Y9816240D01*
Y9838280D01*
X17946346Y9858641D01*
X17930762Y9874226D01*
X17910400Y9882660D01*
D02*
G37*
G36*
X18426019Y9880120D02*
X18403979D01*
X18383620Y9871686D01*
X18368034Y9856101D01*
X18359599Y9835740D01*
Y9813700D01*
X18368034Y9793339D01*
X18368504Y9792868D01*
X18378906Y9762669D01*
Y9416932D01*
X18372420D01*
X18347878Y9412050D01*
X18327072Y9398148D01*
X18313170Y9377342D01*
X18308289Y9352799D01*
Y9127800D01*
X18313170Y9103257D01*
X18327072Y9082451D01*
X18347878Y9068549D01*
X18372420Y9063667D01*
X18447420D01*
X18471962Y9068549D01*
X18492767Y9082451D01*
X18506670Y9103257D01*
X18511552Y9127800D01*
Y9352799D01*
X18506670Y9377342D01*
X18492767Y9398148D01*
X18471962Y9412050D01*
X18451093Y9416201D01*
Y9762669D01*
X18461494Y9792868D01*
X18461966Y9793339D01*
X18470399Y9813700D01*
Y9835740D01*
X18461966Y9856101D01*
X18446381Y9871686D01*
X18426019Y9880120D01*
D02*
G37*
G36*
X18174561Y9872500D02*
X18152521D01*
X18132159Y9864066D01*
X18116574Y9848481D01*
X18108141Y9828120D01*
Y9806080D01*
X18116574Y9785719D01*
X18117046Y9785248D01*
X18127448Y9755049D01*
Y9416932D01*
X18118420D01*
X18093878Y9412050D01*
X18073071Y9398148D01*
X18059171Y9377342D01*
X18054288Y9352799D01*
Y9127800D01*
X18059171Y9103257D01*
X18073071Y9082451D01*
X18093878Y9068549D01*
X18118420Y9063667D01*
X18193420D01*
X18217963Y9068549D01*
X18238768Y9082451D01*
X18252670Y9103257D01*
X18257552Y9127800D01*
Y9352799D01*
X18252670Y9377342D01*
X18238768Y9398148D01*
X18217963Y9412050D01*
X18199773Y9415668D01*
X18199632Y9415949D01*
Y9755049D01*
X18210036Y9785248D01*
X18210506Y9785719D01*
X18218941Y9806080D01*
Y9828120D01*
X18210506Y9848481D01*
X18194920Y9864066D01*
X18174561Y9872500D01*
D02*
G37*
G36*
X24637219Y9110919D02*
X24579520D01*
Y9055719D01*
X24637219D01*
Y9110919D01*
D02*
G37*
G36*
X24554118D02*
X24496419D01*
Y9055719D01*
X24554118D01*
Y9110919D01*
D02*
G37*
G36*
X22649181Y9131300D02*
X22560280D01*
Y9055100D01*
X22649181D01*
Y9131300D01*
D02*
G37*
G36*
X22534880D02*
X22445979D01*
Y9055100D01*
X22534880D01*
Y9131300D01*
D02*
G37*
G36*
X23487379Y9128760D02*
X23398480D01*
Y9052560D01*
X23487379D01*
Y9128760D01*
D02*
G37*
G36*
X23373080D02*
X23284180D01*
Y9052560D01*
X23373080D01*
Y9128760D01*
D02*
G37*
G36*
X23060660D02*
X22971761D01*
Y9052560D01*
X23060660D01*
Y9128760D01*
D02*
G37*
G36*
X22946359D02*
X22857460D01*
Y9052560D01*
X22946359D01*
Y9128760D01*
D02*
G37*
G36*
X22237700D02*
X22148801D01*
Y9052560D01*
X22237700D01*
Y9128760D01*
D02*
G37*
G36*
X22123399D02*
X22034500D01*
Y9052560D01*
X22123399D01*
Y9128760D01*
D02*
G37*
G36*
X25855539Y9156543D02*
X25768240D01*
Y9042761D01*
X25980350D01*
X25977710Y9062797D01*
X25965076Y9093302D01*
X25944974Y9119497D01*
X25918781Y9139597D01*
X25888275Y9152233D01*
X25855539Y9156543D01*
D02*
G37*
G36*
X25742838D02*
X25655539D01*
X25622803Y9152233D01*
X25592297Y9139597D01*
X25566103Y9119497D01*
X25546004Y9093302D01*
X25533366Y9062797D01*
X25530730Y9042761D01*
X25742838D01*
Y9156543D01*
D02*
G37*
G36*
X20531511Y9598470D02*
X20431950Y9498909D01*
X20527975Y9402884D01*
X20552231Y9427140D01*
X20552248Y9427135D01*
X20840460Y9138922D01*
X20595415Y8893877D01*
X20571155Y8918136D01*
X20475130Y8822111D01*
X20574690Y8722550D01*
X20670715Y8818575D01*
X20646457Y8842834D01*
X20877226Y9073604D01*
X20888960Y9068744D01*
Y9042400D01*
X21066760D01*
Y9245600D01*
X20888960D01*
Y9209100D01*
X20877226Y9204240D01*
X20612257Y9469210D01*
X20612254Y9487164D01*
X20627536Y9502445D01*
X20531511Y9598470D01*
D02*
G37*
G36*
X10723160Y9477300D02*
X10582360D01*
Y9341500D01*
X10611324D01*
X10613913Y9336260D01*
Y9232082D01*
X10611324Y9226842D01*
X10554900D01*
Y9036042D01*
X10755700D01*
Y9226842D01*
X10694196D01*
X10691607Y9232082D01*
Y9336260D01*
X10694196Y9341500D01*
X10723160D01*
Y9477300D01*
D02*
G37*
G36*
X25755539Y9030061D02*
D01*
D01*
D01*
D02*
G37*
G36*
X13097816Y9149080D02*
X12860117D01*
Y9021380D01*
X13097816D01*
Y9149080D01*
D02*
G37*
G36*
X12834717D02*
X12597016D01*
Y9021380D01*
X12834717D01*
Y9149080D01*
D02*
G37*
G36*
X16977693Y9096878D02*
X16914343D01*
Y8960199D01*
X16921326Y8961118D01*
X16939668Y8968716D01*
X16955418Y8980802D01*
X16967503Y8996552D01*
X16975102Y9014894D01*
X16977693Y9034578D01*
Y9096878D01*
D02*
G37*
G36*
X16024940D02*
X15961591D01*
Y9034578D01*
X15964182Y9014894D01*
X15971780Y8996552D01*
X15983865Y8980802D01*
X15999615Y8968716D01*
X16017958Y8961118D01*
X16024940Y8960199D01*
Y9096878D01*
D02*
G37*
G36*
X21818600Y9230360D02*
X21615401D01*
Y9052560D01*
X21670180D01*
X21675401Y9042014D01*
Y9036155D01*
X21669125Y9008087D01*
X21661600Y8989920D01*
Y8967880D01*
X21670033Y8947519D01*
X21685619Y8931934D01*
X21705980Y8923500D01*
X21728020D01*
X21748381Y8931934D01*
X21763966Y8947519D01*
X21772400Y8967880D01*
Y8989920D01*
X21764874Y9008087D01*
X21758598Y9036155D01*
Y9042014D01*
X21763821Y9052560D01*
X21818600D01*
Y9230360D01*
D02*
G37*
G36*
X25980350Y9017361D02*
X25768240D01*
Y8903579D01*
X25855539D01*
X25888275Y8907888D01*
X25918781Y8920524D01*
X25944974Y8940624D01*
X25965076Y8966820D01*
X25977710Y8997325D01*
X25980350Y9017361D01*
D02*
G37*
G36*
X25742838D02*
X25530730D01*
X25533366Y8997325D01*
X25546004Y8966820D01*
X25566103Y8940624D01*
X25592297Y8920524D01*
X25622803Y8907888D01*
X25655539Y8903579D01*
X25742838D01*
Y9017361D01*
D02*
G37*
G36*
X10755700Y8926838D02*
X10668000D01*
Y8844138D01*
X10755700D01*
Y8926838D01*
D02*
G37*
G36*
X10642600D02*
X10554900D01*
Y8844138D01*
X10642600D01*
Y8926838D01*
D02*
G37*
G36*
X15340279Y8923323D02*
Y8800622D01*
X15412979D01*
Y8923323D01*
X15340279D01*
D02*
G37*
G36*
X13859998D02*
X13787299D01*
Y8800622D01*
X13859998D01*
Y8923323D01*
D02*
G37*
G36*
X13761897D02*
X13689198D01*
Y8800622D01*
X13761897D01*
Y8923323D01*
D02*
G37*
G36*
X10755700Y8818738D02*
X10668000D01*
Y8736038D01*
X10755700D01*
Y8818738D01*
D02*
G37*
G36*
X10642600D02*
X10554900D01*
Y8736038D01*
X10642600D01*
Y8818738D01*
D02*
G37*
G36*
X16914343Y8818962D02*
Y8707283D01*
X16977693D01*
Y8744583D01*
X16975102Y8764266D01*
X16967503Y8782608D01*
X16955418Y8798359D01*
X16939668Y8810444D01*
X16921326Y8818042D01*
X16914343Y8818962D01*
D02*
G37*
G36*
X16050340D02*
Y8707283D01*
X16113692D01*
Y8744583D01*
X16111101Y8764266D01*
X16103503Y8782608D01*
X16091417Y8798359D01*
X16075667Y8810444D01*
X16057326Y8818042D01*
X16050340Y8818962D01*
D02*
G37*
G36*
X16888943D02*
X16881960Y8818042D01*
X16863617Y8810444D01*
X16847867Y8798359D01*
X16835780Y8782608D01*
X16828183Y8764266D01*
X16825592Y8744583D01*
Y8707283D01*
X16888943D01*
Y8818962D01*
D02*
G37*
G36*
X16024940D02*
X16017958Y8818042D01*
X15999615Y8810444D01*
X15983865Y8798359D01*
X15971780Y8782608D01*
X15964182Y8764266D01*
X15961591Y8744583D01*
Y8707283D01*
X16024940D01*
Y8818962D01*
D02*
G37*
G36*
X15412979Y8775222D02*
X15340279D01*
Y8652522D01*
X15412979D01*
Y8775222D01*
D02*
G37*
G36*
X13859998D02*
X13787299D01*
Y8652522D01*
X13859998D01*
Y8775222D01*
D02*
G37*
G36*
X13761897D02*
X13689198D01*
Y8652522D01*
X13761897D01*
Y8775222D01*
D02*
G37*
G36*
X16977693Y8681883D02*
X16914343D01*
Y8570204D01*
X16921326Y8571123D01*
X16939668Y8578721D01*
X16955418Y8590807D01*
X16967503Y8606557D01*
X16975102Y8624899D01*
X16977693Y8644582D01*
Y8681883D01*
D02*
G37*
G36*
X16113692D02*
X16050340D01*
Y8570204D01*
X16057326Y8571123D01*
X16075667Y8578721D01*
X16091417Y8590807D01*
X16103503Y8606557D01*
X16111101Y8624899D01*
X16113692Y8644582D01*
Y8681883D01*
D02*
G37*
G36*
X16888943D02*
X16825592D01*
Y8644582D01*
X16828183Y8624899D01*
X16835780Y8606557D01*
X16847867Y8590807D01*
X16863617Y8578721D01*
X16881960Y8571123D01*
X16888943Y8570204D01*
Y8681883D01*
D02*
G37*
G36*
X16024940D02*
X15961591D01*
Y8644582D01*
X15964182Y8624899D01*
X15971780Y8606557D01*
X15983865Y8590807D01*
X15999615Y8578721D01*
X16017958Y8571123D01*
X16024940Y8570204D01*
Y8681883D01*
D02*
G37*
G36*
X18865520Y8691799D02*
X18752820D01*
Y8529100D01*
X18865520D01*
Y8691799D01*
D02*
G37*
G36*
X17697121D02*
X17584419D01*
Y8529100D01*
X17697121D01*
Y8691799D01*
D02*
G37*
G36*
X17559019D02*
X17446320D01*
Y8529100D01*
X17559019D01*
Y8691799D01*
D02*
G37*
G36*
X18727420D02*
X18614720D01*
Y8529100D01*
X18727420D01*
Y8691799D01*
D02*
G37*
G36*
X20461549Y8808530D02*
X20365524Y8712505D01*
X20380807Y8697221D01*
X20380804Y8679267D01*
X20189493Y8487956D01*
X20177760Y8492816D01*
Y8501380D01*
X19974561D01*
Y8458623D01*
X19961861Y8453362D01*
X19737137Y8678086D01*
X19761395Y8702345D01*
X19665372Y8798370D01*
X19565810Y8698809D01*
X19661835Y8602784D01*
X19686095Y8627043D01*
X19926180Y8386959D01*
X19937888Y8379135D01*
X19951700Y8376388D01*
X19974561D01*
Y8323580D01*
X20177760D01*
Y8378914D01*
X20178873Y8379135D01*
X20190581Y8386959D01*
X20440816Y8637192D01*
X20440831Y8637198D01*
X20465085Y8612944D01*
X20561110Y8708969D01*
X20461549Y8808530D01*
D02*
G37*
G36*
X18865520Y8503700D02*
X18752820D01*
Y8341000D01*
X18865520D01*
Y8503700D01*
D02*
G37*
G36*
X18727420D02*
X18614720D01*
Y8341000D01*
X18727420D01*
Y8503700D01*
D02*
G37*
G36*
X17697121D02*
X17584419D01*
Y8341000D01*
X17697121D01*
Y8503700D01*
D02*
G37*
G36*
X17559019D02*
X17446320D01*
Y8341000D01*
X17559019D01*
Y8503700D01*
D02*
G37*
%LPD*%
G36*
X10716260Y19949159D02*
X10919460Y19745959D01*
X14015720D01*
X14236700Y19524980D01*
Y18661380D01*
X14428755Y18469325D01*
X14948515D01*
Y18626128D01*
X14958060D01*
Y18628360D01*
X15026640D01*
X15189200Y18465800D01*
Y18463260D01*
X15379700D01*
X15552728Y18636288D01*
X15555267D01*
X15557500Y18638519D01*
X15631160D01*
X15631160Y18569940D01*
X15351759Y18290540D01*
X14960600D01*
X14958060Y18293080D01*
X14356081D01*
X14051280Y18597881D01*
X14051280Y19415759D01*
X13942059Y19524980D01*
X10916920D01*
X10716260Y19324321D01*
Y9906000D01*
X10718800Y9903460D01*
X10380980Y9565640D01*
X10154920D01*
Y20109180D01*
X10716260D01*
Y19949159D01*
D02*
G37*
G36*
X14764859Y17795375D02*
X14744861D01*
X14731088Y17835361D01*
X14778632D01*
X14764859Y17795375D01*
D02*
G37*
G36*
X14874265Y17756017D02*
X14860123Y17741876D01*
X14822112Y17760411D01*
X14855730Y17794029D01*
X14874265Y17756017D01*
D02*
G37*
G36*
X14025381Y19405032D02*
X14025381Y18597881D01*
X14027353Y18587968D01*
X14032967Y18579568D01*
X14337767Y18274768D01*
X14346169Y18269154D01*
X14356081Y18267181D01*
X14500014D01*
X14503880Y18258817D01*
X14504378Y18254482D01*
X14256487Y18006592D01*
X14250873Y17998190D01*
X14248901Y17988280D01*
Y17487212D01*
X14237169Y17482352D01*
X13943861Y17775658D01*
X13949477Y17784059D01*
X13951448Y17793970D01*
X13949477Y17803880D01*
X13943861Y17812282D01*
X13802858Y17953287D01*
Y19123660D01*
X13800887Y19133571D01*
X13795271Y19141972D01*
X13786871Y19147586D01*
X13776961Y19149557D01*
X13637260D01*
X13627348Y19147586D01*
X13618948Y19141972D01*
X13613335Y19133571D01*
X13611362Y19123660D01*
X13611362Y18832127D01*
X13590973Y18811739D01*
X13286740D01*
X13276830Y18809766D01*
X13268428Y18804152D01*
X13262814Y18795750D01*
X13260841Y18785840D01*
Y18709641D01*
X13262814Y18699728D01*
X13268428Y18691328D01*
X13276830Y18685715D01*
X13286740Y18683742D01*
X13598593D01*
X13618982Y18663353D01*
Y17958366D01*
X12639040Y16978426D01*
X12633426Y16970023D01*
X12631455Y16960112D01*
X12633426Y16950201D01*
X12639040Y16941800D01*
X12751536Y16829303D01*
D01*
X12753340Y16827499D01*
X12650470Y16724631D01*
X12536170Y16838930D01*
X12527768Y16844543D01*
X12517858Y16846515D01*
X12507947Y16844543D01*
X12499545Y16838930D01*
X12275253Y16614638D01*
X10861040D01*
X10851129Y16612666D01*
X10842728Y16607053D01*
X10754858Y16519182D01*
X10742158Y16524443D01*
Y19313594D01*
X10927647Y19499081D01*
X13931332D01*
X14025381Y19405032D01*
D02*
G37*
G36*
X25560020Y15250160D02*
X25239980D01*
Y17597121D01*
X24072411D01*
X24070985Y17600562D01*
X24055402Y17616145D01*
X24035040Y17624580D01*
X24013000D01*
X23992639Y17616145D01*
X23977054Y17600562D01*
X23975629Y17597121D01*
X22349460D01*
Y14419580D01*
X21930360D01*
Y16817340D01*
X19580859D01*
X19199860Y16436340D01*
Y16276320D01*
X17099280D01*
Y17597121D01*
X15070062D01*
X14895378Y17771803D01*
X14881380Y17800514D01*
Y17801180D01*
X14872946Y17821541D01*
X14857361Y17837126D01*
X14837000Y17845560D01*
X14814960D01*
X14810260Y17848701D01*
Y17864680D01*
X14801826Y17885040D01*
X14786241Y17900626D01*
X14765880Y17909061D01*
X14743840D01*
X14723479Y17900626D01*
X14707893Y17885040D01*
X14699460Y17864680D01*
Y17842641D01*
X14707893Y17822279D01*
X14708365Y17821806D01*
X14718768Y17791609D01*
Y17768793D01*
X14721515Y17754980D01*
X14729340Y17743271D01*
X14864478Y17608133D01*
X14869159Y17597121D01*
X14869160D01*
X14869160Y17597119D01*
Y16850360D01*
X15128239Y16591280D01*
X13705840Y15168880D01*
X13370560Y14833600D01*
X12504420D01*
Y14879076D01*
X12763744Y15138400D01*
X12946381Y15138400D01*
X13337450Y15529469D01*
X13347791Y15529398D01*
X13346429Y15538451D01*
X13686790Y15878810D01*
X13304520Y16261079D01*
X13278641Y16235201D01*
X13265939Y16240462D01*
Y16256860D01*
X13257506Y16277222D01*
X13241920Y16292805D01*
X13221561Y16301241D01*
X13199519D01*
X13179160Y16292805D01*
X13163574Y16277222D01*
X13155141Y16256860D01*
Y16234821D01*
X13163574Y16214459D01*
X13179160Y16198874D01*
X13199519Y16190440D01*
X13215919D01*
X13221181Y16177740D01*
X12968060Y15924620D01*
X12952203Y15922516D01*
X12491720Y16383000D01*
X12284193Y16383000D01*
X12279220Y16385060D01*
X12257180D01*
X12252207Y16383000D01*
X12247880D01*
X12244820Y16379939D01*
X12236819Y16376627D01*
X12221234Y16361041D01*
X12217920Y16353040D01*
X12199620Y16334740D01*
X11054080D01*
Y9867900D01*
X10767060D01*
Y16494760D01*
X10833100Y16560800D01*
X10861040Y16588741D01*
X12285980D01*
X12517858Y16820618D01*
X12632157Y16706319D01*
X12640559Y16700703D01*
X12650470Y16698732D01*
X12660380Y16700703D01*
X12668782Y16706319D01*
X12771652Y16809187D01*
X12777266Y16817589D01*
X12779237Y16827499D01*
X12777266Y16837410D01*
X12771652Y16845811D01*
X12657352Y16960112D01*
X13644881Y17947639D01*
Y18674080D01*
X13609320Y18709641D01*
X13286740D01*
Y18785840D01*
X13601700D01*
X13637260Y18821400D01*
X13637260Y19123660D01*
X13776961D01*
Y17942560D01*
X13895354Y17824167D01*
D01*
X13925549Y17793970D01*
X13594125Y17462546D01*
X13951349Y17121271D01*
X14274800Y17444719D01*
X14274800Y17444720D01*
X14274800Y17444720D01*
Y17988280D01*
X14523718Y18237199D01*
X25130762D01*
X25239980Y18346419D01*
Y20027901D01*
X25560020D01*
Y15250160D01*
D02*
G37*
G36*
X17073383Y16276320D02*
X17075354Y16266409D01*
X17080968Y16258008D01*
X17089369Y16252394D01*
X17099280Y16250423D01*
X17549942D01*
X17556142Y16237721D01*
X17549339Y16221300D01*
Y16199260D01*
X17557774Y16178899D01*
X17558244Y16178427D01*
X17562567Y16165881D01*
X17551514Y16158974D01*
X17543495Y16166992D01*
X17523134Y16175426D01*
X17501094D01*
X17480733Y16166992D01*
X17465147Y16151407D01*
X17456714Y16131046D01*
Y16109006D01*
X17465147Y16088644D01*
X17466020Y16087772D01*
X17470653Y16076437D01*
X17259178Y15864961D01*
X17251353Y15853252D01*
X17248607Y15839439D01*
Y15275270D01*
X16855730Y14882393D01*
X16261565D01*
X16255032Y14890611D01*
X16260156Y14902312D01*
X16823083D01*
X16836896Y14905058D01*
X16848605Y14912881D01*
X17216241Y15280518D01*
X17224066Y15292227D01*
X17226813Y15306039D01*
Y15880370D01*
X17394499Y16048055D01*
X17402322Y16059766D01*
X17403275Y16064552D01*
X17413487Y16088907D01*
X17413786Y16089204D01*
X17422220Y16109567D01*
Y16131606D01*
X17413786Y16151968D01*
X17398201Y16167552D01*
X17377840Y16175986D01*
X17355800D01*
X17335439Y16167552D01*
X17319855Y16151968D01*
X17311420Y16131606D01*
Y16109567D01*
X17319855Y16089204D01*
X17319620Y16075262D01*
X17165198Y15920842D01*
X17157375Y15909132D01*
X17154626Y15895320D01*
Y15320990D01*
X16808134Y14974498D01*
X16045844D01*
X16032031Y14971750D01*
X16020322Y14963927D01*
X15430791Y14374393D01*
X14917419D01*
X14903607Y14371646D01*
X14891898Y14363821D01*
X14528699Y14000623D01*
X14520874Y13988913D01*
X14518127Y13975101D01*
Y13869250D01*
X14520874Y13855438D01*
X14528699Y13843729D01*
X14567009Y13805418D01*
X14576366Y13799167D01*
X14585020Y13787318D01*
X14585974Y13785014D01*
X14601559Y13769431D01*
X14621919Y13760997D01*
X14643961D01*
X14664320Y13769431D01*
X14679906Y13785014D01*
X14679930Y13785074D01*
X14692630D01*
X14692654Y13785014D01*
X14708240Y13769431D01*
X14728600Y13760997D01*
X14750639D01*
X14771001Y13769431D01*
X14784084Y13782513D01*
X14791690Y13784010D01*
X14799297Y13782513D01*
X14812379Y13769431D01*
X14832739Y13760997D01*
X14854781D01*
X14875140Y13769431D01*
X14886865Y13781154D01*
X14893736Y13784174D01*
X14903046Y13781567D01*
X14913979Y13770634D01*
X14934340Y13762199D01*
X14956380D01*
X14976741Y13770634D01*
X14989133Y13783026D01*
X14994406Y13785809D01*
X15005035Y13783717D01*
X15015579Y13773174D01*
X15035941Y13764740D01*
X15057980D01*
X15078342Y13773174D01*
X15088576Y13783408D01*
X15098573Y13786305D01*
X15104787Y13783026D01*
X15116434Y13771379D01*
X15136795Y13762946D01*
X15158833D01*
X15162996Y13764668D01*
X15170190Y13753902D01*
X15158220Y13741933D01*
X14559341D01*
X14501392Y13799881D01*
Y14176030D01*
X14528864Y14203500D01*
X14552538Y14213309D01*
X14579405D01*
X14613925Y14205984D01*
X14624460Y14201620D01*
X14646500D01*
X14666861Y14210054D01*
X14682446Y14225639D01*
X14690880Y14246001D01*
Y14268040D01*
X14682446Y14288400D01*
X14666861Y14303986D01*
X14653036Y14309714D01*
X14649516Y14324153D01*
X15448401Y15123039D01*
X15456226Y15134747D01*
X15458972Y15148560D01*
Y17193260D01*
X15456226Y17207072D01*
X15448401Y17218781D01*
X15107693Y17559489D01*
X15112553Y17571222D01*
X17073383D01*
Y16276320D01*
D02*
G37*
G36*
X17614738Y16151994D02*
X17594740D01*
X17580968Y16191980D01*
X17628513D01*
X17614738Y16151994D01*
D02*
G37*
G36*
X13331674Y16110594D02*
X13311674D01*
X13297701Y16139531D01*
X13345648D01*
X13331674Y16110594D01*
D02*
G37*
G36*
X18677565Y16114851D02*
X18641827Y16094257D01*
X18625488Y16106203D01*
X18641589Y16145956D01*
X18677565Y16114851D01*
D02*
G37*
G36*
X18310699Y16088496D02*
X18290700D01*
X18276929Y16128481D01*
X18324472D01*
X18310699Y16088496D01*
D02*
G37*
G36*
X18181160Y16083417D02*
X18161160D01*
X18147388Y16123399D01*
X18194933D01*
X18181160Y16083417D01*
D02*
G37*
G36*
X17378976Y16073576D02*
X17358977D01*
X17343697Y16101474D01*
X17391595Y16103671D01*
X17378976Y16073576D01*
D02*
G37*
G36*
X17914461Y16070715D02*
X17894460D01*
X17880688Y16110699D01*
X17928232D01*
X17914461Y16070715D01*
D02*
G37*
G36*
X17786139Y16068176D02*
X17766139D01*
X17752367Y16108160D01*
X17799911D01*
X17786139Y16068176D01*
D02*
G37*
G36*
X17522421Y16067162D02*
X17502422D01*
X17488240Y16101859D01*
X17536197Y16102138D01*
X17522421Y16067162D01*
D02*
G37*
G36*
X11918592Y16015221D02*
X11871048D01*
X11879420Y16052666D01*
X11910220D01*
X11918592Y16015221D01*
D02*
G37*
G36*
X13422076Y16031735D02*
X13384065Y16013200D01*
X13369923Y16027342D01*
X13388458Y16065353D01*
X13422076Y16031735D01*
D02*
G37*
G36*
X12742607Y16011748D02*
X12722607D01*
X12709089Y16031569D01*
X12756125D01*
X12742607Y16011748D01*
D02*
G37*
G36*
X12274283Y16359074D02*
X12284193Y16357101D01*
X12480993Y16357101D01*
X12720769Y16117326D01*
X12716605Y16103529D01*
X12701226Y16097159D01*
X12685641Y16081575D01*
X12677207Y16061214D01*
Y16039174D01*
X12685641Y16018813D01*
X12687135Y16017319D01*
X12660249Y15990433D01*
X12645268Y15993413D01*
X12640286Y16005441D01*
X12624701Y16021027D01*
X12604340Y16029460D01*
X12582300D01*
X12561939Y16021027D01*
X12546354Y16005441D01*
X12537920Y15985080D01*
Y15984415D01*
X12523922Y15955705D01*
X12511560Y15961304D01*
Y15969839D01*
X12503126Y15990201D01*
X12487541Y16005786D01*
X12467180Y16014220D01*
X12445140D01*
X12424779Y16005786D01*
X12409194Y15990201D01*
X12400760Y15969839D01*
Y15969174D01*
X12386762Y15940466D01*
X12263410Y15817113D01*
X11928946D01*
X11924085Y15828847D01*
X11958253Y15863014D01*
X11969671Y15874205D01*
X11974283Y15876115D01*
X11989868Y15891701D01*
X11998302Y15912062D01*
Y15934100D01*
X11989868Y15954463D01*
X11974283Y15970049D01*
X11953922Y15978482D01*
X11949740Y15984740D01*
X11950220Y15985899D01*
Y16007941D01*
X11942695Y16026106D01*
X11936419Y16054175D01*
Y16157489D01*
X12087773Y16308842D01*
X12199620D01*
X12209531Y16310814D01*
X12217932Y16316428D01*
X12236232Y16334727D01*
X12241846Y16343129D01*
X12243189Y16346371D01*
X12251488Y16354671D01*
X12254731Y16356013D01*
X12258120Y16358278D01*
X12262118Y16359074D01*
X12262332Y16359161D01*
X12274069D01*
X12274283Y16359074D01*
D02*
G37*
G36*
X12597189Y15944312D02*
X12559178Y15925777D01*
X12545036Y15939919D01*
X12563571Y15977930D01*
X12597189Y15944312D01*
D02*
G37*
G36*
X12460029Y15929071D02*
X12422018Y15910536D01*
X12407876Y15924678D01*
X12426411Y15962689D01*
X12460029Y15929071D01*
D02*
G37*
G36*
X13527231Y15937833D02*
X13495372Y15906931D01*
X13477872Y15917712D01*
X13484666Y15959502D01*
X13527231Y15937833D01*
D02*
G37*
G36*
X11954176Y15895280D02*
X11922332Y15864070D01*
X11901773Y15879433D01*
X11913112Y15919534D01*
X11954176Y15895280D01*
D02*
G37*
G36*
X13103374Y15772101D02*
X13065361Y15753568D01*
X13051219Y15767709D01*
X13069754Y15805721D01*
X13103374Y15772101D01*
D02*
G37*
G36*
X13252232Y15745573D02*
X13218416Y15716335D01*
X13201909Y15728111D01*
X13211223Y15769916D01*
X13252232Y15745573D01*
D02*
G37*
G36*
X17446049Y15643129D02*
X17412431Y15609511D01*
X17393896Y15647523D01*
X17408037Y15661664D01*
X17446049Y15643129D01*
D02*
G37*
G36*
X19144220Y15659087D02*
X19031392Y15546259D01*
X18988280Y15631490D01*
X19058989Y15702199D01*
X19144220Y15659087D01*
D02*
G37*
G36*
X12856151Y15981944D02*
X12858774Y15975612D01*
X12874359Y15960028D01*
X12880692Y15957405D01*
X12933891Y15904204D01*
X12935324Y15903247D01*
X12936459Y15901955D01*
X12939487Y15900465D01*
X12942293Y15898590D01*
X12943982Y15898254D01*
X12945528Y15897495D01*
X12948894Y15897276D01*
X12952203Y15896619D01*
X12953893Y15896954D01*
X12955611Y15896843D01*
X12971468Y15898949D01*
X12974661Y15900037D01*
X12977971Y15900694D01*
X12979404Y15901649D01*
X12981032Y15902205D01*
X12981906Y15902974D01*
X13017590Y15867290D01*
X13005881Y15855580D01*
X12998058Y15843871D01*
X12995309Y15830058D01*
Y15820033D01*
X12436130Y15260854D01*
X11850191D01*
X11819992Y15271255D01*
X11819521Y15271725D01*
X11799160Y15280161D01*
X11777120D01*
X11756759Y15271725D01*
X11741174Y15256142D01*
X11732740Y15235780D01*
Y15213741D01*
X11741174Y15193379D01*
X11756759Y15177794D01*
X11777120Y15169360D01*
X11799160D01*
X11819521Y15177794D01*
X11819992Y15178265D01*
X11850191Y15188667D01*
X12418682D01*
X12423542Y15176933D01*
X11986138Y14739529D01*
X11978314Y14727820D01*
X11975567Y14714008D01*
Y12791150D01*
X11545054Y12360638D01*
X11519190Y12334773D01*
X11382831D01*
X11352632Y12345175D01*
X11352161Y12345646D01*
X11331800Y12354080D01*
X11309760D01*
X11289399Y12345646D01*
X11273814Y12330061D01*
X11265380Y12309700D01*
Y12287660D01*
X11273814Y12267299D01*
X11289399Y12251714D01*
X11309760Y12243280D01*
X11331800D01*
X11352161Y12251714D01*
X11352632Y12252185D01*
X11382831Y12262587D01*
X11534140D01*
X11547952Y12265334D01*
X11559662Y12273158D01*
X11596098Y12309594D01*
X12019713Y12733209D01*
X12031447Y12728349D01*
Y12468570D01*
X11628410Y12065533D01*
X11382831D01*
X11352632Y12075935D01*
X11352161Y12076406D01*
X11331800Y12084840D01*
X11309760D01*
X11289399Y12076406D01*
X11273814Y12060821D01*
X11265380Y12040460D01*
Y12018420D01*
X11273814Y11998059D01*
X11289399Y11982474D01*
X11309760Y11974040D01*
X11331800D01*
X11352161Y11982474D01*
X11352632Y11982945D01*
X11382831Y11993347D01*
X11643360D01*
X11657172Y11996094D01*
X11668882Y12003918D01*
X12075593Y12410629D01*
X12087327Y12405769D01*
Y12118050D01*
X11788430Y11819153D01*
X11377751D01*
X11347552Y11829555D01*
X11347081Y11830026D01*
X11326720Y11838460D01*
X11304680D01*
X11284319Y11830026D01*
X11268734Y11814441D01*
X11260300Y11794080D01*
Y11772040D01*
X11268734Y11751679D01*
X11284319Y11736094D01*
X11304680Y11727660D01*
X11326720D01*
X11347081Y11736094D01*
X11347552Y11736565D01*
X11377751Y11746967D01*
X11803380D01*
X11817192Y11749714D01*
X11828902Y11757538D01*
X12131473Y12060109D01*
X12143207Y12055249D01*
Y11846270D01*
X11867170Y11570233D01*
X11372671D01*
X11342472Y11580635D01*
X11342001Y11581106D01*
X11321640Y11589540D01*
X11299600D01*
X11279239Y11581106D01*
X11263654Y11565521D01*
X11258966Y11554204D01*
X11246266Y11556731D01*
Y15151028D01*
X11359313Y15264075D01*
X11371047Y15259213D01*
Y13136591D01*
X11361994Y13127538D01*
X11333286Y13113541D01*
X11332620D01*
X11312259Y13105106D01*
X11296674Y13089520D01*
X11288240Y13069160D01*
Y13047121D01*
X11296674Y13026759D01*
X11312259Y13011174D01*
X11332620Y13002740D01*
X11354660D01*
X11375021Y13011174D01*
X11390606Y13026759D01*
X11399040Y13047121D01*
Y13047786D01*
X11413038Y13076494D01*
X11420273Y13083730D01*
X11432007Y13078870D01*
Y12882590D01*
X11430574Y12881158D01*
X11401866Y12867160D01*
X11401200D01*
X11380839Y12858727D01*
X11365254Y12843141D01*
X11356820Y12822780D01*
Y12800740D01*
X11365254Y12780379D01*
X11380839Y12764794D01*
X11401200Y12756360D01*
X11423240D01*
X11443601Y12764794D01*
X11459186Y12780379D01*
X11467620Y12800740D01*
Y12801405D01*
X11481618Y12830115D01*
X11482807Y12831303D01*
X11495507Y12826042D01*
Y12645762D01*
X11475526Y12636020D01*
X11474860D01*
X11454499Y12627586D01*
X11438914Y12612001D01*
X11430480Y12591640D01*
Y12569600D01*
X11438914Y12549239D01*
X11454499Y12533654D01*
X11474860Y12525220D01*
X11496900D01*
X11517261Y12533654D01*
X11532846Y12549239D01*
X11541280Y12569600D01*
Y12570266D01*
X11555278Y12598974D01*
X11557122Y12600818D01*
X11564946Y12612527D01*
X11567693Y12626340D01*
Y15232671D01*
X11968190Y15633167D01*
X12390120D01*
X12403932Y15635915D01*
X12415642Y15643738D01*
X12758129Y15986224D01*
X12765953Y15997935D01*
X12766537Y16000871D01*
X12777055Y16016295D01*
X12779573Y16018813D01*
X12785943Y16034190D01*
X12799740Y16038354D01*
X12856151Y15981944D01*
D02*
G37*
G36*
X11846424Y15234760D02*
Y15214760D01*
X11806440Y15200987D01*
Y15248532D01*
X11846424Y15234760D01*
D02*
G37*
G36*
X19656924Y15206821D02*
Y15186819D01*
X19616940Y15173048D01*
Y15220592D01*
X19656924Y15206821D01*
D02*
G37*
G36*
X20702328Y15053848D02*
X20668710Y15020232D01*
X20650175Y15058241D01*
X20664317Y15072385D01*
X20702328Y15053848D01*
D02*
G37*
G36*
X20511069Y14973785D02*
X20472813Y14957495D01*
X20459396Y14980000D01*
X20481371Y15010953D01*
X20511069Y14973785D01*
D02*
G37*
G36*
X20800160Y14903877D02*
X20766541Y14870259D01*
X20748007Y14908270D01*
X20762149Y14922414D01*
X20800160Y14903877D01*
D02*
G37*
G36*
X20604320Y14821036D02*
X20584320D01*
X20570547Y14861020D01*
X20618092D01*
X20604320Y14821036D01*
D02*
G37*
G36*
X23781883Y14503239D02*
Y14483240D01*
X23741901Y14469469D01*
Y14517012D01*
X23781883Y14503239D01*
D02*
G37*
G36*
X21904462Y14419580D02*
X21893752Y14408514D01*
X21891162Y14408102D01*
X21865656Y14433611D01*
Y15018919D01*
X21865656Y15018919D01*
X21860921Y15042722D01*
X21847440Y15062898D01*
X21847438Y15062898D01*
X21202179Y15708159D01*
X20938019Y15972319D01*
X20917841Y15985802D01*
X20894040Y15990535D01*
X20894038Y15990535D01*
X18938240D01*
X18914439Y15985802D01*
X18894261Y15972319D01*
X18894261Y15972318D01*
X18741861Y15819919D01*
X18728378Y15799741D01*
X18723645Y15775940D01*
X18723645Y15775938D01*
Y15684500D01*
X18728378Y15660699D01*
X18741861Y15640521D01*
X18762039Y15627039D01*
X18785840Y15622305D01*
X18809641Y15627039D01*
X18829819Y15640521D01*
X18832484Y15644510D01*
X18847244Y15643741D01*
X18856963Y15629198D01*
X18877139Y15615717D01*
X18900940Y15610982D01*
X18924741Y15615717D01*
X18944096Y15628648D01*
X18946881Y15629558D01*
X18958931Y15627309D01*
X18966090Y15617978D01*
X19006967Y15537170D01*
X19008266Y15527304D01*
X19020901Y15496799D01*
X19041002Y15470604D01*
X19067197Y15450504D01*
X19097702Y15437868D01*
X19130438Y15433559D01*
X20755289D01*
X21375050Y14813795D01*
X21374457Y14810808D01*
X21360677Y14806627D01*
X20944962Y15222342D01*
X20933252Y15230167D01*
X20919440Y15232913D01*
X19660690D01*
X19630492Y15243315D01*
X19630022Y15243787D01*
X19609660Y15252220D01*
X19587621D01*
X19567259Y15243787D01*
X19551674Y15228201D01*
X19543240Y15207840D01*
Y15185800D01*
X19551674Y15165439D01*
X19567259Y15149854D01*
X19587621Y15141420D01*
X19609660D01*
X19630022Y15149854D01*
X19630492Y15150325D01*
X19660690Y15160727D01*
X20904491D01*
X21320227Y14744991D01*
Y14133829D01*
X21308786Y14130289D01*
X21307527Y14130409D01*
X21295796Y14145695D01*
X21214516Y14226976D01*
X21198766Y14239062D01*
X21180423Y14246658D01*
X21160741Y14249251D01*
X20681178D01*
Y14251939D01*
X20679205Y14261852D01*
X20673592Y14270251D01*
X20665192Y14275867D01*
X20655280Y14277838D01*
X20380960D01*
X20371049Y14275867D01*
X20362648Y14270251D01*
X20357034Y14261852D01*
X20355061Y14251939D01*
Y13116560D01*
Y12842239D01*
X20357034Y12832329D01*
X20362648Y12823927D01*
X20371049Y12818314D01*
X20380960Y12816342D01*
X20878302D01*
Y11061700D01*
Y10863580D01*
X20880273Y10853669D01*
X20885889Y10845267D01*
X21015427Y10715728D01*
X21023830Y10710114D01*
X21033740Y10708142D01*
X22094614D01*
X22098131Y10700533D01*
X22099319Y10695442D01*
X22094394Y10688071D01*
X22092422Y10678160D01*
Y10307818D01*
X20775429D01*
X20766470Y10316819D01*
X20767543Y10542035D01*
X20767538Y10542061D01*
Y10542070D01*
X20767543Y10542097D01*
X20767538Y10542124D01*
Y10815320D01*
X20765565Y10825231D01*
X20759952Y10833632D01*
X20751550Y10839246D01*
X20741640Y10841218D01*
X20397060D01*
X20386539Y10853420D01*
Y11132820D01*
X20384566Y11142731D01*
X20378952Y11151132D01*
X20370551Y11156746D01*
X20360640Y11158718D01*
X19992715D01*
X19987856Y11170451D01*
X20805672Y11988267D01*
X20811285Y11996669D01*
X20813257Y12006580D01*
X20813258Y12491720D01*
X20811285Y12501631D01*
X20805672Y12510032D01*
X20797272Y12515646D01*
X20787360Y12517618D01*
X20375880D01*
X20365968Y12515646D01*
X20361128Y12512412D01*
X20347844Y12529724D01*
X20070984Y12806584D01*
X20052414Y12820834D01*
X20030788Y12829791D01*
X20007581Y12832848D01*
X19738341D01*
X19715134Y12829791D01*
X19693506Y12820834D01*
X19674936Y12806584D01*
X19660686Y12788014D01*
X19651727Y12766387D01*
X19648672Y12743180D01*
X19651727Y12719973D01*
X19660686Y12698346D01*
X19674936Y12679776D01*
X19693506Y12665526D01*
X19715134Y12656568D01*
X19738341Y12653513D01*
X19970439D01*
X20194772Y12429179D01*
Y12198661D01*
X19833279Y11837167D01*
X19776440D01*
X19753233Y11834112D01*
X19731606Y11825154D01*
X19713036Y11810904D01*
X19698785Y11792334D01*
X19689828Y11770707D01*
X19686774Y11747500D01*
Y11675353D01*
X19684233Y11656060D01*
X19687288Y11632853D01*
X19696246Y11611226D01*
X19710497Y11592656D01*
X19729066Y11578406D01*
X19750693Y11569448D01*
X19765388Y11567514D01*
X19769940Y11554105D01*
X19760632Y11544798D01*
X16493726D01*
X16491199Y11557498D01*
X16493121Y11558294D01*
X16508591Y11573763D01*
X16515309Y11567044D01*
X16535670Y11558610D01*
X16557710D01*
X16578072Y11567044D01*
X16593655Y11582629D01*
X16602090Y11602991D01*
Y11625030D01*
X16593655Y11645392D01*
X16593185Y11645863D01*
X16582784Y11676061D01*
Y11906400D01*
X16634583Y11958198D01*
X16642406Y11969908D01*
X16645152Y11983720D01*
Y12362525D01*
X16648837Y12365401D01*
X16657246Y12368393D01*
X17090001Y11935638D01*
X17101711Y11927814D01*
X17115523Y11925067D01*
X18719653D01*
X18733466Y11927814D01*
X18745177Y11935638D01*
X19781642Y12972104D01*
X19789465Y12983813D01*
X19792213Y12997626D01*
Y13962669D01*
X20619843Y14790298D01*
X20627666Y14802008D01*
X20630412Y14815820D01*
Y14817268D01*
X20640816Y14847469D01*
X20641286Y14847939D01*
X20649719Y14868300D01*
Y14890340D01*
X20646089Y14899106D01*
X20654575Y14911807D01*
X20707568D01*
X20726894Y14892484D01*
X20740891Y14863776D01*
Y14863109D01*
X20749326Y14842747D01*
X20764909Y14827164D01*
X20785271Y14818729D01*
X20807310D01*
X20827672Y14827164D01*
X20843257Y14842747D01*
X20851691Y14863109D01*
Y14885149D01*
X20843257Y14905510D01*
X20827672Y14921094D01*
X20807310Y14929527D01*
X20806645D01*
X20777937Y14943527D01*
X20748041Y14973422D01*
X20745673Y14975005D01*
X20744061Y14991354D01*
X20745425Y14992719D01*
X20753860Y15013080D01*
Y15035120D01*
X20745425Y15055481D01*
X20729842Y15071066D01*
X20709480Y15079500D01*
X20708813D01*
X20680106Y15093498D01*
X20663663Y15109943D01*
X20651952Y15117766D01*
X20638139Y15120512D01*
X20495764D01*
X20481952Y15117766D01*
X20470242Y15109943D01*
X19497318Y14137016D01*
X19489494Y14125308D01*
X19486748Y14111496D01*
Y13905054D01*
X19474046Y13899068D01*
X19457260Y13906020D01*
X19435220D01*
X19414859Y13897586D01*
X19414388Y13897115D01*
X19384189Y13886713D01*
X15967398D01*
X15962137Y13899413D01*
X16396181Y14333456D01*
X16408881Y14328197D01*
Y14319659D01*
X16417314Y14299300D01*
X16432899Y14283714D01*
X16453259Y14275281D01*
X16475301D01*
X16495660Y14283714D01*
X16496132Y14284184D01*
X16526331Y14294588D01*
X16586792D01*
Y14241753D01*
X16589540Y14227940D01*
X16597363Y14216229D01*
X16615063Y14198531D01*
X16626773Y14190706D01*
X16640585Y14187958D01*
X16675986D01*
X16689798Y14190706D01*
X16701508Y14198531D01*
X16719208Y14216229D01*
X16721449Y14219585D01*
X16736723D01*
X16738963Y14216229D01*
X16756664Y14198531D01*
X16768373Y14190706D01*
X16782185Y14187958D01*
X16817586D01*
X16831398Y14190706D01*
X16843108Y14198531D01*
X16860808Y14216229D01*
X16863049Y14219585D01*
X16878323D01*
X16880563Y14216229D01*
X16898264Y14198531D01*
X16909973Y14190706D01*
X16923785Y14187958D01*
X16959186D01*
X16972998Y14190706D01*
X16984708Y14198531D01*
X17002406Y14216229D01*
X17009087Y14226225D01*
X17016838Y14228175D01*
X17023273Y14228406D01*
X17039864Y14211815D01*
X17051573Y14203992D01*
X17065385Y14201244D01*
X17100784D01*
X17114598Y14203992D01*
X17126308Y14211815D01*
X17144006Y14229515D01*
X17151831Y14241225D01*
X17154579Y14255037D01*
Y14279674D01*
X17167279Y14284647D01*
X17181464Y14270461D01*
X17193173Y14262637D01*
X17206985Y14259889D01*
X17242384D01*
X17256198Y14262637D01*
X17267908Y14270461D01*
X17285606Y14288161D01*
X17285612Y14288168D01*
X17321838Y14324396D01*
X18654962Y15657518D01*
X18662785Y15669228D01*
X18665533Y15683040D01*
X18665533Y15683041D01*
Y16078027D01*
X18688733Y16091397D01*
X18702921Y16097273D01*
X18718506Y16112859D01*
X18726939Y16133220D01*
Y16155260D01*
X18718506Y16175621D01*
X18702921Y16191206D01*
X18682561Y16199640D01*
X18660519D01*
X18640160Y16191206D01*
X18624574Y16175621D01*
X18616141Y16155260D01*
Y16152107D01*
X18603510Y16120921D01*
X18596094Y16109824D01*
X18593347Y16096011D01*
Y15697990D01*
X17270795Y14375439D01*
X17235458Y14340103D01*
X17231784Y14339928D01*
X17220332Y14342934D01*
X17214807Y14351202D01*
X17197107Y14368903D01*
X17185397Y14376726D01*
X17171585Y14379472D01*
X17136185D01*
X17122372Y14376726D01*
X17110664Y14368903D01*
X17092964Y14351202D01*
X17090723Y14347849D01*
X17075449D01*
X17073207Y14351202D01*
X17055507Y14368903D01*
X17043797Y14376726D01*
X17029985Y14379472D01*
X16994586D01*
X16980772Y14376726D01*
X16969064Y14368903D01*
X16951364Y14351202D01*
X16949123Y14347849D01*
X16933849D01*
X16931607Y14351202D01*
X16913907Y14368903D01*
X16902197Y14376726D01*
X16888387Y14379472D01*
X16852986D01*
X16839172Y14376726D01*
X16827464Y14368903D01*
X16809764Y14351202D01*
X16807523Y14347849D01*
X16792249D01*
X16790009Y14351202D01*
X16772308Y14368903D01*
X16766289Y14372923D01*
X16763821Y14381876D01*
X16764616Y14387135D01*
X16764929Y14387944D01*
X16767398Y14388876D01*
X16777661Y14382019D01*
X16791473Y14379271D01*
X16809633D01*
X16823445Y14382019D01*
X16835155Y14389844D01*
X16848775Y14403464D01*
X16853629Y14410727D01*
X16868375Y14414232D01*
X16868462Y14414174D01*
X16882272Y14411427D01*
X17147540D01*
X17161353Y14414174D01*
X17173062Y14421999D01*
X18337941Y15586877D01*
X18345766Y15598587D01*
X18348512Y15612399D01*
Y15868318D01*
X18345766Y15882130D01*
X18337941Y15893840D01*
X18336794Y15894987D01*
Y16084729D01*
X18347195Y16114928D01*
X18347665Y16115399D01*
X18356100Y16135760D01*
Y16157800D01*
X18347665Y16178162D01*
X18332082Y16193745D01*
X18311720Y16202180D01*
X18289680D01*
X18269319Y16193745D01*
X18253734Y16178162D01*
X18245300Y16157800D01*
Y16135760D01*
X18253734Y16115399D01*
X18254205Y16114928D01*
X18264607Y16084729D01*
Y15880037D01*
X18267354Y15866225D01*
X18275179Y15854515D01*
X18276326Y15853368D01*
Y15627350D01*
X17132590Y14483614D01*
X16897224D01*
X16894180Y14486658D01*
X16894176Y14486664D01*
X16883054Y14497787D01*
X16885780Y14507593D01*
X16887849Y14510487D01*
X17076421D01*
X17090231Y14513234D01*
X17101942Y14521059D01*
X18196683Y15615797D01*
X18204506Y15627507D01*
X18207253Y15641319D01*
Y16079649D01*
X18217654Y16109848D01*
X18218126Y16110320D01*
X18226559Y16130679D01*
Y16152721D01*
X18218126Y16173080D01*
X18202541Y16188666D01*
X18182179Y16197099D01*
X18160139D01*
X18139780Y16188666D01*
X18124194Y16173080D01*
X18115759Y16152721D01*
Y16130679D01*
X18124194Y16110320D01*
X18124664Y16109848D01*
X18135068Y16079649D01*
Y15656270D01*
X17061470Y14582674D01*
X16695126D01*
X16692084Y14585716D01*
X16692078Y14585724D01*
X16678458Y14599344D01*
X16666750Y14607169D01*
X16654793Y14609547D01*
X16656044Y14622247D01*
X17028160D01*
X17041972Y14624994D01*
X17053682Y14632819D01*
X17937943Y15517078D01*
X17945766Y15528789D01*
X17948514Y15542599D01*
Y15826408D01*
X17945766Y15840221D01*
X17940553Y15848022D01*
Y16066949D01*
X17950955Y16097148D01*
X17951427Y16097620D01*
X17959860Y16117979D01*
Y16140021D01*
X17951427Y16160381D01*
X17935841Y16175966D01*
X17915480Y16184399D01*
X17893440D01*
X17873079Y16175966D01*
X17857494Y16160381D01*
X17849060Y16140021D01*
Y16117979D01*
X17857494Y16097620D01*
X17857965Y16097148D01*
X17868367Y16066949D01*
Y15834367D01*
X17871114Y15820557D01*
X17876328Y15812753D01*
Y15557552D01*
X17013210Y14694434D01*
X16528882D01*
X16517426Y14692155D01*
X16509311Y14694070D01*
X16503627Y14696426D01*
X16503207Y14698532D01*
X16495384Y14710242D01*
X16491939Y14713687D01*
X16497198Y14726387D01*
X16964661D01*
X16978471Y14729134D01*
X16990182Y14736958D01*
X17801662Y15548438D01*
X17809485Y15560147D01*
X17812233Y15573959D01*
Y16064409D01*
X17822633Y16094608D01*
X17823105Y16095079D01*
X17831538Y16115440D01*
Y16137480D01*
X17823105Y16157841D01*
X17807521Y16173425D01*
X17787160Y16181860D01*
X17765118D01*
X17744759Y16173425D01*
X17729173Y16157841D01*
X17720740Y16137480D01*
Y16115440D01*
X17729173Y16095079D01*
X17729643Y16094608D01*
X17740047Y16064409D01*
Y15588910D01*
X16949710Y14798573D01*
X16877293D01*
X16876044Y14811273D01*
X16884492Y14812955D01*
X16896202Y14820778D01*
X17310222Y15234798D01*
X17318047Y15246507D01*
X17320793Y15260320D01*
Y15824490D01*
X17537943Y16041640D01*
X17545767Y16053349D01*
X17546739Y16058234D01*
X17555948Y16081615D01*
X17568648Y16079202D01*
Y16042349D01*
X17358240Y15831941D01*
X17350415Y15820232D01*
X17347668Y15806419D01*
Y15671800D01*
X17350415Y15657988D01*
X17358240Y15646278D01*
X17372781Y15631737D01*
X17386780Y15603026D01*
Y15602361D01*
X17395213Y15581999D01*
X17410799Y15566414D01*
X17431160Y15557980D01*
X17453200D01*
X17473561Y15566414D01*
X17489146Y15581999D01*
X17497580Y15602361D01*
Y15624400D01*
X17489146Y15644762D01*
X17473561Y15660345D01*
X17453200Y15668781D01*
X17452533D01*
X17423824Y15682777D01*
X17419852Y15686749D01*
Y15791470D01*
X17630261Y16001878D01*
X17638084Y16013588D01*
X17640833Y16027400D01*
Y16148228D01*
X17651234Y16178427D01*
X17651706Y16178899D01*
X17660139Y16199260D01*
Y16221300D01*
X17653339Y16237721D01*
X17659538Y16250423D01*
X19199860D01*
X19209772Y16252394D01*
X19218172Y16258008D01*
X19223785Y16266409D01*
X19225758Y16276320D01*
Y16425613D01*
X19591586Y16791441D01*
X21904462D01*
Y14419580D01*
D02*
G37*
G36*
X23949524Y14429581D02*
Y14409579D01*
X23909540Y14395808D01*
Y14443352D01*
X23949524Y14429581D01*
D02*
G37*
G36*
X23865704Y14361000D02*
Y14341000D01*
X23825720Y14327228D01*
Y14374773D01*
X23865704Y14361000D01*
D02*
G37*
G36*
X16522565Y14340680D02*
Y14320680D01*
X16482581Y14306908D01*
Y14354453D01*
X16522565Y14340680D01*
D02*
G37*
G36*
X23784424Y14289880D02*
Y14269881D01*
X23744440Y14256108D01*
Y14303651D01*
X23784424Y14289880D01*
D02*
G37*
G36*
X14620404Y14231084D02*
X14581200Y14239401D01*
X14575575Y14259399D01*
X14614310Y14278278D01*
X14620404Y14231084D01*
D02*
G37*
G36*
X14567857Y14259399D02*
X14547861Y14239401D01*
X14513721Y14225259D01*
X14516650Y14256470D01*
X14562000Y14273540D01*
X14567857Y14259399D01*
D02*
G37*
G36*
X23713571Y14221780D02*
Y14201781D01*
X23673586Y14188008D01*
Y14235551D01*
X23713571Y14221780D01*
D02*
G37*
G36*
X24208604Y14141920D02*
Y14121919D01*
X24168620Y14108148D01*
Y14155692D01*
X24208604Y14141920D01*
D02*
G37*
G36*
X24109544Y14072295D02*
Y14052295D01*
X24069560Y14038522D01*
Y14086069D01*
X24109544Y14072295D01*
D02*
G37*
G36*
X23997314Y13993092D02*
Y13973093D01*
X23957330Y13959322D01*
Y14006865D01*
X23997314Y13993092D01*
D02*
G37*
G36*
X14162904Y13939359D02*
Y13919360D01*
X14122920Y13905588D01*
Y13953133D01*
X14162904Y13939359D01*
D02*
G37*
G36*
X23875864Y13919040D02*
Y13899040D01*
X23835880Y13885268D01*
Y13932812D01*
X23875864Y13919040D01*
D02*
G37*
G36*
X16059740Y14883295D02*
X16058539Y14877261D01*
Y14814183D01*
X15527310Y14282953D01*
X14988541D01*
X14974728Y14280206D01*
X14963017Y14272382D01*
X14659499Y13968861D01*
X14651674Y13957152D01*
X14648927Y13943340D01*
Y13875116D01*
X14643961Y13871797D01*
X14621919D01*
X14618617Y13870428D01*
X14605751Y13868764D01*
X14590314Y13884201D01*
Y13960150D01*
X14932370Y14302206D01*
X15445740D01*
X15459552Y14304955D01*
X15471262Y14312778D01*
X16048035Y14889551D01*
X16059740Y14883295D01*
D02*
G37*
G36*
X16142554Y14797125D02*
X16153651Y14794917D01*
X16168698D01*
X16173856Y14792256D01*
X16180441Y14783684D01*
Y14737965D01*
X15626370Y14183893D01*
X15011400D01*
X14997588Y14181146D01*
X14985878Y14173322D01*
X14790298Y13977742D01*
X14782474Y13966032D01*
X14779727Y13952220D01*
Y13871231D01*
X14767026Y13865009D01*
X14750639Y13871797D01*
X14748421D01*
X14721114Y13883670D01*
Y13928391D01*
X15003490Y14210767D01*
X15542261D01*
X15556071Y14213515D01*
X15567783Y14221338D01*
X16110153Y14763708D01*
X16120154Y14773711D01*
X16127979Y14785420D01*
X16128838Y14789742D01*
X16139778Y14797620D01*
X16142554Y14797125D01*
D02*
G37*
G36*
X14969131Y13835899D02*
X14921588D01*
X14935361Y13875883D01*
X14955360D01*
X14969131Y13835899D01*
D02*
G37*
G36*
X19427940Y13826848D02*
X19387956Y13840620D01*
Y13860620D01*
X19427940Y13874393D01*
Y13826848D01*
D02*
G37*
G36*
X15086411Y13856273D02*
X15076961Y13820216D01*
X15038614Y13848956D01*
X15072269Y13870415D01*
X15086411Y13856273D01*
D02*
G37*
G36*
X14848830Y13845966D02*
X14813870Y13813814D01*
X14808749Y13839705D01*
X14822891Y13853847D01*
X14848830Y13845966D01*
D02*
G37*
G36*
X15197221Y13849809D02*
X15177361Y13813142D01*
X15145277Y13848238D01*
X15184430Y13865303D01*
X15197221Y13849809D01*
D02*
G37*
G36*
X14742130Y13846292D02*
X14710080Y13811166D01*
X14690193Y13847804D01*
X14702957Y13863326D01*
X14742130Y13846292D01*
D02*
G37*
G36*
X14607735Y13800130D02*
X14592531Y13820940D01*
Y13840939D01*
X14623882Y13844997D01*
X14607735Y13800130D01*
D02*
G37*
G36*
X24338304Y13796158D02*
X24324162Y13782016D01*
X24286151Y13800551D01*
X24319769Y13834169D01*
X24338304Y13796158D01*
D02*
G37*
G36*
X15323653Y13720233D02*
X15283667Y13734006D01*
Y13754004D01*
X15323653Y13767776D01*
Y13720233D01*
D02*
G37*
G36*
X24237802Y13718860D02*
X24220102Y13708275D01*
X24185979Y13729861D01*
X24223276Y13759399D01*
X24237802Y13718860D01*
D02*
G37*
G36*
X15435030Y13684016D02*
X15437843Y13674686D01*
X15407257Y13692499D01*
X15420889Y13698157D01*
X15435030Y13684016D01*
D02*
G37*
G36*
X15659100Y13642340D02*
X16703040D01*
X17470120Y12875259D01*
Y12400280D01*
X17315179D01*
Y12522200D01*
Y12791440D01*
X16603979Y13502640D01*
X15753081D01*
Y12705080D01*
X15449550Y12401550D01*
X15430499Y12397740D01*
X15372079D01*
Y12532360D01*
X15519400Y12679679D01*
Y13566141D01*
Y13588992D01*
Y13633115D01*
X15520052Y13634492D01*
X15530139Y13642821D01*
X15535701D01*
X15541158Y13641734D01*
X15546616Y13642821D01*
X15552177D01*
X15557318Y13644949D01*
X15562775Y13646034D01*
X15567400Y13649126D01*
X15572540Y13651254D01*
X15576472Y13655188D01*
X15581099Y13658279D01*
X15608340Y13685519D01*
X15659100D01*
Y13642340D01*
D02*
G37*
G36*
X24180824Y13638678D02*
X24166682Y13624536D01*
X24128671Y13643071D01*
X24162289Y13676689D01*
X24180824Y13638678D01*
D02*
G37*
G36*
X15326511Y13637440D02*
X15314523Y13621144D01*
X15274797Y13637292D01*
X15305949Y13673225D01*
X15326511Y13637440D01*
D02*
G37*
G36*
X24111264Y13555717D02*
X24097122Y13541576D01*
X24059111Y13560110D01*
X24092731Y13593729D01*
X24111264Y13555717D01*
D02*
G37*
G36*
X14423450Y13223972D02*
X14385437Y13205437D01*
X14371297Y13219577D01*
X14389832Y13257590D01*
X14423450Y13223972D01*
D02*
G37*
G36*
X25733652Y13200900D02*
X25686108D01*
X25699881Y13240884D01*
X25719879D01*
X25733652Y13200900D01*
D02*
G37*
G36*
X14508743Y13160019D02*
X14489844Y13121292D01*
X14469846Y13126944D01*
X14461552Y13166141D01*
X14508743Y13160019D01*
D02*
G37*
G36*
X14570450Y13085555D02*
X14554005Y13073346D01*
X14534007D01*
X14524918Y13095345D01*
X14570450Y13085555D01*
D02*
G37*
G36*
X11391924Y13092282D02*
X11373389Y13054271D01*
X11339771Y13087889D01*
X11377782Y13106424D01*
X11391924Y13092282D01*
D02*
G37*
G36*
X25657452Y12954520D02*
X25609909D01*
X25623679Y12994504D01*
X25643680D01*
X25657452Y12954520D01*
D02*
G37*
G36*
X14377628Y12923688D02*
X14365691Y12918324D01*
X14351550Y12932466D01*
X14349207Y12940240D01*
X14377628Y12923688D01*
D02*
G37*
G36*
X14576160Y12931914D02*
X14540950Y12916451D01*
X14526810Y12930589D01*
X14542273Y12965800D01*
X14576160Y12931914D01*
D02*
G37*
G36*
X14709164Y12863977D02*
X14695023Y12849837D01*
X14657011Y12868372D01*
X14690630Y12901990D01*
X14709164Y12863977D01*
D02*
G37*
G36*
X11460504Y12845901D02*
X11441969Y12807890D01*
X11408351Y12841508D01*
X11446362Y12860043D01*
X11460504Y12845901D01*
D02*
G37*
G36*
X16275723Y13465009D02*
X16270708Y13459991D01*
X16265094Y13451591D01*
X16263123Y13441679D01*
Y12776200D01*
X16265094Y12766290D01*
X16256705Y12755984D01*
X16252017Y12755025D01*
X16210400Y12796641D01*
X16198692Y12804465D01*
X16184880Y12807211D01*
X15968980D01*
X15955168Y12804465D01*
X15943459Y12796641D01*
X15679298Y12532481D01*
X15671475Y12520772D01*
X15670529Y12516018D01*
X15658762Y12488449D01*
X15657854Y12487541D01*
X15649420Y12467180D01*
Y12445140D01*
X15657854Y12424779D01*
X15673439Y12409194D01*
X15677979Y12407313D01*
X15675453Y12394613D01*
X15495831D01*
X15490971Y12406347D01*
X15771391Y12686768D01*
X15777007Y12695169D01*
X15778978Y12705080D01*
Y13476743D01*
X16270863D01*
X16275723Y13465009D01*
D02*
G37*
G36*
X25583792Y12700520D02*
X25536247D01*
X25550020Y12740504D01*
X25570020D01*
X25583792Y12700520D01*
D02*
G37*
G36*
X16806660Y12671148D02*
X16766675Y12684921D01*
Y12704919D01*
X16806660Y12718692D01*
Y12671148D01*
D02*
G37*
G36*
X14956766Y12678495D02*
X14942622Y12664353D01*
X14904611Y12682888D01*
X14938229Y12716507D01*
X14956766Y12678495D01*
D02*
G37*
G36*
X14949648Y12594318D02*
X14935965Y12579717D01*
X14897540Y12597764D01*
X14930643Y12631894D01*
X14949648Y12594318D01*
D02*
G37*
G36*
X11534164Y12614762D02*
X11515629Y12576751D01*
X11482011Y12610369D01*
X11520022Y12628904D01*
X11534164Y12614762D01*
D02*
G37*
G36*
X14937775Y12539786D02*
Y12519786D01*
X14917715Y12509286D01*
X14924501Y12555212D01*
X14937775Y12539786D01*
D02*
G37*
G36*
X15115540Y13390880D02*
Y12948920D01*
X15192986Y12871474D01*
Y12516219D01*
X15177402Y12500634D01*
X15129730D01*
X15100301Y12530064D01*
Y12673330D01*
X14982190Y12791440D01*
X14848840D01*
X14693900Y12946381D01*
Y13347701D01*
X12832080D01*
Y13629640D01*
X14697623D01*
X14700858Y13634058D01*
X14701550Y13634750D01*
X14871671D01*
X15115540Y13390880D01*
D02*
G37*
G36*
X17251680Y12814301D02*
Y12509500D01*
X17223740Y12481560D01*
X17155161D01*
X17134840Y12501880D01*
Y12786360D01*
X16568420Y13352780D01*
X16400780D01*
Y12748792D01*
X16316428D01*
X16289020Y12776200D01*
Y13441679D01*
X16324081Y13476743D01*
X16589238D01*
X17251680Y12814301D01*
D02*
G37*
G36*
X15728818Y12474162D02*
X15680823D01*
X15694821Y12506960D01*
X15714819D01*
X15728818Y12474162D01*
D02*
G37*
G36*
X25507591Y12443980D02*
X25460048D01*
X25473820Y12483964D01*
X25493820D01*
X25507591Y12443980D01*
D02*
G37*
G36*
X16546854Y12440438D02*
X16532712Y12426296D01*
X16494701Y12444831D01*
X16528319Y12478450D01*
X16546854Y12440438D01*
D02*
G37*
G36*
X14963698Y12447822D02*
X14958450Y12427822D01*
X14919257Y12419530D01*
X14925377Y12466720D01*
X14963698Y12447822D01*
D02*
G37*
G36*
X16361819Y12433434D02*
X16343858Y12415474D01*
X16308537Y12435136D01*
X16342157Y12468755D01*
X16361819Y12433434D01*
D02*
G37*
G36*
X16182230Y12722728D02*
X16177370Y12710994D01*
X16138223D01*
X16124411Y12708247D01*
X16112701Y12700423D01*
X15806892Y12394613D01*
X15734187D01*
X15731660Y12407313D01*
X15736201Y12409194D01*
X15751785Y12424779D01*
X15760220Y12445140D01*
Y12467180D01*
X15751785Y12487541D01*
X15750877Y12488449D01*
X15746832Y12497929D01*
X15983929Y12735028D01*
X16169930D01*
X16182230Y12722728D01*
D02*
G37*
G36*
X15226385Y13643587D02*
X15229587Y13635860D01*
X15245171Y13620274D01*
X15265533Y13611841D01*
X15268637D01*
X15299449Y13599316D01*
X15330206Y13568558D01*
X15341917Y13560735D01*
X15355730Y13557986D01*
X15434268D01*
X15448080Y13560735D01*
X15459790Y13568558D01*
X15481210Y13589980D01*
X15493501Y13584309D01*
Y13566141D01*
Y12690407D01*
X15353767Y12550672D01*
X15348154Y12542271D01*
X15346182Y12532360D01*
Y12397740D01*
X15343616Y12394613D01*
X15318449D01*
X15244083Y12468982D01*
X15232372Y12476806D01*
X15218559Y12479553D01*
X15210905D01*
X15205646Y12492253D01*
X15211298Y12497906D01*
X15216911Y12506308D01*
X15218883Y12516219D01*
Y12871474D01*
X15216911Y12881384D01*
X15211298Y12889787D01*
X15141438Y12959647D01*
Y13390880D01*
X15139465Y13400790D01*
X15133852Y13409192D01*
X14920029Y13623016D01*
X14924889Y13634750D01*
X15187666D01*
X15201479Y13637497D01*
X15212196Y13644658D01*
X15216133Y13645625D01*
X15226385Y13643587D01*
D02*
G37*
G36*
X16243765Y12589274D02*
X16089191Y12434699D01*
X16086935Y12431324D01*
X15974625Y12319013D01*
X15899471D01*
X15894611Y12330746D01*
X16164871Y12601008D01*
X16238905D01*
X16243765Y12589274D01*
D02*
G37*
G36*
X14954309Y12324811D02*
X14916298Y12306276D01*
X14902156Y12320418D01*
X14920691Y12358429D01*
X14954309Y12324811D01*
D02*
G37*
G36*
X11379064Y12308680D02*
Y12288680D01*
X11339080Y12274908D01*
Y12322452D01*
X11379064Y12308680D01*
D02*
G37*
G36*
X16924571Y13807439D02*
X18543022Y12264751D01*
X18538303Y12252960D01*
X18140678D01*
X16724631Y13669009D01*
X15687041D01*
Y13752831D01*
X15741650Y13807442D01*
X16924571Y13807439D01*
D02*
G37*
G36*
X15046042Y12243527D02*
X15031973Y12229459D01*
X15005453Y12238795D01*
X15041344Y12270046D01*
X15046042Y12243527D01*
D02*
G37*
G36*
X15106894Y12235690D02*
X15080937Y12228997D01*
X15066869Y12243065D01*
X15073056Y12269012D01*
X15106894Y12235690D01*
D02*
G37*
G36*
X19414388Y13804124D02*
X19414859Y13803654D01*
X19435220Y13795219D01*
X19457260D01*
X19474046Y13802173D01*
X19486748Y13796185D01*
Y13114130D01*
X18582930Y12210313D01*
X17238690D01*
X16822185Y12626820D01*
X16827444Y12639520D01*
X16835980D01*
X16856342Y12647954D01*
X16871925Y12663539D01*
X16880360Y12683900D01*
Y12705940D01*
X16871925Y12726301D01*
X16856342Y12741886D01*
X16835980Y12750320D01*
X16813940D01*
X16793579Y12741886D01*
X16793108Y12741415D01*
X16766313Y12732185D01*
X16760277Y12738221D01*
X16748569Y12746045D01*
X16734756Y12748792D01*
X16426678D01*
Y13326881D01*
X16557693D01*
X17108942Y12775633D01*
Y12501880D01*
X17110915Y12491969D01*
X17116528Y12483568D01*
X17136848Y12463248D01*
X17145248Y12457634D01*
X17155161Y12455662D01*
X17223740D01*
X17233652Y12457634D01*
X17242052Y12463248D01*
X17269992Y12491188D01*
X17275606Y12499589D01*
X17276582Y12504497D01*
X17289282Y12503246D01*
Y12400280D01*
X17291254Y12390369D01*
X17296867Y12381968D01*
X17305269Y12376354D01*
X17315179Y12374382D01*
X17470120D01*
X17480031Y12376354D01*
X17488432Y12381968D01*
X17494046Y12390369D01*
X17496017Y12400280D01*
Y12844405D01*
X17507751Y12849265D01*
X18122366Y12234648D01*
X18130769Y12229034D01*
X18140678Y12227062D01*
X18538303D01*
X18538457Y12227093D01*
X18538612Y12227064D01*
X18543408Y12228078D01*
X18548213Y12229034D01*
X18548344Y12229121D01*
X18548499Y12229154D01*
X18552542Y12231926D01*
X18556615Y12234648D01*
X18556703Y12234779D01*
X18556833Y12234868D01*
X18559505Y12238972D01*
X18562228Y12243049D01*
X18562260Y12243205D01*
X18562346Y12243337D01*
X18567065Y12255127D01*
X18567094Y12255282D01*
X18567178Y12255416D01*
X18568021Y12260247D01*
X18568918Y12265061D01*
X18568884Y12265215D01*
X18568912Y12265371D01*
X18567841Y12270155D01*
X18566827Y12274947D01*
X18566739Y12275077D01*
X18566704Y12275232D01*
X18563889Y12279236D01*
X18561115Y12283281D01*
X18560982Y12283367D01*
X18560890Y12283496D01*
X16967039Y13802736D01*
X16971761Y13814526D01*
X19384189D01*
X19414388Y13804124D01*
D02*
G37*
G36*
X25431392Y12179820D02*
X25383849D01*
X25397620Y12219804D01*
X25417619D01*
X25431392Y12179820D01*
D02*
G37*
G36*
X20497540Y14926073D02*
X20495139Y14923671D01*
X20487314Y14911961D01*
X20484567Y14898149D01*
Y14810568D01*
X19687418Y14013419D01*
X19679594Y14001709D01*
X19676846Y13987897D01*
Y13022853D01*
X18689047Y12035053D01*
X17142171D01*
X16587950Y12589274D01*
X16592810Y12601008D01*
X16690028D01*
X17173192Y12117844D01*
X17181030Y12106111D01*
X17193634Y12097691D01*
X17208501Y12094733D01*
X18614516D01*
X18629381Y12097691D01*
X18641985Y12106111D01*
X19592078Y13056206D01*
X19600499Y13068808D01*
X19603456Y13083675D01*
Y14079900D01*
X20450406Y14926849D01*
X20463052D01*
X20477919Y14929807D01*
X20484995Y14934535D01*
X20490300Y14936794D01*
X20497540Y14926073D01*
D02*
G37*
G36*
X16446495Y12493627D02*
X16443170Y12485600D01*
Y12463560D01*
X16451604Y12443199D01*
X16467189Y12427614D01*
X16487550Y12419180D01*
X16488216D01*
X16516924Y12405182D01*
X16572968Y12349140D01*
Y12065783D01*
X16560266Y12057297D01*
X16548959Y12061980D01*
X16526920D01*
X16506560Y12053546D01*
X16490974Y12037961D01*
X16482539Y12017600D01*
Y12016934D01*
X16468542Y11988226D01*
X16439627Y11959310D01*
X16426927Y11964131D01*
Y11973772D01*
X16423969Y11988638D01*
X16415549Y12001241D01*
X16401527Y12015263D01*
Y12414613D01*
X16398569Y12429479D01*
X16390149Y12442082D01*
X16382246Y12449984D01*
X16367781Y12475969D01*
X16361354Y12491486D01*
X16368048Y12504187D01*
X16439439D01*
X16446495Y12493627D01*
D02*
G37*
G36*
X11379064Y12039440D02*
Y12019440D01*
X11339080Y12005668D01*
Y12053212D01*
X11379064Y12039440D01*
D02*
G37*
G36*
X16541809Y11976831D02*
X16503798Y11958296D01*
X16489656Y11972438D01*
X16508191Y12010449D01*
X16541809Y11976831D01*
D02*
G37*
G36*
X25355193Y11920740D02*
X25307648D01*
X25321420Y11960724D01*
X25341420D01*
X25355193Y11920740D01*
D02*
G37*
G36*
X11373984Y11793060D02*
Y11773060D01*
X11334000Y11759288D01*
Y11806832D01*
X11373984Y11793060D01*
D02*
G37*
G36*
X25278992Y11732780D02*
X25231448D01*
X25245219Y11772764D01*
X25265221D01*
X25278992Y11732780D01*
D02*
G37*
G36*
X16570462Y11632310D02*
X16522919D01*
X16536690Y11672294D01*
X16556689D01*
X16570462Y11632310D01*
D02*
G37*
G36*
X16485512Y11623560D02*
X16437968D01*
X16451740Y11663544D01*
X16471741D01*
X16485512Y11623560D01*
D02*
G37*
G36*
X16400780Y11648401D02*
X16400642Y11603831D01*
X16354617Y11616392D01*
X16375380Y11652452D01*
X16400780Y11648401D01*
D02*
G37*
G36*
X20787360Y12006580D02*
X19946620Y11165840D01*
X15758160D01*
X15377161Y11546840D01*
Y11673840D01*
Y11780520D01*
X15488921D01*
Y12057380D01*
X15539720Y12108180D01*
Y12117587D01*
X15541780Y12122560D01*
Y12144600D01*
X15539720Y12149573D01*
Y12206707D01*
X16001793D01*
X16015605Y12209454D01*
X16016093Y12209780D01*
X16062959D01*
X16116299Y12156440D01*
Y11587480D01*
X16184880Y11518900D01*
X19771359D01*
X20375880Y12123420D01*
Y12491720D01*
X20787360D01*
X20787360Y12006580D01*
D02*
G37*
G36*
X11368904Y11544140D02*
Y11524140D01*
X11328920Y11510368D01*
Y11557912D01*
X11368904Y11544140D01*
D02*
G37*
G36*
X25202792Y11430520D02*
X25155247D01*
X25169020Y11470504D01*
X25189020D01*
X25202792Y11430520D01*
D02*
G37*
G36*
X25124052Y11176520D02*
X25076508D01*
X25090280Y11216504D01*
X25110280D01*
X25124052Y11176520D01*
D02*
G37*
G36*
X22050291Y11122708D02*
X22016672Y11089089D01*
X21998138Y11127100D01*
X22012280Y11141242D01*
X22050291Y11122708D01*
D02*
G37*
G36*
X21188245Y14038144D02*
X21203995Y14026057D01*
X21222337Y14018462D01*
X21242020Y14015871D01*
X21261703Y14018462D01*
X21280045Y14026057D01*
X21295796Y14038144D01*
X21307527Y14053432D01*
X21308786Y14053551D01*
X21320227Y14050011D01*
Y13190221D01*
X21322974Y13176408D01*
X21330798Y13164697D01*
X21823148Y12672350D01*
Y11280140D01*
X21825894Y11266328D01*
X21833717Y11254618D01*
X21977023Y11111313D01*
X21991022Y11082604D01*
Y11081938D01*
X21996042Y11069818D01*
X21987556Y11057118D01*
X21204417D01*
Y11061700D01*
Y12842239D01*
Y13116560D01*
X21202446Y13126471D01*
X21196832Y13134872D01*
X21188431Y13140486D01*
X21178520Y13142458D01*
X20681178D01*
Y14097150D01*
X21129239D01*
X21188245Y14038144D01*
D02*
G37*
G36*
X25045312Y10919980D02*
X24997768D01*
X25011540Y10959964D01*
X25031540D01*
X25045312Y10919980D01*
D02*
G37*
G36*
X20655280Y13116560D02*
X21178520D01*
Y12842239D01*
Y11061700D01*
Y11031220D01*
X22672040D01*
Y10734040D01*
X21033740D01*
X20904201Y10863580D01*
Y11061700D01*
Y12842239D01*
X20380960D01*
Y13116560D01*
Y14251939D01*
X20655280D01*
Y13116560D01*
D02*
G37*
G36*
X24979297Y10737430D02*
X24932103Y10731336D01*
X24940421Y10770540D01*
X24960420Y10776165D01*
X24979297Y10737430D01*
D02*
G37*
G36*
X15227403Y10611002D02*
X15197501Y10574002D01*
X15176125Y10608513D01*
X15187027Y10625895D01*
X15227403Y10611002D01*
D02*
G37*
G36*
X24908151Y10432300D02*
X24860608D01*
X24874380Y10472284D01*
X24894380D01*
X24908151Y10432300D01*
D02*
G37*
G36*
X24757381Y10119360D02*
X24876759Y9999980D01*
Y9809480D01*
X24628558D01*
Y9918362D01*
X24477759D01*
Y9861753D01*
X24470940Y9858654D01*
X24465073Y9857487D01*
X24452469Y9849066D01*
X24427650Y9824249D01*
X24419231Y9811646D01*
X24418800Y9809480D01*
X24250099D01*
Y9923442D01*
X24099300D01*
X24099300Y9923442D01*
Y9923443D01*
X24094476Y9923743D01*
X24010620Y10007600D01*
X20739101D01*
Y10016558D01*
X20730099Y10007683D01*
X20464780Y10010140D01*
Y10541000D01*
X19174460D01*
Y10815320D01*
X20741640D01*
Y10542164D01*
X20741644Y10542158D01*
X20741640Y10541025D01*
Y10541000D01*
D01*
X20740405Y10281920D01*
X22118320D01*
Y10678160D01*
X22362160D01*
Y10281920D01*
X24483060D01*
Y11965940D01*
X24757381D01*
Y10119360D01*
D02*
G37*
G36*
X24881386Y10169608D02*
X24849838Y10134026D01*
X24829565Y10170193D01*
X24841895Y10186148D01*
X24881386Y10169608D01*
D02*
G37*
G36*
X15114598Y9927615D02*
X15074602D01*
X15084601Y9947613D01*
X15104599D01*
X15114598Y9927615D01*
D02*
G37*
G36*
X15004601D02*
X14964606D01*
X14974603Y9947613D01*
X14994601D01*
X15004601Y9927615D01*
D02*
G37*
G36*
X14784601D02*
X14744606D01*
X14754604Y9947613D01*
X14774602D01*
X14784601Y9927615D01*
D02*
G37*
G36*
X14564603D02*
X14524606D01*
X14534605Y9947613D01*
X14554604D01*
X14564603Y9927615D01*
D02*
G37*
G36*
X14454599D02*
X14414604D01*
X14424603Y9947613D01*
X14444601D01*
X14454599Y9927615D01*
D02*
G37*
G36*
X14344601D02*
X14304607D01*
X14314606Y9947613D01*
X14334602D01*
X14344601Y9927615D01*
D02*
G37*
G36*
X20360640Y10853420D02*
X17726660D01*
X17226280Y10353040D01*
Y9870440D01*
X17150079D01*
X17020540Y9999980D01*
X16631920D01*
X16515080Y9883140D01*
X16428720D01*
Y10353040D01*
X16445314D01*
X16440453Y10364773D01*
X17208501Y11132820D01*
X20360640D01*
Y10853420D01*
D02*
G37*
G36*
X14824863Y10303799D02*
X14831749Y10299198D01*
X14845561Y10296450D01*
X14864793D01*
X14872704Y10298024D01*
X14882257Y10294308D01*
X14886215Y10289008D01*
X14888152Y10279272D01*
X14895975Y10267562D01*
X14934442Y10229096D01*
X14934442Y10229096D01*
X14945470Y10218069D01*
Y10061752D01*
X14948216Y10047940D01*
X14948511Y10047499D01*
Y9953335D01*
X14948503Y9953320D01*
X14887302D01*
Y9847920D01*
X14861900D01*
Y9953320D01*
X14800703D01*
X14800696Y9953335D01*
Y10165059D01*
Y10185504D01*
X14797949Y10199316D01*
X14790125Y10211025D01*
X14777625Y10223524D01*
X14769785Y10228763D01*
X14766296Y10243236D01*
X14801768Y10278708D01*
X14809593Y10290417D01*
X14811105Y10298022D01*
X14812563Y10299488D01*
X14823515Y10303845D01*
X14824863Y10303799D01*
D02*
G37*
G36*
X15224638Y12217278D02*
X15236348Y12209454D01*
X15250160Y12206707D01*
X15513821D01*
Y12149573D01*
X15515794Y12139662D01*
X15515881Y12139448D01*
Y12127712D01*
X15515794Y12127498D01*
X15514149Y12119235D01*
X15470609Y12075692D01*
X15464993Y12067291D01*
X15463022Y12057380D01*
Y11806418D01*
X15377161D01*
X15367249Y11804446D01*
X15358849Y11798832D01*
X15353233Y11790431D01*
X15351262Y11780520D01*
Y11673840D01*
Y11610340D01*
Y11546840D01*
X15353233Y11536929D01*
X15358849Y11528528D01*
X15739848Y11147528D01*
X15748248Y11141914D01*
X15758160Y11139942D01*
X17162404D01*
X17167264Y11128209D01*
X16422141Y10383086D01*
X16417441Y10376052D01*
X16410408Y10371352D01*
X16404794Y10362951D01*
X16402821Y10353040D01*
Y9894537D01*
X16399545Y9878060D01*
X16399545Y9878059D01*
Y9827260D01*
X16321443D01*
X16321306Y9827319D01*
X16311880Y9839331D01*
X16313171Y9845823D01*
Y9865591D01*
X16313171Y9865592D01*
X16310429Y9879384D01*
X16302615Y9891076D01*
X16302615Y9891076D01*
X16272961Y9920730D01*
X16261270Y9928542D01*
X16247478Y9931286D01*
X16227708D01*
X16224484Y9930644D01*
X16213684Y9941445D01*
X16214325Y9944669D01*
Y9964437D01*
X16214326Y9964438D01*
X16211581Y9978230D01*
X16203770Y9989922D01*
X16203769Y9989923D01*
X16174117Y10019576D01*
X16162424Y10027389D01*
X16148631Y10030132D01*
X16128862D01*
X16125638Y10029491D01*
X16114838Y10040291D01*
X16115479Y10043515D01*
Y10063283D01*
X16115479Y10063285D01*
X16112737Y10077076D01*
X16104922Y10088769D01*
X16104922Y10088769D01*
X16075269Y10118423D01*
X16063577Y10126235D01*
X16049785Y10128978D01*
X16030017D01*
X16030016Y10128979D01*
X16016225Y10126235D01*
X16004532Y10118423D01*
X15988579Y10102470D01*
X15921294Y10169754D01*
X15109943Y10981106D01*
Y12209731D01*
X15111041Y12210015D01*
X15113860D01*
X15134221Y12218449D01*
X15149806Y12234033D01*
X15158240Y12254395D01*
Y12265716D01*
X15170940Y12270976D01*
X15224638Y12217278D01*
D02*
G37*
G36*
X24125310Y9802642D02*
X24099603Y9815342D01*
Y9840742D01*
X24125310Y9853442D01*
Y9802642D01*
D02*
G37*
G36*
X24503769Y9798072D02*
X24479938Y9808898D01*
Y9834298D01*
X24503769Y9845124D01*
Y9798072D01*
D02*
G37*
G36*
X17246516Y9785977D02*
X17147125D01*
X17156960Y9857177D01*
X17228162D01*
X17246516Y9785977D01*
D02*
G37*
G36*
X14446907Y9757258D02*
X14426909D01*
X14425940Y9768530D01*
X14447876D01*
X14446907Y9757258D01*
D02*
G37*
G36*
X14689296Y9768225D02*
X14689601Y9750439D01*
X14658801D01*
X14656415Y9768530D01*
X14689296Y9768225D01*
D02*
G37*
G36*
X15104599Y9748227D02*
X15084601D01*
X15074602Y9768530D01*
X15114598D01*
X15104599Y9748227D01*
D02*
G37*
G36*
X14554604D02*
X14534605D01*
X14524606Y9768530D01*
X14564603D01*
X14554604Y9748227D01*
D02*
G37*
G36*
X16339409Y9733070D02*
X16319209Y9743017D01*
Y9762913D01*
X16339409Y9772860D01*
Y9733070D01*
D02*
G37*
G36*
X14334120Y9750383D02*
X14346832Y9713480D01*
X14299287D01*
X14312000Y9750383D01*
X14303062Y9768530D01*
X14343057D01*
X14334120Y9750383D01*
D02*
G37*
G36*
X14495857Y9724176D02*
X14458160Y9695136D01*
X14444141Y9735884D01*
X14462279Y9746028D01*
X14495857Y9724176D01*
D02*
G37*
G36*
X16557242Y9704680D02*
X16529106Y9690307D01*
X16515038Y9704375D01*
X16529411Y9732511D01*
X16557242Y9704680D01*
D02*
G37*
G36*
X14598970Y9681644D02*
X14566872Y9700455D01*
Y9720453D01*
X14605772Y9729082D01*
X14598970Y9681644D01*
D02*
G37*
G36*
X14877695Y9712835D02*
X14883348Y9692837D01*
X14844621Y9673936D01*
X14838499Y9721126D01*
X14877695Y9712835D01*
D02*
G37*
G36*
X15046960Y9705179D02*
Y9685181D01*
X15011658Y9671208D01*
Y9719152D01*
X15046960Y9705179D01*
D02*
G37*
G36*
X17067570Y9805058D02*
Y9634878D01*
X16988831D01*
X16917711Y9563758D01*
X16790710D01*
Y9838078D01*
X17034550D01*
X17067570Y9805058D01*
D02*
G37*
G36*
X24524625Y9419936D02*
X24501099Y9430762D01*
Y9456162D01*
X24524625Y9466988D01*
Y9419936D01*
D02*
G37*
G36*
X24143623Y9414856D02*
X24119839Y9425940D01*
Y9451340D01*
X24143623Y9462424D01*
Y9414856D01*
D02*
G37*
G36*
X16566689Y9411430D02*
X16546793D01*
X16536845Y9431630D01*
X16576636D01*
X16566689Y9411430D01*
D02*
G37*
G36*
X16714758Y9399559D02*
X16689359D01*
X16678532Y9423084D01*
X16725584D01*
X16714758Y9399559D01*
D02*
G37*
G36*
X16225520Y9397684D02*
X16200121D01*
X16187421Y9423084D01*
X16238220D01*
X16225520Y9397684D01*
D02*
G37*
G36*
X26012140Y9395460D02*
X25402022D01*
Y9470060D01*
X25397713Y9502796D01*
X25385077Y9533301D01*
X25364977Y9559496D01*
X25338782Y9579597D01*
X25308276Y9592232D01*
X25275540Y9596542D01*
X25242804Y9592232D01*
X25212299Y9579597D01*
X25186104Y9559496D01*
X25166003Y9533301D01*
X25153368Y9502796D01*
X25149059Y9470060D01*
Y9395460D01*
X24782780D01*
Y9375140D01*
X24663400D01*
X24643080Y9395460D01*
Y9497060D01*
X24634718Y9505421D01*
Y9509040D01*
X24631100D01*
X24627840Y9512300D01*
X24544020D01*
X24511000Y9545320D01*
Y9669780D01*
X24544020Y9702800D01*
X24848820D01*
X25125681Y9979660D01*
X26012140D01*
Y9395460D01*
D02*
G37*
G36*
X24579520Y9368545D02*
X24554118D01*
X24541418Y9394250D01*
X24592220D01*
X24579520Y9368545D01*
D02*
G37*
G36*
X24198518D02*
X24173119D01*
X24160419Y9394250D01*
X24211218D01*
X24198518Y9368545D01*
D02*
G37*
G36*
X16387527Y9416806D02*
X16418654Y9403913D01*
X16424481Y9384018D01*
X16404585Y9364123D01*
X16384691Y9369950D01*
X16370622Y9403913D01*
X16379541Y9412832D01*
X16365825D01*
X16357278Y9431630D01*
X16394266D01*
X16387527Y9416806D01*
D02*
G37*
G36*
X24211218Y9330670D02*
X24160419D01*
X24173119Y9356375D01*
X24198518D01*
X24211218Y9330670D01*
D02*
G37*
G36*
X24592220Y9320510D02*
X24541418D01*
X24554118Y9346215D01*
X24579520D01*
X24592220Y9320510D01*
D02*
G37*
G36*
X11232820Y9276170D02*
X11182020D01*
X11194720Y9301875D01*
X11220120D01*
X11232820Y9276170D01*
D02*
G37*
G36*
X16609332Y9275957D02*
X16579942D01*
X16583040Y9293240D01*
X16608440D01*
X16609332Y9275957D01*
D02*
G37*
G36*
X16559335D02*
X16529945D01*
X16530466Y9295852D01*
X16550362D01*
X16559335Y9275957D01*
D02*
G37*
G36*
X16509332D02*
X16479942D01*
X16484689Y9295852D01*
X16504585D01*
X16509332Y9275957D01*
D02*
G37*
G36*
X16409332D02*
X16379942D01*
X16384691Y9295852D01*
X16404585D01*
X16409332Y9275957D01*
D02*
G37*
G36*
X16309334D02*
X16279942D01*
X16280157Y9292563D01*
X16305557D01*
X16309334Y9275957D01*
D02*
G37*
G36*
X16459335Y9126567D02*
X16457301Y9111561D01*
X16437405D01*
X16432349Y9126872D01*
X16459335Y9126567D01*
D02*
G37*
G36*
X16554588Y9107394D02*
X16534692D01*
X16529945Y9126567D01*
X16559335D01*
X16554588Y9107394D01*
D02*
G37*
G36*
X17167860Y9408160D02*
X16862228D01*
X16755731Y9301662D01*
X16734239D01*
Y9198722D01*
Y9112144D01*
X16725842Y9108666D01*
X16709555Y9092378D01*
X16700742Y9071098D01*
Y9048063D01*
X16702586Y9043608D01*
X16648039Y8989060D01*
X16283940D01*
X16234554Y9038446D01*
X16238538Y9048063D01*
Y9071098D01*
X16229723Y9092378D01*
X16213435Y9108666D01*
X16205040Y9112144D01*
Y9201262D01*
X16254239D01*
Y9100862D01*
X16413441D01*
X16414056Y9097769D01*
X16421870Y9086077D01*
X16437691Y9070256D01*
X16449384Y9062444D01*
X16463174Y9059700D01*
X16532986D01*
X16546777Y9062444D01*
X16558470Y9070256D01*
X16570123Y9081910D01*
X16570125Y9081910D01*
X16577937Y9093602D01*
X16579233Y9100119D01*
X16579582Y9100862D01*
X16685040D01*
Y9198722D01*
Y9298720D01*
X16794479Y9408160D01*
Y9532620D01*
X16986690D01*
X17037489Y9583420D01*
X17167860D01*
Y9408160D01*
D02*
G37*
G36*
X14170660Y9636760D02*
X14249400Y9558020D01*
X15206979D01*
X15209520Y9556968D01*
Y8674100D01*
X15090936D01*
X15087534Y8686800D01*
X15088898Y8687587D01*
X15102937Y8701626D01*
X15112863Y8718819D01*
X15117258Y8735223D01*
X15042601D01*
X14967944D01*
X14972340Y8718819D01*
X14982266Y8701626D01*
X14996304Y8687587D01*
X14997668Y8686800D01*
X14994266Y8674100D01*
X14292935D01*
X14289532Y8686800D01*
X14290897Y8687587D01*
X14304935Y8701626D01*
X14314861Y8718819D01*
X14319257Y8735223D01*
X14244598D01*
X14169943D01*
X14174338Y8718819D01*
X14184264Y8701626D01*
X14198303Y8687587D01*
X14199667Y8686800D01*
X14196263Y8674100D01*
X14107159D01*
Y8862060D01*
X13959840Y9009380D01*
Y11336020D01*
X14170660D01*
Y9636760D01*
D02*
G37*
G36*
X24416273Y9617187D02*
Y9489440D01*
X24419231Y9474574D01*
X24427650Y9461971D01*
X24452580Y9437043D01*
Y8971280D01*
X24825960Y8597900D01*
X24825960Y8366760D01*
X24757381Y8298180D01*
X24333200Y8298179D01*
X24186784Y8444596D01*
Y8966680D01*
X24194360D01*
X24214722Y8975114D01*
X24230305Y8990699D01*
X24238741Y9011060D01*
Y9033100D01*
X24230305Y9053461D01*
X24229622Y9054146D01*
X24234482Y9065879D01*
X24256219D01*
Y9201679D01*
X24186784D01*
Y9220880D01*
X24256219D01*
Y9356575D01*
X24256219Y9356680D01*
X24256219Y9356680D01*
X24253720Y9368240D01*
X24253719Y9368241D01*
Y9509040D01*
X24186784D01*
Y9678304D01*
X24216360Y9707880D01*
X24325580D01*
X24416273Y9617187D01*
D02*
G37*
%LPC*%
G36*
X24029961Y18127499D02*
X24007919D01*
X23987560Y18119066D01*
X23971974Y18103481D01*
X23963541Y18083121D01*
Y18061079D01*
X23971974Y18040720D01*
X23987560Y18025134D01*
X24007919Y18016701D01*
X24029961D01*
X24050320Y18025134D01*
X24065906Y18040720D01*
X24074339Y18061079D01*
Y18083121D01*
X24065906Y18103481D01*
X24050320Y18119066D01*
X24029961Y18127499D01*
D02*
G37*
G36*
X24782500Y17876041D02*
X24760460D01*
X24740099Y17867606D01*
X24724513Y17852020D01*
X24716080Y17831660D01*
Y17809621D01*
X24724513Y17789259D01*
X24740099Y17773674D01*
X24760460Y17765240D01*
X24782500D01*
X24802861Y17773674D01*
X24818446Y17789259D01*
X24826880Y17809621D01*
Y17831660D01*
X24818446Y17852020D01*
X24802861Y17867606D01*
X24782500Y17876041D01*
D02*
G37*
G36*
X23282500D02*
X23260460D01*
X23240099Y17867606D01*
X23224513Y17852020D01*
X23216080Y17831660D01*
Y17809621D01*
X23224513Y17789259D01*
X23240099Y17773674D01*
X23260460Y17765240D01*
X23282500D01*
X23302861Y17773674D01*
X23318446Y17789259D01*
X23326880Y17809621D01*
Y17831660D01*
X23318446Y17852020D01*
X23302861Y17867606D01*
X23282500Y17876041D01*
D02*
G37*
G36*
X14179140Y17068320D02*
X14157100D01*
X14136739Y17059886D01*
X14121153Y17044301D01*
X14112720Y17023940D01*
Y17001900D01*
X14121153Y16981538D01*
X14136739Y16965955D01*
X14157100Y16957520D01*
X14179140D01*
X14199501Y16965955D01*
X14215086Y16981538D01*
X14223520Y17001900D01*
Y17023940D01*
X14215086Y17044301D01*
X14199501Y17059886D01*
X14179140Y17068320D01*
D02*
G37*
G36*
X13465401Y16997200D02*
X13443359D01*
X13423000Y16988766D01*
X13407414Y16973181D01*
X13398981Y16952820D01*
Y16930780D01*
X13407414Y16910419D01*
X13423000Y16894833D01*
X13443359Y16886400D01*
X13465401D01*
X13485760Y16894833D01*
X13501346Y16910419D01*
X13509779Y16930780D01*
Y16952820D01*
X13501346Y16973181D01*
X13485760Y16988766D01*
X13465401Y16997200D01*
D02*
G37*
G36*
X13765120Y16722881D02*
X13743080D01*
X13722719Y16714445D01*
X13707133Y16698862D01*
X13698700Y16678500D01*
Y16656461D01*
X13707133Y16636099D01*
X13722719Y16620514D01*
X13743080Y16612080D01*
X13765120D01*
X13785481Y16620514D01*
X13801067Y16636099D01*
X13809500Y16656461D01*
Y16678500D01*
X13801067Y16698862D01*
X13785481Y16714445D01*
X13765120Y16722881D01*
D02*
G37*
G36*
X12934540Y16649220D02*
X12912500D01*
X12892139Y16640787D01*
X12876553Y16625201D01*
X12868120Y16604840D01*
Y16582800D01*
X12876553Y16562439D01*
X12892139Y16546854D01*
X12912500Y16538420D01*
X12934540D01*
X12954901Y16546854D01*
X12970486Y16562439D01*
X12978920Y16582800D01*
Y16604840D01*
X12970486Y16625201D01*
X12954901Y16640787D01*
X12934540Y16649220D01*
D02*
G37*
G36*
X14570300Y16636520D02*
X14548260D01*
X14527899Y16628085D01*
X14512314Y16612502D01*
X14503880Y16592140D01*
Y16570100D01*
X14512314Y16549739D01*
X14527899Y16534154D01*
X14548260Y16525720D01*
X14570300D01*
X14590662Y16534154D01*
X14606245Y16549739D01*
X14614680Y16570100D01*
Y16592140D01*
X14606245Y16612502D01*
X14590662Y16628085D01*
X14570300Y16636520D01*
D02*
G37*
G36*
X14168980Y16217419D02*
X14146941D01*
X14126579Y16208986D01*
X14110994Y16193401D01*
X14102560Y16173039D01*
Y16150999D01*
X14110994Y16130640D01*
X14126579Y16115054D01*
X14146941Y16106619D01*
X14168980D01*
X14189342Y16115054D01*
X14204926Y16130640D01*
X14213361Y16150999D01*
Y16173039D01*
X14204926Y16193401D01*
X14189342Y16208986D01*
X14168980Y16217419D01*
D02*
G37*
G36*
X13802911Y15826569D02*
X13780872D01*
X13760509Y15818135D01*
X13744925Y15802550D01*
X13736491Y15782188D01*
Y15760149D01*
X13744925Y15739787D01*
X13760509Y15724203D01*
X13780872Y15715768D01*
X13802911D01*
X13823273Y15724203D01*
X13838857Y15739787D01*
X13847292Y15760149D01*
Y15782188D01*
X13838857Y15802550D01*
X13823273Y15818135D01*
X13802911Y15826569D01*
D02*
G37*
G36*
X15666980Y13378056D02*
X15644942D01*
X15624579Y13369621D01*
X15608995Y13354037D01*
X15600562Y13333675D01*
Y13311636D01*
X15608995Y13291273D01*
X15624579Y13275690D01*
X15644942Y13267256D01*
X15666980D01*
X15687341Y13275690D01*
X15702927Y13291273D01*
X15711362Y13311636D01*
Y13333675D01*
X15702927Y13354037D01*
X15687341Y13369621D01*
X15666980Y13378056D01*
D02*
G37*
G36*
X15667281Y13121338D02*
X15645239D01*
X15624879Y13112904D01*
X15609294Y13097319D01*
X15600861Y13076958D01*
Y13054918D01*
X15609294Y13034557D01*
X15624879Y13018971D01*
X15645239Y13010538D01*
X15667281D01*
X15687642Y13018971D01*
X15703226Y13034557D01*
X15711659Y13054918D01*
Y13076958D01*
X15703226Y13097319D01*
X15687642Y13112904D01*
X15667281Y13121338D01*
D02*
G37*
G36*
X15667580Y12864619D02*
X15645540D01*
X15625179Y12856186D01*
X15609595Y12840601D01*
X15601160Y12820239D01*
Y12798200D01*
X15609595Y12777839D01*
X15625179Y12762254D01*
X15645540Y12753820D01*
X15667580D01*
X15687941Y12762254D01*
X15703526Y12777839D01*
X15711960Y12798200D01*
Y12820239D01*
X15703526Y12840601D01*
X15687941Y12856186D01*
X15667580Y12864619D01*
D02*
G37*
G36*
X14542360Y13560580D02*
X14520320D01*
X14499959Y13552145D01*
X14484373Y13536562D01*
X14475940Y13516200D01*
Y13494160D01*
X14484373Y13473799D01*
X14499959Y13458214D01*
X14520320Y13449780D01*
X14542360D01*
X14562721Y13458214D01*
X14578307Y13473799D01*
X14586740Y13494160D01*
Y13516200D01*
X14578307Y13536562D01*
X14562721Y13552145D01*
X14542360Y13560580D01*
D02*
G37*
G36*
X14196919Y13517400D02*
X14174879D01*
X14154520Y13508966D01*
X14138934Y13493381D01*
X14130499Y13473019D01*
Y13450980D01*
X14138934Y13430618D01*
X14154520Y13415034D01*
X14174879Y13406599D01*
X14196919D01*
X14217281Y13415034D01*
X14232866Y13430618D01*
X14241299Y13450980D01*
Y13473019D01*
X14232866Y13493381D01*
X14217281Y13508966D01*
X14196919Y13517400D01*
D02*
G37*
G36*
X13597479D02*
X13575439D01*
X13555080Y13508966D01*
X13539494Y13493381D01*
X13531059Y13473019D01*
Y13450980D01*
X13539494Y13430618D01*
X13555080Y13415034D01*
X13575439Y13406599D01*
X13597479D01*
X13617841Y13415034D01*
X13633426Y13430618D01*
X13641859Y13450980D01*
Y13473019D01*
X13633426Y13493381D01*
X13617841Y13508966D01*
X13597479Y13517400D01*
D02*
G37*
G36*
X15708220Y11774960D02*
X15686180D01*
X15665819Y11766526D01*
X15650233Y11750941D01*
X15641800Y11730580D01*
Y11708540D01*
X15650233Y11688179D01*
X15665819Y11672594D01*
X15686180Y11664160D01*
X15708220D01*
X15728581Y11672594D01*
X15744167Y11688179D01*
X15752600Y11708540D01*
Y11730580D01*
X15744167Y11750941D01*
X15728581Y11766526D01*
X15708220Y11774960D01*
D02*
G37*
G36*
X15055301Y8822579D02*
Y8760623D01*
X15117258D01*
X15112863Y8777026D01*
X15102937Y8794219D01*
X15088898Y8808258D01*
X15071706Y8818184D01*
X15055301Y8822579D01*
D02*
G37*
G36*
X14257298D02*
Y8760623D01*
X14319257D01*
X14314861Y8777026D01*
X14304935Y8794219D01*
X14290897Y8808258D01*
X14273703Y8818184D01*
X14257298Y8822579D01*
D02*
G37*
G36*
X15029901D02*
X15013498Y8818184D01*
X14996304Y8808258D01*
X14982266Y8794219D01*
X14972340Y8777026D01*
X14967944Y8760623D01*
X15029901D01*
Y8822579D01*
D02*
G37*
G36*
X14231898D02*
X14215495Y8818184D01*
X14198303Y8808258D01*
X14184264Y8794219D01*
X14174338Y8777026D01*
X14169943Y8760623D01*
X14231898D01*
Y8822579D01*
D02*
G37*
%LPD*%
G36*
X14112241Y12702540D02*
X13136880D01*
Y12801601D01*
X14112241D01*
Y12702540D01*
D02*
G37*
G36*
X23050500Y12287221D02*
X23025101D01*
X23014027Y12326100D01*
X23061572D01*
X23050500Y12287221D01*
D02*
G37*
G36*
X23061572Y12052820D02*
X23014027D01*
X23025101Y12091699D01*
X23050500D01*
X23061572Y12052820D01*
D02*
G37*
G36*
X24005540Y12217439D02*
X23980141Y12215053D01*
X23967322Y12253992D01*
X24014828Y12256007D01*
X24005540Y12217439D01*
D02*
G37*
G36*
X24018358Y12015708D02*
X23970853Y12013693D01*
X23980141Y12052261D01*
X24005540Y12054647D01*
X24018358Y12015708D01*
D02*
G37*
G36*
X23815041Y12503121D02*
X23789639D01*
X23778568Y12542000D01*
X23826112D01*
X23815041Y12503121D01*
D02*
G37*
G36*
X22780479Y11727180D02*
Y11701780D01*
X22741600Y11690708D01*
Y11738252D01*
X22780479Y11727180D01*
D02*
G37*
G36*
X23933209Y11540202D02*
X23897888Y11520540D01*
X23879929Y11538500D01*
X23899591Y11573821D01*
X23933209Y11540202D01*
D02*
G37*
G36*
X23163078Y11118393D02*
Y11092993D01*
X23124200Y11081921D01*
Y11129465D01*
X23163078Y11118393D01*
D02*
G37*
G36*
X23041669Y11385011D02*
X23006348Y11365348D01*
X22988388Y11383308D01*
X23008051Y11418629D01*
X23041669Y11385011D01*
D02*
G37*
G36*
X24056697Y10674783D02*
X24021376Y10655120D01*
X24003416Y10673081D01*
X24023077Y10708401D01*
X24056697Y10674783D01*
D02*
G37*
G36*
X12420634Y14536224D02*
X12418976Y14516228D01*
X12379443Y14507741D01*
X12385926Y14555101D01*
X12420634Y14536224D01*
D02*
G37*
G36*
X12766538Y14369574D02*
X12746538D01*
X12732766Y14409558D01*
X12780310D01*
X12766538Y14369574D01*
D02*
G37*
G36*
X13603029Y11938731D02*
X13565018Y11920196D01*
X13550876Y11934338D01*
X13569411Y11972349D01*
X13603029Y11938731D01*
D02*
G37*
G36*
X13288069Y10705369D02*
X13254451Y10671751D01*
X13235916Y10709762D01*
X13250058Y10723904D01*
X13288069Y10705369D01*
D02*
G37*
G36*
X13282234Y10575542D02*
X13246652Y10543994D01*
X13230112Y10583486D01*
X13246066Y10595815D01*
X13282234Y10575542D01*
D02*
G37*
G36*
X13275369Y10443749D02*
X13241751Y10410131D01*
X13223216Y10448143D01*
X13237357Y10462284D01*
X13275369Y10443749D01*
D02*
G37*
G36*
X20170644Y9869776D02*
Y9849778D01*
X20151750Y9841189D01*
Y9878365D01*
X20170644Y9869776D01*
D02*
G37*
G36*
X18673946Y9847419D02*
Y9827421D01*
X18633960Y9813648D01*
Y9861192D01*
X18673946Y9847419D01*
D02*
G37*
G36*
X19721498Y9563988D02*
X19707356Y9549847D01*
X19685931Y9557133D01*
X19714212Y9585414D01*
X19721498Y9563988D01*
D02*
G37*
G36*
X20096158Y9511690D02*
X20056161D01*
X20066161Y9531993D01*
X20086159D01*
X20096158Y9511690D01*
D02*
G37*
G36*
X20574966Y9257333D02*
X20570107Y9245600D01*
X20543520D01*
Y9144000D01*
Y9042400D01*
X20575186D01*
X20580048Y9030667D01*
X20332700Y8783320D01*
X20177760D01*
Y8846820D01*
X20076160D01*
X19974561D01*
Y8783320D01*
X19771359D01*
X19526553Y9028127D01*
X19531413Y9039860D01*
X19555460D01*
Y9141460D01*
Y9243060D01*
X19533954D01*
X19529092Y9254793D01*
X19740950Y9466650D01*
X19753650D01*
X19793687Y9426611D01*
Y9243060D01*
X19740880D01*
Y9039860D01*
X19918680D01*
Y9243060D01*
X19865872D01*
Y9441561D01*
X19863126Y9455373D01*
X19855302Y9467082D01*
X19798343Y9524043D01*
X19817081Y9542780D01*
X19963963D01*
X19974561Y9537700D01*
Y9461500D01*
X20076160D01*
X20177760D01*
Y9537700D01*
X20188356Y9542780D01*
X20289520D01*
X20574966Y9257333D01*
D02*
G37*
G36*
X19849779Y9217050D02*
X19809782D01*
X19819781Y9237353D01*
X19839780D01*
X19849779Y9217050D01*
D02*
G37*
%LPC*%
G36*
X20177760Y9436100D02*
X20088860D01*
Y9359900D01*
X20177760D01*
Y9436100D01*
D02*
G37*
G36*
X20063460D02*
X19974561D01*
Y9359900D01*
X20063460D01*
Y9436100D01*
D02*
G37*
G36*
X20518120Y9245600D02*
X20441920D01*
Y9156700D01*
X20518120D01*
Y9245600D01*
D02*
G37*
G36*
X20365720Y9243060D02*
X20289520D01*
Y9154160D01*
X20365720D01*
Y9243060D01*
D02*
G37*
G36*
X20264120D02*
X20187920D01*
Y9154160D01*
X20264120D01*
Y9243060D01*
D02*
G37*
G36*
X19657060D02*
X19580859D01*
Y9154160D01*
X19657060D01*
Y9243060D01*
D02*
G37*
G36*
X20518120Y9131300D02*
X20441920D01*
Y9042400D01*
X20518120D01*
Y9131300D01*
D02*
G37*
G36*
X20365720Y9128760D02*
X20289520D01*
Y9039860D01*
X20365720D01*
Y9128760D01*
D02*
G37*
G36*
X20264120D02*
X20187920D01*
Y9039860D01*
X20264120D01*
Y9128760D01*
D02*
G37*
G36*
X19657060D02*
X19580859D01*
Y9039860D01*
X19657060D01*
Y9128760D01*
D02*
G37*
G36*
X20177760Y8948420D02*
X20088860D01*
Y8872220D01*
X20177760D01*
Y8948420D01*
D02*
G37*
G36*
X20063460D02*
X19974561D01*
Y8872220D01*
X20063460D01*
Y8948420D01*
D02*
G37*
%LPD*%
G36*
X22557579Y9705475D02*
X22537581D01*
X22523808Y9745460D01*
X22571352D01*
X22557579Y9705475D01*
D02*
G37*
G36*
X22567578Y9653930D02*
X22527582D01*
X22537581Y9674233D01*
X22557579D01*
X22567578Y9653930D01*
D02*
G37*
G36*
X23395779Y9720716D02*
X23375780D01*
X23362009Y9760700D01*
X23409552D01*
X23395779Y9720716D01*
D02*
G37*
G36*
X23405780Y9651390D02*
X23365781D01*
X23375780Y9671695D01*
X23395779D01*
X23405780Y9651390D01*
D02*
G37*
G36*
X22966521Y9700396D02*
X22946519D01*
X22932748Y9740380D01*
X22980292D01*
X22966521Y9700396D01*
D02*
G37*
G36*
X22976520Y9651390D02*
X22936520D01*
X22946519Y9671695D01*
X22966521D01*
X22976520Y9651390D01*
D02*
G37*
G36*
X22141020Y9697856D02*
X22121021D01*
X22107248Y9737840D01*
X22154791D01*
X22141020Y9697856D01*
D02*
G37*
G36*
X22151019Y9651390D02*
X22111020D01*
X22121021Y9671695D01*
X22141020D01*
X22151019Y9651390D01*
D02*
G37*
G36*
X21729539Y9685156D02*
X21709540D01*
X21695769Y9725140D01*
X21743312D01*
X21729539Y9685156D01*
D02*
G37*
G36*
X19543596Y9449295D02*
X19522169Y9442009D01*
X19508029Y9456150D01*
X19515315Y9477576D01*
X19543596Y9449295D01*
D02*
G37*
G36*
X19204315Y9151460D02*
Y9131460D01*
X19184010Y9121460D01*
Y9161460D01*
X19204315Y9151460D01*
D02*
G37*
G36*
X19530682Y8846542D02*
X19502399Y8818257D01*
X19495328Y8839471D01*
X19509470Y8853613D01*
X19530682Y8846542D01*
D02*
G37*
G36*
X17912080Y9770081D02*
X17886681D01*
X17875607Y9808960D01*
X17923152D01*
X17912080Y9770081D01*
D02*
G37*
G36*
X17924780Y9389690D02*
X17873981D01*
X17886681Y9415395D01*
X17912080D01*
X17924780Y9389690D01*
D02*
G37*
G36*
X18425000Y9766436D02*
X18405000D01*
X18391228Y9806420D01*
X18438773D01*
X18425000Y9766436D01*
D02*
G37*
G36*
X18435001Y9390011D02*
X18395000D01*
X18405000Y9410316D01*
X18425000D01*
X18435001Y9390011D01*
D02*
G37*
G36*
X18173540Y9758816D02*
X18153540D01*
X18139767Y9798800D01*
X18187312D01*
X18173540Y9758816D01*
D02*
G37*
G36*
X18183540Y9390011D02*
X18143539D01*
X18153540Y9410316D01*
X18173540D01*
X18183540Y9390011D01*
D02*
G37*
G36*
X20580794Y9463772D02*
X20566652Y9449632D01*
X20545441Y9456702D01*
X20573721Y9484983D01*
X20580794Y9463772D01*
D02*
G37*
G36*
X20914970Y9115760D02*
X20899124Y9121301D01*
Y9141299D01*
X20914970Y9146840D01*
Y9115760D01*
D02*
G37*
G36*
X20623972Y8857250D02*
X20616685Y8835824D01*
X20588403Y8864105D01*
X20609830Y8871391D01*
X20623972Y8857250D01*
D02*
G37*
G36*
X10665460Y9341805D02*
X10640060D01*
X10627360Y9367510D01*
X10678160D01*
X10665460Y9341805D01*
D02*
G37*
G36*
X10678160Y9200832D02*
X10627360D01*
X10640060Y9226537D01*
X10665460D01*
X10678160Y9200832D01*
D02*
G37*
G36*
X21732401Y9047465D02*
X21701601D01*
X21686200Y9078570D01*
X21747800D01*
X21732401Y9047465D01*
D02*
G37*
G36*
X21740771Y8997200D02*
X21693228D01*
X21701601Y9034646D01*
X21732401D01*
X21740771Y8997200D01*
D02*
G37*
G36*
X20447621Y8666760D02*
X20426410Y8659689D01*
X20412270Y8673830D01*
X20419341Y8695041D01*
X20447621Y8666760D01*
D02*
G37*
G36*
X19714651Y8663670D02*
X19700510Y8649529D01*
X19679083Y8656815D01*
X19707365Y8685096D01*
X19714651Y8663670D01*
D02*
G37*
G36*
X20165060Y8422479D02*
Y8402481D01*
X20152055Y8399475D01*
Y8425485D01*
X20165060Y8422479D01*
D02*
G37*
G36*
X20000571Y8392482D02*
X19980267Y8402481D01*
Y8422479D01*
X20000571Y8432478D01*
Y8392482D01*
D02*
G37*
D12*
X24566818Y9438640D02*
D03*
X24721820D02*
D03*
X24185818D02*
D03*
X24340820D02*
D03*
D17*
X24553159Y9822962D02*
D03*
X24743161D02*
D03*
X24648160Y9602958D02*
D03*
X24174699Y9828042D02*
D03*
X24364700D02*
D03*
X24269701Y9608038D02*
D03*
X17006819Y9716282D02*
D03*
X17196822D02*
D03*
X17101820Y9496278D02*
D03*
D32*
X10655300Y8831438D02*
D03*
Y9131442D02*
D03*
D36*
X16709639Y9201262D02*
D03*
X16229640D02*
D03*
X16149640D02*
D03*
X16789639D02*
D03*
D37*
X16644640D02*
D03*
X16494638D02*
D03*
X16444641D02*
D03*
X16594638D02*
D03*
X16544641D02*
D03*
X16294638D02*
D03*
X16394638D02*
D03*
X16344641D02*
D03*
D39*
X18740120Y8516400D02*
D03*
X17571719D02*
D03*
D40*
X17901920Y9240300D02*
D03*
D41*
X18409920D02*
D03*
X18155920D02*
D03*
D58*
X24566818Y9123619D02*
D03*
Y9278620D02*
D03*
X24185818Y9133779D02*
D03*
Y9288780D02*
D03*
X10652760Y9409400D02*
D03*
Y9564400D02*
D03*
X16857980Y9467820D02*
D03*
Y9622820D02*
D03*
Y9772620D02*
D03*
Y9927620D02*
D03*
X16212820Y9465280D02*
D03*
Y9620280D02*
D03*
X16710660Y9465280D02*
D03*
Y9620280D02*
D03*
D59*
X19553996Y8810183D02*
D03*
X19663603Y8700577D02*
D03*
X20529742Y9500677D02*
D03*
X20420137Y9610283D02*
D03*
D60*
X19668683Y9602663D02*
D03*
X19559077Y9493057D02*
D03*
X20463316Y8710737D02*
D03*
X20572923Y8820343D02*
D03*
D63*
X16461740Y9479915D02*
D03*
X16366739D02*
D03*
X16556741D02*
D03*
X16461740Y9752965D02*
D03*
X16366739D02*
D03*
X16556741D02*
D03*
D65*
X15422881Y15148560D02*
Y17193260D01*
X14825980Y17790160D02*
X15422881Y17193260D01*
X14754860Y17768793D02*
Y17853661D01*
Y17768793D02*
X15384779Y17138872D01*
Y15168880D02*
Y17138872D01*
X15410358Y13662660D02*
Y13673483D01*
X15252470Y13735648D02*
X15271954D01*
X15280313Y13744005D01*
X15187666Y13670842D02*
X15252470Y13735648D01*
X15280313Y13744005D02*
X15341953D01*
X15427960Y13691086D02*
Y13759180D01*
X15374620Y13812520D02*
X15427960Y13759180D01*
X15279849Y13812520D02*
X15374620D01*
X15410358Y13673483D02*
X15427960Y13691086D01*
X14544392Y13705840D02*
X15173170D01*
X15279849Y13812520D01*
X14502838Y13670842D02*
X15187666D01*
X14409419Y13764259D02*
X14502838Y13670842D01*
X14465300Y13784932D02*
X14544392Y13705840D01*
X14465300Y13784932D02*
Y14190981D01*
X15704820Y12506960D02*
X15968980Y12771120D01*
X16184880D02*
X16243300Y12712700D01*
X15968980Y12771120D02*
X16184880D01*
X16243300Y12712700D02*
X16734756D01*
X15704820Y12456160D02*
Y12506960D01*
X16752536Y12694920D02*
X16807179D01*
X16824960Y12712700D01*
X16734756D02*
X16752536Y12694920D01*
X14609071Y10432337D02*
X14616142Y10425266D01*
X14622780Y10418628D01*
Y10405556D02*
Y10418628D01*
Y10405556D02*
X14635278Y10393059D01*
X14652954D01*
X14667172Y10407276D01*
X14684850D01*
X14702525Y10389599D01*
Y10371923D02*
Y10389599D01*
X14634668Y10304064D02*
X14702525Y10371923D01*
X14634668Y10286388D02*
Y10304064D01*
Y10286388D02*
X14652345Y10268711D01*
X14670021D01*
X14740894Y10339583D01*
X14758571D01*
X14776248Y10321906D01*
Y10304229D02*
Y10321906D01*
X14705376Y10233357D02*
X14776248Y10304229D01*
X14705376Y10215680D02*
Y10233357D01*
Y10215680D02*
X14723051Y10198003D01*
X14752104D01*
X14764603Y10185504D01*
Y10165059D02*
Y10185504D01*
X14607556Y10433852D02*
X14609071Y10432337D01*
X14284959Y10033000D02*
Y10142853D01*
Y10329848D02*
Y10467021D01*
Y10329848D02*
X14302660Y10312149D01*
X14317909D01*
X14335609Y10294449D01*
Y10259050D02*
Y10294449D01*
X14317909Y10241351D02*
X14335609Y10259050D01*
X14302660Y10241351D02*
X14317909D01*
X14284959Y10223651D02*
X14302660Y10241351D01*
X14284959Y10142853D02*
Y10223651D01*
X14607556Y10433852D02*
Y12468844D01*
X14389101Y10570569D02*
Y10831512D01*
Y10570569D02*
X14404099Y10555569D01*
X14404102D01*
X14419101Y10540570D01*
Y10510571D02*
Y10540570D01*
X14404102Y10495572D02*
X14419101Y10510571D01*
X14391399Y10495572D02*
X14404102D01*
X14376401Y10480572D02*
X14391399Y10495572D01*
X14376401Y10450573D02*
Y10480572D01*
Y10450573D02*
X14391399Y10435574D01*
X14411594D01*
X14426591Y10420574D01*
Y10390575D02*
Y10420574D01*
X14411594Y10375576D02*
X14426591Y10390575D01*
X14391399Y10375576D02*
X14411594D01*
X14376401Y10360576D02*
X14391399Y10375576D01*
X14376401Y10330578D02*
Y10360576D01*
Y10330578D02*
X14391399Y10315578D01*
X14415730D01*
X14430731Y10300579D01*
Y10270580D02*
Y10300579D01*
X14415730Y10255580D02*
X14430731Y10270580D01*
X14404099Y10255580D02*
X14415730D01*
X14389101Y10240581D02*
X14404099Y10255580D01*
X14389101Y10170583D02*
Y10240581D01*
Y10126980D02*
Y10170583D01*
X14485620Y10696899D02*
Y10712584D01*
Y10696899D02*
X14500620Y10681899D01*
X14500623D01*
X14515620Y10666900D01*
Y10636901D02*
Y10666900D01*
X14500623Y10621901D02*
X14515620Y10636901D01*
X14487920Y10621901D02*
X14500623D01*
X14472920Y10606902D02*
X14487920Y10621901D01*
X14472920Y10576903D02*
Y10606902D01*
Y10576903D02*
X14487920Y10561903D01*
X14524979D01*
X14539978Y10546904D01*
Y10516905D02*
Y10546904D01*
X14524979Y10501906D02*
X14539978Y10516905D01*
X14487920Y10501906D02*
X14524979D01*
X14472920Y10486906D02*
X14487920Y10501906D01*
X14472920Y10456907D02*
Y10486906D01*
Y10456907D02*
X14487920Y10441908D01*
X14531779D01*
X14546779Y10426908D01*
Y10396909D02*
Y10426908D01*
X14531779Y10381910D02*
X14546779Y10396909D01*
X14487920Y10381910D02*
X14531779D01*
X14472920Y10366910D02*
X14487920Y10381910D01*
X14472920Y10336912D02*
Y10366910D01*
Y10336912D02*
X14487920Y10321912D01*
X14531779D01*
X14546779Y10306913D01*
Y10276914D02*
Y10306913D01*
X14531779Y10261914D02*
X14546779Y10276914D01*
X14500620Y10261914D02*
X14531779D01*
X14485620Y10246915D02*
X14500620Y10261914D01*
X14485620Y10176917D02*
Y10246915D01*
Y10176899D02*
Y10176917D01*
Y10176899D02*
X14518401Y10144119D01*
X14485620Y10712584D02*
Y12359640D01*
X14465300Y12611100D02*
X14607556Y12468844D01*
X14284959Y10467021D02*
Y12250420D01*
X14764603Y9847920D02*
Y10165059D01*
X14759940Y10687016D02*
Y10797798D01*
Y10687016D02*
X14832736Y10614220D01*
X14851968D01*
X14908049Y10670300D01*
X14927281D01*
X14946513Y10651067D01*
Y10631835D02*
Y10651067D01*
X14881454Y10566775D02*
X14946513Y10631835D01*
X14881454Y10547542D02*
Y10566775D01*
Y10547542D02*
X14900687Y10528309D01*
X14919919D01*
X14987582Y10595972D01*
X15006815D01*
X15026047Y10576740D01*
Y10557507D02*
Y10576740D01*
X14958385Y10489844D02*
X15026047Y10557507D01*
X14958385Y10470612D02*
Y10489844D01*
Y10470612D02*
X14977617Y10451379D01*
X14996849D01*
X15064513Y10519042D01*
X15083745D01*
X15102977Y10499810D01*
Y10480577D02*
Y10499810D01*
X15044295Y10421894D02*
X15102977Y10480577D01*
X15044295Y10402662D02*
Y10421894D01*
Y10402662D02*
X15082761Y10364195D01*
Y10364196D02*
X15089832Y10357125D01*
X15112360Y10334597D01*
X14671040Y10543540D02*
Y10665609D01*
Y10543540D02*
X14709938Y10504642D01*
X14729172D01*
X14743903Y10519374D01*
X14763136D01*
X14782368Y10500141D01*
Y10480909D02*
Y10500141D01*
X14749397Y10447938D02*
X14782368Y10480909D01*
X14749397Y10428706D02*
Y10447938D01*
Y10428706D02*
X14768631Y10409473D01*
X14787863D01*
X14850125Y10471735D01*
X14869357D01*
X14888589Y10452502D01*
Y10433270D02*
Y10452502D01*
X14826328Y10371008D02*
X14888589Y10433270D01*
X14826328Y10351776D02*
Y10371008D01*
Y10351776D02*
X14845561Y10332543D01*
X14864793D01*
X14927055Y10394805D01*
X14946288D01*
X14965520Y10375572D01*
Y10356340D02*
Y10375572D01*
X14921497Y10312316D02*
X14965520Y10356340D01*
X14921497Y10293084D02*
Y10312316D01*
Y10293084D02*
X14959962Y10254617D01*
Y10254618D02*
X14967033Y10247547D01*
X14981561Y10233019D01*
Y10061752D02*
Y10233019D01*
X17383760Y15806419D02*
X17604739Y16027400D01*
X17383760Y15671800D02*
X17442180Y15613380D01*
X17383760Y15671800D02*
Y15806419D01*
X17604739Y16027400D02*
Y16210280D01*
X14523720Y14249400D02*
X14627859D01*
X14635480Y14257021D01*
X14523720Y14249400D02*
X15422881Y15148560D01*
X14465300Y14190981D02*
X14523720Y14249400D01*
X14406880Y14190981D02*
X15384779Y15168880D01*
X14406880Y13931900D02*
Y14190981D01*
Y13931900D02*
X14409419Y13929359D01*
X14104620D02*
X14409419D01*
Y13764259D02*
Y13929359D01*
X14671040Y10665609D02*
Y12651740D01*
X14389101Y10126980D02*
X14434602Y10081478D01*
Y9847920D02*
Y10081478D01*
X14544604Y9732721D02*
Y9847920D01*
Y10001468D01*
X14759940Y10797798D02*
Y12626340D01*
X14376045Y12942821D02*
Y12953645D01*
X14358620Y12925397D02*
X14376045Y12942821D01*
X14358620Y12486640D02*
Y12925397D01*
X14279880Y12415520D02*
Y12984480D01*
X14376401Y13081000D01*
X14447520D01*
X14358620Y12486640D02*
X14485620Y12359640D01*
X14389101Y10831512D02*
Y12306300D01*
X14279880Y12415520D02*
X14389101Y12306300D01*
X14201140Y13035280D02*
X14419580Y13253720D01*
X14201140Y12334240D02*
Y13035280D01*
Y12334240D02*
X14284959Y12250420D01*
X14323061Y9695180D02*
Y9847920D01*
X14447520Y13081000D02*
X14479845Y13113326D01*
Y13173547D01*
X14487498Y13181200D01*
X14500861Y12964160D02*
Y13030200D01*
X14465300Y12928600D02*
X14500861Y12964160D01*
Y13030200D02*
X14544006Y13073346D01*
X14465300Y12611100D02*
Y12928600D01*
X14533881Y12923520D02*
X14571980Y12961620D01*
X14533881Y12788900D02*
X14671040Y12651740D01*
X14533881Y12788900D02*
Y12923520D01*
X14660880Y12898120D02*
X14714220Y12844780D01*
Y12672060D02*
Y12844780D01*
Y12672060D02*
X14759940Y12626340D01*
X14544006Y13101286D02*
X14551660Y13108940D01*
X14544006Y13073346D02*
Y13101286D01*
X14544604Y10001468D02*
X14565399Y10022263D01*
X14544604Y9732721D02*
X14566872Y9710454D01*
X14565399Y10022263D02*
Y10105809D01*
X14527090Y10144119D02*
X14565399Y10105809D01*
X14518401Y10144119D02*
X14527090D01*
X15094600Y9742820D02*
Y9847920D01*
Y10066892D01*
X14981561Y10061752D02*
X14984602Y10058710D01*
Y9855540D02*
Y10058710D01*
X15112360Y10084651D02*
Y10334597D01*
X15094600Y10066892D02*
X15112360Y10084651D01*
X14984602Y9847920D02*
Y9855540D01*
X14566872Y9710454D02*
X14612585D01*
X14620239Y9702800D01*
X19207480Y9141460D02*
X19559077Y9493057D01*
X20899124Y9131300D02*
X20965160D01*
X20977859Y9144000D01*
X20883881Y9131300D02*
X20899124D01*
X20529747Y9500677D02*
X20899124Y9131300D01*
X20952460D01*
X20572923Y8820343D02*
X20883881Y9131300D01*
X20529742Y9500677D02*
X20529747D01*
X18615660Y9837420D02*
X19819620D01*
X20076160Y9580880D01*
X12661900Y11023600D02*
X13271500Y10414000D01*
X12661900Y11023600D02*
Y14284959D01*
X12420634Y14526225D02*
X12661900Y14284959D01*
X12372374Y14526225D02*
X12420634D01*
X12364720Y14533881D02*
X12372374Y14526225D01*
X14324603Y9847920D02*
Y9993356D01*
X14284959Y10033000D02*
X14324603Y9993356D01*
X14980794Y9851731D02*
X14984602Y9855540D01*
X14962317Y9833259D02*
X14980794Y9851731D01*
X14436908Y9757258D02*
Y9847920D01*
X22547580Y9591040D02*
Y9763760D01*
X14993620Y9695180D02*
X15046960D01*
X15094600Y9742820D01*
X14823441Y9695180D02*
X14831096Y9702836D01*
X14904756D01*
X14488161Y9695180D02*
Y9706005D01*
X14436908Y9757258D02*
X14488161Y9706005D01*
X19829781Y9141460D02*
Y9441561D01*
X19668683Y9602663D02*
X19829781Y9441561D01*
X19663603Y8700577D02*
X19951700Y8412480D01*
X20165060D02*
X20463316Y8710737D01*
X20076160Y8412480D02*
X20165060D01*
X19951700D02*
X20076160D01*
Y9448800D02*
Y9580880D01*
X20170644Y9859777D02*
X20420137Y9610283D01*
X20076160Y9895840D02*
X20112222Y9859777D01*
X20170644D01*
X14904756Y9702836D02*
X14962317Y9760397D01*
Y9833259D01*
D66*
X15434268Y13594080D02*
X15475758Y13635571D01*
X15355730Y13594080D02*
X15434268D01*
X15282568Y13667241D02*
X15355730Y13594080D01*
X15276553Y13667241D02*
X15282568D01*
X17260085Y14313686D02*
X17296317Y14349918D01*
X17260085Y14313683D02*
Y14313686D01*
X17242384Y14295982D02*
X17260085Y14313683D01*
X17206985Y14295982D02*
X17242384D01*
X17189285Y14313683D02*
X17206985Y14295982D01*
X17189285Y14313683D02*
Y14325681D01*
X17171585Y14343381D02*
X17189285Y14325681D01*
X17136185Y14343381D02*
X17171585D01*
X17118484Y14325681D02*
X17136185Y14343381D01*
X17118484Y14255037D02*
Y14325681D01*
X17100784Y14237337D02*
X17118484Y14255037D01*
X17065385Y14237337D02*
X17100784D01*
X17047685Y14255037D02*
X17065385Y14237337D01*
X17047685Y14255037D02*
Y14325681D01*
X17029985Y14343381D02*
X17047685Y14325681D01*
X16994586Y14343381D02*
X17029985D01*
X16976886Y14325681D02*
X16994586Y14343381D01*
X16976886Y14241753D02*
Y14325681D01*
X16959186Y14224052D02*
X16976886Y14241753D01*
X16923785Y14224052D02*
X16959186D01*
X16906087Y14241753D02*
X16923785Y14224052D01*
X16906087Y14241753D02*
Y14325681D01*
X16888387Y14343381D02*
X16906087Y14325681D01*
X16852986Y14343381D02*
X16888387D01*
X16835286Y14325681D02*
X16852986Y14343381D01*
X16835286Y14241753D02*
Y14325681D01*
X16817586Y14224052D02*
X16835286Y14241753D01*
X16782185Y14224052D02*
X16817586D01*
X16764487Y14241753D02*
X16782185Y14224052D01*
X16764487Y14241753D02*
Y14325681D01*
X16746786Y14343381D02*
X16764487Y14325681D01*
X16711386Y14343381D02*
X16746786D01*
X16693686Y14325681D02*
X16711386Y14343381D01*
X16693686Y14241753D02*
Y14325681D01*
X16675986Y14224052D02*
X16693686Y14241753D01*
X16640585Y14224052D02*
X16675986D01*
X16622887Y14241753D02*
X16640585Y14224052D01*
X16622887Y14241753D02*
Y14312981D01*
X16605186Y14330679D02*
X16622887Y14312981D01*
X16524385Y14330679D02*
X16605186D01*
X17296317Y14349918D02*
X18629440Y15683040D01*
X16464281Y14330679D02*
X16524385D01*
X14917419Y14338300D02*
X15445740D01*
X14554221Y13869250D02*
Y13975101D01*
X14917419Y14338300D01*
X18300700Y15880037D02*
Y16146780D01*
Y15880037D02*
X18312421Y15868318D01*
X15475758Y13635571D02*
Y13738399D01*
X15587981Y13850620D01*
X14902180Y10896600D02*
X15217769Y10581011D01*
X14902180Y12306300D02*
X14950439Y12354560D01*
X14902180Y10896600D02*
Y12306300D01*
X16045844Y14938403D02*
X16823083D01*
X15445740Y14338300D02*
X16045844Y14938403D01*
X15542261Y14246860D02*
X16084631Y14789230D01*
X14988541Y14246860D02*
X15542261D01*
X15587981Y13850620D02*
X19446240D01*
X15151614Y13818346D02*
X15252469Y13919200D01*
X15147815Y13818346D02*
X15151614D01*
X14735744Y13816397D02*
X14739619D01*
X14607573Y13830940D02*
X14622116Y13816397D01*
X14685020Y13867120D02*
X14735744Y13816397D01*
X14592531Y13830940D02*
X14607573D01*
X14622116Y13816397D02*
X14632941D01*
X14843761D02*
Y13818835D01*
X14902307Y12535027D02*
X14907547Y12529786D01*
X14908481Y12712637D02*
X14973300Y12647818D01*
X14907547Y12529786D02*
X14937775D01*
X14973300Y12606020D02*
X15135860Y12443460D01*
X14902254Y12627569D02*
X15124463Y12405360D01*
X14973300Y12606020D02*
Y12647818D01*
X14900957Y12627569D02*
X14902254D01*
X14904195Y12445475D02*
X14911848Y12437822D01*
X14963698D01*
X15135860Y12443460D02*
X15218559D01*
X15124463Y12405360D02*
X15186594D01*
X15218559Y12443460D02*
X15303500Y12358520D01*
X15186594Y12405360D02*
X15271236Y12320720D01*
X14937775Y12529786D02*
X15097760Y12369800D01*
X14963698Y12437822D02*
X15067281Y12334240D01*
X15158720D02*
X15250160Y12242800D01*
X15067281Y12334240D02*
X15158720D01*
X15097760Y12369800D02*
X15172656D01*
X15259537Y12282920D01*
X15271236Y12320720D02*
X15833540D01*
X15259537Y12282920D02*
X15989577D01*
X20594321Y14815820D02*
Y14879320D01*
X15250160Y12242800D02*
X16001793D01*
X16149921Y12637101D02*
X16704979D01*
X15821843Y12358520D02*
X16138223Y12674901D01*
X16723059D01*
X15833540Y12320720D02*
X16149921Y12637101D01*
X15303500Y12358520D02*
X15821843D01*
X16283617Y12578080D02*
X16548100D01*
X16114713Y12409177D02*
X16283617Y12578080D01*
X16114713Y12408057D02*
Y12409177D01*
X15989577Y12282920D02*
X16114713Y12408057D01*
X17190720Y15895320D02*
X17368977Y16073576D01*
X16823083Y14938403D02*
X17190720Y15306039D01*
Y15895320D01*
X17368977Y16073576D02*
Y16118430D01*
X17366820Y16120587D02*
X17368977Y16118430D01*
X17284700Y15260320D02*
Y15839439D01*
X17512421Y16067162D01*
Y16119719D01*
X16870680Y14846300D02*
X17284700Y15260320D01*
X18629440Y15683040D02*
Y16096011D01*
X18671539Y16138110D01*
Y16144240D01*
X18312421Y15612399D02*
Y15868318D01*
X17147540Y14447520D02*
X18312421Y15612399D01*
X17904460Y15834367D02*
X17912421Y15826408D01*
Y15542599D02*
Y15826408D01*
X17028160Y14658340D02*
X17912421Y15542599D01*
X16964661Y14762480D02*
X17776138Y15573959D01*
Y16126460D01*
X16704979Y12637101D02*
X17208501Y12133580D01*
X16723059Y12674901D02*
X17223740Y12174220D01*
X15930881Y13919200D02*
X16459200Y14447520D01*
X16882272D02*
X16990424D01*
X16868652Y14461140D02*
X16882272Y14447520D01*
X16868652Y14461140D02*
Y14461143D01*
X16855032Y14474763D02*
X16868652Y14461143D01*
X16836873Y14474763D02*
X16855032D01*
X16823253Y14461143D02*
X16836873Y14474763D01*
X16823253Y14428986D02*
Y14461143D01*
X16809633Y14415366D02*
X16823253Y14428986D01*
X16791473Y14415366D02*
X16809633D01*
X16777853Y14428986D02*
X16791473Y14415366D01*
X16777853Y14428986D02*
Y14473900D01*
X16764233Y14487520D02*
X16777853Y14473900D01*
X16746072Y14487520D02*
X16764233D01*
X16732452Y14473900D02*
X16746072Y14487520D01*
X16732452Y14421140D02*
Y14473900D01*
X16718832Y14407520D02*
X16732452Y14421140D01*
X16700673Y14407520D02*
X16718832D01*
X16687053Y14421140D02*
X16700673Y14407520D01*
X16687053Y14421140D02*
Y14473900D01*
X16673433Y14487520D02*
X16687053Y14473900D01*
X16655273Y14487520D02*
X16673433D01*
X16641653Y14473900D02*
X16655273Y14487520D01*
X16641653Y14421140D02*
Y14473900D01*
X16628033Y14407520D02*
X16641653Y14421140D01*
X16609872Y14407520D02*
X16628033D01*
X16596252Y14421140D02*
X16609872Y14407520D01*
X16596252Y14421140D02*
Y14433900D01*
X16582632Y14447520D02*
X16596252Y14433900D01*
X16527232Y14447520D02*
X16582632D01*
X16459200D02*
X16527232D01*
X15849600Y13995399D02*
X16400780Y14546581D01*
X16680176D02*
X16987520D01*
X16666556Y14560201D02*
X16680176Y14546581D01*
X16666556Y14560201D02*
Y14560204D01*
X16652936Y14573824D02*
X16666556Y14560204D01*
X16634776Y14573824D02*
X16652936D01*
X16621156Y14560204D02*
X16634776Y14573824D01*
X16621156Y14525266D02*
Y14560204D01*
X16607536Y14511646D02*
X16621156Y14525266D01*
X16589377Y14511646D02*
X16607536D01*
X16575757Y14525266D02*
X16589377Y14511646D01*
X16575757Y14525266D02*
Y14572960D01*
X16562137Y14586580D02*
X16575757Y14572960D01*
X16543977Y14586580D02*
X16562137D01*
X16530357Y14572960D02*
X16543977Y14586580D01*
X16530357Y14531198D02*
Y14572960D01*
X16516737Y14517578D02*
X16530357Y14531198D01*
X16498576Y14517578D02*
X16516737D01*
X16484956Y14531198D02*
X16498576Y14517578D01*
X16484956Y14531198D02*
Y14572960D01*
X16471336Y14586580D02*
X16484956Y14572960D01*
X16453177Y14586580D02*
X16471336D01*
X16439557Y14572960D02*
X16453177Y14586580D01*
X16439557Y14560201D02*
Y14572960D01*
X16425937Y14546581D02*
X16439557Y14560201D01*
X16415935Y14546581D02*
X16425937D01*
X16400780D02*
X16415935D01*
X16528882Y14658340D02*
X16912025D01*
X16515262Y14644720D02*
X16528882Y14658340D01*
X16515262Y14644502D02*
Y14644720D01*
X16501642Y14630882D02*
X16515262Y14644502D01*
X16483482Y14630882D02*
X16501642D01*
X16469862Y14644502D02*
X16483482Y14630882D01*
X16469862Y14644502D02*
Y14684720D01*
X16456242Y14698340D02*
X16469862Y14684720D01*
X16438081Y14698340D02*
X16456242D01*
X16424461Y14684720D02*
X16438081Y14698340D01*
X16424461Y14639999D02*
Y14684720D01*
X16410841Y14626379D02*
X16424461Y14639999D01*
X16392682Y14626379D02*
X16410841D01*
X16379062Y14639999D02*
X16392682Y14626379D01*
X16379062Y14639999D02*
Y14684720D01*
X16365442Y14698340D02*
X16379062Y14684720D01*
X16347282Y14698340D02*
X16365442D01*
X16333662Y14684720D02*
X16347282Y14698340D01*
X16333662Y14624242D02*
Y14684720D01*
X16323660Y14614241D02*
X16333662Y14624242D01*
X16912025Y14658340D02*
X17028160D01*
X16704259Y14762480D02*
X16964661D01*
X16366354D02*
X16704259D01*
X16352734Y14776100D02*
X16366354Y14762480D01*
X16352734Y14776100D02*
Y14776103D01*
X16339114Y14789723D02*
X16352734Y14776103D01*
X16320955Y14789723D02*
X16339114D01*
X16307335Y14776103D02*
X16320955Y14789723D01*
X16307335Y14747627D02*
Y14776103D01*
X16293715Y14734007D02*
X16307335Y14747627D01*
X16275555Y14734007D02*
X16293715D01*
X16261935Y14747627D02*
X16275555Y14734007D01*
X16261935Y14747627D02*
Y14788860D01*
X16248315Y14802480D02*
X16261935Y14788860D01*
X16230154Y14802480D02*
X16248315D01*
X16216534Y14788860D02*
X16230154Y14802480D01*
X16216534Y14723015D02*
Y14788860D01*
X16206534Y14713014D02*
X16216534Y14723015D01*
X16454745Y14846300D02*
X16482060D01*
X16244452D02*
X16454745D01*
X16230832Y14859920D02*
X16244452Y14846300D01*
X16230832Y14859920D02*
Y14859923D01*
X16217212Y14873543D02*
X16230832Y14859923D01*
X16199052Y14873543D02*
X16217212D01*
X16185432Y14859923D02*
X16199052Y14873543D01*
X16185432Y14844630D02*
Y14859923D01*
X16171812Y14831010D02*
X16185432Y14844630D01*
X16153651Y14831010D02*
X16171812D01*
X16140031Y14844630D02*
X16153651Y14831010D01*
X16140031Y14844630D02*
Y14877261D01*
X16126413Y14890881D02*
X16140031Y14877261D01*
X16108253Y14890881D02*
X16126413D01*
X16094633Y14877261D02*
X16108253Y14890881D01*
X16094633Y14799232D02*
Y14877261D01*
X16084631Y14789230D02*
X16094633Y14799232D01*
X14685020Y13943340D02*
X14988541Y14246860D01*
X14685020Y13867120D02*
Y13943340D01*
X14815820Y13846776D02*
Y13952220D01*
X15011400Y14147800D02*
X15641319D01*
X14815820Y13952220D02*
X15011400Y14147800D01*
X15049500Y14066521D02*
X15775940D01*
X14946620Y13889571D02*
Y13963640D01*
X15049500Y14066521D01*
X14815820Y13846776D02*
X14843761Y13818835D01*
X14945360Y13817599D02*
Y13888310D01*
X14946620Y13889571D01*
X15046960Y13830965D02*
X15079340Y13863344D01*
Y13962788D02*
X15111951Y13995399D01*
X15079340Y13863344D02*
Y13962788D01*
X15252469Y13919200D02*
X15930881D01*
X14554221Y13869250D02*
X14592531Y13830940D01*
X15046960Y13820140D02*
Y13830965D01*
X15111951Y13995399D02*
X15849600D01*
X17076421Y14546581D02*
X18171159Y15641319D01*
Y16141701D01*
X17512114Y16120026D02*
X17512421Y16119719D01*
X15775940Y14066521D02*
X16323660Y14614241D01*
X15641319Y14147800D02*
X16206534Y14713014D01*
X17904460Y15834367D02*
Y16128999D01*
X16990424Y14447520D02*
X17147540D01*
X23939030Y13983093D02*
X24419167D01*
X25179021Y11412220D02*
Y13223241D01*
X24419167Y13983093D02*
X25179021Y13223241D01*
X24446645Y14062296D02*
X25255220Y13253720D01*
X24051260Y14062296D02*
X24446645D01*
X25255220Y11714480D02*
Y13253720D01*
X24427180Y14099541D02*
X24505920D01*
X25331419Y11902440D02*
Y13274040D01*
X24505920Y14099541D02*
X25331419Y13274040D01*
X24118732Y14230341D02*
X24563080D01*
X25407620Y12161520D02*
Y13385800D01*
X24563080Y14230341D02*
X25407620Y13385800D01*
X24062981Y13589861D02*
X24803101Y12849741D01*
Y10210800D02*
Y12849741D01*
X24132539Y13672820D02*
X24884380Y12920979D01*
Y10414000D02*
Y12920979D01*
X24100172Y14211780D02*
X24118732Y14230341D01*
X23656332Y14211780D02*
X24100172D01*
X24394798Y14131921D02*
X24427180Y14099541D01*
X24150320Y14131920D02*
X24394798Y14131921D01*
X23655809Y14212303D02*
X23656332Y14211780D01*
X24394798Y14131921D02*
X24394798D01*
X24627840Y14279880D02*
X25483820Y13423900D01*
X23726140Y14279880D02*
X24627840D01*
X19522839Y13099181D02*
Y14111496D01*
X20495764Y15084419D01*
X11343640Y13058141D02*
X11407140Y13121640D01*
Y15280640D02*
X11907520Y15781020D01*
X11407140Y13121640D02*
Y15280640D01*
X11485880Y12580620D02*
X11531600Y12626340D01*
Y15247620D01*
X11953240Y15669260D01*
X11468100Y15262860D02*
X11930380Y15725140D01*
X11468100Y12867641D02*
Y15262860D01*
X11412220Y12811760D02*
X11468100Y12867641D01*
X11953240Y15669260D02*
X12390120D01*
X12732607Y16011748D01*
Y16050192D01*
X11930380Y15725140D02*
X12344400D01*
X12593320Y15974060D01*
X11907520Y15781020D02*
X12278360D01*
X12456160Y15958820D01*
X11310620Y11534140D02*
X11882120D01*
X12179300Y11831320D01*
Y14605000D01*
X12123420Y14635480D02*
X13237930Y15749991D01*
X12123420Y12103100D02*
Y14635480D01*
X12179300Y14605000D02*
X13514188Y15939886D01*
Y15964848D01*
X11788140Y15224760D02*
X12451080D01*
X13031403Y15805083D02*
Y15830058D01*
X12451080Y15224760D02*
X13031403Y15805083D01*
X12011660Y14714008D02*
X13099503Y15801851D01*
X12011660Y12776200D02*
Y14714008D01*
X13169901Y15768320D02*
Y15813176D01*
X12067540Y12453620D02*
Y14665961D01*
X13169901Y15768320D01*
X11315700Y11783060D02*
X11803380D01*
X12123420Y12103100D01*
X11320780Y12029440D02*
X11643360D01*
X12067540Y12453620D01*
X13169901Y15813176D02*
X13418208Y16061484D01*
X11570576Y12335116D02*
X12011660Y12776200D01*
X11534140Y12298680D02*
X11570576Y12335116D01*
X11320780Y12298680D02*
X11534140D01*
X12756538Y11071202D02*
Y14427858D01*
X25709879Y13182600D02*
Y13558521D01*
X24950420Y10716260D02*
Y12992101D01*
X24874220Y10139680D02*
X24879300D01*
X24803101Y10210800D02*
X24874220Y10139680D01*
X24950420Y10716260D02*
X24958040D01*
X25021539Y10901680D02*
Y13115677D01*
X24193279Y13749242D02*
X24950420Y12992101D01*
X24683720Y14350999D02*
X25560020Y13474699D01*
Y12682220D02*
Y13474699D01*
X24775160Y14493240D02*
X25709879Y13558521D01*
X25633679Y12936220D02*
Y13520419D01*
X24734520Y14419580D02*
X25633679Y13520419D01*
X25483820Y12425680D02*
Y13423900D01*
X25100281Y11158220D02*
Y13177521D01*
X24368761Y13909039D02*
X25100281Y13177521D01*
X24620615Y13516602D02*
X25021539Y13115677D01*
X23723599Y14493240D02*
X24775160D01*
X24193279Y13749242D02*
Y13758958D01*
X19538757Y8810183D02*
X19553996D01*
X19207480Y9141460D02*
X19538757Y8810183D01*
X19121120Y9141460D02*
X19207480D01*
X18409920Y9240300D02*
X18414999Y9245380D01*
Y9824720D01*
X18163541Y9247920D02*
Y9817100D01*
X18155920Y9240300D02*
X18163541Y9247920D01*
X16546690Y11614010D02*
Y11921350D01*
X16461740Y11605260D02*
Y11930380D01*
X16609061Y11983720D02*
Y12364090D01*
X16546690Y11921350D02*
X16609061Y11983720D01*
X16498570Y12474580D02*
X16609061Y12364090D01*
X16461740Y11930380D02*
X16537939Y12006580D01*
X16548100Y12578080D02*
X17127220Y11998960D01*
X16149713Y12394680D02*
X16295312Y12540280D01*
X16536403D01*
X17115523Y11961160D01*
X17127220Y11998960D02*
X18703996D01*
X17115523Y11961160D02*
X18719653D01*
X20495764Y15084419D02*
X20638139D01*
X12966701Y10993120D02*
X13284200Y10675620D01*
X12966701Y10993120D02*
Y11336020D01*
X13276579Y10546080D02*
Y10551160D01*
X12756538Y11071202D02*
X13276579Y10551160D01*
X15217769Y10581011D02*
X15226671D01*
X13031403Y15830058D02*
X13171671Y15970326D01*
X13181406D02*
X13321674Y16110594D01*
X13171671Y15970326D02*
X13181406D01*
X13321674Y16110594D02*
Y16157565D01*
X16001793Y12242800D02*
X16149713Y12390720D01*
X19756120Y12997626D02*
Y13977620D01*
X20594321Y14815820D01*
X18719653Y11961160D02*
X19756120Y12997626D01*
X18703996Y11998960D02*
X19712939Y13007903D01*
Y13987897D02*
X20520660Y14795618D01*
X19712939Y13007903D02*
Y13987897D01*
X20520660Y14795618D02*
Y14898149D01*
X16149713Y12390720D02*
Y12394680D01*
X23817580Y13909039D02*
X24368761D01*
X24290021Y13830299D02*
X24603719Y13516602D01*
X24620615D01*
X23807420Y14350999D02*
X24683720D01*
X20638139Y15084419D02*
X20698460Y15024100D01*
X23891240Y14419580D02*
X24734520D01*
X21356320Y13190221D02*
X21859241Y12687300D01*
X20919440Y15196820D02*
X21356320Y14759940D01*
Y13190221D02*
Y14759940D01*
X21859241Y11280140D02*
Y12687300D01*
X19598640Y15196820D02*
X20919440D01*
X17223740Y12174220D02*
X18597881D01*
X19522839Y13099181D01*
X21859241Y11280140D02*
X22046422Y11092958D01*
X23385780Y9588500D02*
Y9779000D01*
X22956520Y9591040D02*
Y9758680D01*
Y9591040D02*
X22959061Y9588500D01*
X12966701Y11336020D02*
X13599159Y11968480D01*
X21719540Y9591040D02*
Y9743440D01*
X22131020Y9593580D02*
Y9756140D01*
Y9593580D02*
X22136099Y9588500D01*
X21717000D02*
X21719540Y9591040D01*
X20520660Y14898149D02*
X20570412Y14947900D01*
X20722519D02*
X20796291Y14874129D01*
X20570412Y14947900D02*
X20722519D01*
X16497301Y14846300D02*
X16870680D01*
X16987520Y14546581D02*
X17076421D01*
X16482060Y14846300D02*
X16497301D01*
D67*
X23992841Y11998960D02*
X23995380Y11996420D01*
X23990300Y12273280D02*
X23992841Y12270740D01*
Y11998960D02*
Y12270740D01*
X18614516Y12133580D02*
X19564610Y13083675D01*
Y14095990D02*
X20434315Y14965697D01*
X19564610Y13083675D02*
Y14095990D01*
X16372839Y11601923D02*
X16388080Y11617163D01*
X16362680Y11999172D02*
X16388080Y11973772D01*
X16372839Y11592560D02*
Y11601923D01*
X16388080Y11617163D02*
Y11973772D01*
X16362680Y11999172D02*
Y12414613D01*
X16312408Y12464886D02*
X16362680Y12414613D01*
X17899380Y9271304D02*
Y9827260D01*
X11207420Y9161780D02*
Y15167117D01*
X11936281Y15895979D01*
X20501137Y15003780D02*
X20510500D01*
X20463052Y14965697D02*
X20501137Y15003780D01*
X20434315Y14965697D02*
X20463052D01*
X23871516Y10523220D02*
X24052827Y10704532D01*
X22994620Y10962640D02*
X23434039Y10523220D01*
X23871516D01*
X17208501Y12133580D02*
X18614516D01*
X11936281Y15916461D02*
X11942902Y15923082D01*
X11936281Y15895979D02*
Y15916461D01*
X10652760Y9133982D02*
Y9395460D01*
X16595740Y9293240D02*
X16702058Y9399559D01*
Y9456678D01*
X16594638Y9201262D02*
X16595740Y9202364D01*
Y9293240D01*
X16702058Y9456678D02*
X16710660Y9465280D01*
X16212820Y9372600D02*
Y9465280D01*
X16292857Y9203043D02*
X16294638Y9201262D01*
X16292857Y9203043D02*
Y9292563D01*
X16212820Y9372600D02*
X16292857Y9292563D01*
X22994620Y10962640D02*
Y11371580D01*
X23802341Y12377420D02*
Y12560300D01*
X23139400Y11714480D02*
X23802341Y12377420D01*
X22723300Y11714480D02*
X23139400D01*
X23465080Y11105693D02*
X23929340Y11569951D01*
X23105901Y11105693D02*
X23465080D01*
X23037801Y12034520D02*
Y12344400D01*
X24074120Y9484360D02*
Y9813163D01*
Y9484360D02*
X24119839Y9438640D01*
X24185818D01*
Y9288780D02*
Y9438640D01*
X24074120Y9813163D02*
X24088998Y9828042D01*
X24174699D01*
X24479938Y9821598D02*
X24551794D01*
X24455119Y9489440D02*
Y9796780D01*
X24551794Y9821598D02*
X24553159Y9822962D01*
X24455119Y9796780D02*
X24479938Y9821598D01*
X24561996Y9443462D02*
X24566818Y9438640D01*
X24455119Y9489440D02*
X24501099Y9443462D01*
X24561996D01*
X24566818Y9278620D02*
Y9438640D01*
X22994620Y11371580D02*
X23037801Y11414760D01*
D68*
X15073903Y12236031D02*
X15102840Y12264968D01*
Y12265415D01*
X15073903Y10966177D02*
Y12236031D01*
X15895810Y10144270D02*
X15978694Y10061386D01*
X15998463D01*
X16030016Y10092939D01*
X16049785D01*
X16079439Y10063285D01*
Y10043515D02*
Y10063285D01*
X16044621Y10008697D02*
X16079439Y10043515D01*
X16044621Y9988928D02*
Y10008697D01*
Y9988928D02*
X16074275Y9959274D01*
X16094044D01*
X16128862Y9994092D01*
X16148631D01*
X16178287Y9964438D01*
Y9944669D02*
Y9964438D01*
X16143468Y9909851D02*
X16178287Y9944669D01*
X16143468Y9890082D02*
Y9909851D01*
Y9890082D02*
X16173122Y9860428D01*
X16192891D01*
X16227708Y9895246D01*
X16247478D01*
X16277132Y9865592D01*
Y9845823D02*
Y9865592D01*
X16245580Y9814270D02*
X16277132Y9845823D01*
X16245580Y9794501D02*
Y9814270D01*
Y9794501D02*
X16287115Y9752965D01*
X16316960D01*
X16366739D01*
X15073903Y10966177D02*
X15895810Y10144270D01*
X15011400Y12264101D02*
Y12268200D01*
X15039008Y10945192D02*
X16306799Y9677400D01*
X15011400Y12264101D02*
X15039008Y12236493D01*
Y10945192D02*
Y12236493D01*
X16306799Y9677400D02*
X16502132D01*
X16529533Y9307347D02*
Y9381973D01*
Y9307347D02*
X16540413Y9296467D01*
Y9205489D02*
Y9296467D01*
X16494638Y9201262D02*
Y9382311D01*
X16394638Y9393966D02*
X16482983D01*
X16529533Y9381973D02*
X16556741Y9409181D01*
X16482983Y9393966D02*
X16494638Y9382311D01*
X16540413Y9205489D02*
X16544641Y9201262D01*
X16556741Y9409181D02*
Y9479915D01*
X16544641Y9107394D02*
Y9201262D01*
X16366739Y9479915D02*
X16375772Y9470882D01*
Y9412832D02*
X16394638Y9393966D01*
X16375772Y9412832D02*
Y9470882D01*
X16394638Y9201262D02*
Y9393966D01*
X16532986Y9095740D02*
X16544641Y9107394D01*
X16447354Y9111561D02*
X16463174Y9095740D01*
X16447354Y9111561D02*
Y9198549D01*
X16444641Y9201262D02*
X16447354Y9198549D01*
X16463174Y9095740D02*
X16532986D01*
X16502132Y9677400D02*
X16556741Y9732010D01*
Y9752965D01*
D71*
X10725918Y9558522D02*
X10863580Y9420860D01*
Y8717280D02*
Y9420860D01*
X10652760Y9564400D02*
X10658638Y9558522D01*
X10725918D01*
X10985500Y8595360D02*
X14038580D01*
X10863580Y8717280D02*
X10985500Y8595360D01*
X14038580D02*
X14142720Y8699500D01*
X14674200Y9750439D02*
X14739619Y9685020D01*
X14674200Y9750439D02*
Y9828320D01*
X14739619Y9554925D02*
Y9685020D01*
X14654601Y9847920D02*
X14674200Y9828320D01*
X21717000Y8978900D02*
Y9141460D01*
X11894820Y15996919D02*
Y16174719D01*
X12306840Y16586740D01*
D72*
X18785840Y15684500D02*
Y15775940D01*
X18900940Y15673177D02*
Y15725940D01*
X21701759Y14472920D02*
Y14944981D01*
Y13309599D02*
Y14472920D01*
X18900940Y15725940D02*
X18994142Y15819142D01*
X20827599D01*
X21803461Y14407848D02*
Y15018919D01*
X21158200Y15664180D02*
X21803461Y15018919D01*
Y14407848D02*
X21883168Y14328140D01*
X20827599Y15819142D02*
X21701759Y14944981D01*
Y13309599D02*
X22280881Y12730480D01*
X20894040Y15928340D02*
X21158200Y15664180D01*
X18938240Y15928340D02*
X20894040D01*
X17192560Y9720543D02*
Y9876220D01*
X17033240Y10035540D02*
X17192560Y9876220D01*
X16619220Y10035540D02*
X17033240D01*
X17192560Y9720543D02*
X17196822Y9716282D01*
X16461740Y9878060D02*
X16619220Y10035540D01*
X16461740Y9752965D02*
Y9878060D01*
X21883168Y14328140D02*
X22425661D01*
X18785840Y15775940D02*
X18938240Y15928340D01*
X22280881Y12730480D02*
X23804880D01*
D74*
X19023634Y15666844D02*
X19130438Y15560040D01*
X20571460Y14173199D02*
X21160741D01*
X21242020Y14091920D01*
D77*
X23535640Y10604500D02*
X23741380D01*
X24297639Y11160760D01*
Y12153900D02*
X24399240Y12255500D01*
X24297639Y11160760D02*
Y12153900D01*
D80*
X24701500Y8491220D02*
D03*
D81*
X24958040D02*
D03*
D82*
X25989279Y20693381D02*
D03*
X10495280Y20703540D02*
D03*
D83*
X25989279Y20921980D02*
D03*
X25760681Y20693381D02*
D03*
X25989279Y20464781D02*
D03*
X26217880Y20693381D02*
D03*
X26150925Y20855026D02*
D03*
X25827634D02*
D03*
Y20531737D02*
D03*
X26150925D02*
D03*
X14244598Y8747923D02*
D03*
X15042601D02*
D03*
X10495280Y20932140D02*
D03*
X10266680Y20703540D02*
D03*
X10495280Y20474940D02*
D03*
X10723880Y20703540D02*
D03*
X10656925Y20865186D02*
D03*
X10333635D02*
D03*
Y20541895D02*
D03*
X10656925D02*
D03*
D84*
X15222704Y19857562D02*
D03*
X14358701D02*
D03*
X16037640Y8694583D02*
D03*
X16901643D02*
D03*
D85*
X15222704Y19442561D02*
D03*
X14358701D02*
D03*
X16037640Y9109578D02*
D03*
X16901643D02*
D03*
D86*
X15079701Y19492558D02*
D03*
X14501698D02*
D03*
X16180638Y9059581D02*
D03*
X16758641D02*
D03*
D87*
X25755539Y9660062D02*
D03*
D88*
X25275540Y9370060D02*
D03*
D89*
X25755539Y9030061D02*
D03*
D90*
X12377420Y9161780D02*
D03*
D91*
X11632418D02*
D03*
D92*
X15276553Y13667241D02*
D03*
X11307380Y8666160D02*
D03*
X12004040D02*
D03*
X12750000D02*
D03*
X12009120Y8333740D02*
D03*
X11312460Y8339740D02*
D03*
X12755080Y8343060D02*
D03*
X13124181Y13583920D02*
D03*
X12943840Y13589000D02*
D03*
X13032739Y13500101D02*
D03*
X13124181Y13408659D02*
D03*
X12946381Y13411200D02*
D03*
X14338300Y17975580D02*
D03*
X14526260Y18148300D02*
D03*
X14754860Y17853661D02*
D03*
X14825980Y17790160D02*
D03*
X18785840Y15684500D02*
D03*
X13868401Y11932920D02*
D03*
X13185139Y12758420D02*
D03*
X14602460Y12829539D02*
D03*
X18300700Y16146780D02*
D03*
X19624040Y11739880D02*
D03*
X16309340Y13553439D02*
D03*
X15770860Y13769341D02*
D03*
Y13700760D02*
D03*
X15628619Y13655040D02*
D03*
X15541158Y13698219D02*
D03*
X15410358Y13662660D02*
D03*
X15341953Y13744005D02*
D03*
X13804900Y14655800D02*
D03*
X13944600Y15303500D02*
D03*
X18901305Y15673177D02*
D03*
X14967580Y11856720D02*
D03*
X18293080Y12793980D02*
D03*
X17429480Y12443460D02*
D03*
X19657060Y12407900D02*
D03*
X19735159Y12407260D02*
D03*
X19655161Y12327260D02*
D03*
X19735800Y12329160D02*
D03*
X23393588Y12165772D02*
D03*
X23389462Y11789151D02*
D03*
X23387401Y11600840D02*
D03*
X23575711Y11598778D02*
D03*
X23577774Y11787088D02*
D03*
X23579836Y11975399D02*
D03*
X15913278Y12809520D02*
D03*
X15656560Y12809219D02*
D03*
X15399841Y12808920D02*
D03*
X15399542Y13065639D02*
D03*
X15399243Y13322356D02*
D03*
X15912679Y13322955D02*
D03*
X15912978Y13066238D02*
D03*
X15655962Y13322656D02*
D03*
X15656261Y13065938D02*
D03*
X15709900Y14508479D02*
D03*
X15275560Y14411960D02*
D03*
X15267940Y13454379D02*
D03*
X15147815Y13818346D02*
D03*
X15144740Y13903960D02*
D03*
X14739619Y13816397D02*
D03*
X14843761D02*
D03*
X14632941D02*
D03*
X15275560Y12684760D02*
D03*
X15146021Y12547600D02*
D03*
X14902307Y12535027D02*
D03*
X14904195Y12445475D02*
D03*
X14900957Y12627569D02*
D03*
X15102840Y12265415D02*
D03*
X14950439Y12354560D02*
D03*
X16027400Y13441679D02*
D03*
X16022321Y12692380D02*
D03*
X25875000Y20257620D02*
D03*
X25125002Y17257620D02*
D03*
Y15757620D02*
D03*
X24750002Y15007620D02*
D03*
Y9007620D02*
D03*
X24375002Y17257620D02*
D03*
Y15757620D02*
D03*
X24000002Y15007620D02*
D03*
Y10507620D02*
D03*
Y9007620D02*
D03*
X23625002Y17257620D02*
D03*
Y15757620D02*
D03*
X23250002Y13507620D02*
D03*
X23625002Y9757620D02*
D03*
X23250002Y9007620D02*
D03*
X22500002Y10507620D02*
D03*
X21750002Y19507620D02*
D03*
Y12007620D02*
D03*
Y10507620D02*
D03*
X21000002Y19507620D02*
D03*
X21375002Y15757620D02*
D03*
Y12757620D02*
D03*
Y11257620D02*
D03*
X21000002Y10507620D02*
D03*
X20250002Y19507620D02*
D03*
X20625002Y12757620D02*
D03*
Y9757620D02*
D03*
X19500002Y19507620D02*
D03*
Y15007620D02*
D03*
X18750002Y19507620D02*
D03*
Y13507620D02*
D03*
Y10507620D02*
D03*
Y9007620D02*
D03*
X18000002Y19507620D02*
D03*
Y9007620D02*
D03*
X17250002Y19507620D02*
D03*
X17625002Y9757620D02*
D03*
X17250002Y9007620D02*
D03*
X16500002Y19507620D02*
D03*
X15750002D02*
D03*
Y10507620D02*
D03*
X13875000Y18757620D02*
D03*
Y14257620D02*
D03*
X13500000Y9007620D02*
D03*
X13125000Y9757620D02*
D03*
X12375000Y18757620D02*
D03*
X12000000Y10507620D02*
D03*
X12375000Y9757620D02*
D03*
X12000000Y9007620D02*
D03*
X11625000Y18757620D02*
D03*
Y14257620D02*
D03*
Y12757620D02*
D03*
X10875000Y20257620D02*
D03*
X10500000Y9007620D02*
D03*
X21351241Y11404600D02*
D03*
X16001872Y12387706D02*
D03*
X19737291Y12624285D02*
D03*
X20024513Y12124267D02*
D03*
X19773900Y11656060D02*
D03*
X19776440Y11747500D02*
D03*
X23995380Y11996420D02*
D03*
X18694839Y15736717D02*
D03*
X19370039Y14841220D02*
D03*
X17215596Y13620004D02*
D03*
X18239740Y15732761D02*
D03*
X17846040Y15725140D02*
D03*
X18882359Y15255240D02*
D03*
X16799561Y12778740D02*
D03*
X16355060Y12778099D02*
D03*
X17449159Y15730220D02*
D03*
X17442180Y15613380D02*
D03*
X16553180Y13439140D02*
D03*
X14619620Y13911580D02*
D03*
X14750420Y13914120D02*
D03*
X14881221Y13916502D02*
D03*
X15013940Y13916660D02*
D03*
X14635480Y14257021D02*
D03*
X14104620Y13929359D02*
D03*
X18564861Y16149319D02*
D03*
X18171159Y16141701D02*
D03*
X18234660Y16210280D02*
D03*
X17840961Y16189960D02*
D03*
X17366820Y16120587D02*
D03*
X17439639Y16165199D02*
D03*
X17512114Y16120026D02*
D03*
X14434821Y13015601D02*
D03*
X14376045Y12953645D02*
D03*
X14404865Y13146516D02*
D03*
X14487498Y13181200D02*
D03*
X14074139Y12758420D02*
D03*
X14660880Y12898120D02*
D03*
X13959840Y12943840D02*
D03*
X14571980Y12961620D02*
D03*
X14551660Y13108940D02*
D03*
X14356081Y10063480D02*
D03*
X14500000Y10078720D02*
D03*
X14871700Y10088880D02*
D03*
X14660880Y10111740D02*
D03*
X15046960D02*
D03*
X14620239Y9702800D02*
D03*
X16464281Y14330679D02*
D03*
X18671539Y16144240D02*
D03*
X17904460Y16128999D02*
D03*
X17604739Y16210280D02*
D03*
X15046960Y13820140D02*
D03*
X14945360Y13817599D02*
D03*
X17776138Y16126460D02*
D03*
X13568291Y18451509D02*
D03*
X13837279Y17767300D02*
D03*
X13329919Y18920461D02*
D03*
X13479091Y18042699D02*
D03*
X16977438Y11610162D02*
D03*
X18021300Y10287000D02*
D03*
X13294360Y12367260D02*
D03*
X11851640Y10883900D02*
D03*
X11849100Y11137900D02*
D03*
X21696680Y15769020D02*
D03*
X11927840Y14699680D02*
D03*
X11877040Y13896339D02*
D03*
X11927840Y13145200D02*
D03*
X11615420Y14173199D02*
D03*
X11625000Y13507620D02*
D03*
X11597640Y15654021D02*
D03*
X11657980Y15206422D02*
D03*
X11818620Y16730980D02*
D03*
X11325860Y16164560D02*
D03*
X10099040Y17028160D02*
D03*
X10096500Y10081260D02*
D03*
X10093960Y10828020D02*
D03*
Y11605260D02*
D03*
Y12382500D02*
D03*
Y13159740D02*
D03*
Y13936980D02*
D03*
Y14714220D02*
D03*
Y15491460D02*
D03*
Y16268700D02*
D03*
X10817860Y16789400D02*
D03*
X10812780Y17040860D02*
D03*
X10822940Y17289780D02*
D03*
X10820400Y17553940D02*
D03*
X10817860Y17807941D02*
D03*
X10820400Y18064481D02*
D03*
X10815320Y18315939D02*
D03*
X10807700Y18567400D02*
D03*
X10802620Y18818860D02*
D03*
X10797540Y19070320D02*
D03*
X24061420Y10599420D02*
D03*
X25775919Y12936220D02*
D03*
X25580341Y13952220D02*
D03*
X25788620Y13700760D02*
D03*
X25793701Y13444220D02*
D03*
X25199339Y14198599D02*
D03*
Y14457680D02*
D03*
X25194260Y14709140D02*
D03*
X25725119Y12687300D02*
D03*
X26299161Y14367380D02*
D03*
X25623520Y12435840D02*
D03*
X26299161Y14110840D02*
D03*
X25623520Y12179300D02*
D03*
X26299161Y13854300D02*
D03*
X25622821Y11927840D02*
D03*
X26299161Y13597760D02*
D03*
X25622821Y11671300D02*
D03*
X26299161Y13341220D02*
D03*
X25622821Y11414760D02*
D03*
Y11158220D02*
D03*
X26299161Y12828140D02*
D03*
X25622821Y10901680D02*
D03*
X26299161Y12571600D02*
D03*
X25622821Y10645140D02*
D03*
Y10388600D02*
D03*
Y10132060D02*
D03*
X25087579Y13611861D02*
D03*
X24062981Y13589861D02*
D03*
X24132539Y13672820D02*
D03*
X24455119Y14164940D02*
D03*
X24051260Y14062296D02*
D03*
X24150320Y14131920D02*
D03*
X23726140Y14279880D02*
D03*
X25087579Y15463519D02*
D03*
X24337579D02*
D03*
X24036020Y15996919D02*
D03*
X24788560Y15745461D02*
D03*
X24622760Y16319501D02*
D03*
X24035320Y16487140D02*
D03*
X24781641Y16814799D02*
D03*
X24029100Y17066260D02*
D03*
X24776559Y17317720D02*
D03*
X24024020Y17569180D02*
D03*
X24771480Y17820641D02*
D03*
X24018941Y18072099D02*
D03*
X24766400Y18323560D02*
D03*
X24013860Y18575020D02*
D03*
X24761320Y18826480D02*
D03*
X24008780Y19077940D02*
D03*
X24756239Y19329401D02*
D03*
X23281641Y16814799D02*
D03*
X23271480Y17820641D02*
D03*
X23266400Y18323560D02*
D03*
X23261320Y18826480D02*
D03*
X23256239Y19329401D02*
D03*
X26380441Y20269200D02*
D03*
X25633679Y20266660D02*
D03*
X10128240Y20247461D02*
D03*
X23583900Y8544560D02*
D03*
X23187660D02*
D03*
X22760941D02*
D03*
X22344380Y8554720D02*
D03*
X21932899Y8564880D02*
D03*
X25514301Y8575040D02*
D03*
X26017221Y8578720D02*
D03*
X24005081Y8718060D02*
D03*
X23347681Y9941560D02*
D03*
X21254720Y9926320D02*
D03*
X21818600Y9936480D02*
D03*
X22100540Y9941560D02*
D03*
X22382480Y9946640D02*
D03*
X20375880Y10142220D02*
D03*
X20169440Y10436860D02*
D03*
X21099780Y10513060D02*
D03*
X20749260Y11236960D02*
D03*
X19448779Y10078720D02*
D03*
X19795140Y9717340D02*
D03*
X19381120Y9135680D02*
D03*
X20564760Y9359200D02*
D03*
X20061839Y8658160D02*
D03*
X17617439Y8783320D02*
D03*
X18725580Y8761380D02*
D03*
X18747740Y9413240D02*
D03*
X17258600Y9387840D02*
D03*
X11307380Y9371680D02*
D03*
X12750000Y9375000D02*
D03*
X13009880Y9733280D02*
D03*
X12423140Y9641840D02*
D03*
X13718320Y10620880D02*
D03*
X12968320Y10245880D02*
D03*
X11468320D02*
D03*
X12218320Y10620880D02*
D03*
X11843320Y11663680D02*
D03*
Y12451080D02*
D03*
X12593320Y11370880D02*
D03*
Y14254480D02*
D03*
Y13620880D02*
D03*
Y12870880D02*
D03*
Y12120880D02*
D03*
X14193520Y13141960D02*
D03*
X13358560Y12923520D02*
D03*
X13493179Y13268961D02*
D03*
Y14345920D02*
D03*
X13738860Y14076680D02*
D03*
X14180820Y14061440D02*
D03*
X14170660Y14513560D02*
D03*
X14686279Y14904720D02*
D03*
X14622780Y14523720D02*
D03*
X16875760Y15402560D02*
D03*
X16629379Y15725140D02*
D03*
X16151860Y15300960D02*
D03*
X16441420Y15407640D02*
D03*
X15439960Y14904720D02*
D03*
X15140240Y14599921D02*
D03*
X19253200Y15260320D02*
D03*
X19452020Y13502640D02*
D03*
X19446240Y13850620D02*
D03*
X22691660Y14069060D02*
D03*
X26299161Y8583800D02*
D03*
Y9333800D02*
D03*
Y10083800D02*
D03*
Y10815060D02*
D03*
Y11565060D02*
D03*
Y12315060D02*
D03*
Y13065060D02*
D03*
X26314401Y14577240D02*
D03*
Y15327240D02*
D03*
Y16077240D02*
D03*
Y16827240D02*
D03*
Y17577240D02*
D03*
Y18327240D02*
D03*
Y19077240D02*
D03*
X24750002Y19875002D02*
D03*
X24000002D02*
D03*
X23250002D02*
D03*
X22500002D02*
D03*
X14793927Y20063786D02*
D03*
X11430000Y20109180D02*
D03*
X12176760Y20111720D02*
D03*
X11808460Y19448779D02*
D03*
X12623706Y17284795D02*
D03*
X14579581Y15682950D02*
D03*
X12214860Y16842740D02*
D03*
X13241020Y15773399D02*
D03*
X12560300Y14874240D02*
D03*
X12756538Y14427858D02*
D03*
X12702540Y14772639D02*
D03*
X10993120Y15003780D02*
D03*
X15514320Y18529300D02*
D03*
X23723599Y14493240D02*
D03*
X23655286Y14211780D02*
D03*
X14198599Y18082260D02*
D03*
X15382240Y18414999D02*
D03*
X25709879Y13182600D02*
D03*
X16758920Y15951199D02*
D03*
X24879300Y10139680D02*
D03*
X24884380Y10414000D02*
D03*
X24958040Y10716260D02*
D03*
X25021539Y10901680D02*
D03*
X25633679Y12936220D02*
D03*
X25560020Y12682220D02*
D03*
X25483820Y12425680D02*
D03*
X25407620Y12161520D02*
D03*
X25331419Y11902440D02*
D03*
X25255220Y11714480D02*
D03*
X25179021Y11412220D02*
D03*
X25100281Y11158220D02*
D03*
X24698959Y12212320D02*
D03*
X24651180Y11785600D02*
D03*
Y11887200D02*
D03*
X23817580Y13909039D02*
D03*
X24193279Y13758958D02*
D03*
X14008099Y15557500D02*
D03*
X13916660Y17261839D02*
D03*
X13454379Y16941800D02*
D03*
X12923520Y16593820D02*
D03*
X13754100Y16667480D02*
D03*
X14168120Y17012920D02*
D03*
X14559280Y16581120D02*
D03*
X14157961Y16162019D02*
D03*
X18615660Y9837420D02*
D03*
X18414999Y9824720D02*
D03*
X18163541Y9817100D02*
D03*
X16461740Y11605260D02*
D03*
X16546690Y11614010D02*
D03*
X16537939Y12006580D02*
D03*
X16405859Y12471400D02*
D03*
X16372839Y11592560D02*
D03*
X16498570Y12474580D02*
D03*
X17899380Y9827260D02*
D03*
X16868140Y12094062D02*
D03*
X17932401Y12065000D02*
D03*
X24564340Y9014460D02*
D03*
X24183340Y9022080D02*
D03*
X25471120Y19837399D02*
D03*
X25311099Y19832320D02*
D03*
X25488901Y15511780D02*
D03*
X25331419Y15509241D02*
D03*
X10825480Y10132060D02*
D03*
X10980420Y10134600D02*
D03*
X10830560Y15003780D02*
D03*
X11122660Y15036800D02*
D03*
Y14597380D02*
D03*
X10198100Y10524490D02*
D03*
Y10627360D02*
D03*
Y10424160D02*
D03*
X21701759Y14472920D02*
D03*
X21973540Y14483080D02*
D03*
X22133560Y14599921D02*
D03*
X18534380Y10957560D02*
D03*
X18529300Y11257280D02*
D03*
X22633940Y10162540D02*
D03*
X21158200Y15664180D02*
D03*
X20510500Y15003780D02*
D03*
X20886420Y15560040D02*
D03*
X17188181Y12532360D02*
D03*
X16824960Y12694920D02*
D03*
X16312408Y12464886D02*
D03*
X17115541Y10184618D02*
D03*
X16711681Y10187158D02*
D03*
X16541501Y10182078D02*
D03*
Y10270978D02*
D03*
X16711681D02*
D03*
X16945361D02*
D03*
X17115541Y10268438D02*
D03*
X16945361Y10187158D02*
D03*
X19738341Y12743180D02*
D03*
X23535640Y10604500D02*
D03*
X23385780Y8958580D02*
D03*
X22959061D02*
D03*
X15516859Y8796020D02*
D03*
X21717000Y8978900D02*
D03*
X22542500Y8968740D02*
D03*
X22131020Y8978900D02*
D03*
X13284200Y10675620D02*
D03*
X13276579Y10546080D02*
D03*
X13271500Y10414000D02*
D03*
X10342880Y9634220D02*
D03*
X10182860Y9631680D02*
D03*
X10345420Y9756140D02*
D03*
X10182860Y9753600D02*
D03*
X13809979Y19875500D02*
D03*
Y20045680D02*
D03*
X12567920Y20045680D02*
D03*
Y19875500D02*
D03*
X15173959Y18425160D02*
D03*
X15003780Y18343880D02*
D03*
X15173959Y18341341D02*
D03*
X15288260D02*
D03*
X15003780Y18427699D02*
D03*
X26314401Y19827240D02*
D03*
X25717499D02*
D03*
X25714960Y14988541D02*
D03*
X15226671Y10581011D02*
D03*
X12694920Y18978880D02*
D03*
X10657840Y8686800D02*
D03*
X14124940Y11209020D02*
D03*
X14003020Y11206480D02*
D03*
X14124940Y11285220D02*
D03*
X14003020Y11282680D02*
D03*
X14531340Y13505180D02*
D03*
X13099503Y15801851D02*
D03*
X12821919Y15781020D02*
D03*
X11965940Y15339059D02*
D03*
X12202160Y15001241D02*
D03*
X11696700Y14897099D02*
D03*
X14908481Y12712637D02*
D03*
X15415668Y12435853D02*
D03*
X15577820Y9753600D02*
D03*
X14444980Y8509000D02*
D03*
X13954761Y8783320D02*
D03*
X13655040Y9748520D02*
D03*
X13152119Y9151620D02*
D03*
X12697460Y18829021D02*
D03*
X12623800Y16852901D02*
D03*
X12268200Y16329660D02*
D03*
X11894820Y15996919D02*
D03*
X11942902Y15923082D02*
D03*
X13708380Y19021077D02*
D03*
X13710921Y18929637D02*
D03*
X13335001Y18747740D02*
D03*
X15420340Y20096480D02*
D03*
X12364720Y14533881D02*
D03*
X11343640Y13058141D02*
D03*
X11412220Y12811760D02*
D03*
X11485880Y12580620D02*
D03*
X12593320Y15974060D02*
D03*
X13210539Y16245840D02*
D03*
X12732607Y16050192D02*
D03*
X12456160Y15958820D02*
D03*
X12905740Y16006993D02*
D03*
X15270480Y16405859D02*
D03*
X14932660Y16543021D02*
D03*
X11320780Y12298680D02*
D03*
X11788140Y15224760D02*
D03*
X12153900Y15521941D02*
D03*
X11320780Y12029440D02*
D03*
X13514188Y15964848D02*
D03*
X13321674Y16157565D02*
D03*
X11315700Y11783060D02*
D03*
X11310620Y11534140D02*
D03*
X14317979Y15242540D02*
D03*
X13791891Y15771169D02*
D03*
X23939030Y13983093D02*
D03*
X24290021Y13830299D02*
D03*
X23809959Y13190221D02*
D03*
X21079460Y16416441D02*
D03*
X20698460Y15024100D02*
D03*
X22133560Y14716760D02*
D03*
X25544780Y14988541D02*
D03*
X23891240Y14419580D02*
D03*
X23807420Y14350999D02*
D03*
X22291040Y14599921D02*
D03*
X22293581Y14716760D02*
D03*
X15011400Y12268200D02*
D03*
X14419580Y13253720D02*
D03*
X20297141Y11084560D02*
D03*
X22046422Y11092958D02*
D03*
X19598640Y15196820D02*
D03*
X16588741Y13916660D02*
D03*
X23385780Y9779000D02*
D03*
X22956520Y9758680D02*
D03*
X13418208Y16061484D02*
D03*
X22547580Y9763760D02*
D03*
X14993620Y9695180D02*
D03*
X14823441D02*
D03*
X14488161D02*
D03*
X14323061D02*
D03*
X21719540Y9743440D02*
D03*
X22131020Y9756140D02*
D03*
X19253200Y10731500D02*
D03*
X17000220Y9923780D02*
D03*
X14719299Y18925540D02*
D03*
X15384779Y18549620D02*
D03*
X15090140Y18727420D02*
D03*
X14541499Y18729961D02*
D03*
X15580360Y12136120D02*
D03*
X15486380Y12133580D02*
D03*
X19845020Y12987019D02*
D03*
X19585941Y12981940D02*
D03*
X20594321Y14879320D02*
D03*
X18341341Y12301220D02*
D03*
X20469859Y14069060D02*
D03*
Y14173199D02*
D03*
X17363440Y12504420D02*
D03*
X20796291Y14874129D02*
D03*
X18237199Y12301220D02*
D03*
X15991840Y12164060D02*
D03*
X23322279Y10474960D02*
D03*
X23037801D02*
D03*
X22755859Y10469880D02*
D03*
X22288499Y10513060D02*
D03*
Y10617200D02*
D03*
X22194521D02*
D03*
Y10513060D02*
D03*
X24399240Y12255500D02*
D03*
X24052827Y10704532D02*
D03*
X24569420Y11887200D02*
D03*
Y11785600D02*
D03*
X23929340Y11569951D02*
D03*
X15422881Y11722100D02*
D03*
X15697200Y11719560D02*
D03*
X22425661Y14328140D02*
D03*
X22463760Y10939780D02*
D03*
X22567900D02*
D03*
Y10838180D02*
D03*
X22463760D02*
D03*
X22723300Y11714480D02*
D03*
X21242020Y14091920D02*
D03*
X23037801Y12344400D02*
D03*
X22133560Y14483080D02*
D03*
X20571460Y14173199D02*
D03*
Y14069060D02*
D03*
X20779739Y13378180D02*
D03*
X17975580Y16344901D02*
D03*
X18122900D02*
D03*
X18437860D02*
D03*
X17355820Y16347440D02*
D03*
X17660620Y16344901D02*
D03*
X19088100Y16347440D02*
D03*
X17820641Y16344901D02*
D03*
X18905220Y16347440D02*
D03*
X17195799D02*
D03*
X18750281D02*
D03*
X18590260D02*
D03*
X17510760D02*
D03*
X18282919Y16344901D02*
D03*
X19418300Y12562840D02*
D03*
X19451320Y12148820D02*
D03*
X16060420Y11638280D02*
D03*
X15539720Y11602080D02*
D03*
X15422881Y11602720D02*
D03*
X15539720Y11719560D02*
D03*
X15379700Y11841480D02*
D03*
X13304520Y14744701D02*
D03*
X14099541Y12395200D02*
D03*
X13914120Y17688560D02*
D03*
X12591526Y16662399D02*
D03*
X15704820Y12456160D02*
D03*
X14739619Y13583920D02*
D03*
X17040860Y15707359D02*
D03*
X20772121Y14041119D02*
D03*
X20776559Y13704900D02*
D03*
X20469859Y12438380D02*
D03*
X20574001D02*
D03*
X20678140D02*
D03*
Y12336780D02*
D03*
Y12235180D02*
D03*
X20574001Y12336780D02*
D03*
Y12235180D02*
D03*
X20469859Y12336780D02*
D03*
Y12235180D02*
D03*
X20231100Y16449040D02*
D03*
X19387820Y16159480D02*
D03*
X22291040Y14480540D02*
D03*
X14198599Y14925040D02*
D03*
X13586459Y13462000D02*
D03*
X23108920Y11262360D02*
D03*
X14185899Y13462000D02*
D03*
X19964400Y12529820D02*
D03*
X19253200Y10629900D02*
D03*
X19357339D02*
D03*
Y10731500D02*
D03*
X20192999Y10982960D02*
D03*
Y11084560D02*
D03*
X20297141Y10982960D02*
D03*
X23037801Y11414760D02*
D03*
X23395650Y12354082D02*
D03*
X23583961Y12352020D02*
D03*
X23373141Y12606020D02*
D03*
X23037801Y12034520D02*
D03*
X23105901Y11105693D02*
D03*
X23990300Y12273280D02*
D03*
X16238220Y13606779D02*
D03*
X23804880Y12730480D02*
D03*
X23802341Y12560300D02*
D03*
X13599159Y11968480D02*
D03*
D93*
X19023634Y15666844D02*
D03*
D104*
X22136099Y9141460D02*
D03*
Y9588500D02*
D03*
X22547580Y9144000D02*
D03*
Y9591040D02*
D03*
X21717000Y9141460D02*
D03*
Y9588500D02*
D03*
X23385780Y9141460D02*
D03*
Y9588500D02*
D03*
X22959061Y9141460D02*
D03*
Y9588500D02*
D03*
X20076160Y8859520D02*
D03*
Y8412480D02*
D03*
Y9448800D02*
D03*
Y9895840D02*
D03*
D105*
X14434602Y9847920D02*
D03*
X14324603D02*
D03*
X14764603D02*
D03*
X14544604D02*
D03*
X14654601D02*
D03*
X14984602D02*
D03*
X15094600D02*
D03*
X15204604D02*
D03*
X14874602D02*
D03*
D106*
X13774599Y8787922D02*
D03*
X15327579D02*
D03*
D107*
X13829599Y9747921D02*
D03*
X15327579D02*
D03*
D108*
X11207420Y9161780D02*
D03*
X12847417D02*
D03*
D109*
X20276820Y9141460D02*
D03*
X19829781D02*
D03*
X19121120D02*
D03*
X19568159D02*
D03*
X20530820Y9144000D02*
D03*
X20977859D02*
D03*
D110*
X20284441Y12161520D02*
Y12466320D01*
X20007581Y12743180D02*
X20284441Y12466320D01*
X19738341Y12743180D02*
X20007581D01*
X19870419Y11747500D02*
X20284441Y12161520D01*
X19776440Y11747500D02*
X19870419D01*
X19773900Y11656060D02*
X19776440Y11658600D01*
Y11747500D01*
D111*
X15595769Y13752831D02*
X15760699D01*
X15541158Y13698219D02*
X15595769Y13752831D01*
D112*
X21508720Y13248640D02*
X22026880Y12730480D01*
X20807680Y15560040D02*
X21508720Y14859000D01*
X22026880Y11356340D02*
X22453600Y10929620D01*
X22026880Y11356340D02*
Y12730480D01*
X21508720Y13248640D02*
Y14859000D01*
X19130438Y15560040D02*
X20807680D01*
%TF.MD5,bc63f57eb2995533d0918717b892a39e*%
M02*
