%TF.GenerationSoftware,Altium Limited,Altium Designer,22.10.1 (41)*%
G04 Layer_Color=8388736*
%FSLAX45Y45*%
%MOMM*%
%TF.SameCoordinates,FE0E7334-CCE0-4667-BD18-01278DCCDDAB*%
%TF.FilePolarity,Negative*%
%TF.FileFunction,Soldermask,Top*%
%TF.Part,Single*%
G01*
G75*
%TA.AperFunction,SMDPad,CuDef*%
%ADD61R,0.97790X0.55880*%
%ADD63R,0.55880X0.97790*%
%ADD119R,0.65000X1.55000*%
%ADD120R,0.35000X1.55000*%
G04:AMPARAMS|DCode=124|XSize=1.55mm|YSize=3.05mm|CornerRadius=0.4mm|HoleSize=0mm|Usage=FLASHONLY|Rotation=0.000|XOffset=0mm|YOffset=0mm|HoleType=Round|Shape=RoundedRectangle|*
%AMROUNDEDRECTD124*
21,1,1.55000,2.25000,0,0,0.0*
21,1,0.75000,3.05000,0,0,0.0*
1,1,0.80000,0.37500,-1.12500*
1,1,0.80000,-0.37500,-1.12500*
1,1,0.80000,-0.37500,1.12500*
1,1,0.80000,0.37500,1.12500*
%
%ADD124ROUNDEDRECTD124*%
%ADD125R,1.55000X3.05000*%
%ADD126R,2.05000X3.05000*%
%ADD128R,1.55000X1.45000*%
%ADD129R,1.20400X1.60400*%
%ADD130R,0.90000X0.95000*%
%ADD131R,0.95000X0.90000*%
G04:AMPARAMS|DCode=132|XSize=0.95mm|YSize=0.9mm|CornerRadius=0mm|HoleSize=0mm|Usage=FLASHONLY|Rotation=135.000|XOffset=0mm|YOffset=0mm|HoleType=Round|Shape=Rectangle|*
%AMROTATEDRECTD132*
4,1,4,0.65408,-0.01768,0.01768,-0.65408,-0.65408,0.01768,-0.01768,0.65408,0.65408,-0.01768,0.0*
%
%ADD132ROTATEDRECTD132*%

G04:AMPARAMS|DCode=133|XSize=0.95mm|YSize=0.9mm|CornerRadius=0mm|HoleSize=0mm|Usage=FLASHONLY|Rotation=225.000|XOffset=0mm|YOffset=0mm|HoleType=Round|Shape=Rectangle|*
%AMROTATEDRECTD133*
4,1,4,0.01768,0.65408,0.65408,0.01768,-0.01768,-0.65408,-0.65408,-0.01768,0.01768,0.65408,0.0*
%
%ADD133ROTATEDRECTD133*%

%TA.AperFunction,ComponentPad*%
%ADD134O,1.70100X1.95500*%
%ADD135R,1.70100X1.95500*%
%ADD136C,6.40000*%
%ADD137C,1.05000*%
%ADD138O,1.05000X2.05000*%
%ADD139O,1.05000X2.55000*%
%ADD140O,4.45000X2.25000*%
%ADD141O,2.05000X4.05000*%
%ADD142O,4.05000X2.05000*%
%ADD143C,1.10000*%
%ADD144C,1.35000*%
%TA.AperFunction,SMDPad,CuDef*%
%ADD148C,2.05000*%
%ADD149R,1.43199X0.96400*%
G04:AMPARAMS|DCode=150|XSize=0.6mm|YSize=0.65mm|CornerRadius=0mm|HoleSize=0mm|Usage=FLASHONLY|Rotation=45.000|XOffset=0mm|YOffset=0mm|HoleType=Round|Shape=Rectangle|*
%AMROTATEDRECTD150*
4,1,4,0.01768,-0.44194,-0.44194,0.01768,-0.01768,0.44194,0.44194,-0.01768,0.01768,-0.44194,0.0*
%
%ADD150ROTATEDRECTD150*%

%ADD151R,1.25000X1.45000*%
%ADD152R,1.05000X5.25000*%
%ADD153R,0.75000X1.55000*%
%ADD154R,1.60000X2.45000*%
%ADD155O,1.00000X0.25000*%
%ADD156O,0.25000X1.00000*%
%ADD157R,6.79000X6.79000*%
%ADD158O,0.90000X0.30000*%
%ADD159O,0.30000X0.90000*%
%ADD160R,1.55000X1.55000*%
%ADD161O,0.90000X0.35000*%
%ADD162O,0.35000X0.90000*%
G04:AMPARAMS|DCode=163|XSize=1.25mm|YSize=0.37mm|CornerRadius=0mm|HoleSize=0mm|Usage=FLASHONLY|Rotation=45.000|XOffset=0mm|YOffset=0mm|HoleType=Round|Shape=Rectangle|*
%AMROTATEDRECTD163*
4,1,4,-0.31113,-0.57276,-0.57276,-0.31113,0.31113,0.57276,0.57276,0.31113,-0.31113,-0.57276,0.0*
%
%ADD163ROTATEDRECTD163*%

G04:AMPARAMS|DCode=164|XSize=0.37mm|YSize=1.25mm|CornerRadius=0mm|HoleSize=0mm|Usage=FLASHONLY|Rotation=45.000|XOffset=0mm|YOffset=0mm|HoleType=Round|Shape=Rectangle|*
%AMROTATEDRECTD164*
4,1,4,0.31113,-0.57276,-0.57276,0.31113,-0.31113,0.57276,0.57276,-0.31113,0.31113,-0.57276,0.0*
%
%ADD164ROTATEDRECTD164*%

G04:AMPARAMS|DCode=165|XSize=3.455mm|YSize=9.76718mm|CornerRadius=0.3655mm|HoleSize=0mm|Usage=FLASHONLY|Rotation=180.000|XOffset=0mm|YOffset=0mm|HoleType=Round|Shape=RoundedRectangle|*
%AMROUNDEDRECTD165*
21,1,3.45500,9.03618,0,0,180.0*
21,1,2.72400,9.76718,0,0,180.0*
1,1,0.73100,-1.36200,4.51809*
1,1,0.73100,1.36200,4.51809*
1,1,0.73100,1.36200,-4.51809*
1,1,0.73100,-1.36200,-4.51809*
%
%ADD165ROUNDEDRECTD165*%
G04:AMPARAMS|DCode=166|XSize=1.66mm|YSize=0.63mm|CornerRadius=0.0975mm|HoleSize=0mm|Usage=FLASHONLY|Rotation=270.000|XOffset=0mm|YOffset=0mm|HoleType=Round|Shape=RoundedRectangle|*
%AMROUNDEDRECTD166*
21,1,1.66000,0.43500,0,0,270.0*
21,1,1.46500,0.63000,0,0,270.0*
1,1,0.19500,-0.21750,-0.73250*
1,1,0.19500,-0.21750,0.73250*
1,1,0.19500,0.21750,0.73250*
1,1,0.19500,0.21750,-0.73250*
%
%ADD166ROUNDEDRECTD166*%
%ADD167R,0.85000X0.85000*%
%ADD168R,0.65000X1.75000*%
%ADD169R,2.55000X2.85000*%
%ADD170R,0.35000X2.05000*%
%ADD171R,4.25000X1.32000*%
%ADD172R,2.55000X6.35000*%
%ADD173R,2.75000X5.95000*%
%ADD174R,3.35000X1.55000*%
%ADD175R,3.55000X3.00000*%
%ADD176R,1.28000X1.85000*%
%ADD177R,1.90000X1.45000*%
%ADD178R,0.71000X0.97200*%
%ADD179R,0.97200X0.71000*%
G04:AMPARAMS|DCode=180|XSize=0.972mm|YSize=0.71mm|CornerRadius=0mm|HoleSize=0mm|Usage=FLASHONLY|Rotation=135.000|XOffset=0mm|YOffset=0mm|HoleType=Round|Shape=Rectangle|*
%AMROTATEDRECTD180*
4,1,4,0.59468,-0.09263,0.09263,-0.59468,-0.59468,0.09263,-0.09263,0.59468,0.59468,-0.09263,0.0*
%
%ADD180ROTATEDRECTD180*%

G04:AMPARAMS|DCode=181|XSize=0.972mm|YSize=0.71mm|CornerRadius=0mm|HoleSize=0mm|Usage=FLASHONLY|Rotation=225.000|XOffset=0mm|YOffset=0mm|HoleType=Round|Shape=Rectangle|*
%AMROTATEDRECTD181*
4,1,4,0.09263,0.59468,0.59468,0.09263,-0.09263,-0.59468,-0.59468,-0.09263,0.09263,0.59468,0.0*
%
%ADD181ROTATEDRECTD181*%

%ADD182R,1.45000X1.90000*%
%ADD183R,1.85000X1.28000*%
%ADD184R,2.45000X1.60000*%
%ADD185R,5.95000X2.75000*%
%ADD186R,1.60400X1.20400*%
G04:AMPARAMS|DCode=187|XSize=1.204mm|YSize=1.604mm|CornerRadius=0mm|HoleSize=0mm|Usage=FLASHONLY|Rotation=225.000|XOffset=0mm|YOffset=0mm|HoleType=Round|Shape=Rectangle|*
%AMROTATEDRECTD187*
4,1,4,-0.14142,0.99278,0.99278,-0.14142,0.14142,-0.99278,-0.99278,0.14142,-0.14142,0.99278,0.0*
%
%ADD187ROTATEDRECTD187*%

G04:AMPARAMS|DCode=188|XSize=1.45mm|YSize=1.25mm|CornerRadius=0mm|HoleSize=0mm|Usage=FLASHONLY|Rotation=45.000|XOffset=0mm|YOffset=0mm|HoleType=Round|Shape=Rectangle|*
%AMROTATEDRECTD188*
4,1,4,-0.07071,-0.95460,-0.95460,-0.07071,0.07071,0.95460,0.95460,0.07071,-0.07071,-0.95460,0.0*
%
%ADD188ROTATEDRECTD188*%

%TA.AperFunction,ViaPad*%
%ADD189C,0.80400*%
%ADD190C,0.65000*%
G36*
X20876559Y13744901D02*
Y13664900D01*
X20776559Y13564900D01*
X20676559Y13664900D01*
Y13744901D01*
X20776559Y13844901D01*
X20876559Y13744901D01*
D02*
G37*
G36*
X23275607Y12380451D02*
X23275807D01*
X23276106Y12380351D01*
X23276308D01*
X23276607Y12380251D01*
X23276807Y12380151D01*
X23277107Y12380051D01*
X23277307Y12379851D01*
X23277507Y12379751D01*
X23277707Y12379551D01*
X23277907Y12379451D01*
X23278107Y12379251D01*
X23278307Y12379051D01*
X23278506Y12378851D01*
X23278706Y12378651D01*
X23278807Y12378451D01*
X23279007Y12378251D01*
X23279108Y12378051D01*
X23279308Y12377851D01*
X23279407Y12377551D01*
X23279507Y12377351D01*
X23279607Y12377051D01*
Y12376851D01*
X23279707Y12376551D01*
Y12376351D01*
X23279807Y12376051D01*
Y12375851D01*
Y12375551D01*
Y12330551D01*
Y12330251D01*
Y12330051D01*
X23279707Y12329751D01*
Y12329551D01*
X23279607Y12329251D01*
Y12329051D01*
X23279507Y12328751D01*
X23279407Y12328551D01*
X23279308Y12328251D01*
X23279108Y12328051D01*
X23279007Y12327851D01*
X23278807Y12327651D01*
X23278706Y12327451D01*
X23278506Y12327251D01*
X23278307Y12327051D01*
X23278107Y12326851D01*
X23277907Y12326651D01*
X23277707Y12326551D01*
X23277507Y12326351D01*
X23277307Y12326251D01*
X23277107Y12326051D01*
X23276807Y12325951D01*
X23276607Y12325851D01*
X23276308Y12325751D01*
X23276106D01*
X23275807Y12325651D01*
X23275607D01*
X23275307Y12325551D01*
X23124307D01*
X23124007Y12325651D01*
X23123807D01*
X23123508Y12325751D01*
X23123306D01*
X23123007Y12325851D01*
X23122807Y12325951D01*
X23122507Y12326051D01*
X23122307Y12326251D01*
X23122107Y12326351D01*
X23121907Y12326551D01*
X23121707Y12326651D01*
X23121507Y12326851D01*
X23121307Y12327051D01*
X23121107Y12327251D01*
X23120908Y12327451D01*
X23120807Y12327651D01*
X23120607Y12327851D01*
X23120506Y12328051D01*
X23120306Y12328251D01*
X23120207Y12328551D01*
X23120107Y12328751D01*
X23120007Y12329051D01*
Y12329251D01*
X23119907Y12329551D01*
Y12329751D01*
X23119807Y12330051D01*
Y12330251D01*
Y12330551D01*
Y12375551D01*
Y12375851D01*
Y12376051D01*
X23119907Y12376351D01*
Y12376551D01*
X23120007Y12376851D01*
Y12377051D01*
X23120107Y12377351D01*
X23120207Y12377551D01*
X23120306Y12377851D01*
X23120506Y12378051D01*
X23120607Y12378251D01*
X23120807Y12378451D01*
X23120908Y12378651D01*
X23121107Y12378851D01*
X23121307Y12379051D01*
X23121507Y12379251D01*
X23121707Y12379451D01*
X23121907Y12379551D01*
X23122107Y12379751D01*
X23122307Y12379851D01*
X23122507Y12380051D01*
X23122807Y12380151D01*
X23123007Y12380251D01*
X23123306Y12380351D01*
X23123508D01*
X23123807Y12380451D01*
X23124007D01*
X23124307Y12380551D01*
X23275307D01*
X23275607Y12380451D01*
D02*
G37*
G36*
Y12315451D02*
X23275807D01*
X23276106Y12315351D01*
X23276308D01*
X23276607Y12315251D01*
X23276807Y12315151D01*
X23277107Y12315051D01*
X23277307Y12314851D01*
X23277507Y12314751D01*
X23277707Y12314551D01*
X23277907Y12314451D01*
X23278107Y12314251D01*
X23278307Y12314051D01*
X23278506Y12313851D01*
X23278706Y12313651D01*
X23278807Y12313451D01*
X23279007Y12313251D01*
X23279108Y12313051D01*
X23279308Y12312851D01*
X23279407Y12312551D01*
X23279507Y12312351D01*
X23279607Y12312051D01*
Y12311851D01*
X23279707Y12311551D01*
Y12311351D01*
X23279807Y12311051D01*
Y12310851D01*
Y12310551D01*
Y12265551D01*
Y12265251D01*
Y12265051D01*
X23279707Y12264751D01*
Y12264551D01*
X23279607Y12264251D01*
Y12264051D01*
X23279507Y12263751D01*
X23279407Y12263551D01*
X23279308Y12263251D01*
X23279108Y12263051D01*
X23279007Y12262851D01*
X23278807Y12262651D01*
X23278706Y12262451D01*
X23278506Y12262251D01*
X23278307Y12262051D01*
X23278107Y12261851D01*
X23277907Y12261651D01*
X23277707Y12261551D01*
X23277507Y12261351D01*
X23277307Y12261251D01*
X23277107Y12261051D01*
X23276807Y12260951D01*
X23276607Y12260851D01*
X23276308Y12260751D01*
X23276106D01*
X23275807Y12260651D01*
X23275607D01*
X23275307Y12260551D01*
X23124307D01*
X23124007Y12260651D01*
X23123807D01*
X23123508Y12260751D01*
X23123306D01*
X23123007Y12260851D01*
X23122807Y12260951D01*
X23122507Y12261051D01*
X23122307Y12261251D01*
X23122107Y12261351D01*
X23121907Y12261551D01*
X23121707Y12261651D01*
X23121507Y12261851D01*
X23121307Y12262051D01*
X23121107Y12262251D01*
X23120908Y12262451D01*
X23120807Y12262651D01*
X23120607Y12262851D01*
X23120506Y12263051D01*
X23120306Y12263251D01*
X23120207Y12263551D01*
X23120107Y12263751D01*
X23120007Y12264051D01*
Y12264251D01*
X23119907Y12264551D01*
Y12264751D01*
X23119807Y12265051D01*
Y12265251D01*
Y12265551D01*
Y12310551D01*
Y12310851D01*
Y12311051D01*
X23119907Y12311351D01*
Y12311551D01*
X23120007Y12311851D01*
Y12312051D01*
X23120107Y12312351D01*
X23120207Y12312551D01*
X23120306Y12312851D01*
X23120506Y12313051D01*
X23120607Y12313251D01*
X23120807Y12313451D01*
X23120908Y12313651D01*
X23121107Y12313851D01*
X23121307Y12314051D01*
X23121507Y12314251D01*
X23121707Y12314451D01*
X23121907Y12314551D01*
X23122107Y12314751D01*
X23122307Y12314851D01*
X23122507Y12315051D01*
X23122807Y12315151D01*
X23123007Y12315251D01*
X23123306Y12315351D01*
X23123508D01*
X23123807Y12315451D01*
X23124007D01*
X23124307Y12315551D01*
X23275307D01*
X23275607Y12315451D01*
D02*
G37*
G36*
Y12250451D02*
X23275807D01*
X23276106Y12250351D01*
X23276308D01*
X23276607Y12250251D01*
X23276807Y12250151D01*
X23277107Y12250051D01*
X23277307Y12249851D01*
X23277507Y12249751D01*
X23277707Y12249551D01*
X23277907Y12249451D01*
X23278107Y12249251D01*
X23278307Y12249051D01*
X23278506Y12248851D01*
X23278706Y12248651D01*
X23278807Y12248451D01*
X23279007Y12248251D01*
X23279108Y12248051D01*
X23279308Y12247851D01*
X23279407Y12247551D01*
X23279507Y12247351D01*
X23279607Y12247051D01*
Y12246851D01*
X23279707Y12246551D01*
Y12246351D01*
X23279807Y12246051D01*
Y12245851D01*
Y12245551D01*
Y12200551D01*
Y12200251D01*
Y12200051D01*
X23279707Y12199751D01*
Y12199551D01*
X23279607Y12199251D01*
Y12199051D01*
X23279507Y12198751D01*
X23279407Y12198551D01*
X23279308Y12198251D01*
X23279108Y12198051D01*
X23279007Y12197851D01*
X23278807Y12197651D01*
X23278706Y12197451D01*
X23278506Y12197251D01*
X23278307Y12197051D01*
X23278107Y12196851D01*
X23277907Y12196651D01*
X23277707Y12196551D01*
X23277507Y12196351D01*
X23277307Y12196251D01*
X23277107Y12196051D01*
X23276807Y12195951D01*
X23276607Y12195851D01*
X23276308Y12195751D01*
X23276106D01*
X23275807Y12195651D01*
X23275607D01*
X23275307Y12195551D01*
X23124307D01*
X23124007Y12195651D01*
X23123807D01*
X23123508Y12195751D01*
X23123306D01*
X23123007Y12195851D01*
X23122807Y12195951D01*
X23122507Y12196051D01*
X23122307Y12196251D01*
X23122107Y12196351D01*
X23121907Y12196551D01*
X23121707Y12196651D01*
X23121507Y12196851D01*
X23121307Y12197051D01*
X23121107Y12197251D01*
X23120908Y12197451D01*
X23120807Y12197651D01*
X23120607Y12197851D01*
X23120506Y12198051D01*
X23120306Y12198251D01*
X23120207Y12198551D01*
X23120107Y12198751D01*
X23120007Y12199051D01*
Y12199251D01*
X23119907Y12199551D01*
Y12199751D01*
X23119807Y12200051D01*
Y12200251D01*
Y12200551D01*
Y12245551D01*
Y12245851D01*
Y12246051D01*
X23119907Y12246351D01*
Y12246551D01*
X23120007Y12246851D01*
Y12247051D01*
X23120107Y12247351D01*
X23120207Y12247551D01*
X23120306Y12247851D01*
X23120506Y12248051D01*
X23120607Y12248251D01*
X23120807Y12248451D01*
X23120908Y12248651D01*
X23121107Y12248851D01*
X23121307Y12249051D01*
X23121507Y12249251D01*
X23121707Y12249451D01*
X23121907Y12249551D01*
X23122107Y12249751D01*
X23122307Y12249851D01*
X23122507Y12250051D01*
X23122807Y12250151D01*
X23123007Y12250251D01*
X23123306Y12250351D01*
X23123508D01*
X23123807Y12250451D01*
X23124007D01*
X23124307Y12250551D01*
X23275307D01*
X23275607Y12250451D01*
D02*
G37*
G36*
Y12185451D02*
X23275807D01*
X23276106Y12185351D01*
X23276308D01*
X23276607Y12185251D01*
X23276807Y12185151D01*
X23277107Y12185051D01*
X23277307Y12184851D01*
X23277507Y12184751D01*
X23277707Y12184551D01*
X23277907Y12184451D01*
X23278107Y12184251D01*
X23278307Y12184051D01*
X23278506Y12183851D01*
X23278706Y12183651D01*
X23278807Y12183451D01*
X23279007Y12183251D01*
X23279108Y12183051D01*
X23279308Y12182851D01*
X23279407Y12182551D01*
X23279507Y12182351D01*
X23279607Y12182051D01*
Y12181851D01*
X23279707Y12181551D01*
Y12181351D01*
X23279807Y12181051D01*
Y12180851D01*
Y12180551D01*
Y12135551D01*
Y12135251D01*
Y12135051D01*
X23279707Y12134751D01*
Y12134551D01*
X23279607Y12134251D01*
Y12134051D01*
X23279507Y12133751D01*
X23279407Y12133551D01*
X23279308Y12133251D01*
X23279108Y12133051D01*
X23279007Y12132851D01*
X23278807Y12132651D01*
X23278706Y12132451D01*
X23278506Y12132251D01*
X23278307Y12132051D01*
X23278107Y12131851D01*
X23277907Y12131651D01*
X23277707Y12131551D01*
X23277507Y12131351D01*
X23277307Y12131251D01*
X23277107Y12131051D01*
X23276807Y12130951D01*
X23276607Y12130851D01*
X23276308Y12130751D01*
X23276106D01*
X23275807Y12130651D01*
X23275607D01*
X23275307Y12130551D01*
X23124307D01*
X23124007Y12130651D01*
X23123807D01*
X23123508Y12130751D01*
X23123306D01*
X23123007Y12130851D01*
X23122807Y12130951D01*
X23122507Y12131051D01*
X23122307Y12131251D01*
X23122107Y12131351D01*
X23121907Y12131551D01*
X23121707Y12131651D01*
X23121507Y12131851D01*
X23121307Y12132051D01*
X23121107Y12132251D01*
X23120908Y12132451D01*
X23120807Y12132651D01*
X23120607Y12132851D01*
X23120506Y12133051D01*
X23120306Y12133251D01*
X23120207Y12133551D01*
X23120107Y12133751D01*
X23120007Y12134051D01*
Y12134251D01*
X23119907Y12134551D01*
Y12134751D01*
X23119807Y12135051D01*
Y12135251D01*
Y12135551D01*
Y12180551D01*
Y12180851D01*
Y12181051D01*
X23119907Y12181351D01*
Y12181551D01*
X23120007Y12181851D01*
Y12182051D01*
X23120107Y12182351D01*
X23120207Y12182551D01*
X23120306Y12182851D01*
X23120506Y12183051D01*
X23120607Y12183251D01*
X23120807Y12183451D01*
X23120908Y12183651D01*
X23121107Y12183851D01*
X23121307Y12184051D01*
X23121507Y12184251D01*
X23121707Y12184451D01*
X23121907Y12184551D01*
X23122107Y12184751D01*
X23122307Y12184851D01*
X23122507Y12185051D01*
X23122807Y12185151D01*
X23123007Y12185251D01*
X23123306Y12185351D01*
X23123508D01*
X23123807Y12185451D01*
X23124007D01*
X23124307Y12185551D01*
X23275307D01*
X23275607Y12185451D01*
D02*
G37*
G36*
Y12120451D02*
X23275807D01*
X23276106Y12120351D01*
X23276308D01*
X23276607Y12120251D01*
X23276807Y12120151D01*
X23277107Y12120051D01*
X23277307Y12119851D01*
X23277507Y12119751D01*
X23277707Y12119551D01*
X23277907Y12119451D01*
X23278107Y12119251D01*
X23278307Y12119051D01*
X23278506Y12118851D01*
X23278706Y12118651D01*
X23278807Y12118451D01*
X23279007Y12118251D01*
X23279108Y12118051D01*
X23279308Y12117851D01*
X23279407Y12117551D01*
X23279507Y12117351D01*
X23279607Y12117051D01*
Y12116851D01*
X23279707Y12116551D01*
Y12116351D01*
X23279807Y12116051D01*
Y12115851D01*
Y12115551D01*
Y12070551D01*
Y12070251D01*
Y12070051D01*
X23279707Y12069751D01*
Y12069551D01*
X23279607Y12069251D01*
Y12069051D01*
X23279507Y12068751D01*
X23279407Y12068551D01*
X23279308Y12068251D01*
X23279108Y12068051D01*
X23279007Y12067851D01*
X23278807Y12067651D01*
X23278706Y12067451D01*
X23278506Y12067251D01*
X23278307Y12067051D01*
X23278107Y12066851D01*
X23277907Y12066651D01*
X23277707Y12066551D01*
X23277507Y12066351D01*
X23277307Y12066251D01*
X23277107Y12066051D01*
X23276807Y12065951D01*
X23276607Y12065851D01*
X23276308Y12065751D01*
X23276106D01*
X23275807Y12065651D01*
X23275607D01*
X23275307Y12065551D01*
X23124307D01*
X23124007Y12065651D01*
X23123807D01*
X23123508Y12065751D01*
X23123306D01*
X23123007Y12065851D01*
X23122807Y12065951D01*
X23122507Y12066051D01*
X23122307Y12066251D01*
X23122107Y12066351D01*
X23121907Y12066551D01*
X23121707Y12066651D01*
X23121507Y12066851D01*
X23121307Y12067051D01*
X23121107Y12067251D01*
X23120908Y12067451D01*
X23120807Y12067651D01*
X23120607Y12067851D01*
X23120506Y12068051D01*
X23120306Y12068251D01*
X23120207Y12068551D01*
X23120107Y12068751D01*
X23120007Y12069051D01*
Y12069251D01*
X23119907Y12069551D01*
Y12069751D01*
X23119807Y12070051D01*
Y12070251D01*
Y12070551D01*
Y12115551D01*
Y12115851D01*
Y12116051D01*
X23119907Y12116351D01*
Y12116551D01*
X23120007Y12116851D01*
Y12117051D01*
X23120107Y12117351D01*
X23120207Y12117551D01*
X23120306Y12117851D01*
X23120506Y12118051D01*
X23120607Y12118251D01*
X23120807Y12118451D01*
X23120908Y12118651D01*
X23121107Y12118851D01*
X23121307Y12119051D01*
X23121507Y12119251D01*
X23121707Y12119451D01*
X23121907Y12119551D01*
X23122107Y12119751D01*
X23122307Y12119851D01*
X23122507Y12120051D01*
X23122807Y12120151D01*
X23123007Y12120251D01*
X23123306Y12120351D01*
X23123508D01*
X23123807Y12120451D01*
X23124007D01*
X23124307Y12120551D01*
X23275307D01*
X23275607Y12120451D01*
D02*
G37*
G36*
Y12055451D02*
X23275807D01*
X23276106Y12055351D01*
X23276308D01*
X23276607Y12055251D01*
X23276807Y12055151D01*
X23277107Y12055051D01*
X23277307Y12054851D01*
X23277507Y12054751D01*
X23277707Y12054551D01*
X23277907Y12054451D01*
X23278107Y12054251D01*
X23278307Y12054051D01*
X23278506Y12053851D01*
X23278706Y12053651D01*
X23278807Y12053451D01*
X23279007Y12053251D01*
X23279108Y12053051D01*
X23279308Y12052851D01*
X23279407Y12052551D01*
X23279507Y12052351D01*
X23279607Y12052051D01*
Y12051851D01*
X23279707Y12051551D01*
Y12051351D01*
X23279807Y12051051D01*
Y12050851D01*
Y12050551D01*
Y12005551D01*
Y12005251D01*
Y12005051D01*
X23279707Y12004751D01*
Y12004551D01*
X23279607Y12004251D01*
Y12004051D01*
X23279507Y12003751D01*
X23279407Y12003551D01*
X23279308Y12003251D01*
X23279108Y12003051D01*
X23279007Y12002851D01*
X23278807Y12002651D01*
X23278706Y12002451D01*
X23278506Y12002251D01*
X23278307Y12002051D01*
X23278107Y12001851D01*
X23277907Y12001651D01*
X23277707Y12001551D01*
X23277507Y12001351D01*
X23277307Y12001251D01*
X23277107Y12001051D01*
X23276807Y12000951D01*
X23276607Y12000851D01*
X23276308Y12000751D01*
X23276106D01*
X23275807Y12000651D01*
X23275607D01*
X23275307Y12000551D01*
X23124307D01*
X23124007Y12000651D01*
X23123807D01*
X23123508Y12000751D01*
X23123306D01*
X23123007Y12000851D01*
X23122807Y12000951D01*
X23122507Y12001051D01*
X23122307Y12001251D01*
X23122107Y12001351D01*
X23121907Y12001551D01*
X23121707Y12001651D01*
X23121507Y12001851D01*
X23121307Y12002051D01*
X23121107Y12002251D01*
X23120908Y12002451D01*
X23120807Y12002651D01*
X23120607Y12002851D01*
X23120506Y12003051D01*
X23120306Y12003251D01*
X23120207Y12003551D01*
X23120107Y12003751D01*
X23120007Y12004051D01*
Y12004251D01*
X23119907Y12004551D01*
Y12004751D01*
X23119807Y12005051D01*
Y12005251D01*
Y12005551D01*
Y12050551D01*
Y12050851D01*
Y12051051D01*
X23119907Y12051351D01*
Y12051551D01*
X23120007Y12051851D01*
Y12052051D01*
X23120107Y12052351D01*
X23120207Y12052551D01*
X23120306Y12052851D01*
X23120506Y12053051D01*
X23120607Y12053251D01*
X23120807Y12053451D01*
X23120908Y12053651D01*
X23121107Y12053851D01*
X23121307Y12054051D01*
X23121507Y12054251D01*
X23121707Y12054451D01*
X23121907Y12054551D01*
X23122107Y12054751D01*
X23122307Y12054851D01*
X23122507Y12055051D01*
X23122807Y12055151D01*
X23123007Y12055251D01*
X23123306Y12055351D01*
X23123508D01*
X23123807Y12055451D01*
X23124007D01*
X23124307Y12055551D01*
X23275307D01*
X23275607Y12055451D01*
D02*
G37*
G36*
Y11990451D02*
X23275807D01*
X23276106Y11990351D01*
X23276308D01*
X23276607Y11990251D01*
X23276807Y11990151D01*
X23277107Y11990051D01*
X23277307Y11989851D01*
X23277507Y11989751D01*
X23277707Y11989551D01*
X23277907Y11989451D01*
X23278107Y11989251D01*
X23278307Y11989051D01*
X23278506Y11988851D01*
X23278706Y11988651D01*
X23278807Y11988451D01*
X23279007Y11988251D01*
X23279108Y11988051D01*
X23279308Y11987851D01*
X23279407Y11987551D01*
X23279507Y11987351D01*
X23279607Y11987051D01*
Y11986851D01*
X23279707Y11986551D01*
Y11986351D01*
X23279807Y11986051D01*
Y11985851D01*
Y11985551D01*
Y11940551D01*
Y11940251D01*
Y11940051D01*
X23279707Y11939751D01*
Y11939551D01*
X23279607Y11939251D01*
Y11939051D01*
X23279507Y11938751D01*
X23279407Y11938551D01*
X23279308Y11938251D01*
X23279108Y11938051D01*
X23279007Y11937851D01*
X23278807Y11937651D01*
X23278706Y11937451D01*
X23278506Y11937251D01*
X23278307Y11937051D01*
X23278107Y11936851D01*
X23277907Y11936651D01*
X23277707Y11936551D01*
X23277507Y11936351D01*
X23277307Y11936251D01*
X23277107Y11936051D01*
X23276807Y11935951D01*
X23276607Y11935851D01*
X23276308Y11935751D01*
X23276106D01*
X23275807Y11935651D01*
X23275607D01*
X23275307Y11935551D01*
X23124307D01*
X23124007Y11935651D01*
X23123807D01*
X23123508Y11935751D01*
X23123306D01*
X23123007Y11935851D01*
X23122807Y11935951D01*
X23122507Y11936051D01*
X23122307Y11936251D01*
X23122107Y11936351D01*
X23121907Y11936551D01*
X23121707Y11936651D01*
X23121507Y11936851D01*
X23121307Y11937051D01*
X23121107Y11937251D01*
X23120908Y11937451D01*
X23120807Y11937651D01*
X23120607Y11937851D01*
X23120506Y11938051D01*
X23120306Y11938251D01*
X23120207Y11938551D01*
X23120107Y11938751D01*
X23120007Y11939051D01*
Y11939251D01*
X23119907Y11939551D01*
Y11939751D01*
X23119807Y11940051D01*
Y11940251D01*
Y11940551D01*
Y11985551D01*
Y11985851D01*
Y11986051D01*
X23119907Y11986351D01*
Y11986551D01*
X23120007Y11986851D01*
Y11987051D01*
X23120107Y11987351D01*
X23120207Y11987551D01*
X23120306Y11987851D01*
X23120506Y11988051D01*
X23120607Y11988251D01*
X23120807Y11988451D01*
X23120908Y11988651D01*
X23121107Y11988851D01*
X23121307Y11989051D01*
X23121507Y11989251D01*
X23121707Y11989451D01*
X23121907Y11989551D01*
X23122107Y11989751D01*
X23122307Y11989851D01*
X23122507Y11990051D01*
X23122807Y11990151D01*
X23123007Y11990251D01*
X23123306Y11990351D01*
X23123508D01*
X23123807Y11990451D01*
X23124007D01*
X23124307Y11990551D01*
X23275307D01*
X23275607Y11990451D01*
D02*
G37*
G36*
Y11925451D02*
X23275807D01*
X23276106Y11925351D01*
X23276308D01*
X23276607Y11925251D01*
X23276807Y11925151D01*
X23277107Y11925051D01*
X23277307Y11924851D01*
X23277507Y11924751D01*
X23277707Y11924551D01*
X23277907Y11924451D01*
X23278107Y11924251D01*
X23278307Y11924051D01*
X23278506Y11923851D01*
X23278706Y11923651D01*
X23278807Y11923451D01*
X23279007Y11923251D01*
X23279108Y11923051D01*
X23279308Y11922851D01*
X23279407Y11922551D01*
X23279507Y11922351D01*
X23279607Y11922051D01*
Y11921851D01*
X23279707Y11921551D01*
Y11921351D01*
X23279807Y11921051D01*
Y11920851D01*
Y11920551D01*
Y11875551D01*
Y11875251D01*
Y11875051D01*
X23279707Y11874751D01*
Y11874551D01*
X23279607Y11874251D01*
Y11874051D01*
X23279507Y11873751D01*
X23279407Y11873551D01*
X23279308Y11873251D01*
X23279108Y11873051D01*
X23279007Y11872851D01*
X23278807Y11872651D01*
X23278706Y11872451D01*
X23278506Y11872251D01*
X23278307Y11872051D01*
X23278107Y11871851D01*
X23277907Y11871651D01*
X23277707Y11871551D01*
X23277507Y11871351D01*
X23277307Y11871251D01*
X23277107Y11871051D01*
X23276807Y11870951D01*
X23276607Y11870851D01*
X23276308Y11870751D01*
X23276106D01*
X23275807Y11870651D01*
X23275607D01*
X23275307Y11870551D01*
X23124307D01*
X23124007Y11870651D01*
X23123807D01*
X23123508Y11870751D01*
X23123306D01*
X23123007Y11870851D01*
X23122807Y11870951D01*
X23122507Y11871051D01*
X23122307Y11871251D01*
X23122107Y11871351D01*
X23121907Y11871551D01*
X23121707Y11871651D01*
X23121507Y11871851D01*
X23121307Y11872051D01*
X23121107Y11872251D01*
X23120908Y11872451D01*
X23120807Y11872651D01*
X23120607Y11872851D01*
X23120506Y11873051D01*
X23120306Y11873251D01*
X23120207Y11873551D01*
X23120107Y11873751D01*
X23120007Y11874051D01*
Y11874251D01*
X23119907Y11874551D01*
Y11874751D01*
X23119807Y11875051D01*
Y11875251D01*
Y11875551D01*
Y11920551D01*
Y11920851D01*
Y11921051D01*
X23119907Y11921351D01*
Y11921551D01*
X23120007Y11921851D01*
Y11922051D01*
X23120107Y11922351D01*
X23120207Y11922551D01*
X23120306Y11922851D01*
X23120506Y11923051D01*
X23120607Y11923251D01*
X23120807Y11923451D01*
X23120908Y11923651D01*
X23121107Y11923851D01*
X23121307Y11924051D01*
X23121507Y11924251D01*
X23121707Y11924451D01*
X23121907Y11924551D01*
X23122107Y11924751D01*
X23122307Y11924851D01*
X23122507Y11925051D01*
X23122807Y11925151D01*
X23123007Y11925251D01*
X23123306Y11925351D01*
X23123508D01*
X23123807Y11925451D01*
X23124007D01*
X23124307Y11925551D01*
X23275307D01*
X23275607Y11925451D01*
D02*
G37*
G36*
Y11860451D02*
X23275807D01*
X23276106Y11860351D01*
X23276308D01*
X23276607Y11860251D01*
X23276807Y11860151D01*
X23277107Y11860051D01*
X23277307Y11859851D01*
X23277507Y11859751D01*
X23277707Y11859551D01*
X23277907Y11859451D01*
X23278107Y11859251D01*
X23278307Y11859051D01*
X23278506Y11858851D01*
X23278706Y11858651D01*
X23278807Y11858451D01*
X23279007Y11858251D01*
X23279108Y11858051D01*
X23279308Y11857851D01*
X23279407Y11857551D01*
X23279507Y11857351D01*
X23279607Y11857051D01*
Y11856851D01*
X23279707Y11856551D01*
Y11856351D01*
X23279807Y11856051D01*
Y11855851D01*
Y11855551D01*
Y11810551D01*
Y11810251D01*
Y11810051D01*
X23279707Y11809751D01*
Y11809551D01*
X23279607Y11809251D01*
Y11809051D01*
X23279507Y11808751D01*
X23279407Y11808551D01*
X23279308Y11808251D01*
X23279108Y11808051D01*
X23279007Y11807851D01*
X23278807Y11807651D01*
X23278706Y11807451D01*
X23278506Y11807251D01*
X23278307Y11807051D01*
X23278107Y11806851D01*
X23277907Y11806651D01*
X23277707Y11806551D01*
X23277507Y11806351D01*
X23277307Y11806251D01*
X23277107Y11806051D01*
X23276807Y11805951D01*
X23276607Y11805851D01*
X23276308Y11805751D01*
X23276106D01*
X23275807Y11805651D01*
X23275607D01*
X23275307Y11805551D01*
X23124307D01*
X23124007Y11805651D01*
X23123807D01*
X23123508Y11805751D01*
X23123306D01*
X23123007Y11805851D01*
X23122807Y11805951D01*
X23122507Y11806051D01*
X23122307Y11806251D01*
X23122107Y11806351D01*
X23121907Y11806551D01*
X23121707Y11806651D01*
X23121507Y11806851D01*
X23121307Y11807051D01*
X23121107Y11807251D01*
X23120908Y11807451D01*
X23120807Y11807651D01*
X23120607Y11807851D01*
X23120506Y11808051D01*
X23120306Y11808251D01*
X23120207Y11808551D01*
X23120107Y11808751D01*
X23120007Y11809051D01*
Y11809251D01*
X23119907Y11809551D01*
Y11809751D01*
X23119807Y11810051D01*
Y11810251D01*
Y11810551D01*
Y11855551D01*
Y11855851D01*
Y11856051D01*
X23119907Y11856351D01*
Y11856551D01*
X23120007Y11856851D01*
Y11857051D01*
X23120107Y11857351D01*
X23120207Y11857551D01*
X23120306Y11857851D01*
X23120506Y11858051D01*
X23120607Y11858251D01*
X23120807Y11858451D01*
X23120908Y11858651D01*
X23121107Y11858851D01*
X23121307Y11859051D01*
X23121507Y11859251D01*
X23121707Y11859451D01*
X23121907Y11859551D01*
X23122107Y11859751D01*
X23122307Y11859851D01*
X23122507Y11860051D01*
X23122807Y11860151D01*
X23123007Y11860251D01*
X23123306Y11860351D01*
X23123508D01*
X23123807Y11860451D01*
X23124007D01*
X23124307Y11860551D01*
X23275307D01*
X23275607Y11860451D01*
D02*
G37*
G36*
Y11795451D02*
X23275807D01*
X23276106Y11795351D01*
X23276308D01*
X23276607Y11795251D01*
X23276807Y11795151D01*
X23277107Y11795051D01*
X23277307Y11794851D01*
X23277507Y11794751D01*
X23277707Y11794551D01*
X23277907Y11794451D01*
X23278107Y11794251D01*
X23278307Y11794051D01*
X23278506Y11793851D01*
X23278706Y11793651D01*
X23278807Y11793451D01*
X23279007Y11793251D01*
X23279108Y11793051D01*
X23279308Y11792851D01*
X23279407Y11792551D01*
X23279507Y11792351D01*
X23279607Y11792051D01*
Y11791851D01*
X23279707Y11791551D01*
Y11791351D01*
X23279807Y11791051D01*
Y11790851D01*
Y11790551D01*
Y11745551D01*
Y11745251D01*
Y11745051D01*
X23279707Y11744751D01*
Y11744551D01*
X23279607Y11744251D01*
Y11744051D01*
X23279507Y11743751D01*
X23279407Y11743551D01*
X23279308Y11743251D01*
X23279108Y11743051D01*
X23279007Y11742851D01*
X23278807Y11742651D01*
X23278706Y11742451D01*
X23278506Y11742251D01*
X23278307Y11742051D01*
X23278107Y11741851D01*
X23277907Y11741651D01*
X23277707Y11741551D01*
X23277507Y11741351D01*
X23277307Y11741251D01*
X23277107Y11741051D01*
X23276807Y11740951D01*
X23276607Y11740851D01*
X23276308Y11740751D01*
X23276106D01*
X23275807Y11740651D01*
X23275607D01*
X23275307Y11740551D01*
X23124307D01*
X23124007Y11740651D01*
X23123807D01*
X23123508Y11740751D01*
X23123306D01*
X23123007Y11740851D01*
X23122807Y11740951D01*
X23122507Y11741051D01*
X23122307Y11741251D01*
X23122107Y11741351D01*
X23121907Y11741551D01*
X23121707Y11741651D01*
X23121507Y11741851D01*
X23121307Y11742051D01*
X23121107Y11742251D01*
X23120908Y11742451D01*
X23120807Y11742651D01*
X23120607Y11742851D01*
X23120506Y11743051D01*
X23120306Y11743251D01*
X23120207Y11743551D01*
X23120107Y11743751D01*
X23120007Y11744051D01*
Y11744251D01*
X23119907Y11744551D01*
Y11744751D01*
X23119807Y11745051D01*
Y11745251D01*
Y11745551D01*
Y11790551D01*
Y11790851D01*
Y11791051D01*
X23119907Y11791351D01*
Y11791551D01*
X23120007Y11791851D01*
Y11792051D01*
X23120107Y11792351D01*
X23120207Y11792551D01*
X23120306Y11792851D01*
X23120506Y11793051D01*
X23120607Y11793251D01*
X23120807Y11793451D01*
X23120908Y11793651D01*
X23121107Y11793851D01*
X23121307Y11794051D01*
X23121507Y11794251D01*
X23121707Y11794451D01*
X23121907Y11794551D01*
X23122107Y11794751D01*
X23122307Y11794851D01*
X23122507Y11795051D01*
X23122807Y11795151D01*
X23123007Y11795251D01*
X23123306Y11795351D01*
X23123508D01*
X23123807Y11795451D01*
X23124007D01*
X23124307Y11795551D01*
X23275307D01*
X23275607Y11795451D01*
D02*
G37*
G36*
Y11730451D02*
X23275807D01*
X23276106Y11730351D01*
X23276308D01*
X23276607Y11730251D01*
X23276807Y11730151D01*
X23277107Y11730051D01*
X23277307Y11729851D01*
X23277507Y11729751D01*
X23277707Y11729551D01*
X23277907Y11729451D01*
X23278107Y11729251D01*
X23278307Y11729051D01*
X23278506Y11728851D01*
X23278706Y11728651D01*
X23278807Y11728451D01*
X23279007Y11728251D01*
X23279108Y11728051D01*
X23279308Y11727851D01*
X23279407Y11727551D01*
X23279507Y11727351D01*
X23279607Y11727051D01*
Y11726851D01*
X23279707Y11726551D01*
Y11726351D01*
X23279807Y11726051D01*
Y11725851D01*
Y11725551D01*
Y11680551D01*
Y11680251D01*
Y11680051D01*
X23279707Y11679751D01*
Y11679551D01*
X23279607Y11679251D01*
Y11679051D01*
X23279507Y11678751D01*
X23279407Y11678551D01*
X23279308Y11678251D01*
X23279108Y11678051D01*
X23279007Y11677851D01*
X23278807Y11677651D01*
X23278706Y11677451D01*
X23278506Y11677251D01*
X23278307Y11677051D01*
X23278107Y11676851D01*
X23277907Y11676651D01*
X23277707Y11676551D01*
X23277507Y11676351D01*
X23277307Y11676251D01*
X23277107Y11676051D01*
X23276807Y11675951D01*
X23276607Y11675851D01*
X23276308Y11675751D01*
X23276106D01*
X23275807Y11675651D01*
X23275607D01*
X23275307Y11675551D01*
X23124307D01*
X23124007Y11675651D01*
X23123807D01*
X23123508Y11675751D01*
X23123306D01*
X23123007Y11675851D01*
X23122807Y11675951D01*
X23122507Y11676051D01*
X23122307Y11676251D01*
X23122107Y11676351D01*
X23121907Y11676551D01*
X23121707Y11676651D01*
X23121507Y11676851D01*
X23121307Y11677051D01*
X23121107Y11677251D01*
X23120908Y11677451D01*
X23120807Y11677651D01*
X23120607Y11677851D01*
X23120506Y11678051D01*
X23120306Y11678251D01*
X23120207Y11678551D01*
X23120107Y11678751D01*
X23120007Y11679051D01*
Y11679251D01*
X23119907Y11679551D01*
Y11679751D01*
X23119807Y11680051D01*
Y11680251D01*
Y11680551D01*
Y11725551D01*
Y11725851D01*
Y11726051D01*
X23119907Y11726351D01*
Y11726551D01*
X23120007Y11726851D01*
Y11727051D01*
X23120107Y11727351D01*
X23120207Y11727551D01*
X23120306Y11727851D01*
X23120506Y11728051D01*
X23120607Y11728251D01*
X23120807Y11728451D01*
X23120908Y11728651D01*
X23121107Y11728851D01*
X23121307Y11729051D01*
X23121507Y11729251D01*
X23121707Y11729451D01*
X23121907Y11729551D01*
X23122107Y11729751D01*
X23122307Y11729851D01*
X23122507Y11730051D01*
X23122807Y11730151D01*
X23123007Y11730251D01*
X23123306Y11730351D01*
X23123508D01*
X23123807Y11730451D01*
X23124007D01*
X23124307Y11730551D01*
X23275307D01*
X23275607Y11730451D01*
D02*
G37*
G36*
Y11665451D02*
X23275807D01*
X23276106Y11665351D01*
X23276308D01*
X23276607Y11665251D01*
X23276807Y11665151D01*
X23277107Y11665051D01*
X23277307Y11664851D01*
X23277507Y11664751D01*
X23277707Y11664551D01*
X23277907Y11664451D01*
X23278107Y11664251D01*
X23278307Y11664051D01*
X23278506Y11663851D01*
X23278706Y11663651D01*
X23278807Y11663451D01*
X23279007Y11663251D01*
X23279108Y11663051D01*
X23279308Y11662851D01*
X23279407Y11662551D01*
X23279507Y11662351D01*
X23279607Y11662051D01*
Y11661851D01*
X23279707Y11661551D01*
Y11661351D01*
X23279807Y11661051D01*
Y11660851D01*
Y11660551D01*
Y11615551D01*
Y11615251D01*
Y11615051D01*
X23279707Y11614751D01*
Y11614551D01*
X23279607Y11614251D01*
Y11614051D01*
X23279507Y11613751D01*
X23279407Y11613551D01*
X23279308Y11613251D01*
X23279108Y11613051D01*
X23279007Y11612851D01*
X23278807Y11612651D01*
X23278706Y11612451D01*
X23278506Y11612251D01*
X23278307Y11612051D01*
X23278107Y11611851D01*
X23277907Y11611651D01*
X23277707Y11611551D01*
X23277507Y11611351D01*
X23277307Y11611251D01*
X23277107Y11611051D01*
X23276807Y11610951D01*
X23276607Y11610851D01*
X23276308Y11610751D01*
X23276106D01*
X23275807Y11610651D01*
X23275607D01*
X23275307Y11610551D01*
X23124307D01*
X23124007Y11610651D01*
X23123807D01*
X23123508Y11610751D01*
X23123306D01*
X23123007Y11610851D01*
X23122807Y11610951D01*
X23122507Y11611051D01*
X23122307Y11611251D01*
X23122107Y11611351D01*
X23121907Y11611551D01*
X23121707Y11611651D01*
X23121507Y11611851D01*
X23121307Y11612051D01*
X23121107Y11612251D01*
X23120908Y11612451D01*
X23120807Y11612651D01*
X23120607Y11612851D01*
X23120506Y11613051D01*
X23120306Y11613251D01*
X23120207Y11613551D01*
X23120107Y11613751D01*
X23120007Y11614051D01*
Y11614251D01*
X23119907Y11614551D01*
Y11614751D01*
X23119807Y11615051D01*
Y11615251D01*
Y11615551D01*
Y11660551D01*
Y11660851D01*
Y11661051D01*
X23119907Y11661351D01*
Y11661551D01*
X23120007Y11661851D01*
Y11662051D01*
X23120107Y11662351D01*
X23120207Y11662551D01*
X23120306Y11662851D01*
X23120506Y11663051D01*
X23120607Y11663251D01*
X23120807Y11663451D01*
X23120908Y11663651D01*
X23121107Y11663851D01*
X23121307Y11664051D01*
X23121507Y11664251D01*
X23121707Y11664451D01*
X23121907Y11664551D01*
X23122107Y11664751D01*
X23122307Y11664851D01*
X23122507Y11665051D01*
X23122807Y11665151D01*
X23123007Y11665251D01*
X23123306Y11665351D01*
X23123508D01*
X23123807Y11665451D01*
X23124007D01*
X23124307Y11665551D01*
X23275307D01*
X23275607Y11665451D01*
D02*
G37*
G36*
Y11600451D02*
X23275807D01*
X23276106Y11600351D01*
X23276308D01*
X23276607Y11600251D01*
X23276807Y11600151D01*
X23277107Y11600051D01*
X23277307Y11599851D01*
X23277507Y11599751D01*
X23277707Y11599551D01*
X23277907Y11599451D01*
X23278107Y11599251D01*
X23278307Y11599051D01*
X23278506Y11598851D01*
X23278706Y11598651D01*
X23278807Y11598451D01*
X23279007Y11598251D01*
X23279108Y11598051D01*
X23279308Y11597851D01*
X23279407Y11597551D01*
X23279507Y11597351D01*
X23279607Y11597051D01*
Y11596851D01*
X23279707Y11596551D01*
Y11596351D01*
X23279807Y11596051D01*
Y11595851D01*
Y11595551D01*
Y11550551D01*
Y11550251D01*
Y11550051D01*
X23279707Y11549751D01*
Y11549551D01*
X23279607Y11549251D01*
Y11549051D01*
X23279507Y11548751D01*
X23279407Y11548551D01*
X23279308Y11548251D01*
X23279108Y11548051D01*
X23279007Y11547851D01*
X23278807Y11547651D01*
X23278706Y11547451D01*
X23278506Y11547251D01*
X23278307Y11547051D01*
X23278107Y11546851D01*
X23277907Y11546651D01*
X23277707Y11546551D01*
X23277507Y11546351D01*
X23277307Y11546251D01*
X23277107Y11546051D01*
X23276807Y11545951D01*
X23276607Y11545851D01*
X23276308Y11545751D01*
X23276106D01*
X23275807Y11545651D01*
X23275607D01*
X23275307Y11545551D01*
X23124307D01*
X23124007Y11545651D01*
X23123807D01*
X23123508Y11545751D01*
X23123306D01*
X23123007Y11545851D01*
X23122807Y11545951D01*
X23122507Y11546051D01*
X23122307Y11546251D01*
X23122107Y11546351D01*
X23121907Y11546551D01*
X23121707Y11546651D01*
X23121507Y11546851D01*
X23121307Y11547051D01*
X23121107Y11547251D01*
X23120908Y11547451D01*
X23120807Y11547651D01*
X23120607Y11547851D01*
X23120506Y11548051D01*
X23120306Y11548251D01*
X23120207Y11548551D01*
X23120107Y11548751D01*
X23120007Y11549051D01*
Y11549251D01*
X23119907Y11549551D01*
Y11549751D01*
X23119807Y11550051D01*
Y11550251D01*
Y11550551D01*
Y11595551D01*
Y11595851D01*
Y11596051D01*
X23119907Y11596351D01*
Y11596551D01*
X23120007Y11596851D01*
Y11597051D01*
X23120107Y11597351D01*
X23120207Y11597551D01*
X23120306Y11597851D01*
X23120506Y11598051D01*
X23120607Y11598251D01*
X23120807Y11598451D01*
X23120908Y11598651D01*
X23121107Y11598851D01*
X23121307Y11599051D01*
X23121507Y11599251D01*
X23121707Y11599451D01*
X23121907Y11599551D01*
X23122107Y11599751D01*
X23122307Y11599851D01*
X23122507Y11600051D01*
X23122807Y11600151D01*
X23123007Y11600251D01*
X23123306Y11600351D01*
X23123508D01*
X23123807Y11600451D01*
X23124007D01*
X23124307Y11600551D01*
X23275307D01*
X23275607Y11600451D01*
D02*
G37*
G36*
Y11535451D02*
X23275807D01*
X23276106Y11535351D01*
X23276308D01*
X23276607Y11535251D01*
X23276807Y11535151D01*
X23277107Y11535051D01*
X23277307Y11534851D01*
X23277507Y11534751D01*
X23277707Y11534551D01*
X23277907Y11534451D01*
X23278107Y11534251D01*
X23278307Y11534051D01*
X23278506Y11533851D01*
X23278706Y11533651D01*
X23278807Y11533451D01*
X23279007Y11533251D01*
X23279108Y11533051D01*
X23279308Y11532851D01*
X23279407Y11532551D01*
X23279507Y11532351D01*
X23279607Y11532051D01*
Y11531851D01*
X23279707Y11531551D01*
Y11531351D01*
X23279807Y11531051D01*
Y11530851D01*
Y11530551D01*
Y11485551D01*
Y11485251D01*
Y11485051D01*
X23279707Y11484751D01*
Y11484551D01*
X23279607Y11484251D01*
Y11484051D01*
X23279507Y11483751D01*
X23279407Y11483551D01*
X23279308Y11483251D01*
X23279108Y11483051D01*
X23279007Y11482851D01*
X23278807Y11482651D01*
X23278706Y11482451D01*
X23278506Y11482251D01*
X23278307Y11482051D01*
X23278107Y11481851D01*
X23277907Y11481651D01*
X23277707Y11481551D01*
X23277507Y11481351D01*
X23277307Y11481251D01*
X23277107Y11481051D01*
X23276807Y11480951D01*
X23276607Y11480851D01*
X23276308Y11480751D01*
X23276106D01*
X23275807Y11480651D01*
X23275607D01*
X23275307Y11480551D01*
X23124307D01*
X23124007Y11480651D01*
X23123807D01*
X23123508Y11480751D01*
X23123306D01*
X23123007Y11480851D01*
X23122807Y11480951D01*
X23122507Y11481051D01*
X23122307Y11481251D01*
X23122107Y11481351D01*
X23121907Y11481551D01*
X23121707Y11481651D01*
X23121507Y11481851D01*
X23121307Y11482051D01*
X23121107Y11482251D01*
X23120908Y11482451D01*
X23120807Y11482651D01*
X23120607Y11482851D01*
X23120506Y11483051D01*
X23120306Y11483251D01*
X23120207Y11483551D01*
X23120107Y11483751D01*
X23120007Y11484051D01*
Y11484251D01*
X23119907Y11484551D01*
Y11484751D01*
X23119807Y11485051D01*
Y11485251D01*
Y11485551D01*
Y11530551D01*
Y11530851D01*
Y11531051D01*
X23119907Y11531351D01*
Y11531551D01*
X23120007Y11531851D01*
Y11532051D01*
X23120107Y11532351D01*
X23120207Y11532551D01*
X23120306Y11532851D01*
X23120506Y11533051D01*
X23120607Y11533251D01*
X23120807Y11533451D01*
X23120908Y11533651D01*
X23121107Y11533851D01*
X23121307Y11534051D01*
X23121507Y11534251D01*
X23121707Y11534451D01*
X23121907Y11534551D01*
X23122107Y11534751D01*
X23122307Y11534851D01*
X23122507Y11535051D01*
X23122807Y11535151D01*
X23123007Y11535251D01*
X23123306Y11535351D01*
X23123508D01*
X23123807Y11535451D01*
X23124007D01*
X23124307Y11535551D01*
X23275307D01*
X23275607Y11535451D01*
D02*
G37*
G36*
X23855608Y12380451D02*
X23855807D01*
X23856107Y12380351D01*
X23856306D01*
X23856607Y12380251D01*
X23856807Y12380151D01*
X23857108Y12380051D01*
X23857307Y12379851D01*
X23857507Y12379751D01*
X23857707Y12379551D01*
X23857907Y12379451D01*
X23858107Y12379251D01*
X23858307Y12379051D01*
X23858507Y12378851D01*
X23858707Y12378651D01*
X23858807Y12378451D01*
X23859007Y12378251D01*
X23859106Y12378051D01*
X23859306Y12377851D01*
X23859407Y12377551D01*
X23859508Y12377351D01*
X23859607Y12377051D01*
Y12376851D01*
X23859708Y12376551D01*
Y12376351D01*
X23859807Y12376051D01*
Y12375851D01*
Y12375551D01*
Y12330551D01*
Y12330251D01*
Y12330051D01*
X23859708Y12329751D01*
Y12329551D01*
X23859607Y12329251D01*
Y12329051D01*
X23859508Y12328751D01*
X23859407Y12328551D01*
X23859306Y12328251D01*
X23859106Y12328051D01*
X23859007Y12327851D01*
X23858807Y12327651D01*
X23858707Y12327451D01*
X23858507Y12327251D01*
X23858307Y12327051D01*
X23858107Y12326851D01*
X23857907Y12326651D01*
X23857707Y12326551D01*
X23857507Y12326351D01*
X23857307Y12326251D01*
X23857108Y12326051D01*
X23856807Y12325951D01*
X23856607Y12325851D01*
X23856306Y12325751D01*
X23856107D01*
X23855807Y12325651D01*
X23855608D01*
X23855307Y12325551D01*
X23704308D01*
X23704007Y12325651D01*
X23703807D01*
X23703506Y12325751D01*
X23703307D01*
X23703008Y12325851D01*
X23702808Y12325951D01*
X23702507Y12326051D01*
X23702307Y12326251D01*
X23702107Y12326351D01*
X23701907Y12326551D01*
X23701707Y12326651D01*
X23701508Y12326851D01*
X23701308Y12327051D01*
X23701106Y12327251D01*
X23700906Y12327451D01*
X23700807Y12327651D01*
X23700607Y12327851D01*
X23700507Y12328051D01*
X23700307Y12328251D01*
X23700208Y12328551D01*
X23700107Y12328751D01*
X23700008Y12329051D01*
Y12329251D01*
X23699907Y12329551D01*
Y12329751D01*
X23699808Y12330051D01*
Y12330251D01*
Y12330551D01*
Y12375551D01*
Y12375851D01*
Y12376051D01*
X23699907Y12376351D01*
Y12376551D01*
X23700008Y12376851D01*
Y12377051D01*
X23700107Y12377351D01*
X23700208Y12377551D01*
X23700307Y12377851D01*
X23700507Y12378051D01*
X23700607Y12378251D01*
X23700807Y12378451D01*
X23700906Y12378651D01*
X23701106Y12378851D01*
X23701308Y12379051D01*
X23701508Y12379251D01*
X23701707Y12379451D01*
X23701907Y12379551D01*
X23702107Y12379751D01*
X23702307Y12379851D01*
X23702507Y12380051D01*
X23702808Y12380151D01*
X23703008Y12380251D01*
X23703307Y12380351D01*
X23703506D01*
X23703807Y12380451D01*
X23704007D01*
X23704308Y12380551D01*
X23855307D01*
X23855608Y12380451D01*
D02*
G37*
G36*
Y12315451D02*
X23855807D01*
X23856107Y12315351D01*
X23856306D01*
X23856607Y12315251D01*
X23856807Y12315151D01*
X23857108Y12315051D01*
X23857307Y12314851D01*
X23857507Y12314751D01*
X23857707Y12314551D01*
X23857907Y12314451D01*
X23858107Y12314251D01*
X23858307Y12314051D01*
X23858507Y12313851D01*
X23858707Y12313651D01*
X23858807Y12313451D01*
X23859007Y12313251D01*
X23859106Y12313051D01*
X23859306Y12312851D01*
X23859407Y12312551D01*
X23859508Y12312351D01*
X23859607Y12312051D01*
Y12311851D01*
X23859708Y12311551D01*
Y12311351D01*
X23859807Y12311051D01*
Y12310851D01*
Y12310551D01*
Y12265551D01*
Y12265251D01*
Y12265051D01*
X23859708Y12264751D01*
Y12264551D01*
X23859607Y12264251D01*
Y12264051D01*
X23859508Y12263751D01*
X23859407Y12263551D01*
X23859306Y12263251D01*
X23859106Y12263051D01*
X23859007Y12262851D01*
X23858807Y12262651D01*
X23858707Y12262451D01*
X23858507Y12262251D01*
X23858307Y12262051D01*
X23858107Y12261851D01*
X23857907Y12261651D01*
X23857707Y12261551D01*
X23857507Y12261351D01*
X23857307Y12261251D01*
X23857108Y12261051D01*
X23856807Y12260951D01*
X23856607Y12260851D01*
X23856306Y12260751D01*
X23856107D01*
X23855807Y12260651D01*
X23855608D01*
X23855307Y12260551D01*
X23704308D01*
X23704007Y12260651D01*
X23703807D01*
X23703506Y12260751D01*
X23703307D01*
X23703008Y12260851D01*
X23702808Y12260951D01*
X23702507Y12261051D01*
X23702307Y12261251D01*
X23702107Y12261351D01*
X23701907Y12261551D01*
X23701707Y12261651D01*
X23701508Y12261851D01*
X23701308Y12262051D01*
X23701106Y12262251D01*
X23700906Y12262451D01*
X23700807Y12262651D01*
X23700607Y12262851D01*
X23700507Y12263051D01*
X23700307Y12263251D01*
X23700208Y12263551D01*
X23700107Y12263751D01*
X23700008Y12264051D01*
Y12264251D01*
X23699907Y12264551D01*
Y12264751D01*
X23699808Y12265051D01*
Y12265251D01*
Y12265551D01*
Y12310551D01*
Y12310851D01*
Y12311051D01*
X23699907Y12311351D01*
Y12311551D01*
X23700008Y12311851D01*
Y12312051D01*
X23700107Y12312351D01*
X23700208Y12312551D01*
X23700307Y12312851D01*
X23700507Y12313051D01*
X23700607Y12313251D01*
X23700807Y12313451D01*
X23700906Y12313651D01*
X23701106Y12313851D01*
X23701308Y12314051D01*
X23701508Y12314251D01*
X23701707Y12314451D01*
X23701907Y12314551D01*
X23702107Y12314751D01*
X23702307Y12314851D01*
X23702507Y12315051D01*
X23702808Y12315151D01*
X23703008Y12315251D01*
X23703307Y12315351D01*
X23703506D01*
X23703807Y12315451D01*
X23704007D01*
X23704308Y12315551D01*
X23855307D01*
X23855608Y12315451D01*
D02*
G37*
G36*
Y12250451D02*
X23855807D01*
X23856107Y12250351D01*
X23856306D01*
X23856607Y12250251D01*
X23856807Y12250151D01*
X23857108Y12250051D01*
X23857307Y12249851D01*
X23857507Y12249751D01*
X23857707Y12249551D01*
X23857907Y12249451D01*
X23858107Y12249251D01*
X23858307Y12249051D01*
X23858507Y12248851D01*
X23858707Y12248651D01*
X23858807Y12248451D01*
X23859007Y12248251D01*
X23859106Y12248051D01*
X23859306Y12247851D01*
X23859407Y12247551D01*
X23859508Y12247351D01*
X23859607Y12247051D01*
Y12246851D01*
X23859708Y12246551D01*
Y12246351D01*
X23859807Y12246051D01*
Y12245851D01*
Y12245551D01*
Y12200551D01*
Y12200251D01*
Y12200051D01*
X23859708Y12199751D01*
Y12199551D01*
X23859607Y12199251D01*
Y12199051D01*
X23859508Y12198751D01*
X23859407Y12198551D01*
X23859306Y12198251D01*
X23859106Y12198051D01*
X23859007Y12197851D01*
X23858807Y12197651D01*
X23858707Y12197451D01*
X23858507Y12197251D01*
X23858307Y12197051D01*
X23858107Y12196851D01*
X23857907Y12196651D01*
X23857707Y12196551D01*
X23857507Y12196351D01*
X23857307Y12196251D01*
X23857108Y12196051D01*
X23856807Y12195951D01*
X23856607Y12195851D01*
X23856306Y12195751D01*
X23856107D01*
X23855807Y12195651D01*
X23855608D01*
X23855307Y12195551D01*
X23704308D01*
X23704007Y12195651D01*
X23703807D01*
X23703506Y12195751D01*
X23703307D01*
X23703008Y12195851D01*
X23702808Y12195951D01*
X23702507Y12196051D01*
X23702307Y12196251D01*
X23702107Y12196351D01*
X23701907Y12196551D01*
X23701707Y12196651D01*
X23701508Y12196851D01*
X23701308Y12197051D01*
X23701106Y12197251D01*
X23700906Y12197451D01*
X23700807Y12197651D01*
X23700607Y12197851D01*
X23700507Y12198051D01*
X23700307Y12198251D01*
X23700208Y12198551D01*
X23700107Y12198751D01*
X23700008Y12199051D01*
Y12199251D01*
X23699907Y12199551D01*
Y12199751D01*
X23699808Y12200051D01*
Y12200251D01*
Y12200551D01*
Y12245551D01*
Y12245851D01*
Y12246051D01*
X23699907Y12246351D01*
Y12246551D01*
X23700008Y12246851D01*
Y12247051D01*
X23700107Y12247351D01*
X23700208Y12247551D01*
X23700307Y12247851D01*
X23700507Y12248051D01*
X23700607Y12248251D01*
X23700807Y12248451D01*
X23700906Y12248651D01*
X23701106Y12248851D01*
X23701308Y12249051D01*
X23701508Y12249251D01*
X23701707Y12249451D01*
X23701907Y12249551D01*
X23702107Y12249751D01*
X23702307Y12249851D01*
X23702507Y12250051D01*
X23702808Y12250151D01*
X23703008Y12250251D01*
X23703307Y12250351D01*
X23703506D01*
X23703807Y12250451D01*
X23704007D01*
X23704308Y12250551D01*
X23855307D01*
X23855608Y12250451D01*
D02*
G37*
G36*
Y12185451D02*
X23855807D01*
X23856107Y12185351D01*
X23856306D01*
X23856607Y12185251D01*
X23856807Y12185151D01*
X23857108Y12185051D01*
X23857307Y12184851D01*
X23857507Y12184751D01*
X23857707Y12184551D01*
X23857907Y12184451D01*
X23858107Y12184251D01*
X23858307Y12184051D01*
X23858507Y12183851D01*
X23858707Y12183651D01*
X23858807Y12183451D01*
X23859007Y12183251D01*
X23859106Y12183051D01*
X23859306Y12182851D01*
X23859407Y12182551D01*
X23859508Y12182351D01*
X23859607Y12182051D01*
Y12181851D01*
X23859708Y12181551D01*
Y12181351D01*
X23859807Y12181051D01*
Y12180851D01*
Y12180551D01*
Y12135551D01*
Y12135251D01*
Y12135051D01*
X23859708Y12134751D01*
Y12134551D01*
X23859607Y12134251D01*
Y12134051D01*
X23859508Y12133751D01*
X23859407Y12133551D01*
X23859306Y12133251D01*
X23859106Y12133051D01*
X23859007Y12132851D01*
X23858807Y12132651D01*
X23858707Y12132451D01*
X23858507Y12132251D01*
X23858307Y12132051D01*
X23858107Y12131851D01*
X23857907Y12131651D01*
X23857707Y12131551D01*
X23857507Y12131351D01*
X23857307Y12131251D01*
X23857108Y12131051D01*
X23856807Y12130951D01*
X23856607Y12130851D01*
X23856306Y12130751D01*
X23856107D01*
X23855807Y12130651D01*
X23855608D01*
X23855307Y12130551D01*
X23704308D01*
X23704007Y12130651D01*
X23703807D01*
X23703506Y12130751D01*
X23703307D01*
X23703008Y12130851D01*
X23702808Y12130951D01*
X23702507Y12131051D01*
X23702307Y12131251D01*
X23702107Y12131351D01*
X23701907Y12131551D01*
X23701707Y12131651D01*
X23701508Y12131851D01*
X23701308Y12132051D01*
X23701106Y12132251D01*
X23700906Y12132451D01*
X23700807Y12132651D01*
X23700607Y12132851D01*
X23700507Y12133051D01*
X23700307Y12133251D01*
X23700208Y12133551D01*
X23700107Y12133751D01*
X23700008Y12134051D01*
Y12134251D01*
X23699907Y12134551D01*
Y12134751D01*
X23699808Y12135051D01*
Y12135251D01*
Y12135551D01*
Y12180551D01*
Y12180851D01*
Y12181051D01*
X23699907Y12181351D01*
Y12181551D01*
X23700008Y12181851D01*
Y12182051D01*
X23700107Y12182351D01*
X23700208Y12182551D01*
X23700307Y12182851D01*
X23700507Y12183051D01*
X23700607Y12183251D01*
X23700807Y12183451D01*
X23700906Y12183651D01*
X23701106Y12183851D01*
X23701308Y12184051D01*
X23701508Y12184251D01*
X23701707Y12184451D01*
X23701907Y12184551D01*
X23702107Y12184751D01*
X23702307Y12184851D01*
X23702507Y12185051D01*
X23702808Y12185151D01*
X23703008Y12185251D01*
X23703307Y12185351D01*
X23703506D01*
X23703807Y12185451D01*
X23704007D01*
X23704308Y12185551D01*
X23855307D01*
X23855608Y12185451D01*
D02*
G37*
G36*
Y12120451D02*
X23855807D01*
X23856107Y12120351D01*
X23856306D01*
X23856607Y12120251D01*
X23856807Y12120151D01*
X23857108Y12120051D01*
X23857307Y12119851D01*
X23857507Y12119751D01*
X23857707Y12119551D01*
X23857907Y12119451D01*
X23858107Y12119251D01*
X23858307Y12119051D01*
X23858507Y12118851D01*
X23858707Y12118651D01*
X23858807Y12118451D01*
X23859007Y12118251D01*
X23859106Y12118051D01*
X23859306Y12117851D01*
X23859407Y12117551D01*
X23859508Y12117351D01*
X23859607Y12117051D01*
Y12116851D01*
X23859708Y12116551D01*
Y12116351D01*
X23859807Y12116051D01*
Y12115851D01*
Y12115551D01*
Y12070551D01*
Y12070251D01*
Y12070051D01*
X23859708Y12069751D01*
Y12069551D01*
X23859607Y12069251D01*
Y12069051D01*
X23859508Y12068751D01*
X23859407Y12068551D01*
X23859306Y12068251D01*
X23859106Y12068051D01*
X23859007Y12067851D01*
X23858807Y12067651D01*
X23858707Y12067451D01*
X23858507Y12067251D01*
X23858307Y12067051D01*
X23858107Y12066851D01*
X23857907Y12066651D01*
X23857707Y12066551D01*
X23857507Y12066351D01*
X23857307Y12066251D01*
X23857108Y12066051D01*
X23856807Y12065951D01*
X23856607Y12065851D01*
X23856306Y12065751D01*
X23856107D01*
X23855807Y12065651D01*
X23855608D01*
X23855307Y12065551D01*
X23704308D01*
X23704007Y12065651D01*
X23703807D01*
X23703506Y12065751D01*
X23703307D01*
X23703008Y12065851D01*
X23702808Y12065951D01*
X23702507Y12066051D01*
X23702307Y12066251D01*
X23702107Y12066351D01*
X23701907Y12066551D01*
X23701707Y12066651D01*
X23701508Y12066851D01*
X23701308Y12067051D01*
X23701106Y12067251D01*
X23700906Y12067451D01*
X23700807Y12067651D01*
X23700607Y12067851D01*
X23700507Y12068051D01*
X23700307Y12068251D01*
X23700208Y12068551D01*
X23700107Y12068751D01*
X23700008Y12069051D01*
Y12069251D01*
X23699907Y12069551D01*
Y12069751D01*
X23699808Y12070051D01*
Y12070251D01*
Y12070551D01*
Y12115551D01*
Y12115851D01*
Y12116051D01*
X23699907Y12116351D01*
Y12116551D01*
X23700008Y12116851D01*
Y12117051D01*
X23700107Y12117351D01*
X23700208Y12117551D01*
X23700307Y12117851D01*
X23700507Y12118051D01*
X23700607Y12118251D01*
X23700807Y12118451D01*
X23700906Y12118651D01*
X23701106Y12118851D01*
X23701308Y12119051D01*
X23701508Y12119251D01*
X23701707Y12119451D01*
X23701907Y12119551D01*
X23702107Y12119751D01*
X23702307Y12119851D01*
X23702507Y12120051D01*
X23702808Y12120151D01*
X23703008Y12120251D01*
X23703307Y12120351D01*
X23703506D01*
X23703807Y12120451D01*
X23704007D01*
X23704308Y12120551D01*
X23855307D01*
X23855608Y12120451D01*
D02*
G37*
G36*
Y12055451D02*
X23855807D01*
X23856107Y12055351D01*
X23856306D01*
X23856607Y12055251D01*
X23856807Y12055151D01*
X23857108Y12055051D01*
X23857307Y12054851D01*
X23857507Y12054751D01*
X23857707Y12054551D01*
X23857907Y12054451D01*
X23858107Y12054251D01*
X23858307Y12054051D01*
X23858507Y12053851D01*
X23858707Y12053651D01*
X23858807Y12053451D01*
X23859007Y12053251D01*
X23859106Y12053051D01*
X23859306Y12052851D01*
X23859407Y12052551D01*
X23859508Y12052351D01*
X23859607Y12052051D01*
Y12051851D01*
X23859708Y12051551D01*
Y12051351D01*
X23859807Y12051051D01*
Y12050851D01*
Y12050551D01*
Y12005551D01*
Y12005251D01*
Y12005051D01*
X23859708Y12004751D01*
Y12004551D01*
X23859607Y12004251D01*
Y12004051D01*
X23859508Y12003751D01*
X23859407Y12003551D01*
X23859306Y12003251D01*
X23859106Y12003051D01*
X23859007Y12002851D01*
X23858807Y12002651D01*
X23858707Y12002451D01*
X23858507Y12002251D01*
X23858307Y12002051D01*
X23858107Y12001851D01*
X23857907Y12001651D01*
X23857707Y12001551D01*
X23857507Y12001351D01*
X23857307Y12001251D01*
X23857108Y12001051D01*
X23856807Y12000951D01*
X23856607Y12000851D01*
X23856306Y12000751D01*
X23856107D01*
X23855807Y12000651D01*
X23855608D01*
X23855307Y12000551D01*
X23704308D01*
X23704007Y12000651D01*
X23703807D01*
X23703506Y12000751D01*
X23703307D01*
X23703008Y12000851D01*
X23702808Y12000951D01*
X23702507Y12001051D01*
X23702307Y12001251D01*
X23702107Y12001351D01*
X23701907Y12001551D01*
X23701707Y12001651D01*
X23701508Y12001851D01*
X23701308Y12002051D01*
X23701106Y12002251D01*
X23700906Y12002451D01*
X23700807Y12002651D01*
X23700607Y12002851D01*
X23700507Y12003051D01*
X23700307Y12003251D01*
X23700208Y12003551D01*
X23700107Y12003751D01*
X23700008Y12004051D01*
Y12004251D01*
X23699907Y12004551D01*
Y12004751D01*
X23699808Y12005051D01*
Y12005251D01*
Y12005551D01*
Y12050551D01*
Y12050851D01*
Y12051051D01*
X23699907Y12051351D01*
Y12051551D01*
X23700008Y12051851D01*
Y12052051D01*
X23700107Y12052351D01*
X23700208Y12052551D01*
X23700307Y12052851D01*
X23700507Y12053051D01*
X23700607Y12053251D01*
X23700807Y12053451D01*
X23700906Y12053651D01*
X23701106Y12053851D01*
X23701308Y12054051D01*
X23701508Y12054251D01*
X23701707Y12054451D01*
X23701907Y12054551D01*
X23702107Y12054751D01*
X23702307Y12054851D01*
X23702507Y12055051D01*
X23702808Y12055151D01*
X23703008Y12055251D01*
X23703307Y12055351D01*
X23703506D01*
X23703807Y12055451D01*
X23704007D01*
X23704308Y12055551D01*
X23855307D01*
X23855608Y12055451D01*
D02*
G37*
G36*
Y11990451D02*
X23855807D01*
X23856107Y11990351D01*
X23856306D01*
X23856607Y11990251D01*
X23856807Y11990151D01*
X23857108Y11990051D01*
X23857307Y11989851D01*
X23857507Y11989751D01*
X23857707Y11989551D01*
X23857907Y11989451D01*
X23858107Y11989251D01*
X23858307Y11989051D01*
X23858507Y11988851D01*
X23858707Y11988651D01*
X23858807Y11988451D01*
X23859007Y11988251D01*
X23859106Y11988051D01*
X23859306Y11987851D01*
X23859407Y11987551D01*
X23859508Y11987351D01*
X23859607Y11987051D01*
Y11986851D01*
X23859708Y11986551D01*
Y11986351D01*
X23859807Y11986051D01*
Y11985851D01*
Y11985551D01*
Y11940551D01*
Y11940251D01*
Y11940051D01*
X23859708Y11939751D01*
Y11939551D01*
X23859607Y11939251D01*
Y11939051D01*
X23859508Y11938751D01*
X23859407Y11938551D01*
X23859306Y11938251D01*
X23859106Y11938051D01*
X23859007Y11937851D01*
X23858807Y11937651D01*
X23858707Y11937451D01*
X23858507Y11937251D01*
X23858307Y11937051D01*
X23858107Y11936851D01*
X23857907Y11936651D01*
X23857707Y11936551D01*
X23857507Y11936351D01*
X23857307Y11936251D01*
X23857108Y11936051D01*
X23856807Y11935951D01*
X23856607Y11935851D01*
X23856306Y11935751D01*
X23856107D01*
X23855807Y11935651D01*
X23855608D01*
X23855307Y11935551D01*
X23704308D01*
X23704007Y11935651D01*
X23703807D01*
X23703506Y11935751D01*
X23703307D01*
X23703008Y11935851D01*
X23702808Y11935951D01*
X23702507Y11936051D01*
X23702307Y11936251D01*
X23702107Y11936351D01*
X23701907Y11936551D01*
X23701707Y11936651D01*
X23701508Y11936851D01*
X23701308Y11937051D01*
X23701106Y11937251D01*
X23700906Y11937451D01*
X23700807Y11937651D01*
X23700607Y11937851D01*
X23700507Y11938051D01*
X23700307Y11938251D01*
X23700208Y11938551D01*
X23700107Y11938751D01*
X23700008Y11939051D01*
Y11939251D01*
X23699907Y11939551D01*
Y11939751D01*
X23699808Y11940051D01*
Y11940251D01*
Y11940551D01*
Y11985551D01*
Y11985851D01*
Y11986051D01*
X23699907Y11986351D01*
Y11986551D01*
X23700008Y11986851D01*
Y11987051D01*
X23700107Y11987351D01*
X23700208Y11987551D01*
X23700307Y11987851D01*
X23700507Y11988051D01*
X23700607Y11988251D01*
X23700807Y11988451D01*
X23700906Y11988651D01*
X23701106Y11988851D01*
X23701308Y11989051D01*
X23701508Y11989251D01*
X23701707Y11989451D01*
X23701907Y11989551D01*
X23702107Y11989751D01*
X23702307Y11989851D01*
X23702507Y11990051D01*
X23702808Y11990151D01*
X23703008Y11990251D01*
X23703307Y11990351D01*
X23703506D01*
X23703807Y11990451D01*
X23704007D01*
X23704308Y11990551D01*
X23855307D01*
X23855608Y11990451D01*
D02*
G37*
G36*
Y11925451D02*
X23855807D01*
X23856107Y11925351D01*
X23856306D01*
X23856607Y11925251D01*
X23856807Y11925151D01*
X23857108Y11925051D01*
X23857307Y11924851D01*
X23857507Y11924751D01*
X23857707Y11924551D01*
X23857907Y11924451D01*
X23858107Y11924251D01*
X23858307Y11924051D01*
X23858507Y11923851D01*
X23858707Y11923651D01*
X23858807Y11923451D01*
X23859007Y11923251D01*
X23859106Y11923051D01*
X23859306Y11922851D01*
X23859407Y11922551D01*
X23859508Y11922351D01*
X23859607Y11922051D01*
Y11921851D01*
X23859708Y11921551D01*
Y11921351D01*
X23859807Y11921051D01*
Y11920851D01*
Y11920551D01*
Y11875551D01*
Y11875251D01*
Y11875051D01*
X23859708Y11874751D01*
Y11874551D01*
X23859607Y11874251D01*
Y11874051D01*
X23859508Y11873751D01*
X23859407Y11873551D01*
X23859306Y11873251D01*
X23859106Y11873051D01*
X23859007Y11872851D01*
X23858807Y11872651D01*
X23858707Y11872451D01*
X23858507Y11872251D01*
X23858307Y11872051D01*
X23858107Y11871851D01*
X23857907Y11871651D01*
X23857707Y11871551D01*
X23857507Y11871351D01*
X23857307Y11871251D01*
X23857108Y11871051D01*
X23856807Y11870951D01*
X23856607Y11870851D01*
X23856306Y11870751D01*
X23856107D01*
X23855807Y11870651D01*
X23855608D01*
X23855307Y11870551D01*
X23704308D01*
X23704007Y11870651D01*
X23703807D01*
X23703506Y11870751D01*
X23703307D01*
X23703008Y11870851D01*
X23702808Y11870951D01*
X23702507Y11871051D01*
X23702307Y11871251D01*
X23702107Y11871351D01*
X23701907Y11871551D01*
X23701707Y11871651D01*
X23701508Y11871851D01*
X23701308Y11872051D01*
X23701106Y11872251D01*
X23700906Y11872451D01*
X23700807Y11872651D01*
X23700607Y11872851D01*
X23700507Y11873051D01*
X23700307Y11873251D01*
X23700208Y11873551D01*
X23700107Y11873751D01*
X23700008Y11874051D01*
Y11874251D01*
X23699907Y11874551D01*
Y11874751D01*
X23699808Y11875051D01*
Y11875251D01*
Y11875551D01*
Y11920551D01*
Y11920851D01*
Y11921051D01*
X23699907Y11921351D01*
Y11921551D01*
X23700008Y11921851D01*
Y11922051D01*
X23700107Y11922351D01*
X23700208Y11922551D01*
X23700307Y11922851D01*
X23700507Y11923051D01*
X23700607Y11923251D01*
X23700807Y11923451D01*
X23700906Y11923651D01*
X23701106Y11923851D01*
X23701308Y11924051D01*
X23701508Y11924251D01*
X23701707Y11924451D01*
X23701907Y11924551D01*
X23702107Y11924751D01*
X23702307Y11924851D01*
X23702507Y11925051D01*
X23702808Y11925151D01*
X23703008Y11925251D01*
X23703307Y11925351D01*
X23703506D01*
X23703807Y11925451D01*
X23704007D01*
X23704308Y11925551D01*
X23855307D01*
X23855608Y11925451D01*
D02*
G37*
G36*
Y11860451D02*
X23855807D01*
X23856107Y11860351D01*
X23856306D01*
X23856607Y11860251D01*
X23856807Y11860151D01*
X23857108Y11860051D01*
X23857307Y11859851D01*
X23857507Y11859751D01*
X23857707Y11859551D01*
X23857907Y11859451D01*
X23858107Y11859251D01*
X23858307Y11859051D01*
X23858507Y11858851D01*
X23858707Y11858651D01*
X23858807Y11858451D01*
X23859007Y11858251D01*
X23859106Y11858051D01*
X23859306Y11857851D01*
X23859407Y11857551D01*
X23859508Y11857351D01*
X23859607Y11857051D01*
Y11856851D01*
X23859708Y11856551D01*
Y11856351D01*
X23859807Y11856051D01*
Y11855851D01*
Y11855551D01*
Y11810551D01*
Y11810251D01*
Y11810051D01*
X23859708Y11809751D01*
Y11809551D01*
X23859607Y11809251D01*
Y11809051D01*
X23859508Y11808751D01*
X23859407Y11808551D01*
X23859306Y11808251D01*
X23859106Y11808051D01*
X23859007Y11807851D01*
X23858807Y11807651D01*
X23858707Y11807451D01*
X23858507Y11807251D01*
X23858307Y11807051D01*
X23858107Y11806851D01*
X23857907Y11806651D01*
X23857707Y11806551D01*
X23857507Y11806351D01*
X23857307Y11806251D01*
X23857108Y11806051D01*
X23856807Y11805951D01*
X23856607Y11805851D01*
X23856306Y11805751D01*
X23856107D01*
X23855807Y11805651D01*
X23855608D01*
X23855307Y11805551D01*
X23704308D01*
X23704007Y11805651D01*
X23703807D01*
X23703506Y11805751D01*
X23703307D01*
X23703008Y11805851D01*
X23702808Y11805951D01*
X23702507Y11806051D01*
X23702307Y11806251D01*
X23702107Y11806351D01*
X23701907Y11806551D01*
X23701707Y11806651D01*
X23701508Y11806851D01*
X23701308Y11807051D01*
X23701106Y11807251D01*
X23700906Y11807451D01*
X23700807Y11807651D01*
X23700607Y11807851D01*
X23700507Y11808051D01*
X23700307Y11808251D01*
X23700208Y11808551D01*
X23700107Y11808751D01*
X23700008Y11809051D01*
Y11809251D01*
X23699907Y11809551D01*
Y11809751D01*
X23699808Y11810051D01*
Y11810251D01*
Y11810551D01*
Y11855551D01*
Y11855851D01*
Y11856051D01*
X23699907Y11856351D01*
Y11856551D01*
X23700008Y11856851D01*
Y11857051D01*
X23700107Y11857351D01*
X23700208Y11857551D01*
X23700307Y11857851D01*
X23700507Y11858051D01*
X23700607Y11858251D01*
X23700807Y11858451D01*
X23700906Y11858651D01*
X23701106Y11858851D01*
X23701308Y11859051D01*
X23701508Y11859251D01*
X23701707Y11859451D01*
X23701907Y11859551D01*
X23702107Y11859751D01*
X23702307Y11859851D01*
X23702507Y11860051D01*
X23702808Y11860151D01*
X23703008Y11860251D01*
X23703307Y11860351D01*
X23703506D01*
X23703807Y11860451D01*
X23704007D01*
X23704308Y11860551D01*
X23855307D01*
X23855608Y11860451D01*
D02*
G37*
G36*
Y11795451D02*
X23855807D01*
X23856107Y11795351D01*
X23856306D01*
X23856607Y11795251D01*
X23856807Y11795151D01*
X23857108Y11795051D01*
X23857307Y11794851D01*
X23857507Y11794751D01*
X23857707Y11794551D01*
X23857907Y11794451D01*
X23858107Y11794251D01*
X23858307Y11794051D01*
X23858507Y11793851D01*
X23858707Y11793651D01*
X23858807Y11793451D01*
X23859007Y11793251D01*
X23859106Y11793051D01*
X23859306Y11792851D01*
X23859407Y11792551D01*
X23859508Y11792351D01*
X23859607Y11792051D01*
Y11791851D01*
X23859708Y11791551D01*
Y11791351D01*
X23859807Y11791051D01*
Y11790851D01*
Y11790551D01*
Y11745551D01*
Y11745251D01*
Y11745051D01*
X23859708Y11744751D01*
Y11744551D01*
X23859607Y11744251D01*
Y11744051D01*
X23859508Y11743751D01*
X23859407Y11743551D01*
X23859306Y11743251D01*
X23859106Y11743051D01*
X23859007Y11742851D01*
X23858807Y11742651D01*
X23858707Y11742451D01*
X23858507Y11742251D01*
X23858307Y11742051D01*
X23858107Y11741851D01*
X23857907Y11741651D01*
X23857707Y11741551D01*
X23857507Y11741351D01*
X23857307Y11741251D01*
X23857108Y11741051D01*
X23856807Y11740951D01*
X23856607Y11740851D01*
X23856306Y11740751D01*
X23856107D01*
X23855807Y11740651D01*
X23855608D01*
X23855307Y11740551D01*
X23704308D01*
X23704007Y11740651D01*
X23703807D01*
X23703506Y11740751D01*
X23703307D01*
X23703008Y11740851D01*
X23702808Y11740951D01*
X23702507Y11741051D01*
X23702307Y11741251D01*
X23702107Y11741351D01*
X23701907Y11741551D01*
X23701707Y11741651D01*
X23701508Y11741851D01*
X23701308Y11742051D01*
X23701106Y11742251D01*
X23700906Y11742451D01*
X23700807Y11742651D01*
X23700607Y11742851D01*
X23700507Y11743051D01*
X23700307Y11743251D01*
X23700208Y11743551D01*
X23700107Y11743751D01*
X23700008Y11744051D01*
Y11744251D01*
X23699907Y11744551D01*
Y11744751D01*
X23699808Y11745051D01*
Y11745251D01*
Y11745551D01*
Y11790551D01*
Y11790851D01*
Y11791051D01*
X23699907Y11791351D01*
Y11791551D01*
X23700008Y11791851D01*
Y11792051D01*
X23700107Y11792351D01*
X23700208Y11792551D01*
X23700307Y11792851D01*
X23700507Y11793051D01*
X23700607Y11793251D01*
X23700807Y11793451D01*
X23700906Y11793651D01*
X23701106Y11793851D01*
X23701308Y11794051D01*
X23701508Y11794251D01*
X23701707Y11794451D01*
X23701907Y11794551D01*
X23702107Y11794751D01*
X23702307Y11794851D01*
X23702507Y11795051D01*
X23702808Y11795151D01*
X23703008Y11795251D01*
X23703307Y11795351D01*
X23703506D01*
X23703807Y11795451D01*
X23704007D01*
X23704308Y11795551D01*
X23855307D01*
X23855608Y11795451D01*
D02*
G37*
G36*
Y11730451D02*
X23855807D01*
X23856107Y11730351D01*
X23856306D01*
X23856607Y11730251D01*
X23856807Y11730151D01*
X23857108Y11730051D01*
X23857307Y11729851D01*
X23857507Y11729751D01*
X23857707Y11729551D01*
X23857907Y11729451D01*
X23858107Y11729251D01*
X23858307Y11729051D01*
X23858507Y11728851D01*
X23858707Y11728651D01*
X23858807Y11728451D01*
X23859007Y11728251D01*
X23859106Y11728051D01*
X23859306Y11727851D01*
X23859407Y11727551D01*
X23859508Y11727351D01*
X23859607Y11727051D01*
Y11726851D01*
X23859708Y11726551D01*
Y11726351D01*
X23859807Y11726051D01*
Y11725851D01*
Y11725551D01*
Y11680551D01*
Y11680251D01*
Y11680051D01*
X23859708Y11679751D01*
Y11679551D01*
X23859607Y11679251D01*
Y11679051D01*
X23859508Y11678751D01*
X23859407Y11678551D01*
X23859306Y11678251D01*
X23859106Y11678051D01*
X23859007Y11677851D01*
X23858807Y11677651D01*
X23858707Y11677451D01*
X23858507Y11677251D01*
X23858307Y11677051D01*
X23858107Y11676851D01*
X23857907Y11676651D01*
X23857707Y11676551D01*
X23857507Y11676351D01*
X23857307Y11676251D01*
X23857108Y11676051D01*
X23856807Y11675951D01*
X23856607Y11675851D01*
X23856306Y11675751D01*
X23856107D01*
X23855807Y11675651D01*
X23855608D01*
X23855307Y11675551D01*
X23704308D01*
X23704007Y11675651D01*
X23703807D01*
X23703506Y11675751D01*
X23703307D01*
X23703008Y11675851D01*
X23702808Y11675951D01*
X23702507Y11676051D01*
X23702307Y11676251D01*
X23702107Y11676351D01*
X23701907Y11676551D01*
X23701707Y11676651D01*
X23701508Y11676851D01*
X23701308Y11677051D01*
X23701106Y11677251D01*
X23700906Y11677451D01*
X23700807Y11677651D01*
X23700607Y11677851D01*
X23700507Y11678051D01*
X23700307Y11678251D01*
X23700208Y11678551D01*
X23700107Y11678751D01*
X23700008Y11679051D01*
Y11679251D01*
X23699907Y11679551D01*
Y11679751D01*
X23699808Y11680051D01*
Y11680251D01*
Y11680551D01*
Y11725551D01*
Y11725851D01*
Y11726051D01*
X23699907Y11726351D01*
Y11726551D01*
X23700008Y11726851D01*
Y11727051D01*
X23700107Y11727351D01*
X23700208Y11727551D01*
X23700307Y11727851D01*
X23700507Y11728051D01*
X23700607Y11728251D01*
X23700807Y11728451D01*
X23700906Y11728651D01*
X23701106Y11728851D01*
X23701308Y11729051D01*
X23701508Y11729251D01*
X23701707Y11729451D01*
X23701907Y11729551D01*
X23702107Y11729751D01*
X23702307Y11729851D01*
X23702507Y11730051D01*
X23702808Y11730151D01*
X23703008Y11730251D01*
X23703307Y11730351D01*
X23703506D01*
X23703807Y11730451D01*
X23704007D01*
X23704308Y11730551D01*
X23855307D01*
X23855608Y11730451D01*
D02*
G37*
G36*
Y11665451D02*
X23855807D01*
X23856107Y11665351D01*
X23856306D01*
X23856607Y11665251D01*
X23856807Y11665151D01*
X23857108Y11665051D01*
X23857307Y11664851D01*
X23857507Y11664751D01*
X23857707Y11664551D01*
X23857907Y11664451D01*
X23858107Y11664251D01*
X23858307Y11664051D01*
X23858507Y11663851D01*
X23858707Y11663651D01*
X23858807Y11663451D01*
X23859007Y11663251D01*
X23859106Y11663051D01*
X23859306Y11662851D01*
X23859407Y11662551D01*
X23859508Y11662351D01*
X23859607Y11662051D01*
Y11661851D01*
X23859708Y11661551D01*
Y11661351D01*
X23859807Y11661051D01*
Y11660851D01*
Y11660551D01*
Y11615551D01*
Y11615251D01*
Y11615051D01*
X23859708Y11614751D01*
Y11614551D01*
X23859607Y11614251D01*
Y11614051D01*
X23859508Y11613751D01*
X23859407Y11613551D01*
X23859306Y11613251D01*
X23859106Y11613051D01*
X23859007Y11612851D01*
X23858807Y11612651D01*
X23858707Y11612451D01*
X23858507Y11612251D01*
X23858307Y11612051D01*
X23858107Y11611851D01*
X23857907Y11611651D01*
X23857707Y11611551D01*
X23857507Y11611351D01*
X23857307Y11611251D01*
X23857108Y11611051D01*
X23856807Y11610951D01*
X23856607Y11610851D01*
X23856306Y11610751D01*
X23856107D01*
X23855807Y11610651D01*
X23855608D01*
X23855307Y11610551D01*
X23704308D01*
X23704007Y11610651D01*
X23703807D01*
X23703506Y11610751D01*
X23703307D01*
X23703008Y11610851D01*
X23702808Y11610951D01*
X23702507Y11611051D01*
X23702307Y11611251D01*
X23702107Y11611351D01*
X23701907Y11611551D01*
X23701707Y11611651D01*
X23701508Y11611851D01*
X23701308Y11612051D01*
X23701106Y11612251D01*
X23700906Y11612451D01*
X23700807Y11612651D01*
X23700607Y11612851D01*
X23700507Y11613051D01*
X23700307Y11613251D01*
X23700208Y11613551D01*
X23700107Y11613751D01*
X23700008Y11614051D01*
Y11614251D01*
X23699907Y11614551D01*
Y11614751D01*
X23699808Y11615051D01*
Y11615251D01*
Y11615551D01*
Y11660551D01*
Y11660851D01*
Y11661051D01*
X23699907Y11661351D01*
Y11661551D01*
X23700008Y11661851D01*
Y11662051D01*
X23700107Y11662351D01*
X23700208Y11662551D01*
X23700307Y11662851D01*
X23700507Y11663051D01*
X23700607Y11663251D01*
X23700807Y11663451D01*
X23700906Y11663651D01*
X23701106Y11663851D01*
X23701308Y11664051D01*
X23701508Y11664251D01*
X23701707Y11664451D01*
X23701907Y11664551D01*
X23702107Y11664751D01*
X23702307Y11664851D01*
X23702507Y11665051D01*
X23702808Y11665151D01*
X23703008Y11665251D01*
X23703307Y11665351D01*
X23703506D01*
X23703807Y11665451D01*
X23704007D01*
X23704308Y11665551D01*
X23855307D01*
X23855608Y11665451D01*
D02*
G37*
G36*
Y11600451D02*
X23855807D01*
X23856107Y11600351D01*
X23856306D01*
X23856607Y11600251D01*
X23856807Y11600151D01*
X23857108Y11600051D01*
X23857307Y11599851D01*
X23857507Y11599751D01*
X23857707Y11599551D01*
X23857907Y11599451D01*
X23858107Y11599251D01*
X23858307Y11599051D01*
X23858507Y11598851D01*
X23858707Y11598651D01*
X23858807Y11598451D01*
X23859007Y11598251D01*
X23859106Y11598051D01*
X23859306Y11597851D01*
X23859407Y11597551D01*
X23859508Y11597351D01*
X23859607Y11597051D01*
Y11596851D01*
X23859708Y11596551D01*
Y11596351D01*
X23859807Y11596051D01*
Y11595851D01*
Y11595551D01*
Y11550551D01*
Y11550251D01*
Y11550051D01*
X23859708Y11549751D01*
Y11549551D01*
X23859607Y11549251D01*
Y11549051D01*
X23859508Y11548751D01*
X23859407Y11548551D01*
X23859306Y11548251D01*
X23859106Y11548051D01*
X23859007Y11547851D01*
X23858807Y11547651D01*
X23858707Y11547451D01*
X23858507Y11547251D01*
X23858307Y11547051D01*
X23858107Y11546851D01*
X23857907Y11546651D01*
X23857707Y11546551D01*
X23857507Y11546351D01*
X23857307Y11546251D01*
X23857108Y11546051D01*
X23856807Y11545951D01*
X23856607Y11545851D01*
X23856306Y11545751D01*
X23856107D01*
X23855807Y11545651D01*
X23855608D01*
X23855307Y11545551D01*
X23704308D01*
X23704007Y11545651D01*
X23703807D01*
X23703506Y11545751D01*
X23703307D01*
X23703008Y11545851D01*
X23702808Y11545951D01*
X23702507Y11546051D01*
X23702307Y11546251D01*
X23702107Y11546351D01*
X23701907Y11546551D01*
X23701707Y11546651D01*
X23701508Y11546851D01*
X23701308Y11547051D01*
X23701106Y11547251D01*
X23700906Y11547451D01*
X23700807Y11547651D01*
X23700607Y11547851D01*
X23700507Y11548051D01*
X23700307Y11548251D01*
X23700208Y11548551D01*
X23700107Y11548751D01*
X23700008Y11549051D01*
Y11549251D01*
X23699907Y11549551D01*
Y11549751D01*
X23699808Y11550051D01*
Y11550251D01*
Y11550551D01*
Y11595551D01*
Y11595851D01*
Y11596051D01*
X23699907Y11596351D01*
Y11596551D01*
X23700008Y11596851D01*
Y11597051D01*
X23700107Y11597351D01*
X23700208Y11597551D01*
X23700307Y11597851D01*
X23700507Y11598051D01*
X23700607Y11598251D01*
X23700807Y11598451D01*
X23700906Y11598651D01*
X23701106Y11598851D01*
X23701308Y11599051D01*
X23701508Y11599251D01*
X23701707Y11599451D01*
X23701907Y11599551D01*
X23702107Y11599751D01*
X23702307Y11599851D01*
X23702507Y11600051D01*
X23702808Y11600151D01*
X23703008Y11600251D01*
X23703307Y11600351D01*
X23703506D01*
X23703807Y11600451D01*
X23704007D01*
X23704308Y11600551D01*
X23855307D01*
X23855608Y11600451D01*
D02*
G37*
G36*
Y11535451D02*
X23855807D01*
X23856107Y11535351D01*
X23856306D01*
X23856607Y11535251D01*
X23856807Y11535151D01*
X23857108Y11535051D01*
X23857307Y11534851D01*
X23857507Y11534751D01*
X23857707Y11534551D01*
X23857907Y11534451D01*
X23858107Y11534251D01*
X23858307Y11534051D01*
X23858507Y11533851D01*
X23858707Y11533651D01*
X23858807Y11533451D01*
X23859007Y11533251D01*
X23859106Y11533051D01*
X23859306Y11532851D01*
X23859407Y11532551D01*
X23859508Y11532351D01*
X23859607Y11532051D01*
Y11531851D01*
X23859708Y11531551D01*
Y11531351D01*
X23859807Y11531051D01*
Y11530851D01*
Y11530551D01*
Y11485551D01*
Y11485251D01*
Y11485051D01*
X23859708Y11484751D01*
Y11484551D01*
X23859607Y11484251D01*
Y11484051D01*
X23859508Y11483751D01*
X23859407Y11483551D01*
X23859306Y11483251D01*
X23859106Y11483051D01*
X23859007Y11482851D01*
X23858807Y11482651D01*
X23858707Y11482451D01*
X23858507Y11482251D01*
X23858307Y11482051D01*
X23858107Y11481851D01*
X23857907Y11481651D01*
X23857707Y11481551D01*
X23857507Y11481351D01*
X23857307Y11481251D01*
X23857108Y11481051D01*
X23856807Y11480951D01*
X23856607Y11480851D01*
X23856306Y11480751D01*
X23856107D01*
X23855807Y11480651D01*
X23855608D01*
X23855307Y11480551D01*
X23704308D01*
X23704007Y11480651D01*
X23703807D01*
X23703506Y11480751D01*
X23703307D01*
X23703008Y11480851D01*
X23702808Y11480951D01*
X23702507Y11481051D01*
X23702307Y11481251D01*
X23702107Y11481351D01*
X23701907Y11481551D01*
X23701707Y11481651D01*
X23701508Y11481851D01*
X23701308Y11482051D01*
X23701106Y11482251D01*
X23700906Y11482451D01*
X23700807Y11482651D01*
X23700607Y11482851D01*
X23700507Y11483051D01*
X23700307Y11483251D01*
X23700208Y11483551D01*
X23700107Y11483751D01*
X23700008Y11484051D01*
Y11484251D01*
X23699907Y11484551D01*
Y11484751D01*
X23699808Y11485051D01*
Y11485251D01*
Y11485551D01*
Y11530551D01*
Y11530851D01*
Y11531051D01*
X23699907Y11531351D01*
Y11531551D01*
X23700008Y11531851D01*
Y11532051D01*
X23700107Y11532351D01*
X23700208Y11532551D01*
X23700307Y11532851D01*
X23700507Y11533051D01*
X23700607Y11533251D01*
X23700807Y11533451D01*
X23700906Y11533651D01*
X23701106Y11533851D01*
X23701308Y11534051D01*
X23701508Y11534251D01*
X23701707Y11534451D01*
X23701907Y11534551D01*
X23702107Y11534751D01*
X23702307Y11534851D01*
X23702507Y11535051D01*
X23702808Y11535151D01*
X23703008Y11535251D01*
X23703307Y11535351D01*
X23703506D01*
X23703807Y11535451D01*
X23704007D01*
X23704308Y11535551D01*
X23855307D01*
X23855608Y11535451D01*
D02*
G37*
G36*
X23660606Y12420451D02*
X23660806D01*
X23661107Y12420351D01*
X23661307D01*
X23661607Y12420251D01*
X23661807Y12420151D01*
X23662106Y12420051D01*
X23662308Y12419851D01*
X23662508Y12419751D01*
X23662708Y12419551D01*
X23662907Y12419451D01*
X23663107Y12419251D01*
X23663307Y12419051D01*
X23663507Y12418851D01*
X23663707Y12418651D01*
X23663808Y12418451D01*
X23664008Y12418251D01*
X23664107Y12418051D01*
X23664307Y12417851D01*
X23664407Y12417551D01*
X23664507Y12417351D01*
X23664607Y12417051D01*
Y12416851D01*
X23664706Y12416551D01*
Y12416351D01*
X23664807Y12416051D01*
Y12415851D01*
Y12415551D01*
Y11445551D01*
Y11445251D01*
Y11445051D01*
X23664706Y11444751D01*
Y11444551D01*
X23664607Y11444251D01*
Y11444051D01*
X23664507Y11443751D01*
X23664407Y11443551D01*
X23664307Y11443251D01*
X23664107Y11443051D01*
X23664008Y11442851D01*
X23663808Y11442651D01*
X23663707Y11442451D01*
X23663507Y11442251D01*
X23663307Y11442051D01*
X23663107Y11441851D01*
X23662907Y11441651D01*
X23662708Y11441551D01*
X23662508Y11441351D01*
X23662308Y11441251D01*
X23662106Y11441051D01*
X23661807Y11440951D01*
X23661607Y11440851D01*
X23661307Y11440751D01*
X23661107D01*
X23660806Y11440651D01*
X23660606D01*
X23660307Y11440551D01*
X23319307D01*
X23319006Y11440651D01*
X23318806D01*
X23318507Y11440751D01*
X23318307D01*
X23318007Y11440851D01*
X23317807Y11440951D01*
X23317506Y11441051D01*
X23317307Y11441251D01*
X23317107Y11441351D01*
X23316907Y11441551D01*
X23316707Y11441651D01*
X23316507Y11441851D01*
X23316307Y11442051D01*
X23316107Y11442251D01*
X23315907Y11442451D01*
X23315807Y11442651D01*
X23315607Y11442851D01*
X23315508Y11443051D01*
X23315308Y11443251D01*
X23315207Y11443551D01*
X23315108Y11443751D01*
X23315007Y11444051D01*
Y11444251D01*
X23314906Y11444551D01*
Y11444751D01*
X23314807Y11445051D01*
Y11445251D01*
Y11445551D01*
Y12415551D01*
Y12415851D01*
Y12416051D01*
X23314906Y12416351D01*
Y12416551D01*
X23315007Y12416851D01*
Y12417051D01*
X23315108Y12417351D01*
X23315207Y12417551D01*
X23315308Y12417851D01*
X23315508Y12418051D01*
X23315607Y12418251D01*
X23315807Y12418451D01*
X23315907Y12418651D01*
X23316107Y12418851D01*
X23316307Y12419051D01*
X23316507Y12419251D01*
X23316707Y12419451D01*
X23316907Y12419551D01*
X23317107Y12419751D01*
X23317307Y12419851D01*
X23317506Y12420051D01*
X23317807Y12420151D01*
X23318007Y12420251D01*
X23318307Y12420351D01*
X23318507D01*
X23318806Y12420451D01*
X23319006D01*
X23319307Y12420551D01*
X23660307D01*
X23660606Y12420451D01*
D02*
G37*
D61*
X20045680Y10503921D02*
D03*
X19772630Y10408920D02*
D03*
Y10503921D02*
D03*
Y10598922D02*
D03*
X20045680D02*
D03*
Y10408920D02*
D03*
D63*
X14813280Y19064606D02*
D03*
X14718279D02*
D03*
X14908281D02*
D03*
X14813280Y18791554D02*
D03*
X14718279D02*
D03*
X14908281D02*
D03*
D119*
X15110699Y19350877D02*
D03*
X14470700D02*
D03*
X14550700D02*
D03*
X15030699D02*
D03*
D120*
X14665701D02*
D03*
X14715698D02*
D03*
X14615698D02*
D03*
X14865701D02*
D03*
X14915698D02*
D03*
X14765701D02*
D03*
X14815698D02*
D03*
X14965700D02*
D03*
D124*
X12946381Y19241080D02*
D03*
X13708380D02*
D03*
X13200380D02*
D03*
X13454379D02*
D03*
D125*
X12692380D02*
D03*
D126*
X19573241Y16157820D02*
D03*
X16615240D02*
D03*
X14038580Y19964980D02*
D03*
X12362180D02*
D03*
D128*
X21612860Y13616800D02*
D03*
Y13916800D02*
D03*
X25201880Y12387720D02*
D03*
Y12087720D02*
D03*
X20792439Y10761840D02*
D03*
Y11061840D02*
D03*
D129*
X13735300Y12081998D02*
D03*
X13830299Y12302002D02*
D03*
X13925301Y12081998D02*
D03*
X15501620Y18982202D02*
D03*
X15596622Y18762198D02*
D03*
X15406619D02*
D03*
X16058900Y11782278D02*
D03*
X15963901Y12002282D02*
D03*
X15868900Y11782278D02*
D03*
D130*
X21830000Y13929359D02*
D03*
X21985001D02*
D03*
X21089558Y13967461D02*
D03*
X21244560D02*
D03*
X20167599Y12395200D02*
D03*
X20322601D02*
D03*
X19151601Y12292899D02*
D03*
X18996599D02*
D03*
X19126199Y12447260D02*
D03*
X18971199D02*
D03*
X23779805Y11104880D02*
D03*
X23934805D02*
D03*
X23653720Y12556520D02*
D03*
X23498718D02*
D03*
X14367540Y12760960D02*
D03*
X14212540D02*
D03*
X16808479Y12575540D02*
D03*
X16653481D02*
D03*
X16167101Y12313920D02*
D03*
X16322101D02*
D03*
X16615440D02*
D03*
X16460440D02*
D03*
X15582899Y13858240D02*
D03*
X15737901D02*
D03*
X15582899Y14180820D02*
D03*
X15737901D02*
D03*
X15703520Y12176760D02*
D03*
X15858521D02*
D03*
X13589000Y12085320D02*
D03*
X13434000D02*
D03*
X24946640Y11864340D02*
D03*
X24791640D02*
D03*
X20588000Y11064240D02*
D03*
X20433000D02*
D03*
D131*
X20271741Y10647619D02*
D03*
Y10802620D02*
D03*
X19989799Y12401580D02*
D03*
Y12246580D02*
D03*
X19331940Y12285340D02*
D03*
Y12130339D02*
D03*
X19306540Y12447260D02*
D03*
Y12602261D02*
D03*
X13205460Y18996660D02*
D03*
Y18841660D02*
D03*
X12953999Y18996660D02*
D03*
Y18841660D02*
D03*
X13459460Y18996660D02*
D03*
Y18841660D02*
D03*
X15554961Y19678680D02*
D03*
Y19523680D02*
D03*
X23947121Y10797479D02*
D03*
Y10952480D02*
D03*
X23653720Y12713940D02*
D03*
Y12868941D02*
D03*
X24102060Y12401520D02*
D03*
Y12556520D02*
D03*
X23959821Y12559060D02*
D03*
Y12404060D02*
D03*
X23065739Y12553920D02*
D03*
Y12708920D02*
D03*
X23220680Y12556460D02*
D03*
Y12711460D02*
D03*
X19489420Y15551180D02*
D03*
Y15396181D02*
D03*
X15257780Y18856960D02*
D03*
Y19011961D02*
D03*
Y18704559D02*
D03*
Y18549559D02*
D03*
X14538960Y19003040D02*
D03*
Y18848039D02*
D03*
X15090140Y19008121D02*
D03*
Y18853120D02*
D03*
X14823441Y9585960D02*
D03*
Y9430959D02*
D03*
X14993620Y9585960D02*
D03*
Y9430959D02*
D03*
X14328140Y9585960D02*
D03*
Y9430959D02*
D03*
X14488161Y9585960D02*
D03*
Y9430959D02*
D03*
X14648180Y9584720D02*
D03*
Y9429719D02*
D03*
X14300200Y13376880D02*
D03*
Y13531880D02*
D03*
X14998700Y12136120D02*
D03*
Y11981119D02*
D03*
D132*
X11906059Y14882939D02*
D03*
X12015662Y14992542D02*
D03*
X12609639Y15032799D02*
D03*
X12719241Y15142401D02*
D03*
X13318681Y15431963D02*
D03*
X13209079Y15322359D02*
D03*
X12988100Y15101379D02*
D03*
X13097701Y15210982D02*
D03*
X12841161Y15017558D02*
D03*
X12731558Y14907957D02*
D03*
D133*
X12632881Y15601759D02*
D03*
X12523279Y15711362D02*
D03*
X13687901Y15039499D02*
D03*
X13578297Y15149101D02*
D03*
D134*
X24701500Y8491220D02*
D03*
D135*
X24958040D02*
D03*
D136*
X25989279Y20693381D02*
D03*
X10495280Y20703540D02*
D03*
D137*
X25989279Y20921980D02*
D03*
X25760681Y20693381D02*
D03*
X25989279Y20464781D02*
D03*
X26217880Y20693381D02*
D03*
X26150925Y20855026D02*
D03*
X25827634D02*
D03*
Y20531737D02*
D03*
X26150925D02*
D03*
X14244598Y8747923D02*
D03*
X15042601D02*
D03*
X10495280Y20932140D02*
D03*
X10266680Y20703540D02*
D03*
X10495280Y20474940D02*
D03*
X10723880Y20703540D02*
D03*
X10656925Y20865186D02*
D03*
X10333635D02*
D03*
Y20541895D02*
D03*
X10656925D02*
D03*
D138*
X15222704Y19857562D02*
D03*
X14358701D02*
D03*
X16037640Y8694583D02*
D03*
X16901643D02*
D03*
D139*
X15222704Y19442561D02*
D03*
X14358701D02*
D03*
X16037640Y9109578D02*
D03*
X16901643D02*
D03*
D140*
X25755539Y9660062D02*
D03*
D141*
X25275540Y9370060D02*
D03*
D142*
X25755539Y9030061D02*
D03*
D143*
X12377420Y9161780D02*
D03*
D144*
X11632418D02*
D03*
D148*
X14899640Y14762480D02*
D03*
X11777980Y15481300D02*
D03*
X11772900Y15781020D02*
D03*
X19852640Y14917419D02*
D03*
X18310860Y11645900D02*
D03*
Y11343640D02*
D03*
X18318480Y10744200D02*
D03*
X22903180Y10246360D02*
D03*
X21023579Y15389861D02*
D03*
X21323300Y15387320D02*
D03*
X21625560Y15384779D02*
D03*
X21927820Y15392400D02*
D03*
X21475700Y15646400D02*
D03*
X18318480Y10444480D02*
D03*
X18313400Y11043920D02*
D03*
X13383260Y12550140D02*
D03*
X17485361Y12245340D02*
D03*
X14396719Y13934441D02*
D03*
X14389101Y14234160D02*
D03*
X14780260Y11681460D02*
D03*
X23202901Y10251440D02*
D03*
D149*
X23583900Y11104880D02*
D03*
Y11285220D02*
D03*
X22900639Y11762740D02*
D03*
Y11943080D02*
D03*
X20045680Y10985500D02*
D03*
Y10805160D02*
D03*
D150*
X14452600Y15803880D02*
D03*
X14512704Y15743776D02*
D03*
X12705506Y17202992D02*
D03*
X12765613Y17142886D02*
D03*
D151*
X13709052Y13573515D02*
D03*
X13869051Y13353517D02*
D03*
X13709052D02*
D03*
X13869051Y13573515D02*
D03*
D152*
X20776559Y13704900D02*
D03*
D153*
X20926562Y13889899D02*
D03*
X20626558D02*
D03*
X20926562Y13519902D02*
D03*
X20626558D02*
D03*
D154*
X21986240Y11945620D02*
D03*
Y11640622D02*
D03*
X20373340Y13871042D02*
D03*
Y13566039D02*
D03*
D155*
X15168758Y12925938D02*
D03*
X16143762D02*
D03*
Y12965938D02*
D03*
Y12845938D02*
D03*
Y12885938D02*
D03*
Y13005939D02*
D03*
Y12685939D02*
D03*
Y12645939D02*
D03*
Y12765938D02*
D03*
Y12805939D02*
D03*
Y12725938D02*
D03*
Y13365942D02*
D03*
Y13405942D02*
D03*
Y13285942D02*
D03*
Y13325941D02*
D03*
Y13485942D02*
D03*
Y13445943D02*
D03*
Y13125938D02*
D03*
Y13165938D02*
D03*
Y13045938D02*
D03*
Y13085938D02*
D03*
Y13205939D02*
D03*
Y13245943D02*
D03*
X15168758Y12965938D02*
D03*
Y12885938D02*
D03*
Y12685939D02*
D03*
Y12725938D02*
D03*
Y12645939D02*
D03*
Y12805939D02*
D03*
Y12845938D02*
D03*
Y12765938D02*
D03*
Y13325941D02*
D03*
Y13365942D02*
D03*
Y13245943D02*
D03*
Y13285938D02*
D03*
Y13445943D02*
D03*
Y13485942D02*
D03*
Y13405942D02*
D03*
Y13045938D02*
D03*
Y13085938D02*
D03*
Y13005939D02*
D03*
Y13165938D02*
D03*
Y13205939D02*
D03*
Y13125938D02*
D03*
D156*
X15836259Y12578441D02*
D03*
X15476260D02*
D03*
X16076259D02*
D03*
X16036259D02*
D03*
X15996260D02*
D03*
X15956261D02*
D03*
X15916260D02*
D03*
X15876260D02*
D03*
X15796260D02*
D03*
X15756261D02*
D03*
X15716260D02*
D03*
X15676260D02*
D03*
X15636259D02*
D03*
X15596260D02*
D03*
X15556261D02*
D03*
X15516261D02*
D03*
X15436261D02*
D03*
X15396262D02*
D03*
X15356261D02*
D03*
X15316261D02*
D03*
X15276260D02*
D03*
X15236261D02*
D03*
X16076259Y13553439D02*
D03*
X16036259D02*
D03*
X15996260D02*
D03*
X15956261D02*
D03*
X15916260D02*
D03*
X15876260D02*
D03*
X15836259D02*
D03*
X15796260D02*
D03*
X15756261D02*
D03*
X15716260D02*
D03*
X15676260D02*
D03*
X15636259D02*
D03*
X15596260D02*
D03*
X15556261D02*
D03*
X15516261D02*
D03*
X15476260D02*
D03*
X15436261D02*
D03*
X15396262D02*
D03*
X15356261D02*
D03*
X15316261D02*
D03*
X15276260D02*
D03*
X15236261D02*
D03*
D157*
X15656261Y13065938D02*
D03*
D158*
X19837659Y12447260D02*
D03*
Y12327260D02*
D03*
Y12367260D02*
D03*
X19552661Y12447260D02*
D03*
Y12327260D02*
D03*
Y12287260D02*
D03*
X19837659Y12407260D02*
D03*
X19552661Y12367260D02*
D03*
Y12407260D02*
D03*
D159*
X19735159Y12509759D02*
D03*
X19775160D02*
D03*
X19695160D02*
D03*
X19655161D02*
D03*
X19695160Y12224761D02*
D03*
X19655161D02*
D03*
X19775160D02*
D03*
X19735159D02*
D03*
X19615160Y12509759D02*
D03*
D160*
X19695160Y12367260D02*
D03*
D161*
X19837659Y12287260D02*
D03*
D162*
X19615160Y12224761D02*
D03*
D163*
X13897961Y17530734D02*
D03*
X13084785Y16151880D02*
D03*
X14428287Y17000407D02*
D03*
X14392935Y17035760D02*
D03*
X14499001Y16929694D02*
D03*
X14463644Y16965051D02*
D03*
X14357579Y17071117D02*
D03*
X14322221Y17106473D02*
D03*
X14675775Y16752921D02*
D03*
X14640424Y16788272D02*
D03*
X14711131Y16717564D02*
D03*
X14569708Y16858986D02*
D03*
X14534358Y16894344D02*
D03*
X14605066Y16823630D02*
D03*
X13968669Y17460027D02*
D03*
X13933311Y17495383D02*
D03*
X14039383Y17389317D02*
D03*
X14004025Y17424669D02*
D03*
X13862604Y17566090D02*
D03*
X14216156Y17212540D02*
D03*
X14180800Y17247894D02*
D03*
X14286870Y17141830D02*
D03*
X14251514Y17177182D02*
D03*
X14110091Y17318604D02*
D03*
X14074734Y17353961D02*
D03*
X14145448Y17283247D02*
D03*
X13615115Y15621548D02*
D03*
X13261565Y15975101D02*
D03*
X13226207Y16010458D02*
D03*
X13332272Y15904393D02*
D03*
X13296919Y15939745D02*
D03*
X13190849Y16045810D02*
D03*
X13509052Y15727614D02*
D03*
X13473694Y15762971D02*
D03*
X13579759Y15656905D02*
D03*
X13544408Y15692258D02*
D03*
X13402986Y15833679D02*
D03*
X13367628Y15869035D02*
D03*
X13438338Y15798322D02*
D03*
X12872655Y16364011D02*
D03*
X12837297Y16399368D02*
D03*
X12943362Y16293297D02*
D03*
X12908011Y16328654D02*
D03*
X12766589Y16470076D02*
D03*
X12801945Y16434718D02*
D03*
X13120142Y16116524D02*
D03*
X13155498Y16081168D02*
D03*
X13014076Y16222589D02*
D03*
X12978719Y16257945D02*
D03*
X13049432Y16187231D02*
D03*
D164*
X12801945Y16752921D02*
D03*
X13897961Y15656905D02*
D03*
X14711131Y16470076D02*
D03*
X13615115Y17566090D02*
D03*
X14675775Y16434718D02*
D03*
X14640424Y16399368D02*
D03*
X14605066Y16364011D02*
D03*
X14569708Y16328654D02*
D03*
X14534358Y16293297D02*
D03*
X14499001Y16257945D02*
D03*
X14463644Y16222589D02*
D03*
X14428287Y16187231D02*
D03*
X14392935Y16151880D02*
D03*
X14357579Y16116524D02*
D03*
X14322221Y16081168D02*
D03*
X14286870Y16045810D02*
D03*
X14251514Y16010458D02*
D03*
X14216156Y15975101D02*
D03*
X14180800Y15939745D02*
D03*
X14145448Y15904393D02*
D03*
X14110091Y15869035D02*
D03*
X14074734Y15833679D02*
D03*
X14039383Y15798322D02*
D03*
X14004025Y15762971D02*
D03*
X13968669Y15727614D02*
D03*
X13933311Y15692258D02*
D03*
X13862604Y15621548D02*
D03*
X13579759Y17530734D02*
D03*
X13544408Y17495383D02*
D03*
X13509052Y17460027D02*
D03*
X13473694Y17424669D02*
D03*
X13438338Y17389317D02*
D03*
X13402986Y17353961D02*
D03*
X13367628Y17318604D02*
D03*
X13332272Y17283247D02*
D03*
X13296919Y17247894D02*
D03*
X13261565Y17212540D02*
D03*
X13226207Y17177182D02*
D03*
X13190849Y17141830D02*
D03*
X13155498Y17106473D02*
D03*
X13120142Y17071117D02*
D03*
X13084785Y17035760D02*
D03*
X13049432Y17000407D02*
D03*
X13014076Y16965051D02*
D03*
X12978719Y16929694D02*
D03*
X12943362Y16894344D02*
D03*
X12908011Y16858986D02*
D03*
X12872655Y16823630D02*
D03*
X12837297Y16788272D02*
D03*
X12766589Y16717564D02*
D03*
D165*
X23489809Y11930553D02*
D03*
D166*
X14350999Y12575362D02*
D03*
X14224001D02*
D03*
X14478000D02*
D03*
X14350999Y11854358D02*
D03*
X14097000D02*
D03*
X14224001D02*
D03*
X14478000D02*
D03*
X14097000Y12575362D02*
D03*
D167*
X15552420Y19927580D02*
D03*
Y20087579D02*
D03*
D168*
X20500198Y16407242D02*
D03*
X20800201D02*
D03*
X20700201D02*
D03*
X20600203D02*
D03*
D169*
X20225201Y16652240D02*
D03*
X21075198D02*
D03*
D170*
X16869240Y15895320D02*
D03*
X19319240D02*
D03*
X19169240D02*
D03*
X19219240D02*
D03*
X19269240D02*
D03*
X17419240D02*
D03*
X17469240D02*
D03*
X17519240D02*
D03*
X16919240D02*
D03*
X16969240D02*
D03*
X17019240D02*
D03*
X17069240D02*
D03*
X17119240D02*
D03*
X17169240D02*
D03*
X17219240D02*
D03*
X17269240D02*
D03*
X17319240D02*
D03*
X17369240D02*
D03*
X17569240D02*
D03*
X17619240D02*
D03*
X17669240D02*
D03*
X17719240D02*
D03*
X17769240D02*
D03*
X17819240D02*
D03*
X17869240D02*
D03*
X17919240D02*
D03*
X17969240D02*
D03*
X18019240D02*
D03*
X18069240D02*
D03*
X18369240D02*
D03*
X18469240D02*
D03*
X18119240D02*
D03*
X18169240D02*
D03*
X18219240D02*
D03*
X18269240D02*
D03*
X18319240D02*
D03*
X18419240D02*
D03*
X18519240D02*
D03*
X18769240D02*
D03*
X18569240D02*
D03*
X18619240D02*
D03*
X18669240D02*
D03*
X18719240D02*
D03*
X18819240D02*
D03*
X18869240D02*
D03*
X18919240D02*
D03*
X18969240D02*
D03*
X19019240D02*
D03*
X19069240D02*
D03*
X19119240D02*
D03*
D171*
X26019760Y19959320D02*
D03*
Y19451320D02*
D03*
Y19197321D02*
D03*
Y18943320D02*
D03*
Y18689320D02*
D03*
Y18435320D02*
D03*
Y18181320D02*
D03*
Y17927319D02*
D03*
Y17673320D02*
D03*
Y17419321D02*
D03*
Y17165320D02*
D03*
Y16911320D02*
D03*
Y16657320D02*
D03*
Y16403320D02*
D03*
Y16149319D02*
D03*
Y15895320D02*
D03*
Y15641319D02*
D03*
Y15387320D02*
D03*
Y15133321D02*
D03*
Y19705321D02*
D03*
Y14584680D02*
D03*
Y14330679D02*
D03*
Y14838680D02*
D03*
Y13822681D02*
D03*
Y14076680D02*
D03*
Y12552680D02*
D03*
Y12298680D02*
D03*
Y11790680D02*
D03*
Y12044680D02*
D03*
Y13314680D02*
D03*
Y13568680D02*
D03*
Y12806680D02*
D03*
Y13060680D02*
D03*
Y10520680D02*
D03*
Y10266680D02*
D03*
Y10774680D02*
D03*
Y10012680D02*
D03*
Y11536680D02*
D03*
Y11028680D02*
D03*
Y11282680D02*
D03*
X10480040Y15133321D02*
D03*
Y15387320D02*
D03*
Y15641319D02*
D03*
Y15895320D02*
D03*
Y16149319D02*
D03*
Y16403320D02*
D03*
Y16657320D02*
D03*
Y16911320D02*
D03*
Y17165320D02*
D03*
Y17419321D02*
D03*
Y17673320D02*
D03*
Y17927319D02*
D03*
Y18181320D02*
D03*
Y18435320D02*
D03*
Y18689320D02*
D03*
Y18943320D02*
D03*
Y19197321D02*
D03*
Y19451320D02*
D03*
Y19705321D02*
D03*
Y19959320D02*
D03*
Y10010140D02*
D03*
Y10518140D02*
D03*
Y10772140D02*
D03*
Y11026140D02*
D03*
Y11280140D02*
D03*
Y11534140D02*
D03*
Y11788140D02*
D03*
Y12042140D02*
D03*
Y12296140D02*
D03*
Y12550140D02*
D03*
Y12804140D02*
D03*
Y13058141D02*
D03*
Y13312140D02*
D03*
Y13566141D02*
D03*
Y13820140D02*
D03*
Y14074139D02*
D03*
Y14328140D02*
D03*
Y14836140D02*
D03*
Y10264140D02*
D03*
Y14582140D02*
D03*
D172*
X24252702Y11327618D02*
D03*
X24667699D02*
D03*
D173*
X19313499Y13032739D02*
D03*
X18913499D02*
D03*
X19314160Y11704320D02*
D03*
X18914162D02*
D03*
D174*
X20002499Y13520419D02*
D03*
Y13749020D02*
D03*
D175*
X22385036Y12853844D02*
D03*
X22385020Y12308840D02*
D03*
X19082578Y10407934D02*
D03*
X19082593Y10952932D02*
D03*
D176*
X20648122Y14378940D02*
D03*
X20408118D02*
D03*
D177*
X21574760Y12623800D02*
D03*
Y12903200D02*
D03*
X22489160Y12016740D02*
D03*
Y11737340D02*
D03*
X23319740Y10894060D02*
D03*
Y10614660D02*
D03*
X23037801Y10894060D02*
D03*
Y10614660D02*
D03*
X22755859Y10894060D02*
D03*
Y10614660D02*
D03*
X21864320Y12623800D02*
D03*
Y12903200D02*
D03*
D178*
X14343381Y11640820D02*
D03*
X14190981D02*
D03*
X19966940Y10185400D02*
D03*
X19814540D02*
D03*
X20170140Y12237720D02*
D03*
X20322540D02*
D03*
X19776440Y11864340D02*
D03*
X19624040D02*
D03*
X19151601Y12130339D02*
D03*
X18999200D02*
D03*
X19776440Y12024360D02*
D03*
X19624040D02*
D03*
X19126199Y12606020D02*
D03*
X18973801D02*
D03*
X23776939Y11300460D02*
D03*
X23929340D02*
D03*
X25196902Y13464540D02*
D03*
X25044502D02*
D03*
X22900639Y11567160D02*
D03*
X22748241D02*
D03*
X22900639Y11407140D02*
D03*
X22748241D02*
D03*
X22900639Y11244580D02*
D03*
X22748241D02*
D03*
X19654520Y15349220D02*
D03*
X19806920D02*
D03*
X19654520Y15674339D02*
D03*
X19806920D02*
D03*
X19654520Y15514320D02*
D03*
X19806920D02*
D03*
X17167860Y15595599D02*
D03*
X17015460D02*
D03*
X17167860Y15405099D02*
D03*
X17015460D02*
D03*
X16865601Y15590520D02*
D03*
X16713200D02*
D03*
X16167101Y12143740D02*
D03*
X16319501D02*
D03*
X16619220Y12148820D02*
D03*
X16466820D02*
D03*
X15433040Y14020799D02*
D03*
X15280640D02*
D03*
Y13860780D02*
D03*
X15433040D02*
D03*
Y14180820D02*
D03*
X15280640D02*
D03*
X16774159Y13662660D02*
D03*
X16926559D02*
D03*
X16774159Y13479781D02*
D03*
X16926559D02*
D03*
X16520160Y12740640D02*
D03*
X16672560D02*
D03*
X15580360Y14018260D02*
D03*
X15732761D02*
D03*
X15580360Y14333220D02*
D03*
X15732761D02*
D03*
X15704820Y12331700D02*
D03*
X15857220D02*
D03*
X14828520Y13449300D02*
D03*
X14676120D02*
D03*
X13589000Y12260580D02*
D03*
X13436600D02*
D03*
D179*
X19588480Y10805160D02*
D03*
Y10957560D02*
D03*
Y10505440D02*
D03*
Y10657840D02*
D03*
X16230600Y11960860D02*
D03*
Y11808460D02*
D03*
X15697200Y12001500D02*
D03*
Y11849100D02*
D03*
X19608800Y12694920D02*
D03*
Y12847321D02*
D03*
X19883121Y12694920D02*
D03*
Y12847321D02*
D03*
X24084280Y11996420D02*
D03*
Y11844020D02*
D03*
X22707600Y12021820D02*
D03*
Y11869420D02*
D03*
X23393401Y11257280D02*
D03*
Y11104880D02*
D03*
X24419560Y12401520D02*
D03*
Y12553920D02*
D03*
X24251920Y12401520D02*
D03*
Y12553920D02*
D03*
X23804880Y12872720D02*
D03*
Y13025121D02*
D03*
X22908260Y12169140D02*
D03*
Y12321540D02*
D03*
X22900639Y12553920D02*
D03*
Y12706320D02*
D03*
X23230840Y11104880D02*
D03*
Y11257280D02*
D03*
X19154140Y15549879D02*
D03*
Y15397479D02*
D03*
X18785840Y15549879D02*
D03*
Y15397479D02*
D03*
X18968719Y15549879D02*
D03*
Y15397479D02*
D03*
X19342101D02*
D03*
Y15549879D02*
D03*
X16776700Y12418060D02*
D03*
Y12265660D02*
D03*
X16959579Y12418060D02*
D03*
Y12265660D02*
D03*
X14041119Y13682980D02*
D03*
Y13530580D02*
D03*
X15539720Y11849100D02*
D03*
Y12001500D02*
D03*
X15537180Y12412980D02*
D03*
Y12260580D02*
D03*
X14046201Y13230859D02*
D03*
Y13383260D02*
D03*
X15168880Y12133580D02*
D03*
Y11981180D02*
D03*
X15354300Y12133580D02*
D03*
Y11981180D02*
D03*
D180*
X12689298Y15823659D02*
D03*
X12797062Y15931422D02*
D03*
X13949136Y17916615D02*
D03*
X14056905Y18024384D02*
D03*
X14060896Y17804855D02*
D03*
X14168665Y17912624D02*
D03*
X12125418Y15094678D02*
D03*
X12233182Y15202441D02*
D03*
X12006038Y15214058D02*
D03*
X12113802Y15321822D02*
D03*
X11790138Y15005779D02*
D03*
X11897902Y15113542D02*
D03*
X12939302Y15367542D02*
D03*
X12831538Y15259778D02*
D03*
X13150122Y15580902D02*
D03*
X13042358Y15473138D02*
D03*
X16433258Y13646878D02*
D03*
X16541022Y13754642D02*
D03*
X16311337Y13766258D02*
D03*
X16419102Y13874022D02*
D03*
D181*
X14106616Y15441203D02*
D03*
X14214384Y15333437D02*
D03*
X15161804Y16311336D02*
D03*
X15054036Y16419104D02*
D03*
X12431302Y16804099D02*
D03*
X12323538Y16911862D02*
D03*
X14427744Y18066476D02*
D03*
X14319975Y18174245D02*
D03*
X15042424Y16191956D02*
D03*
X14934656Y16299724D02*
D03*
X12477022Y16125919D02*
D03*
X12369258Y16233682D02*
D03*
X13690057Y15260863D02*
D03*
X13797823Y15153098D02*
D03*
D182*
X24287480Y12077700D02*
D03*
X24566879D02*
D03*
D183*
X14655800Y8505998D02*
D03*
Y8746002D02*
D03*
D184*
X24236681Y10736580D02*
D03*
X24541678D02*
D03*
X25044502Y12827000D02*
D03*
X24739497D02*
D03*
X24074017D02*
D03*
X24379022D02*
D03*
X25044598Y13192760D02*
D03*
X24739600D02*
D03*
X24379022Y13195300D02*
D03*
X24074017D02*
D03*
D185*
X20246339Y11901780D02*
D03*
Y11501780D02*
D03*
D186*
X23754861Y10738099D02*
D03*
Y10928101D02*
D03*
X23534859Y10833100D02*
D03*
D187*
X12282483Y15944537D02*
D03*
X12059741Y16032928D02*
D03*
X12194092Y16167279D02*
D03*
D188*
X12516953Y15482486D02*
D03*
X12248253Y15440060D02*
D03*
X12361390Y15326923D02*
D03*
X12403816Y15595622D02*
D03*
D189*
X15913278Y12809520D02*
D03*
X15656560Y12809219D02*
D03*
X15399841Y12808920D02*
D03*
X15399542Y13065639D02*
D03*
X15399243Y13322356D02*
D03*
X15912679Y13322955D02*
D03*
X15912978Y13066238D02*
D03*
X15655962Y13322656D02*
D03*
X15656261Y13065938D02*
D03*
D190*
X20776559Y13704900D02*
D03*
%TF.MD5,aa72dda1eb5e15349d8da68ee7625b54*%
M02*
