M48
;Layer_Color=9474304
;FILE_FORMAT=4:4
METRIC,LZ
;TYPE=PLATED
T1F00S00C0.3000
T2F00S00C0.4000
T3F00S00C0.6500
T4F00S00C0.7000
T6F00S00C0.9144
T7F00S00C1.0000
T9F00S00C3.1800
;TYPE=NON_PLATED
T10F00S00C1.0500
T11F00S00C1.3000
%
T01
X01065784Y0086868
X0105Y00900762
X01034288Y00963422
X01034542Y00975614
X01018286Y0097536
Y00963168
X0100965Y01008126
X0101981Y01042416
Y01052449
Y01062736
X01009396Y01082802
Y01160526
X01131062Y01153414
X0113157Y01178306
X01184332Y01166368
X0118491Y0111379
X01185164Y0108839
X01146832Y01024588
X01098042Y0101346
X01082548Y01013206
X01130738Y00937168
Y00866616
X01131246Y00833974
X01200912Y00833374
X01200404Y00866616
X012Y00900762
X01242314Y00964184
X012375Y00975762
X01300988Y00973328
X013125Y00975762
X01365504Y00974852
X01432306Y00969518
X01448816
X01462024Y0097028
X01482344Y00969518
X01499362
X01504696Y01011174
X0148717Y01008888
X01466088Y01011174
X0145Y01007872
X01435608Y01006348
X01371832Y01062088
X0132842Y01067562
X01327658Y01054608
X0132715Y010414
X01296832Y01024588
X01275Y009375
X01315212Y00915162
X0135Y00900762
X01395476Y00878332
X01444498Y008509
X01551686Y00879602
X01557782Y0097536
X01575Y01050762
X01522667Y01058101
X01542288Y01160272
X01553972Y01160208
Y01171956
X01542288Y0117221
X0153797Y01184148
X01496758Y01185672
X0156972Y01171956
X01412494Y01128522
Y01120902
X01400302Y01120648
Y01128268
X01259332Y01137088
X01221832Y01062088
X012Y01050762
X01275Y00866616
X01275508Y00834306
X01725Y00900762
X0172586Y00938784
X017625Y00975762
X01789938Y00982726
X01816354Y0098171
X018415Y00982472
X01861566Y00983742
X01874774Y00941324
X01875Y00900762
X01872558Y00876138
X018Y00900762
X01761744Y00878332
X01700022Y00992378
X01694536Y01018716
Y01027098
X01711554Y01026844
Y01018462
X01671168Y01018716
Y01027098
X0165415
Y01018208
X01654669Y01161401
X01646174Y01160526
X01637284Y01159256
X01606042Y01163828
X01697744Y01161016
X0185293Y01125728
X01853438Y01095756
X01875Y01050762
X0192532Y0106299
Y0107315
X01935734
Y0106299
X01944878Y01007872
X01979514Y00971734
X01938112Y00913568
X0180213Y010287
X01962404Y01173988
X01977644Y0117475
X0197739Y01165606
X020193Y01108456
Y01098296
X02029714
Y01108456
X02074926Y01123696
X021375Y01125762
X02135124Y0114046
X02204642Y01109296
X02246376Y01093978
Y01083818
X0225679
Y01093978
X0225Y01050762
X0222885Y01051306
X02219452
Y0106172
X0222885
X02275586Y01046988
X0230378Y01047496
X02332228
X02353564Y0106045
X02334768Y00994156
X02338578Y009779
X023625Y00975762
X02295652Y00975868
X02254758Y00976376
X02238248Y00994664
X02210054Y00994156
X02213102Y00975614
X02171954Y00974344
X0218186Y00993648
X02125472Y00992632
X02109978Y01051306
X021Y01050762
X02175
X02263394Y01016254
X0225425Y00896874
X02213102Y0089789
X021717
X0219329Y00856488
X02234438Y00855472
X02276094Y00854456
X02318766
X0235839
X02338578Y00895858
X02325Y00900762
X02295906Y00895858
X0231059Y01110569
X02310892Y01126236
X0230378Y01141476
X0233874Y01160084
X02338946Y01178915
X02357777Y01178709
X02357571Y01159878
X0227233Y01171448
X02016944Y01043686
X02037588Y01014222
X020625Y00975762
X02056476Y0093592
X02006184Y00865816
X02400508Y00871806
X024Y00900762
X02418334Y00902208
X02456434Y00901446
X02475Y00900762
X0255143Y00857504
X02601722Y00857872
X02629916Y0085838
Y0093338
Y0100838
X02562282Y01013206
Y0103886
Y01064514
Y01090168
Y01115822
Y01141476
Y0116713
X02525522Y01171448
X02533142Y01190244
X02517902Y01141222
X02510028Y01115822
X02502154Y01090168
X02495804Y01071626
X02488438Y010414
X0248793Y01013968
X024Y01050762
X02406142Y01059942
X02405283Y01070453
X02392934Y01156995
X02456942Y0117856
X02465118
Y0118872
X02456942
X02629916Y01156506
Y01081506
Y01231506
Y0125716
Y01282814
Y01306506
Y01334122
Y01359776
Y0138543
Y01411084
Y01436738
X0263144Y01457724
Y01532724
X02571496Y01498854
X02554478
X0254889Y01551178
X02533142Y01550924
X02508758Y01546352
X025125Y01575762
X02478856Y01574546
X024375Y01575762
X02433758Y01546352
X024Y01500762
X02389124Y01441958
X02393903Y01398309
X02405126Y0140623
X02415032Y01413192
X02445512Y01416494
X02429002Y0138303
X02419328Y01375896
X02413254Y01367282
X02406298Y01358986
X02381758Y01390904
X02508758Y01361186
X02519934Y0141986
Y01445768
X02519426Y01470914
X02475Y01500762
X02558034Y01395222
X02578862Y01370076
X0257937Y01344422
X02570988Y0131826
X02577592Y01293622
X02563368
X02556002Y01268222
X02572512Y0126873
X02562352Y01243584
X02548382Y01242568
X02540762Y01216152
X02562352Y0121793
X02562282Y01192784
X02469896Y01221232
X02439924Y0122555
X0239903Y01227328
X02399538Y01199642
X02357984Y0119754
X02339359Y01216577
X02339565Y01235408
X02358396Y01235202
X02380234Y0125603
X02380488Y01273048
X02380996Y01319022
X02325Y01350762
X02337314Y01260602
X0230378Y0123444
Y01203452
X02175Y01200762
X021375Y01275762
X020625
X020574Y01243838
Y01233678
Y01223518
X02067814
Y01233678
Y01243838
X02046986
Y01233678
Y01223518
X02002451Y01212427
X0199644Y01252982
X01984502Y01298702
X02077974Y01337818
X02077656Y0137049
X02077212Y01404112
X02057146Y01406906
X02046986
Y0141732
X02057146
X02059432Y01487932
X02079629Y01487413
X02069846Y0150241
X0205105Y01500378
X02088642Y01556004
X0211582Y01566418
X021375Y01575762
X02169668Y01576902
X02170176Y01447292
X02197354Y01448308
X02213356
Y01459992
Y01471676
X02229358
X02229104Y01459992
Y01448054
X02242566Y01432814
X02269166Y01406906
X02365529Y01421178
X02372614Y01427988
X02380742Y014351
X0237236Y01449324
X023625Y01575762
X02124202Y01409192
X01944624Y01385062
X01945202Y01350264
X01958594Y01298194
X01973834Y01274318
X01973729Y01262429
X01973516Y01240726
X01965706Y0124079
X01965516Y01232726
X0197358Y01232916
X01945132Y01214882
X0194183Y01256284
X01834134Y01230122
X0182372
X0179324Y012065
X01742948Y01244346
X01736344Y01250442
X01718818Y01253236
X01682496Y01269492
X01679956Y01277874
X01635506Y0127781
X01631241Y01246489
X01640586Y0124714
X01649857Y01247458
X01653794Y01200658
X01686814Y01209406
X01599184Y01216406
X01600187Y01238771
X01602232Y01269238
X01591328Y01280952
X01591298Y01306624
X01591268Y01332296
X0160274Y01344168
X01623822Y01360678
X01630934Y01355344
X01655318Y01343914
X01658874Y01391666
X01646428Y01433068
X01644142Y01540764
X01615186Y01530096
X01687576Y01540256
X01704086Y01570736
X01662938Y01572514
X01744916Y01573022
X01744218Y01561338
X01784604Y01572514
X01823974Y01573276
X01869484Y01573672
X01878584Y0156845
X0189013Y01567318
X01888236Y01525524
X0192532Y01526032
X01959864Y01519682
X0195Y01500762
X01937004Y01484122
X01875Y01350762
X01829308Y01279398
X0172156Y01362
X01577086Y01370076
Y01376934
X01562862Y01365504
X01554116Y01369822
X01541036Y01366266
X01527655Y01366724
X01534195Y013744
X01514781Y01381835
X01514474Y01390396
X01501394Y01391666
X01504696Y01382014
X01494536Y0138176
X01484376Y0138164
X01473962
X01463294
X01461962Y01391158
X01475042Y01391412
X01488122Y0139165
X01473962Y01358392
X01453134Y01350518
X01441958Y01325372
X01440486Y01314652
X0144875Y0131812
X01455166Y01310894
X01457198Y01296162
X01466088Y01289812
X01460246Y01282954
X01437605Y01295365
X01443482Y0130156
X01419352Y01314196
X0141859Y013462
X01410462Y01392936
X01418082Y01406144
X01373886Y01407668
X013875Y01425762
X0138049Y0146558
X01417066Y01451356
X0141986Y01492504
X01431798Y01524254
X0139446Y0153035
X0140081Y0155575
X01379189Y01577117
X01324102Y0157734
X0130995Y01580185
X01282192Y01578102
X0121539Y01552194
X01196594Y01533906
X01220216Y01500124
X0125603Y01487424
X01270254Y01477264
X01275654Y01442786
X01259332Y01425448
X01236472Y01453388
X01192784Y01469968
X01330452Y0147447
X01349318Y01434592
X01358646Y013462
X01349318Y01326896
X01335856Y01292352
X01318514Y01275842
X01329436Y01236726
X01359916Y01196848
X0138684Y01193292
X01409954Y0123952
X01407414Y01275842
X01395984Y01294384
X01490848Y01271264
X01490096Y01262757
X01490231Y01253503
X01490419Y01244548
X01495044Y01235456
X0150114Y0122682
X01510284Y01226542
X01514602Y0125476
X01527556Y01268476
X01539984Y01280892
X01565656Y01280922
X01565626Y01306594
X01539954Y01306564
X01539924Y01332236
X01565596Y01332266
X01526794Y01345438
X01527556Y01441196
X01514024Y01459992
X01462278Y01452372
X01463548Y01425702
X01468628Y01490472
X01543996
X0157099Y01450848
X01570482Y01245616
X01541567Y01243585
X01548638Y01213358
X01558036Y01213612
X01259332Y01212088
Y01287088
Y01362088
X01294384Y013589
X01303274Y0135001
X01312418Y01358392
Y01340866
X01294638Y0134112
X01192784Y0131452
X01457958Y01568295
X01159764Y01565402
X01165798Y01520642
X01178814Y01522476
X0116967Y0148971
X011625Y01425762
X01161542Y0141732
X01187704Y01389634
X011625Y01350762
X01134364Y01305814
X01141222Y01281176
X011625Y01275762
X01148588Y01258062
X01132078Y01229868
Y01202944
X01184332Y01245108
X01009396Y0123825
Y01315974
Y01393698
Y01471422
Y01549146
X01083056Y01500378
X01099312
X01112266Y0150368
Y01459738
X01132586Y01616456
X01189482Y01599692
X01181862Y01673098
X01081786Y0167894
X01081278Y01704086
X01082294Y01728978
X0108204Y01755394
X01081786Y01780794
X0108204Y01806448
X01081532Y01831594
X0108077Y0185674
X01080262Y01881886
X01079754Y01907032
X011625Y01875762
X01180846Y01944878
X01009904Y01702816
X01009396Y0162687
X0119429Y01592308
X01245616Y01595882
X01259332Y01597406
X01273261Y01605019
X01290574Y01600699
X01321054Y01624584
X01332167Y01615757
X01341821Y01606148
X01351419Y01596485
X01415796Y01616202
X01455928Y01658112
X01493266Y01654302
X01527048Y01640586
X01416812Y01701292
X01391666Y01726184
X01391412Y01768856
X01383728Y0177673
X01347909Y0180427
X01356829Y01845151
X013335Y01874774
X01332992Y01892046
X01371092Y01892964
X01370838Y01902108
X013875Y01875762
X0145415Y01872996
X0147193Y01892554
X01509014Y01872742
X01517396Y01842516
Y01834134
X01528826
X01538224Y018415
X01538478Y01854962
X01551432Y0185293
X01500378Y0184277
Y01834388
X01452626Y0181483
X0143383Y01797558
X0141986Y01808226
X01475486Y01785366
X01482598Y01779016
X0137541Y01666748
X01345438Y0169418
X01292352Y01659382
X01259153Y0166624
X0126238Y0168529
X01221486Y01684274
X0122682Y01632966
X01262371Y01728479
X01269746Y01882902
X01269492Y01897888
X012375Y01875762
X01575Y01950762
X0165
X01725
X018
X01875
X0195
X01938782Y01615948
X0190881Y01634744
X01890522
X01875028
X01859026
X01843786Y0163449
X01828292
X0181229
X01797558
X01782064
X01766062
X01751076Y01634744
X01735582
X0171958
X01736682Y01612059
X01743964Y0161652
X01751211Y01612003
X01760474Y01621028
X01777614Y01612646
X01784096Y01618996
X01790446Y016129
X01817116Y0161417
X01823466Y01621028
X0183007Y01614678
X01856486Y01614932
X01867154Y01614424
X01675892Y0159512
X0202311Y01644904
X02107946Y01641644
X02328164Y0168148
X023625Y01725762
X02327148Y01782064
X0232664Y01832356
X02326132Y01882648
X02325624Y0193294
X02175Y01950762
X021
X02025
X02400878Y01907794
X02401386Y01857502
X02401894Y0180721
X02402402Y01756918
X0240291Y01706626
X024375Y01725762
X02477656Y01731772
X025125Y01725762
X02478164Y0168148
X02462276Y0163195
X02403532Y01648714
X02403602Y01599692
X0263144Y01607724
Y01682724
Y01757724
Y01832724
Y01907724
Y01982724
X0257175
X02547112Y0198374
X0253111Y01983232
X02475624Y0193294
X02476132Y01882648
X0247664Y01832356
X02477148Y01782064
X02475Y019875
X024
X02563368Y02026666
X025875Y02025762
X02638044Y0202692
X02325Y019875
X0225
X01542034Y02009648
X01479393Y02006379
X01380998Y02004568
Y0198755
X01256792Y0198755
Y02004568
X01217676Y02011172
X01143Y02010918
X010875Y02025762
X01012824Y02024746
T02
X01902363Y01566684
T03
X01618064Y00905958
X01675864
X0150797Y01949256
X0145017
T04
X02582763Y02053174
X02576068Y02069338
X02582763Y02085503
X02598928Y02092198
X02615092Y02085503
X02621788Y02069338
X02615092Y02053174
X02598928Y02046478
X01065693Y02054189
X01049528Y02047494
X01033363Y02054189
X01026668Y02070354
X01033363Y02086519
X01049528Y02093214
X01065693Y02086519
X01072388Y02070354
T06
X0247015Y00849122
X02495804
T07
X0142446Y00874792
X0150426
T09
X02598928Y02069338
X01049528Y02070354
T10
X01237742Y00916178
T11
X01163242Y00916178
M30
