%TF.GenerationSoftware,Altium Limited,Altium Designer,22.10.1 (41)*%
G04 Layer_Color=32768*
%FSLAX45Y45*%
%MOMM*%
%TF.SameCoordinates,FE0E7334-CCE0-4667-BD18-01278DCCDDAB*%
%TF.FilePolarity,Positive*%
%TF.FileFunction,Other,Mechanical_15*%
%TF.Part,Single*%
G01*
G75*
%TA.AperFunction,NonConductor*%
%ADD146C,0.15240*%
%ADD193C,0.10000*%
%ADD197C,0.05000*%
%ADD198C,0.04999*%
G36*
X20165060Y9926320D02*
X20228560D01*
Y9418320D01*
X20165060D01*
Y9380220D01*
X19987260D01*
Y9418320D01*
X19923759D01*
Y9926320D01*
X19987260D01*
Y9964420D01*
X20165060D01*
Y9926320D01*
D02*
G37*
G36*
X21008340Y9232900D02*
X21046440D01*
Y9055100D01*
X21008340D01*
Y8991600D01*
X20500340D01*
Y9055100D01*
X20462241D01*
Y9232900D01*
X20500340D01*
Y9296400D01*
X21008340D01*
Y9232900D01*
D02*
G37*
G36*
X20307300Y9230360D02*
X20345399D01*
Y9052560D01*
X20307300D01*
Y8989060D01*
X19799300D01*
Y9052560D01*
X19761200D01*
Y9230360D01*
X19799300D01*
Y9293860D01*
X20307300D01*
Y9230360D01*
D02*
G37*
G36*
X19598640D02*
X19636740D01*
Y9052560D01*
X19598640D01*
Y8989060D01*
X19090640D01*
Y9052560D01*
X19052541D01*
Y9230360D01*
X19090640D01*
Y9293860D01*
X19598640D01*
Y9230360D01*
D02*
G37*
G36*
X20165060Y8890000D02*
X20228560D01*
Y8382000D01*
X20165060D01*
Y8343900D01*
X19987260D01*
Y8382000D01*
X19923759D01*
Y8890000D01*
X19987260D01*
Y8928100D01*
X20165060D01*
Y8890000D01*
D02*
G37*
G36*
X21805901Y9618980D02*
Y9657080D01*
X21628101D01*
Y9618980D01*
X21564600D01*
Y9110980D01*
X21628101D01*
Y9072880D01*
X21805901D01*
Y9110980D01*
X21869400D01*
Y9618980D01*
X21805901D01*
D02*
G37*
G36*
X22047200Y9110980D02*
Y9072880D01*
X22225000D01*
Y9110980D01*
X22288499D01*
Y9618980D01*
X22225000D01*
Y9657080D01*
X22047200D01*
Y9618980D01*
X21983701D01*
Y9110980D01*
X22047200D01*
D02*
G37*
G36*
X22458681Y9113520D02*
Y9075420D01*
X22636481D01*
Y9113520D01*
X22699980D01*
Y9621520D01*
X22636481D01*
Y9659620D01*
X22458681D01*
Y9621520D01*
X22395180D01*
Y9113520D01*
X22458681D01*
D02*
G37*
G36*
X22870160Y9110980D02*
Y9072880D01*
X23047960D01*
Y9110980D01*
X23111459D01*
Y9618980D01*
X23047960D01*
Y9657080D01*
X22870160D01*
Y9618980D01*
X22806660D01*
Y9110980D01*
X22870160D01*
D02*
G37*
G36*
X23296880D02*
Y9072880D01*
X23474680D01*
Y9110980D01*
X23538181D01*
Y9618980D01*
X23474680D01*
Y9657080D01*
X23296880D01*
Y9618980D01*
X23233380D01*
Y9110980D01*
X23296880D01*
D02*
G37*
D146*
X22288499D02*
Y9618980D01*
X22225000Y9110980D02*
X22288499D01*
X22225000Y9618980D02*
X22288499D01*
X22225000D02*
Y9657080D01*
X22047200D02*
X22225000D01*
X22047200Y9072880D02*
X22225000D01*
Y9110980D01*
X22047200Y9072880D02*
Y9110980D01*
X21983701D02*
Y9618980D01*
X22047200D02*
Y9657080D01*
X21983701Y9110980D02*
X22047200D01*
X21983701Y9618980D02*
X22047200D01*
X22458681Y9075420D02*
X22636481D01*
X22458681D02*
Y9113520D01*
X22636481Y9075420D02*
Y9113520D01*
X22699980D01*
X22458681Y9659620D02*
X22636481D01*
X22458681Y9621520D02*
Y9659620D01*
X22636481Y9621520D02*
Y9659620D01*
X22395180Y9621520D02*
X22458681D01*
X22636481D02*
X22699980D01*
X22395180Y9113520D02*
Y9621520D01*
X22699980Y9113520D02*
Y9621520D01*
X22395180Y9113520D02*
X22458681D01*
X21628101Y9657080D02*
X21805901D01*
Y9618980D02*
Y9657080D01*
X21628101Y9618980D02*
Y9657080D01*
X21564600Y9618980D02*
X21628101D01*
Y9072880D02*
X21805901D01*
Y9110980D01*
X21628101Y9072880D02*
Y9110980D01*
X21805901D02*
X21869400D01*
X21564600D02*
X21628101D01*
X21869400D02*
Y9618980D01*
X21564600Y9110980D02*
Y9618980D01*
X21805901D02*
X21869400D01*
X23296880Y9072880D02*
X23474680D01*
X23296880D02*
Y9110980D01*
X23474680Y9072880D02*
Y9110980D01*
X23538181D01*
X23296880Y9657080D02*
X23474680D01*
X23296880Y9618980D02*
Y9657080D01*
X23474680Y9618980D02*
Y9657080D01*
X23233380Y9618980D02*
X23296880D01*
X23474680D02*
X23538181D01*
X23233380Y9110980D02*
Y9618980D01*
X23538181Y9110980D02*
Y9618980D01*
X23233380Y9110980D02*
X23296880D01*
X23111459D02*
Y9618980D01*
X23047960Y9110980D02*
X23111459D01*
X23047960Y9618980D02*
X23111459D01*
X23047960D02*
Y9657080D01*
X22870160D02*
X23047960D01*
X22870160Y9072880D02*
X23047960D01*
Y9110980D01*
X22870160Y9072880D02*
Y9110980D01*
X22806660D02*
Y9618980D01*
X22870160D02*
Y9657080D01*
X22806660Y9110980D02*
X22870160D01*
X22806660Y9618980D02*
X22870160D01*
X20307300Y9230360D02*
Y9293860D01*
X19799300Y9230360D02*
Y9293860D01*
X20307300Y9230360D02*
X20345399D01*
X19799300Y9293860D02*
X20307300D01*
X19761200Y9230360D02*
X19799300D01*
X19761200Y9052560D02*
X19799300D01*
X19761200D02*
Y9230360D01*
X20345399Y9052560D02*
Y9230360D01*
X20307300Y9052560D02*
X20345399D01*
X20307300Y8989060D02*
Y9052560D01*
X19799300Y8989060D02*
Y9052560D01*
Y8989060D02*
X20307300D01*
X19090640D02*
X19598640D01*
X19090640D02*
Y9052560D01*
X19598640Y8989060D02*
Y9052560D01*
X19636740D01*
Y9230360D01*
X19052541Y9052560D02*
Y9230360D01*
Y9052560D02*
X19090640D01*
X19052541Y9230360D02*
X19090640D01*
Y9293860D02*
X19598640D01*
Y9230360D02*
X19636740D01*
X19090640D02*
Y9293860D01*
X19598640Y9230360D02*
Y9293860D01*
X19923759Y8890000D02*
X19987260D01*
X19923759Y8382000D02*
X19987260D01*
Y8890000D02*
Y8928100D01*
X19923759Y8382000D02*
Y8890000D01*
X19987260Y8343900D02*
Y8382000D01*
X20165060Y8343900D02*
Y8382000D01*
X19987260Y8343900D02*
X20165060D01*
X19987260Y8928100D02*
X20165060D01*
Y8890000D02*
Y8928100D01*
Y8890000D02*
X20228560D01*
X20165060Y8382000D02*
X20228560D01*
Y8890000D01*
X20500340Y8991600D02*
Y9055100D01*
X21008340Y8991600D02*
Y9055100D01*
X20462241D02*
X20500340D01*
Y8991600D02*
X21008340D01*
Y9055100D02*
X21046440D01*
X21008340Y9232900D02*
X21046440D01*
Y9055100D02*
Y9232900D01*
X20462241Y9055100D02*
Y9232900D01*
X20500340D01*
Y9296400D01*
X21008340Y9232900D02*
Y9296400D01*
X20500340D02*
X21008340D01*
X20165060Y9418320D02*
X20228560D01*
X20165060Y9926320D02*
X20228560D01*
X20165060Y9380220D02*
Y9418320D01*
X20228560D02*
Y9926320D01*
X20165060D02*
Y9964420D01*
X19987260Y9926320D02*
Y9964420D01*
X20165060D01*
X19987260Y9380220D02*
X20165060D01*
X19987260D02*
Y9418320D01*
X19923759D02*
X19987260D01*
X19923759Y9926320D02*
X19987260D01*
X19923759Y9418320D02*
Y9926320D01*
D193*
X23583900Y11143778D02*
Y11243782D01*
X23533897Y11193780D02*
X23633897D01*
X21907500Y13884360D02*
Y13974361D01*
X21862500Y13929359D02*
X21952499D01*
X14463206Y15793272D02*
X14502097Y15754382D01*
X14463206Y15754382D02*
X14502097Y15793272D01*
X13739053Y13463519D02*
X13839053D01*
X13789050Y13413516D02*
Y13513516D01*
X21936238Y11793118D02*
X22036237D01*
X21986240Y11743121D02*
Y11843121D01*
X15656261Y13015939D02*
Y13115939D01*
X15606258Y13065938D02*
X15706258D01*
X19695160Y12317263D02*
Y12417262D01*
X19645158Y12367260D02*
X19745161D01*
X19113499Y12982738D02*
Y13082742D01*
X19063498Y13032739D02*
X19163503D01*
X20002499Y13584718D02*
Y13684721D01*
X19952502Y13634720D02*
X20052502D01*
X21524757Y12763500D02*
X21624757D01*
X21574760Y12713498D02*
Y12813503D01*
X22900639Y11804183D02*
Y11904182D01*
X22850638Y11854180D02*
X22950642D01*
X14267180Y11605260D02*
Y11676380D01*
X14222180Y11640820D02*
X14312180D01*
X19890739Y10149840D02*
Y10220960D01*
X19845741Y10185400D02*
X19935739D01*
X19552921Y10881360D02*
X19624040D01*
X19588480Y10836361D02*
Y10926359D01*
X19552921Y10581640D02*
X19624040D01*
X19588480Y10536641D02*
Y10626639D01*
X20201341Y12237720D02*
X20291339D01*
X20246339Y12202160D02*
Y12273280D01*
X19655241Y11864340D02*
X19745239D01*
X19700240Y11828780D02*
Y11899900D01*
X16230600Y11839661D02*
Y11929659D01*
X16195039Y11884660D02*
X16266161D01*
X19030402Y12130339D02*
X19120399D01*
X19075400Y12094779D02*
Y12165899D01*
X15661639Y11925300D02*
X15732761D01*
X15697200Y11880301D02*
Y11970299D01*
X19655241Y12024360D02*
X19745239D01*
X19700240Y11988800D02*
Y12059920D01*
X19608800Y12726121D02*
Y12816119D01*
X19573241Y12771120D02*
X19644360D01*
X19005000Y12606020D02*
X19095000D01*
X19050000Y12570460D02*
Y12641580D01*
X19883121Y12726121D02*
Y12816119D01*
X19847560Y12771120D02*
X19918680D01*
X12718035Y15902686D02*
X12768325Y15852396D01*
X12711361Y15845721D02*
X12774999Y15909360D01*
X14128679Y15419141D02*
X14192320Y15355499D01*
X14135355Y15362173D02*
X14185646Y15412466D01*
X15082774Y16340074D02*
X15133066Y16390366D01*
X15076099Y16397041D02*
X15139742Y16333398D01*
X13971199Y17938680D02*
X14034840Y18002321D01*
X13977875Y17995647D02*
X14028166Y17945354D01*
X12345601Y16889799D02*
X12409239Y16826161D01*
X12352275Y16832835D02*
X12402565Y16883125D01*
X14348714Y18095213D02*
X14399007Y18145506D01*
X14342039Y18152180D02*
X14405681Y18088539D01*
X14082959Y17826920D02*
X14146600Y17890561D01*
X14089635Y17883887D02*
X14139926Y17833594D01*
X14963394Y16220694D02*
X15013686Y16270985D01*
X14956718Y16277661D02*
X15020361Y16214018D01*
X12154155Y15173705D02*
X12204445Y15123415D01*
X12147481Y15116740D02*
X12211119Y15180379D01*
X12034775Y15293085D02*
X12085065Y15242795D01*
X12028101Y15236121D02*
X12091739Y15299759D01*
X11818875Y15084805D02*
X11869165Y15034515D01*
X11812201Y15027841D02*
X11875839Y15091479D01*
X12853601Y15281841D02*
X12917239Y15345479D01*
X12860275Y15338805D02*
X12910565Y15288515D01*
X13071095Y15552165D02*
X13121385Y15501875D01*
X13064421Y15495201D02*
X13128059Y15558839D01*
X12391321Y16211620D02*
X12454959Y16147981D01*
X12397995Y16154655D02*
X12448285Y16204945D01*
X13712122Y15238799D02*
X13775758Y15175162D01*
X13718794Y15181834D02*
X13769086Y15232124D01*
X22439159Y11877040D02*
X22539162D01*
X22489160Y11827043D02*
Y11927042D01*
X24377177Y12077700D02*
X24477177D01*
X24427180Y12027703D02*
Y12127702D01*
X23808141Y11300460D02*
X23898138D01*
X23853140Y11264900D02*
Y11336020D01*
X23269737Y10754360D02*
X23369742D01*
X23319740Y10704363D02*
Y10804362D01*
X22987798Y10754360D02*
X23087802D01*
X23037801Y10704363D02*
Y10804362D01*
X22705858Y10754360D02*
X22805862D01*
X22755859Y10704363D02*
Y10804362D01*
X24084280Y11875221D02*
Y11965219D01*
X24048721Y11920220D02*
X24119841D01*
X22707600Y11900621D02*
Y11990619D01*
X22672040Y11945620D02*
X22743159D01*
X23393401Y11136081D02*
Y11226079D01*
X23357840Y11181080D02*
X23428960D01*
X24384000Y12477720D02*
X24455119D01*
X24419560Y12432721D02*
Y12522718D01*
X24251920Y12432721D02*
Y12522718D01*
X24216360Y12477720D02*
X24287480D01*
X25120702Y13428979D02*
Y13500101D01*
X25075703Y13464540D02*
X25165704D01*
X23804880Y12903922D02*
Y12993919D01*
X23769321Y12948920D02*
X23840440D01*
X22908260Y12200341D02*
Y12290339D01*
X22872701Y12245340D02*
X22943820D01*
X22779440Y11567160D02*
X22869440D01*
X22824440Y11531600D02*
Y11602720D01*
X22779440Y11407140D02*
X22869440D01*
X22824440Y11371580D02*
Y11442700D01*
X22900639Y12585121D02*
Y12675118D01*
X22865080Y12630120D02*
X22936200D01*
X22779440Y11244580D02*
X22869440D01*
X22824440Y11209020D02*
Y11280140D01*
X23195280Y11181080D02*
X23266400D01*
X23230840Y11136081D02*
Y11226079D01*
X21814317Y12763500D02*
X21914317D01*
X21864320Y12713498D02*
Y12813503D01*
X19154140Y15428680D02*
Y15518678D01*
X19118581Y15473680D02*
X19189700D01*
X18785840Y15428680D02*
Y15518678D01*
X18750281Y15473680D02*
X18821400D01*
X18968719Y15428680D02*
Y15518678D01*
X18933160Y15473680D02*
X19004280D01*
X19685721Y15349220D02*
X19775719D01*
X19730721Y15313660D02*
Y15384779D01*
X19685721Y15674339D02*
X19775719D01*
X19730721Y15638780D02*
Y15709900D01*
X19685721Y15514320D02*
X19775719D01*
X19730721Y15478760D02*
Y15549879D01*
X17046661Y15595599D02*
X17136659D01*
X17091660Y15560040D02*
Y15631160D01*
X17046661Y15405099D02*
X17136659D01*
X17091660Y15369540D02*
Y15440660D01*
X16744402Y15590520D02*
X16834399D01*
X16789400Y15554961D02*
Y15626080D01*
X19306540Y15473680D02*
X19377660D01*
X19342101Y15428680D02*
Y15518678D01*
X16741141Y12341860D02*
X16812260D01*
X16776700Y12296861D02*
Y12386859D01*
X16959579Y12296861D02*
Y12386859D01*
X16924020Y12341860D02*
X16995140D01*
X16243300Y12108180D02*
Y12179300D01*
X16198302Y12143740D02*
X16288300D01*
X16543021Y12113260D02*
Y12184380D01*
X16498021Y12148820D02*
X16588019D01*
X15356841Y13985240D02*
Y14056360D01*
X15311841Y14020799D02*
X15401839D01*
X15356841Y13825220D02*
Y13896339D01*
X15311841Y13860780D02*
X15401839D01*
X16461995Y13725905D02*
X16512285Y13675615D01*
X16455321Y13668941D02*
X16518959Y13732579D01*
X16340076Y13845285D02*
X16390366Y13794995D01*
X16333401Y13788321D02*
X16397038Y13851959D01*
X15311841Y14180820D02*
X15401839D01*
X15356841Y14145261D02*
Y14216380D01*
X14005560Y13606779D02*
X14076680D01*
X14041119Y13561781D02*
Y13651779D01*
X15504160Y11925300D02*
X15575281D01*
X15539720Y11880301D02*
Y11970299D01*
X15501620Y12336780D02*
X15572740D01*
X15537180Y12291781D02*
Y12381779D01*
X16805360Y13662660D02*
X16895358D01*
X16850360Y13627100D02*
Y13698219D01*
Y13444220D02*
Y13515340D01*
X16805360Y13479781D02*
X16895358D01*
X16551361Y12740640D02*
X16641359D01*
X16596359Y12705080D02*
Y12776200D01*
X14010640Y13307060D02*
X14081760D01*
X14046201Y13262061D02*
Y13352058D01*
X15133321Y12057380D02*
X15204440D01*
X15168880Y12012381D02*
Y12102379D01*
X15611562Y14018260D02*
X15701559D01*
X15656560Y13982700D02*
Y14053819D01*
Y14297659D02*
Y14368781D01*
X15611562Y14333220D02*
X15701559D01*
X15736021Y12331700D02*
X15826019D01*
X15781020Y12296140D02*
Y12367260D01*
X20373340Y13668542D02*
Y13768542D01*
X20323337Y13718539D02*
X20423341D01*
X24339178Y10736580D02*
X24439178D01*
X24389182Y10686578D02*
Y10786582D01*
X24892000Y12776998D02*
Y12877002D01*
X24841998Y12827000D02*
X24941997D01*
X24226520Y12777003D02*
Y12877002D01*
X24176518Y12827000D02*
X24276521D01*
X24842099Y13192760D02*
X24942099D01*
X24892102Y13142763D02*
Y13242763D01*
X24226520Y13145297D02*
Y13245302D01*
X24176518Y13195300D02*
X24276517D01*
X20196342Y11701780D02*
X20296342D01*
X20246339Y11651778D02*
Y11751782D01*
X19114160Y11654318D02*
Y11754322D01*
X19064159Y11704320D02*
X19164159D01*
X19995683Y10896600D02*
X20095682D01*
X20045680Y10846603D02*
Y10946602D01*
X24599321Y9438640D02*
X24689317D01*
X24644321Y9393641D02*
Y9483639D01*
X24218321Y9438640D02*
X24308318D01*
X24263319Y9393641D02*
Y9483639D01*
X20226741Y10725120D02*
X20316739D01*
X20271741Y10680121D02*
Y10770118D01*
X21122061Y13967461D02*
X21212057D01*
X21167059Y13922461D02*
Y14012459D01*
X24566818Y9156121D02*
Y9246118D01*
X24521820Y9201120D02*
X24611818D01*
X24185818Y9166281D02*
Y9256278D01*
X24140820Y9211280D02*
X24230818D01*
X20200102Y12395200D02*
X20290099D01*
X20245100Y12350201D02*
Y12440199D01*
X19989799Y12279081D02*
Y12369079D01*
X19944801Y12324080D02*
X20034799D01*
X19029102Y12292899D02*
X19119098D01*
X19074100Y12247900D02*
Y12337903D01*
X19331940Y12162841D02*
Y12252838D01*
X19286942Y12207839D02*
X19376939D01*
X19003700Y12447260D02*
X19093698D01*
X19048700Y12402261D02*
Y12492258D01*
X19306540Y12479762D02*
Y12569759D01*
X19261542Y12524760D02*
X19351540D01*
X13160461Y18919160D02*
X13250459D01*
X13205460Y18874161D02*
Y18964159D01*
X12909001Y18919160D02*
X12998999D01*
X12953999Y18874161D02*
Y18964159D01*
X13414461Y18919160D02*
X13504459D01*
X13459460Y18874161D02*
Y18964159D01*
X15554961Y19556181D02*
Y19646179D01*
X15509961Y19601180D02*
X15599959D01*
X12716114Y17153494D02*
X12755006Y17192386D01*
X12716114D02*
X12755006Y17153494D01*
X12546261Y15624741D02*
X12609899Y15688379D01*
X12546261D02*
X12609899Y15624741D01*
X11929041Y14969559D02*
X11992679Y14905920D01*
X11929041D02*
X11992679Y14969559D01*
X12632621Y15055782D02*
X12696259Y15119418D01*
X12632621D02*
X12696259Y15055782D01*
X13232060Y15345341D02*
X13295699Y15408978D01*
X13232060D02*
X13295699Y15345341D01*
X13011081Y15124361D02*
X13074719Y15187999D01*
X13011081D02*
X13074719Y15124361D01*
X12754541Y14930939D02*
X12818179Y14994577D01*
X12754541D02*
X12818179Y14930939D01*
X13601282Y15126118D02*
X13664919Y15062482D01*
X13601282D02*
X13664919Y15126118D01*
X23812308Y11104880D02*
X23902309D01*
X23857306Y11059881D02*
Y11149879D01*
X23947121Y10829981D02*
Y10919978D01*
X23902121Y10874980D02*
X23992119D01*
X23653720Y12746441D02*
Y12836440D01*
X23608720Y12791440D02*
X23698718D01*
X24102060Y12434021D02*
Y12524019D01*
X24057060Y12479020D02*
X24147060D01*
X23531219Y12556520D02*
X23621217D01*
X23576219Y12511522D02*
Y12601519D01*
X23959821Y12436561D02*
Y12526559D01*
X23914821Y12481560D02*
X24004819D01*
X23065739Y12586421D02*
Y12676419D01*
X23020741Y12631420D02*
X23110739D01*
X23220680Y12588961D02*
Y12678959D01*
X23175681Y12633960D02*
X23265678D01*
X10607760Y9486900D02*
X10697760D01*
X10652760Y9441900D02*
Y9531900D01*
X19444421Y15473680D02*
X19534419D01*
X19489420Y15428680D02*
Y15518678D01*
X15212781Y18934460D02*
X15302779D01*
X15257780Y18889462D02*
Y18979459D01*
X15212781Y18627060D02*
X15302779D01*
X15257780Y18582060D02*
Y18672058D01*
X14493961Y18925540D02*
X14583958D01*
X14538960Y18880540D02*
Y18970538D01*
X15045142Y18930620D02*
X15135139D01*
X15090140Y18885622D02*
Y18975620D01*
X14823441Y9463461D02*
Y9553458D01*
X14778441Y9508460D02*
X14868439D01*
X14993620Y9463461D02*
Y9553458D01*
X14948621Y9508460D02*
X15038618D01*
X14328140Y9463461D02*
Y9553458D01*
X14283141Y9508460D02*
X14373138D01*
X14488161Y9463461D02*
Y9553458D01*
X14443161Y9508460D02*
X14533159D01*
X14648180Y9462221D02*
Y9552218D01*
X14603181Y9507219D02*
X14693179D01*
X16857980Y9500321D02*
Y9590319D01*
X16812981Y9545320D02*
X16902979D01*
X16857980Y9805121D02*
Y9895119D01*
X16812981Y9850120D02*
X16902979D01*
X16212820Y9497781D02*
Y9587779D01*
X16167821Y9542780D02*
X16257819D01*
X16710660Y9497781D02*
Y9587779D01*
X16665662Y9542780D02*
X16755659D01*
X14245041Y12760960D02*
X14335039D01*
X14290041Y12715961D02*
Y12805959D01*
X16685982Y12575540D02*
X16775980D01*
X16730980Y12530541D02*
Y12620539D01*
X16199602Y12313920D02*
X16289600D01*
X16244600Y12268921D02*
Y12358919D01*
X16492941Y12313920D02*
X16582939D01*
X16537939Y12268921D02*
Y12358919D01*
X14300200Y13409381D02*
Y13499379D01*
X14255202Y13454379D02*
X14345200D01*
X14998700Y12013621D02*
Y12103618D01*
X14953700Y12058620D02*
X15043700D01*
X15615402Y13858240D02*
X15705399D01*
X15660400Y13813242D02*
Y13903239D01*
X15615402Y14180820D02*
X15705399D01*
X15660400Y14135822D02*
Y14225819D01*
X15736021Y12176760D02*
X15826019D01*
X15781020Y12131761D02*
Y12221759D01*
X19582059Y9516039D02*
X19645702Y9579681D01*
X19582059D02*
X19645702Y9516039D01*
X19576979Y8787201D02*
X19640620Y8723559D01*
X19576979D02*
X19640620Y8787201D01*
X20486299Y8733719D02*
X20549940Y8797361D01*
X20486299D02*
X20549940Y8733719D01*
X20443118Y9587301D02*
X20506761Y9523659D01*
X20443118D02*
X20506761Y9587301D01*
X12347244Y15496628D02*
X12417954Y15425919D01*
X12347248D02*
X12417958Y15496628D01*
X14752319Y13413741D02*
Y13484860D01*
X14707321Y13449300D02*
X14797319D01*
X15318739Y12057380D02*
X15389861D01*
X15354300Y12012381D02*
Y12102379D01*
X13466501Y12085320D02*
X13556499D01*
X13511501Y12040321D02*
Y12130319D01*
X13467801Y12260580D02*
X13557799D01*
X13512801Y12225020D02*
Y12296140D01*
X24869141Y11819340D02*
Y11909340D01*
X24824139Y11864340D02*
X24914140D01*
X20510500Y11019240D02*
Y11109240D01*
X20465500Y11064240D02*
X20555499D01*
D197*
X23489920Y11356340D02*
X23677879D01*
X23489920Y11033760D02*
X23677879D01*
Y11356340D01*
X23489920Y11033760D02*
Y11356340D01*
X22047200Y13865860D02*
Y13992860D01*
X21760181D02*
X22047200D01*
X21760181Y13865860D02*
X22047200D01*
X21760181D02*
Y13992860D01*
X14387193Y15805647D02*
X14450832Y15869289D01*
X14578111Y15742007D01*
X14387193Y15805647D02*
X14514471Y15678369D01*
X14578111Y15742007D01*
X13639053Y13273517D02*
Y13653516D01*
Y13273517D02*
X13939053D01*
X13639053Y13653516D02*
X13939053D01*
Y13273517D02*
Y13653516D01*
X21821242Y11493119D02*
Y12093118D01*
X22151237Y11493119D02*
Y12093118D01*
X21821242Y11493119D02*
X22151237D01*
X21821242Y12093118D02*
X22151237D01*
X16216258Y12505939D02*
Y13625941D01*
X15096262Y12505939D02*
X16216258D01*
X15096262Y13625941D02*
X16216258D01*
X15096262Y12505939D02*
Y13625941D01*
X19905162Y12157258D02*
Y12577262D01*
X19485158D02*
X19905162D01*
X19485158Y12157258D02*
X19905162D01*
X19485158D02*
Y12577262D01*
X23879805Y11420551D02*
Y12440549D01*
X23099806D02*
X23879805D01*
X23099806Y11420551D02*
Y12440549D01*
Y11420551D02*
X23879805D01*
X13998499Y12680859D02*
X14576501D01*
X13998499Y11748861D02*
Y12680859D01*
X14576501Y11748861D02*
Y12680859D01*
X13998499Y11748861D02*
X14576501D01*
X21507860Y13526801D02*
X21717860D01*
Y14006799D01*
X21507860D02*
X21717860D01*
X21507860Y13526801D02*
Y14006799D01*
X21562860Y13766800D02*
X21662860D01*
X21612860Y13716800D02*
Y13816800D01*
X15552420Y19957584D02*
Y20057582D01*
X15502423Y20007581D02*
X15602422D01*
X15622421Y19867580D02*
Y20147580D01*
X15482417Y19867580D02*
X15622421D01*
X15482417D02*
Y20147580D01*
X15622421D01*
X20075200Y17072240D02*
X21225200D01*
X20075200Y16297240D02*
Y17072240D01*
X21225200Y16297240D02*
Y17072240D01*
X20075200Y16297240D02*
X21225200D01*
X14270502Y19156680D02*
Y20198080D01*
X15320499D01*
X14270502Y19156680D02*
X15320499D01*
Y20198080D01*
X16999438Y8354060D02*
Y9395460D01*
X15949442D02*
X16999438D01*
X15949442Y8354060D02*
X16999438D01*
X15949442D02*
Y9395460D01*
X13665199Y8275320D02*
Y9964420D01*
Y8275320D02*
X15468600D01*
X13665199Y9964420D02*
X15468600D01*
Y8275320D02*
Y9964420D01*
X26230539Y8265058D02*
Y9795058D01*
X25150542Y8265058D02*
X26230539D01*
X25150542Y9795058D02*
X26230539D01*
X25150542Y8265058D02*
Y9795058D01*
X25784760Y14985320D02*
Y20107321D01*
Y14985320D02*
X26254761D01*
Y20107321D01*
X25784760D02*
X26254761D01*
X18756000Y12702738D02*
X19471001D01*
X18756000Y13362743D02*
X19471001D01*
Y12702738D02*
Y13362743D01*
X18756000Y12702738D02*
Y13362743D01*
X19812498Y13418820D02*
X20192502D01*
X19812498Y13850620D02*
X20192502D01*
X19812498Y13418820D02*
Y13850620D01*
X20192502Y13418820D02*
Y13850620D01*
X10957418Y9924222D02*
X13097420D01*
Y8399338D02*
Y9924222D01*
X10957418Y8399338D02*
Y9924222D01*
Y8399338D02*
X13097420D01*
X21454761Y12528499D02*
Y12998502D01*
X21694760Y12528499D02*
Y12998502D01*
X21454761Y12528499D02*
X21694760D01*
X21454761Y12998502D02*
X21694760D01*
X22806660Y11691620D02*
X22994620D01*
X22806660Y12014200D02*
X22994620D01*
X22806660Y11691620D02*
Y12014200D01*
X22994620Y11691620D02*
Y12014200D01*
X14127480Y11564620D02*
X14406880D01*
Y11714480D01*
X14127480D02*
X14406880D01*
X14127480Y11564620D02*
Y11714480D01*
X19751041Y10109200D02*
X20030440D01*
Y10259060D01*
X19751041D02*
X20030440D01*
X19751041Y10109200D02*
Y10259060D01*
X19664680Y10741660D02*
Y11021060D01*
X19514819D02*
X19664680D01*
X19514819Y10741660D02*
Y11021060D01*
Y10741660D02*
X19664680D01*
Y10441940D02*
Y10721340D01*
X19514819D02*
X19664680D01*
X19514819Y10441940D02*
Y10721340D01*
Y10441940D02*
X19664680D01*
X20106641Y12161520D02*
Y12311380D01*
X20386040D01*
Y12161520D02*
Y12311380D01*
X20106641Y12161520D02*
X20386040D01*
X19560539Y11788140D02*
Y11938000D01*
X19839940D01*
Y11788140D02*
Y11938000D01*
X19560539Y11788140D02*
X19839940D01*
X16154401Y11744960D02*
X16304260D01*
Y12024360D01*
X16154401Y11744960D02*
Y12024360D01*
X16304260D01*
X19215100Y12056679D02*
Y12206539D01*
X18935699Y12056679D02*
X19215100D01*
X18935699D02*
Y12206539D01*
X19215100D01*
X15623540Y11785600D02*
X15773399D01*
Y12065000D01*
X15623540Y11785600D02*
Y12065000D01*
X15773399D01*
X19560539Y11948160D02*
Y12098020D01*
X19839940D01*
Y11948160D02*
Y12098020D01*
X19560539Y11948160D02*
X19839940D01*
X19532600Y12910820D02*
X19682460D01*
Y12631420D02*
Y12910820D01*
X19532600Y12631420D02*
X19682460D01*
X19532600D02*
Y12910820D01*
X19189700Y12532360D02*
Y12682220D01*
X18910300Y12532360D02*
X19189700D01*
X18910300D02*
Y12682220D01*
X19189700D01*
X19806920Y12910820D02*
X19956779D01*
Y12631420D02*
Y12910820D01*
X19806920Y12631420D02*
X19956779D01*
X19806920D02*
Y12910820D01*
X12698279Y15724876D02*
X12895844Y15922441D01*
X12789877Y16028407D02*
X12895844Y15922441D01*
X12592312Y15830843D02*
X12789877Y16028407D01*
X12592312Y15830843D02*
X12698279Y15724876D01*
X14207195Y15236453D02*
X14313164Y15342418D01*
X14009634Y15434015D02*
X14207195Y15236453D01*
X14009634Y15434015D02*
X14115598Y15539984D01*
X14313164Y15342418D01*
X15063017Y16517883D02*
X15260583Y16320319D01*
X14957054Y16411916D02*
X15063017Y16517883D01*
X14957054Y16411916D02*
X15154614Y16214354D01*
X15260583Y16320319D01*
X14047922Y18123164D02*
X14153891Y18017195D01*
X13956325Y17819633D02*
X14153891Y18017195D01*
X13850356Y17925598D02*
X13956325Y17819633D01*
X13850356Y17925598D02*
X14047922Y18123164D01*
X12224756Y16902881D02*
X12330723Y17008849D01*
X12528288Y16811282D01*
X12422321Y16705316D02*
X12528288Y16811282D01*
X12224756Y16902881D02*
X12422321Y16705316D01*
X14221196Y18165262D02*
X14418762Y17967696D01*
X14524725Y18073665D01*
X14327165Y18271227D02*
X14524725Y18073665D01*
X14221196Y18165262D02*
X14327165Y18271227D01*
X13963914Y17812045D02*
X14069878Y17706076D01*
X13963914Y17812045D02*
X14161475Y18009612D01*
X14267444Y17903642D01*
X14069878Y17706076D02*
X14267444Y17903642D01*
X14835876Y16290742D02*
X15033443Y16093176D01*
X15139410Y16199146D01*
X14941846Y16396712D02*
X15139410Y16199146D01*
X14835876Y16290742D02*
X14941846Y16396712D01*
X12134399Y14995895D02*
X12331964Y15193462D01*
X12225997Y15299428D02*
X12331964Y15193462D01*
X12028432Y15101863D02*
X12225997Y15299428D01*
X12028432Y15101863D02*
X12134399Y14995895D01*
X12015019Y15115276D02*
X12212584Y15312840D01*
X12106617Y15418808D02*
X12212584Y15312840D01*
X11909052Y15221243D02*
X12106617Y15418808D01*
X11909052Y15221243D02*
X12015019Y15115276D01*
X11799119Y14906996D02*
X11996684Y15104561D01*
X11890717Y15210529D02*
X11996684Y15104561D01*
X11693152Y15012962D02*
X11890717Y15210529D01*
X11693152Y15012962D02*
X11799119Y14906996D01*
X12930321Y15466324D02*
X13036288Y15360358D01*
X12838724Y15162791D02*
X13036288Y15360358D01*
X12732756Y15268759D02*
X12838724Y15162791D01*
X12732756Y15268759D02*
X12930321Y15466324D01*
X13051340Y15374356D02*
X13248904Y15571921D01*
X13142937Y15677888D02*
X13248904Y15571921D01*
X12945372Y15480322D02*
X13142937Y15677888D01*
X12945372Y15480322D02*
X13051340Y15374356D01*
X12270476Y16224701D02*
X12376443Y16330669D01*
X12574008Y16133102D01*
X12468041Y16027136D02*
X12574008Y16133102D01*
X12270476Y16224701D02*
X12468041Y16027136D01*
X13790637Y15056113D02*
X13896603Y15162079D01*
X13593073Y15253677D02*
X13790637Y15056113D01*
X13593073Y15253677D02*
X13699039Y15359644D01*
X13896603Y15162079D01*
X22609160Y11642039D02*
Y12112041D01*
X22369160Y11642039D02*
Y12112041D01*
X22609160D01*
X22369160Y11642039D02*
X22609160D01*
X24662181Y11957700D02*
Y12197700D01*
X24192178Y11957700D02*
Y12197700D01*
Y11957700D02*
X24662181D01*
X24192178Y12197700D02*
X24662181D01*
X23713440Y11224260D02*
Y11374120D01*
X23992841D01*
Y11224260D02*
Y11374120D01*
X23713440Y11224260D02*
X23992841D01*
X23439740Y10519359D02*
Y10989361D01*
X23199741Y10519359D02*
Y10989361D01*
X23439740D01*
X23199741Y10519359D02*
X23439740D01*
X23157800D02*
Y10989361D01*
X22917799Y10519359D02*
Y10989361D01*
X23157800D01*
X22917799Y10519359D02*
X23157800D01*
X22875861D02*
Y10989361D01*
X22635860Y10519359D02*
Y10989361D01*
X22875861D01*
X22635860Y10519359D02*
X22875861D01*
X24010622Y11780520D02*
X24160481D01*
X24010622D02*
Y12059920D01*
X24160481D01*
Y11780520D02*
Y12059920D01*
X22633940Y11805920D02*
X22783800D01*
X22633940D02*
Y12085320D01*
X22783800D01*
Y11805920D02*
Y12085320D01*
X23317200Y11320780D02*
X23467059D01*
Y11041380D02*
Y11320780D01*
X23317200Y11041380D02*
X23467059D01*
X23317200D02*
Y11320780D01*
X24343359Y12338020D02*
Y12617420D01*
Y12338020D02*
X24493221D01*
Y12617420D01*
X24343359D02*
X24493221D01*
X24178259Y12338020D02*
X24328120D01*
X24178259D02*
Y12617420D01*
X24328120D01*
Y12338020D02*
Y12617420D01*
X24981001Y13540739D02*
X25260402D01*
X24981001Y13390880D02*
Y13540739D01*
Y13390880D02*
X25260402D01*
Y13540739D01*
X23731219Y12809219D02*
X23881081D01*
X23731219D02*
Y13088620D01*
X23881081D01*
Y12809219D02*
Y13088620D01*
X22834599Y12105640D02*
X22984460D01*
X22834599D02*
Y12385040D01*
X22984460D01*
Y12105640D02*
Y12385040D01*
X22684740Y11490960D02*
Y11640820D01*
X22964140D01*
Y11490960D02*
Y11640820D01*
X22684740Y11490960D02*
X22964140D01*
X22684740Y11330940D02*
Y11480800D01*
X22964140D01*
Y11330940D02*
Y11480800D01*
X22684740Y11330940D02*
X22964140D01*
X22826981Y12490420D02*
X22976840D01*
X22826981D02*
Y12769820D01*
X22976840D01*
Y12490420D02*
Y12769820D01*
X22684740Y11168380D02*
Y11318240D01*
X22964140D01*
Y11168380D02*
Y11318240D01*
X22684740Y11168380D02*
X22964140D01*
X23154640Y11041380D02*
Y11320780D01*
Y11041380D02*
X23304500D01*
Y11320780D01*
X23154640D02*
X23304500D01*
X21744321Y12528499D02*
Y12998502D01*
X21984320Y12528499D02*
Y12998502D01*
X21744321Y12528499D02*
X21984320D01*
X21744321Y12998502D02*
X21984320D01*
X19080479Y15333980D02*
X19230341D01*
X19080479D02*
Y15613380D01*
X19230341D01*
Y15333980D02*
Y15613380D01*
X18712180Y15333980D02*
X18862041D01*
X18712180D02*
Y15613380D01*
X18862041D01*
Y15333980D02*
Y15613380D01*
X18895061Y15333980D02*
X19044920D01*
X18895061D02*
Y15613380D01*
X19044920D01*
Y15333980D02*
Y15613380D01*
X19870419Y15275560D02*
Y15425420D01*
X19591020Y15275560D02*
X19870419D01*
X19591020D02*
Y15425420D01*
X19870419D01*
Y15600681D02*
Y15750540D01*
X19591020Y15600681D02*
X19870419D01*
X19591020D02*
Y15750540D01*
X19870419D01*
Y15440660D02*
Y15590520D01*
X19591020Y15440660D02*
X19870419D01*
X19591020D02*
Y15590520D01*
X19870419D01*
X16951961Y15519400D02*
Y15669260D01*
X17231360D01*
Y15519400D02*
Y15669260D01*
X16951961Y15519400D02*
X17231360D01*
X16951961Y15328900D02*
Y15478760D01*
X17231360D01*
Y15328900D02*
Y15478760D01*
X16951961Y15328900D02*
X17231360D01*
X16929100Y15516859D02*
Y15666721D01*
X16649699Y15516859D02*
X16929100D01*
X16649699D02*
Y15666721D01*
X16929100D01*
X19418300Y15333980D02*
Y15613380D01*
X19268440D02*
X19418300D01*
X19268440Y15333980D02*
Y15613380D01*
Y15333980D02*
X19418300D01*
X16703040Y12202160D02*
Y12481560D01*
Y12202160D02*
X16852901D01*
X16703040Y12481560D02*
X16852901D01*
Y12202160D02*
Y12481560D01*
X16885921Y12202160D02*
X17035780D01*
X16885921D02*
Y12481560D01*
X17035780D01*
Y12202160D02*
Y12481560D01*
X16103600Y12070080D02*
X16383000D01*
Y12219940D01*
X16103600Y12070080D02*
Y12219940D01*
X16383000D01*
X16403320Y12222480D02*
X16682719D01*
X16403320Y12072620D02*
Y12222480D01*
X16682719Y12072620D02*
Y12222480D01*
X16403320Y12072620D02*
X16682719D01*
X15217140Y13944600D02*
X15496539D01*
Y14094460D01*
X15217140D02*
X15496539D01*
X15217140Y13944600D02*
Y14094460D01*
Y13784579D02*
X15496539D01*
Y13934441D01*
X15217140D02*
X15496539D01*
X15217140Y13784579D02*
Y13934441D01*
X16440443Y13549892D02*
X16638008Y13747456D01*
X16532040Y13853424D02*
X16638008Y13747456D01*
X16334476Y13655859D02*
X16440443Y13549892D01*
X16334476Y13655859D02*
X16532040Y13853424D01*
X16318523Y13669272D02*
X16516087Y13866837D01*
X16410121Y13972804D02*
X16516087Y13866837D01*
X16212556Y13775240D02*
X16318523Y13669272D01*
X16212556Y13775240D02*
X16410121Y13972804D01*
X15217140Y14104620D02*
Y14254480D01*
X15496539D01*
Y14104620D02*
Y14254480D01*
X15217140Y14104620D02*
X15496539D01*
X13967461Y13467081D02*
X14117320D01*
Y13746480D01*
X13967461Y13467081D02*
Y13746480D01*
X14117320D01*
X15613380Y11785600D02*
Y12065000D01*
X15463519D02*
X15613380D01*
X15463519Y11785600D02*
X15613380D01*
X15463519D02*
Y12065000D01*
Y12197080D02*
Y12476480D01*
Y12197080D02*
X15613380D01*
X15463519Y12476480D02*
X15613380D01*
Y12197080D02*
Y12476480D01*
X16990060Y13589000D02*
Y13738860D01*
X16710660Y13589000D02*
X16990060D01*
X16710660D02*
Y13738860D01*
X16990060D01*
X16710660Y13406120D02*
X16990060D01*
Y13555980D01*
X16710660Y13406120D02*
Y13555980D01*
X16990060D01*
X16736060Y12666980D02*
Y12816840D01*
X16456660Y12666980D02*
X16736060D01*
X16456660D02*
Y12816840D01*
X16736060D01*
X14119859Y13167360D02*
Y13446761D01*
X13970000D02*
X14119859D01*
X13970000Y13167360D02*
X14119859D01*
X13970000D02*
Y13446761D01*
X15095219Y11917680D02*
Y12197080D01*
Y11917680D02*
X15245081D01*
X15095219Y12197080D02*
X15245081D01*
Y11917680D02*
Y12197080D01*
X15516859Y13942059D02*
Y14091920D01*
X15796260D01*
Y13942059D02*
Y14091920D01*
X15516859Y13942059D02*
X15796260D01*
X15516859Y14409419D02*
X15796260D01*
X15516859Y14259560D02*
Y14409419D01*
Y14259560D02*
X15796260D01*
Y14409419D01*
X15920720Y12258040D02*
Y12407900D01*
X15641319Y12258040D02*
X15920720D01*
X15641319D02*
Y12407900D01*
X15920720D01*
X20208340Y14018539D02*
X20538338D01*
X20208340Y13418541D02*
X20538338D01*
Y14018539D01*
X20208340Y13418541D02*
Y14018539D01*
X24089182Y10571582D02*
Y10901578D01*
X24689182Y10571582D02*
Y10901578D01*
X24089182D02*
X24689182D01*
X24089182Y10571582D02*
X24689182D01*
X24592001Y12662002D02*
X25191998D01*
X24592001Y12991998D02*
X25191998D01*
Y12662002D02*
Y12991998D01*
X24592001Y12662002D02*
Y12991998D01*
X23926521D02*
X24526518D01*
X23926521Y12662002D02*
X24526518D01*
X23926521D02*
Y12991998D01*
X24526518Y12662002D02*
Y12991998D01*
X25192101Y13027762D02*
Y13357758D01*
X24592102Y13027762D02*
Y13357758D01*
Y13027762D02*
X25192101D01*
X24592102Y13357758D02*
X25192101D01*
X23926521Y13030302D02*
X24526518D01*
X23926521Y13360298D02*
X24526518D01*
Y13030302D02*
Y13360298D01*
X23926521Y13030302D02*
Y13360298D01*
X10550301Y8741440D02*
X10760299D01*
X10550301D02*
Y9221440D01*
X10760299D01*
Y8741440D02*
Y9221440D01*
X10605303Y8981440D02*
X10705302D01*
X10655300Y8931438D02*
Y9031437D01*
X20576341Y11344280D02*
Y12059280D01*
X19916338Y11344280D02*
Y12059280D01*
X20576341D01*
X19916338Y11344280D02*
X20576341D01*
X18756660Y11374318D02*
X19471660D01*
X18756660Y12034322D02*
X19471660D01*
Y11374318D02*
Y12034322D01*
X18756660Y11374318D02*
Y12034322D01*
X26254761Y9864679D02*
Y14986681D01*
X25784760D02*
X26254761D01*
X25784760Y9864679D02*
X26254761D01*
X25784760D02*
Y14986681D01*
X10715041Y14985320D02*
Y20107321D01*
X10245039D02*
X10715041D01*
X10245039Y14985320D02*
Y20107321D01*
Y14985320D02*
X10715041D01*
X20139661Y10734040D02*
Y11056620D01*
X19951700Y10734040D02*
Y11056620D01*
X20139661D01*
X19951700Y10734040D02*
X20139661D01*
X24504620Y9375140D02*
Y9502140D01*
X24791640D01*
X24504620Y9375140D02*
X24791640D01*
Y9502140D01*
X24123621Y9375140D02*
Y9502140D01*
X24410640D01*
X24123621Y9375140D02*
X24410640D01*
Y9502140D01*
X20208240Y10585420D02*
X20335240D01*
Y10872440D01*
X20208240Y10585420D02*
Y10872440D01*
X20335240D01*
X21314380Y13903960D02*
Y14030960D01*
X21027361D02*
X21314380D01*
X21027361Y13903960D02*
X21314380D01*
X21027361D02*
Y14030960D01*
X24503319Y9061420D02*
X24630319D01*
X24503319D02*
Y9348440D01*
X24630319Y9061420D02*
Y9348440D01*
X24503319D02*
X24630319D01*
X24122319Y9071580D02*
X24249319D01*
X24122319D02*
Y9358600D01*
X24249319Y9071580D02*
Y9358600D01*
X24122319D02*
X24249319D01*
X20392419Y12331700D02*
Y12458700D01*
X20105400D02*
X20392419D01*
X20105400Y12331700D02*
X20392419D01*
X20105400D02*
Y12458700D01*
X19926300Y12471400D02*
X20053300D01*
X19926300Y12184380D02*
Y12471400D01*
X20053300Y12184380D02*
Y12471400D01*
X19926300Y12184380D02*
X20053300D01*
X18926781Y12229399D02*
Y12356399D01*
Y12229399D02*
X19213800D01*
X18926781Y12356399D02*
X19213800D01*
Y12229399D02*
Y12356399D01*
X19268440Y12355159D02*
X19395441D01*
X19268440Y12068139D02*
Y12355159D01*
X19395441Y12068139D02*
Y12355159D01*
X19268440Y12068139D02*
X19395441D01*
X18901379Y12383760D02*
Y12510760D01*
Y12383760D02*
X19188400D01*
X18901379Y12510760D02*
X19188400D01*
Y12383760D02*
Y12510760D01*
X19243040Y12377440D02*
X19370039D01*
Y12664460D01*
X19243040Y12377440D02*
Y12664460D01*
X19370039D01*
X13268961Y18779460D02*
Y19066479D01*
X13141960D02*
X13268961D01*
X13141960Y18779460D02*
X13268961D01*
X13141960D02*
Y19066479D01*
X13017500Y18779460D02*
Y19066479D01*
X12890500D02*
X13017500D01*
X12890500Y18779460D02*
X13017500D01*
X12890500D02*
Y19066479D01*
X13522960Y18779460D02*
Y19066479D01*
X13395959D02*
X13522960D01*
X13395959Y18779460D02*
X13522960D01*
X13395959D02*
Y19066479D01*
X15491460Y19453860D02*
X15618460D01*
Y19740880D01*
X15491460Y19453860D02*
Y19740880D01*
X15618460D01*
X12767381Y17077483D02*
X12831018Y17141119D01*
X12640101Y17204761D02*
X12767381Y17077483D01*
X12703739Y17268398D02*
X12831018Y17141119D01*
X12640101Y17204761D02*
X12703739Y17268398D01*
X12434396Y15710442D02*
X12524198Y15800244D01*
X12434396Y15710442D02*
X12637350Y15507487D01*
X12524198Y15800244D02*
X12727152Y15597290D01*
X12637350Y15507487D02*
X12727152Y15597290D01*
X12014742Y15081424D02*
X12104544Y14991621D01*
X11811788Y14878471D02*
X12014742Y15081424D01*
X11901591Y14788667D02*
X12104544Y14991621D01*
X11811788Y14878471D02*
X11901591Y14788667D01*
X12723710Y15236671D02*
X12813512Y15146870D01*
X12520756Y15033717D02*
X12723710Y15236671D01*
X12610558Y14943916D02*
X12813512Y15146870D01*
X12520756Y15033717D02*
X12610558Y14943916D01*
X13114809Y15317891D02*
X13204611Y15228088D01*
X13407564Y15431042D01*
X13114809Y15317891D02*
X13317763Y15520844D01*
X13407564Y15431042D01*
X13102170Y15305252D02*
X13191972Y15215450D01*
X12899216Y15102298D02*
X13102170Y15305252D01*
X12989018Y15012495D02*
X13191972Y15215450D01*
X12899216Y15102298D02*
X12989018Y15012495D01*
X12845628Y15111830D02*
X12935432Y15022028D01*
X12642676Y14908878D02*
X12845628Y15111830D01*
X12732478Y14819073D02*
X12935432Y15022028D01*
X12642676Y14908878D02*
X12732478Y14819073D01*
X13484027Y15153571D02*
X13573830Y15243373D01*
X13484027Y15153571D02*
X13686981Y14950616D01*
X13573830Y15243373D02*
X13776784Y15040419D01*
X13686981Y14950616D02*
X13776784Y15040419D01*
X24004626Y11041380D02*
Y11168380D01*
X23717606D02*
X24004626D01*
X23717606Y11041380D02*
X24004626D01*
X23717606D02*
Y11168380D01*
X23883620Y11022300D02*
X24010620D01*
X23883620Y10735280D02*
Y11022300D01*
X24010620Y10735280D02*
Y11022300D01*
X23883620Y10735280D02*
X24010620D01*
X23590221Y12938760D02*
X23717220D01*
X23590221Y12651740D02*
Y12938760D01*
X23717220Y12651740D02*
Y12938760D01*
X23590221Y12651740D02*
X23717220D01*
X24038560Y12626340D02*
X24165559D01*
X24038560Y12339320D02*
Y12626340D01*
X24165559Y12339320D02*
Y12626340D01*
X24038560Y12339320D02*
X24165559D01*
X23723540Y12493020D02*
Y12620020D01*
X23436519D02*
X23723540D01*
X23436519Y12493020D02*
X23723540D01*
X23436519D02*
Y12620020D01*
X23896320Y12334240D02*
X24023320D01*
Y12621260D01*
X23896320Y12334240D02*
Y12621260D01*
X24023320D01*
X23002240Y12778740D02*
X23129240D01*
X23002240Y12491720D02*
Y12778740D01*
X23129240Y12491720D02*
Y12778740D01*
X23002240Y12491720D02*
X23129240D01*
X23157179Y12486640D02*
X23284180D01*
Y12773660D01*
X23157179Y12486640D02*
Y12773660D01*
X23284180D01*
X10589260Y9626600D02*
X10716260D01*
Y9339580D02*
Y9626600D01*
X10589260Y9339580D02*
Y9626600D01*
Y9339580D02*
X10716260D01*
X19425920Y15333980D02*
X19552921D01*
Y15621001D01*
X19425920Y15333980D02*
Y15621001D01*
X19552921D01*
X15194279Y19074159D02*
X15321280D01*
X15194279Y18787140D02*
Y19074159D01*
X15321280Y18787140D02*
Y19074159D01*
X15194279Y18787140D02*
X15321280D01*
X15194279Y18766760D02*
X15321280D01*
X15194279Y18479739D02*
Y18766760D01*
X15321280Y18479739D02*
Y18766760D01*
X15194279Y18479739D02*
X15321280D01*
X14475459Y19065240D02*
X14602460D01*
X14475459Y18778220D02*
Y19065240D01*
X14602460Y18778220D02*
Y19065240D01*
X14475459Y18778220D02*
X14602460D01*
X15026640Y19070320D02*
X15153641D01*
X15026640Y18783299D02*
Y19070320D01*
X15153641Y18783299D02*
Y19070320D01*
X15026640Y18783299D02*
X15153641D01*
X14886940Y9361140D02*
Y9648160D01*
X14759940D02*
X14886940D01*
X14759940Y9361140D02*
X14886940D01*
X14759940D02*
Y9648160D01*
X15057120Y9361140D02*
Y9648160D01*
X14930119D02*
X15057120D01*
X14930119Y9361140D02*
X15057120D01*
X14930119D02*
Y9648160D01*
X14391640Y9361140D02*
Y9648160D01*
X14264639D02*
X14391640D01*
X14264639Y9361140D02*
X14391640D01*
X14264639D02*
Y9648160D01*
X14551660Y9361140D02*
Y9648160D01*
X14424660D02*
X14551660D01*
X14424660Y9361140D02*
X14551660D01*
X14424660D02*
Y9648160D01*
X14711681Y9359899D02*
Y9646919D01*
X14584680D02*
X14711681D01*
X14584680Y9359899D02*
X14711681D01*
X14584680D02*
Y9646919D01*
X16794479Y9692640D02*
X16921480D01*
Y9405620D02*
Y9692640D01*
X16794479Y9405620D02*
Y9692640D01*
Y9405620D02*
X16921480D01*
X16794479Y9997440D02*
X16921480D01*
Y9710420D02*
Y9997440D01*
X16794479Y9710420D02*
Y9997440D01*
Y9710420D02*
X16921480D01*
X16149319Y9690100D02*
X16276320D01*
Y9403080D02*
Y9690100D01*
X16149319Y9403080D02*
Y9690100D01*
Y9403080D02*
X16276320D01*
X16647160Y9690100D02*
X16774159D01*
Y9403080D02*
Y9690100D01*
X16647160Y9403080D02*
Y9690100D01*
Y9403080D02*
X16774159D01*
X14142720Y12697460D02*
X14429739D01*
Y12824460D01*
X14142720Y12697460D02*
Y12824460D01*
X14429739D01*
X16583659Y12512040D02*
X16870680D01*
Y12639040D01*
X16583659Y12512040D02*
Y12639040D01*
X16870680D01*
X16097279Y12250420D02*
X16384300D01*
Y12377420D01*
X16097279Y12250420D02*
Y12377420D01*
X16384300D01*
X16398241D02*
X16685260D01*
X16398241Y12250420D02*
Y12377420D01*
X16685260Y12250420D02*
Y12377420D01*
X16398241Y12250420D02*
X16685260D01*
X14236700Y13314680D02*
Y13601700D01*
Y13314680D02*
X14363699D01*
X14236700Y13601700D02*
X14363699D01*
Y13314680D02*
Y13601700D01*
X15062199Y11911300D02*
Y12198320D01*
X14935201D02*
X15062199D01*
X14935201Y11911300D02*
X15062199D01*
X14935201D02*
Y12198320D01*
X15807719Y13794740D02*
Y13921741D01*
X15520700D02*
X15807719D01*
X15520700Y13794740D02*
X15807719D01*
X15520700D02*
Y13921741D01*
X15513080Y14117320D02*
Y14244321D01*
Y14117320D02*
X15800101D01*
X15513080Y14244321D02*
X15800101D01*
Y14117320D02*
Y14244321D01*
X15928340Y12113260D02*
Y12240260D01*
X15641319D02*
X15928340D01*
X15641319Y12113260D02*
X15928340D01*
X15641319D02*
Y12240260D01*
X19464807Y9488592D02*
X19554613Y9398787D01*
X19464807Y9488592D02*
X19667764Y9691543D01*
X19554613Y9398787D02*
X19757562Y9601744D01*
X19667764Y9691543D02*
X19757562Y9601744D01*
X19668068Y8606307D02*
X19757874Y8696112D01*
X19465117Y8809264D02*
X19668068Y8606307D01*
X19554916Y8899063D02*
X19757874Y8696112D01*
X19465117Y8809264D02*
X19554916Y8899063D01*
X20577388Y8914613D02*
X20667194Y8824808D01*
X20464236Y8621857D02*
X20667194Y8824808D01*
X20374437Y8711656D02*
X20577388Y8914613D01*
X20374437Y8711656D02*
X20464236Y8621857D01*
X20325867Y9614748D02*
X20415672Y9704553D01*
X20618623Y9501596D01*
X20325867Y9614748D02*
X20528824Y9411797D01*
X20618623Y9501596D01*
X12142185Y15432990D02*
X12410885Y15701691D01*
X12623017Y15489558D01*
X12354317Y15220859D02*
X12623017Y15489558D01*
X12142185Y15432990D02*
X12354317Y15220859D01*
X14612621Y13373100D02*
X14892020D01*
Y13522960D01*
X14612621D02*
X14892020D01*
X14612621Y13373100D02*
Y13522960D01*
X15430499Y11917680D02*
Y12197080D01*
X15280640D02*
X15430499D01*
X15280640Y11917680D02*
Y12197080D01*
Y11917680D02*
X15430499D01*
X13364180Y12021820D02*
Y12148820D01*
Y12021820D02*
X13651199D01*
X13364180Y12148820D02*
X13651199D01*
Y12021820D02*
Y12148820D01*
X13373100Y12184380D02*
Y12334240D01*
X13652499D01*
Y12184380D02*
Y12334240D01*
X13373100Y12184380D02*
X13652499D01*
X10715041Y9862139D02*
Y14984142D01*
X10245039D02*
X10715041D01*
X10245039Y9862139D02*
Y14984142D01*
Y9862139D02*
X10715041D01*
X25096880Y12477720D02*
X25306880D01*
X25096880Y11997720D02*
Y12477720D01*
Y11997720D02*
X25306880D01*
Y12477720D01*
X25151880Y12237720D02*
X25251880D01*
X25201880Y12187720D02*
Y12287720D01*
X20687440Y10671840D02*
X20897440D01*
Y11151840D01*
X20687440D02*
X20897440D01*
X20687440Y10671840D02*
Y11151840D01*
X20742439Y10911840D02*
X20842439D01*
X20792439Y10861840D02*
Y10961840D01*
X24729440Y11800840D02*
Y11927840D01*
Y11800840D02*
X25016460D01*
X24729440Y11927840D02*
X25016460D01*
Y11800840D02*
Y11927840D01*
X20370799Y11000740D02*
Y11127740D01*
Y11000740D02*
X20657820D01*
X20370799Y11127740D02*
X20657820D01*
Y11000740D02*
Y11127740D01*
D198*
X16313399Y9405620D02*
Y9503410D01*
X16286481D02*
X16313399D01*
Y9405620D02*
X16610081D01*
X16286481Y9503410D02*
Y9729470D01*
X16610081Y9405620D02*
Y9503410D01*
X16637000D01*
Y9729470D01*
X16286481D02*
X16313399D01*
Y9827260D01*
X16610081D01*
Y9729470D02*
X16637000D01*
X16610081D02*
Y9827260D01*
X20022185Y10652262D02*
X20119975D01*
X20022185D02*
Y10679181D01*
X19796124D02*
X20022185D01*
X19796124Y10652262D02*
Y10679181D01*
X19698335Y10652262D02*
X19796124D01*
X19698335Y10355580D02*
Y10652262D01*
Y10355580D02*
X19796124D01*
Y10328661D02*
Y10355580D01*
Y10328661D02*
X20022185D01*
Y10355580D01*
X20119975D01*
Y10652262D01*
X14664938Y19041110D02*
Y19138901D01*
X14638020Y19041110D02*
X14664938D01*
Y19138901D02*
X14961621D01*
X14638020Y18815050D02*
Y19041110D01*
X14961621D02*
Y19138901D01*
Y19041110D02*
X14988541D01*
Y18815050D02*
Y19041110D01*
X14638020Y18815050D02*
X14664938D01*
Y18717261D02*
Y18815050D01*
Y18717261D02*
X14961621D01*
Y18815050D02*
X14988541D01*
X14961621Y18717261D02*
Y18815050D01*
%TF.MD5,1ba655bcbbbc6ac351f92049ec2c4548*%
M02*
