%TF.GenerationSoftware,Altium Limited,Altium Designer,22.10.1 (41)*%
G04 Layer_Color=16711935*
%FSLAX45Y45*%
%MOMM*%
%TF.SameCoordinates,FE0E7334-CCE0-4667-BD18-01278DCCDDAB*%
%TF.FilePolarity,Positive*%
%TF.FileFunction,Other,Mechanical_1*%
%TF.Part,Single*%
G01*
G75*
%TA.AperFunction,NonConductor*%
%ADD116C,0.25400*%
%ADD193C,0.10000*%
D116*
X26489279Y20693381D02*
G03*
X25489281Y20693381I-500000J0D01*
G01*
X10992740Y20693381D02*
G03*
X9992740Y20693381I-500000J0D01*
G01*
X9992360Y8191500D02*
Y20693381D01*
X25489281Y20234019D02*
Y20693381D01*
X26489658D02*
X26489661Y8194040D01*
X10993120Y20233640D02*
X25489281D01*
X10992740Y20234019D02*
Y20693381D01*
X9992360Y8194040D02*
X26489661D01*
D193*
X16121260Y12650940D02*
G03*
X16121260Y12650940I-50000J0D01*
G01*
X19680161Y12432260D02*
G03*
X19680161Y12432260I-50000J0D01*
G01*
X16161258Y12560940D02*
Y13570941D01*
X15151263Y12560940D02*
X16161258D01*
X15151263Y13570941D02*
X16161258D01*
X15151263Y12560940D02*
Y13570941D01*
X19850162Y12212259D02*
Y12522261D01*
X19540160D02*
X19850162D01*
X19540160Y12212259D02*
X19850162D01*
X19540160D02*
Y12522261D01*
X18838499Y12727742D02*
X19388501D01*
X18838499Y13337738D02*
X19388501D01*
Y12727742D02*
Y13337738D01*
X18838499Y12727742D02*
Y13337738D01*
X20551338Y11426779D02*
Y11976781D01*
X19941342Y11426779D02*
Y11976781D01*
X20551338D01*
X19941342Y11426779D02*
X20551338D01*
X18839160Y11399322D02*
X19389162D01*
X18839160Y12009318D02*
X19389162D01*
Y11399322D02*
Y12009318D01*
X18839160Y11399322D02*
Y12009318D01*
%TF.MD5,e15af646895f1d5f9a2d70ae15ef6c64*%
M02*
