%TF.GenerationSoftware,Altium Limited,Altium Designer,22.10.1 (41)*%
G04 Layer_Color=8421504*
%FSLAX45Y45*%
%MOMM*%
%TF.SameCoordinates,FE0E7334-CCE0-4667-BD18-01278DCCDDAB*%
%TF.FilePolarity,Positive*%
%TF.FileFunction,Paste,Top*%
%TF.Part,Single*%
G01*
G75*
%TA.AperFunction,SMDPad,CuDef*%
%ADD10C,2.00000*%
%ADD11R,1.38199X0.91399*%
%ADD12R,0.85000X0.90000*%
G04:AMPARAMS|DCode=13|XSize=0.55mm|YSize=0.6mm|CornerRadius=0mm|HoleSize=0mm|Usage=FLASHONLY|Rotation=45.000|XOffset=0mm|YOffset=0mm|HoleType=Round|Shape=Rectangle|*
%AMROTATEDRECTD13*
4,1,4,0.01768,-0.40659,-0.40659,0.01768,-0.01768,0.40659,0.40659,-0.01768,0.01768,-0.40659,0.0*
%
%ADD13ROTATEDRECTD13*%

%ADD14R,1.20000X1.40000*%
%ADD15R,1.00000X5.20000*%
%ADD16R,0.70000X1.50000*%
%ADD17R,1.00000X1.40000*%
%ADD18R,1.55000X2.40000*%
%ADD19O,0.95000X0.20000*%
%ADD20O,0.20000X0.95000*%
%ADD21R,6.74000X6.74000*%
%ADD22O,0.85000X0.25000*%
%ADD23O,0.25000X0.85000*%
%ADD24R,1.50000X1.50000*%
%ADD25O,0.85000X0.30000*%
%ADD26O,0.30000X0.85000*%
G04:AMPARAMS|DCode=27|XSize=1.2mm|YSize=0.32mm|CornerRadius=0mm|HoleSize=0mm|Usage=FLASHONLY|Rotation=45.000|XOffset=0mm|YOffset=0mm|HoleType=Round|Shape=Rectangle|*
%AMROTATEDRECTD27*
4,1,4,-0.31113,-0.53740,-0.53740,-0.31113,0.31113,0.53740,0.53740,0.31113,-0.31113,-0.53740,0.0*
%
%ADD27ROTATEDRECTD27*%

G04:AMPARAMS|DCode=28|XSize=0.32mm|YSize=1.2mm|CornerRadius=0mm|HoleSize=0mm|Usage=FLASHONLY|Rotation=45.000|XOffset=0mm|YOffset=0mm|HoleType=Round|Shape=Rectangle|*
%AMROTATEDRECTD28*
4,1,4,0.31113,-0.53740,-0.53740,0.31113,-0.31113,0.53740,0.53740,-0.31113,0.31113,-0.53740,0.0*
%
%ADD28ROTATEDRECTD28*%

G04:AMPARAMS|DCode=29|XSize=1.5mm|YSize=0.45mm|CornerRadius=0.045mm|HoleSize=0mm|Usage=FLASHONLY|Rotation=180.000|XOffset=0mm|YOffset=0mm|HoleType=Round|Shape=RoundedRectangle|*
%AMROUNDEDRECTD29*
21,1,1.50000,0.36000,0,0,180.0*
21,1,1.41000,0.45000,0,0,180.0*
1,1,0.09000,-0.70500,0.18000*
1,1,0.09000,0.70500,0.18000*
1,1,0.09000,0.70500,-0.18000*
1,1,0.09000,-0.70500,-0.18000*
%
%ADD29ROUNDEDRECTD29*%
G04:AMPARAMS|DCode=30|XSize=3.405mm|YSize=9.71718mm|CornerRadius=0.3405mm|HoleSize=0mm|Usage=FLASHONLY|Rotation=180.000|XOffset=0mm|YOffset=0mm|HoleType=Round|Shape=RoundedRectangle|*
%AMROUNDEDRECTD30*
21,1,3.40500,9.03618,0,0,180.0*
21,1,2.72400,9.71718,0,0,180.0*
1,1,0.68100,-1.36200,4.51809*
1,1,0.68100,1.36200,4.51809*
1,1,0.68100,1.36200,-4.51809*
1,1,0.68100,-1.36200,-4.51809*
%
%ADD30ROUNDEDRECTD30*%
G04:AMPARAMS|DCode=31|XSize=1.61mm|YSize=0.58mm|CornerRadius=0.0725mm|HoleSize=0mm|Usage=FLASHONLY|Rotation=270.000|XOffset=0mm|YOffset=0mm|HoleType=Round|Shape=RoundedRectangle|*
%AMROUNDEDRECTD31*
21,1,1.61000,0.43500,0,0,270.0*
21,1,1.46500,0.58000,0,0,270.0*
1,1,0.14500,-0.21750,-0.73250*
1,1,0.14500,-0.21750,0.73250*
1,1,0.14500,0.21750,0.73250*
1,1,0.14500,0.21750,-0.73250*
%
%ADD31ROUNDEDRECTD31*%
%ADD32R,1.50000X1.40000*%
%ADD33R,0.80000X0.80000*%
%ADD34R,0.60000X1.70000*%
%ADD35R,2.50000X2.80000*%
%ADD36R,0.60000X1.50000*%
%ADD37R,0.30000X1.50000*%
%ADD38R,0.30000X2.00000*%
%ADD39R,2.00000X3.00000*%
%ADD40R,1.50000X3.00000*%
G04:AMPARAMS|DCode=41|XSize=1.5mm|YSize=3mm|CornerRadius=0.375mm|HoleSize=0mm|Usage=FLASHONLY|Rotation=0.000|XOffset=0mm|YOffset=0mm|HoleType=Round|Shape=RoundedRectangle|*
%AMROUNDEDRECTD41*
21,1,1.50000,2.25000,0,0,0.0*
21,1,0.75000,3.00000,0,0,0.0*
1,1,0.75000,0.37500,-1.12500*
1,1,0.75000,-0.37500,-1.12500*
1,1,0.75000,-0.37500,1.12500*
1,1,0.75000,0.37500,1.12500*
%
%ADD41ROUNDEDRECTD41*%
%ADD42R,4.20000X1.27000*%
%ADD43R,2.50000X6.30000*%
%ADD44R,2.70000X5.90000*%
%ADD45R,3.30000X1.50000*%
%ADD46R,3.50000X2.95000*%
%ADD47R,1.23000X1.80000*%
%ADD48R,1.85000X1.40000*%
%ADD49R,0.66000X0.92200*%
%ADD50R,0.92200X0.66000*%
G04:AMPARAMS|DCode=51|XSize=0.922mm|YSize=0.66mm|CornerRadius=0mm|HoleSize=0mm|Usage=FLASHONLY|Rotation=135.000|XOffset=0mm|YOffset=0mm|HoleType=Round|Shape=Rectangle|*
%AMROTATEDRECTD51*
4,1,4,0.55932,-0.09263,0.09263,-0.55932,-0.55932,0.09263,-0.09263,0.55932,0.55932,-0.09263,0.0*
%
%ADD51ROTATEDRECTD51*%

G04:AMPARAMS|DCode=52|XSize=0.922mm|YSize=0.66mm|CornerRadius=0mm|HoleSize=0mm|Usage=FLASHONLY|Rotation=225.000|XOffset=0mm|YOffset=0mm|HoleType=Round|Shape=Rectangle|*
%AMROTATEDRECTD52*
4,1,4,0.09263,0.55932,0.55932,0.09263,-0.09263,-0.55932,-0.55932,-0.09263,0.09263,0.55932,0.0*
%
%ADD52ROTATEDRECTD52*%

%ADD53R,1.40000X1.85000*%
%ADD54R,1.80000X1.23000*%
%ADD55R,2.40000X1.55000*%
%ADD56R,5.90000X2.70000*%
%ADD57R,1.40000X1.00000*%
%ADD58R,0.90000X0.85000*%
G04:AMPARAMS|DCode=59|XSize=0.9mm|YSize=0.85mm|CornerRadius=0mm|HoleSize=0mm|Usage=FLASHONLY|Rotation=45.000|XOffset=0mm|YOffset=0mm|HoleType=Round|Shape=Rectangle|*
%AMROTATEDRECTD59*
4,1,4,-0.01768,-0.61872,-0.61872,-0.01768,0.01768,0.61872,0.61872,0.01768,-0.01768,-0.61872,0.0*
%
%ADD59ROTATEDRECTD59*%

G04:AMPARAMS|DCode=60|XSize=0.9mm|YSize=0.85mm|CornerRadius=0mm|HoleSize=0mm|Usage=FLASHONLY|Rotation=315.000|XOffset=0mm|YOffset=0mm|HoleType=Round|Shape=Rectangle|*
%AMROTATEDRECTD60*
4,1,4,-0.61872,0.01768,-0.01768,0.61872,0.61872,-0.01768,0.01768,-0.61872,-0.61872,0.01768,0.0*
%
%ADD60ROTATEDRECTD60*%

%ADD61R,0.97790X0.55880*%
G04:AMPARAMS|DCode=62|XSize=1mm|YSize=1.4mm|CornerRadius=0mm|HoleSize=0mm|Usage=FLASHONLY|Rotation=225.000|XOffset=0mm|YOffset=0mm|HoleType=Round|Shape=Rectangle|*
%AMROTATEDRECTD62*
4,1,4,-0.14142,0.84853,0.84853,-0.14142,0.14142,-0.84853,-0.84853,0.14142,-0.14142,0.84853,0.0*
%
%ADD62ROTATEDRECTD62*%

%ADD63R,0.55880X0.97790*%
G04:AMPARAMS|DCode=64|XSize=1.4mm|YSize=1.2mm|CornerRadius=0mm|HoleSize=0mm|Usage=FLASHONLY|Rotation=45.000|XOffset=0mm|YOffset=0mm|HoleType=Round|Shape=Rectangle|*
%AMROTATEDRECTD64*
4,1,4,-0.07071,-0.91924,-0.91924,-0.07071,0.07071,0.91924,0.91924,0.07071,-0.07071,-0.91924,0.0*
%
%ADD64ROTATEDRECTD64*%

G36*
X23339008Y11671651D02*
X23338808D01*
X23338507Y11671751D01*
X23338307D01*
X23338007Y11671851D01*
X23337807Y11671951D01*
X23337508Y11672051D01*
X23337308Y11672251D01*
X23337106Y11672351D01*
X23336906Y11672551D01*
X23336707Y11672651D01*
X23336507Y11672851D01*
X23336307Y11673051D01*
X23336107Y11673251D01*
X23335907Y11673451D01*
X23335806Y11673651D01*
X23335606Y11673851D01*
X23335507Y11674051D01*
X23335307Y11674251D01*
X23335207Y11674551D01*
X23335107Y11674751D01*
X23335007Y11675051D01*
Y11675251D01*
X23334908Y11675551D01*
Y11675751D01*
X23334807Y11676051D01*
Y11676251D01*
Y11676551D01*
Y12184551D01*
Y12184851D01*
Y12185051D01*
X23334908Y12185351D01*
Y12185551D01*
X23335007Y12185851D01*
Y12186051D01*
X23335107Y12186351D01*
X23335207Y12186551D01*
X23335307Y12186851D01*
X23335507Y12187051D01*
X23335606Y12187251D01*
X23335806Y12187451D01*
X23335907Y12187651D01*
X23336107Y12187851D01*
X23336307Y12188051D01*
X23336507Y12188251D01*
X23336707Y12188451D01*
X23336906Y12188551D01*
X23337106Y12188751D01*
X23337308Y12188851D01*
X23337508Y12189051D01*
X23337807Y12189151D01*
X23338007Y12189251D01*
X23338307Y12189351D01*
X23338507D01*
X23338808Y12189451D01*
X23339008D01*
X23339307Y12189551D01*
X23640308D01*
X23640607Y12189451D01*
X23640807D01*
X23641107Y12189351D01*
X23641307D01*
X23641608Y12189251D01*
X23641808Y12189151D01*
X23642107Y12189051D01*
X23642307Y12188851D01*
X23642506Y12188751D01*
X23642706Y12188551D01*
X23642908Y12188451D01*
X23643108Y12188251D01*
X23643307Y12188051D01*
X23643507Y12187851D01*
X23643707Y12187651D01*
X23643806Y12187451D01*
X23644006Y12187251D01*
X23644107Y12187051D01*
X23644307Y12186851D01*
X23644408Y12186551D01*
X23644507Y12186351D01*
X23644608Y12186051D01*
Y12185851D01*
X23644707Y12185551D01*
Y12185351D01*
X23644807Y12185051D01*
Y12184851D01*
Y12184551D01*
Y11676551D01*
Y11676251D01*
Y11676051D01*
X23644707Y11675751D01*
Y11675551D01*
X23644608Y11675251D01*
Y11675051D01*
X23644507Y11674751D01*
X23644408Y11674551D01*
X23644307Y11674251D01*
X23644107Y11674051D01*
X23644006Y11673851D01*
X23643806Y11673651D01*
X23643707Y11673451D01*
X23643507Y11673251D01*
X23643307Y11673051D01*
X23643108Y11672851D01*
X23642908Y11672651D01*
X23642706Y11672551D01*
X23642506Y11672351D01*
X23642307Y11672251D01*
X23642107Y11672051D01*
X23641808Y11671951D01*
X23641608Y11671851D01*
X23641307Y11671751D01*
X23641107D01*
X23640807Y11671651D01*
X23640607D01*
X23640308Y11671551D01*
X23339307D01*
X23339008Y11671651D01*
D02*
G37*
D10*
X14899640Y14762480D02*
D03*
X11777980Y15481300D02*
D03*
X11772900Y15781020D02*
D03*
X19852640Y14917419D02*
D03*
X18310860Y11645900D02*
D03*
Y11343640D02*
D03*
X18318480Y10744200D02*
D03*
X22903180Y10246360D02*
D03*
X21023579Y15389861D02*
D03*
X21323300Y15387320D02*
D03*
X21625560Y15384779D02*
D03*
X21927820Y15392400D02*
D03*
X21475700Y15646400D02*
D03*
X18318480Y10444480D02*
D03*
X18313400Y11043920D02*
D03*
X13383260Y12550140D02*
D03*
X17485361Y12245340D02*
D03*
X14396719Y13934441D02*
D03*
X14389101Y14234160D02*
D03*
X14780260Y11681460D02*
D03*
X23202901Y10251440D02*
D03*
D11*
X23583900Y11104880D02*
D03*
Y11285220D02*
D03*
X22900639Y11762740D02*
D03*
Y11943080D02*
D03*
X20045680Y10985500D02*
D03*
Y10805160D02*
D03*
D12*
X21830000Y13929359D02*
D03*
X21985001D02*
D03*
X21089558Y13967461D02*
D03*
X21244560D02*
D03*
X20167599Y12395200D02*
D03*
X20322601D02*
D03*
X19151601Y12292899D02*
D03*
X18996599D02*
D03*
X19126199Y12447260D02*
D03*
X18971199D02*
D03*
X23779805Y11104880D02*
D03*
X23934805D02*
D03*
X23653720Y12556520D02*
D03*
X23498718D02*
D03*
X14367540Y12760960D02*
D03*
X14212540D02*
D03*
X16808479Y12575540D02*
D03*
X16653481D02*
D03*
X16167101Y12313920D02*
D03*
X16322101D02*
D03*
X16615440D02*
D03*
X16460440D02*
D03*
X15582899Y13858240D02*
D03*
X15737901D02*
D03*
X15582899Y14180820D02*
D03*
X15737901D02*
D03*
X15703520Y12176760D02*
D03*
X15858521D02*
D03*
X13589000Y12085320D02*
D03*
X13434000D02*
D03*
X24946640Y11864340D02*
D03*
X24791640D02*
D03*
X20588000Y11064240D02*
D03*
X20433000D02*
D03*
D13*
X14452600Y15803880D02*
D03*
X14512704Y15743776D02*
D03*
X12705506Y17202992D02*
D03*
X12765613Y17142886D02*
D03*
D14*
X13709052Y13573515D02*
D03*
X13869051Y13353517D02*
D03*
X13709052D02*
D03*
X13869051Y13573515D02*
D03*
D15*
X20776559Y13704900D02*
D03*
D16*
X20926562Y13889899D02*
D03*
X20626558D02*
D03*
X20926562Y13519902D02*
D03*
X20626558D02*
D03*
D17*
X13735300Y12081998D02*
D03*
X13830299Y12302002D02*
D03*
X13925301Y12081998D02*
D03*
X15501620Y18982202D02*
D03*
X15596622Y18762198D02*
D03*
X15406619D02*
D03*
X16058900Y11782278D02*
D03*
X15963901Y12002282D02*
D03*
X15868900Y11782278D02*
D03*
D18*
X21986240Y11945620D02*
D03*
Y11640622D02*
D03*
X20373340Y13871042D02*
D03*
Y13566039D02*
D03*
D19*
X15168758Y12925938D02*
D03*
X16143762D02*
D03*
Y12965938D02*
D03*
Y12845938D02*
D03*
Y12885938D02*
D03*
Y13005939D02*
D03*
Y12685939D02*
D03*
Y12645939D02*
D03*
Y12765938D02*
D03*
Y12805939D02*
D03*
Y12725938D02*
D03*
Y13365942D02*
D03*
Y13405942D02*
D03*
Y13285942D02*
D03*
Y13325941D02*
D03*
Y13485942D02*
D03*
Y13445943D02*
D03*
Y13125938D02*
D03*
Y13165938D02*
D03*
Y13045938D02*
D03*
Y13085938D02*
D03*
Y13205939D02*
D03*
Y13245943D02*
D03*
X15168758Y12965938D02*
D03*
Y12885938D02*
D03*
Y12685939D02*
D03*
Y12725938D02*
D03*
Y12645939D02*
D03*
Y12805939D02*
D03*
Y12845938D02*
D03*
Y12765938D02*
D03*
Y13325941D02*
D03*
Y13365942D02*
D03*
Y13245943D02*
D03*
Y13285938D02*
D03*
Y13445943D02*
D03*
Y13485942D02*
D03*
Y13405942D02*
D03*
Y13045938D02*
D03*
Y13085938D02*
D03*
Y13005939D02*
D03*
Y13165938D02*
D03*
Y13205939D02*
D03*
Y13125938D02*
D03*
D20*
X15836259Y12578441D02*
D03*
X15476260D02*
D03*
X16076259D02*
D03*
X16036259D02*
D03*
X15996260D02*
D03*
X15956261D02*
D03*
X15916260D02*
D03*
X15876260D02*
D03*
X15796260D02*
D03*
X15756261D02*
D03*
X15716260D02*
D03*
X15676260D02*
D03*
X15636259D02*
D03*
X15596260D02*
D03*
X15556261D02*
D03*
X15516261D02*
D03*
X15436261D02*
D03*
X15396262D02*
D03*
X15356261D02*
D03*
X15316261D02*
D03*
X15276260D02*
D03*
X15236261D02*
D03*
X16076259Y13553439D02*
D03*
X16036259D02*
D03*
X15996260D02*
D03*
X15956261D02*
D03*
X15916260D02*
D03*
X15876260D02*
D03*
X15836259D02*
D03*
X15796260D02*
D03*
X15756261D02*
D03*
X15716260D02*
D03*
X15676260D02*
D03*
X15636259D02*
D03*
X15596260D02*
D03*
X15556261D02*
D03*
X15516261D02*
D03*
X15476260D02*
D03*
X15436261D02*
D03*
X15396262D02*
D03*
X15356261D02*
D03*
X15316261D02*
D03*
X15276260D02*
D03*
X15236261D02*
D03*
D21*
X15656261Y13065938D02*
D03*
D22*
X19837659Y12447260D02*
D03*
Y12327260D02*
D03*
Y12367260D02*
D03*
X19552661Y12447260D02*
D03*
Y12327260D02*
D03*
Y12287260D02*
D03*
X19837659Y12407260D02*
D03*
X19552661Y12367260D02*
D03*
Y12407260D02*
D03*
D23*
X19735159Y12509759D02*
D03*
X19775160D02*
D03*
X19695160D02*
D03*
X19655161D02*
D03*
X19695160Y12224761D02*
D03*
X19655161D02*
D03*
X19775160D02*
D03*
X19735159D02*
D03*
X19615160Y12509759D02*
D03*
D24*
X19695160Y12367260D02*
D03*
D25*
X19837659Y12287260D02*
D03*
D26*
X19615160Y12224761D02*
D03*
D27*
X13897961Y17530734D02*
D03*
X13084785Y16151880D02*
D03*
X14428287Y17000407D02*
D03*
X14392935Y17035760D02*
D03*
X14499001Y16929694D02*
D03*
X14463644Y16965051D02*
D03*
X14357579Y17071117D02*
D03*
X14322221Y17106473D02*
D03*
X14675775Y16752921D02*
D03*
X14640424Y16788272D02*
D03*
X14711131Y16717564D02*
D03*
X14569708Y16858986D02*
D03*
X14534358Y16894344D02*
D03*
X14605066Y16823630D02*
D03*
X13968669Y17460027D02*
D03*
X13933311Y17495383D02*
D03*
X14039383Y17389317D02*
D03*
X14004025Y17424669D02*
D03*
X13862604Y17566090D02*
D03*
X14216156Y17212540D02*
D03*
X14180800Y17247894D02*
D03*
X14286870Y17141830D02*
D03*
X14251514Y17177182D02*
D03*
X14110091Y17318604D02*
D03*
X14074734Y17353961D02*
D03*
X14145448Y17283247D02*
D03*
X13615115Y15621548D02*
D03*
X13261565Y15975101D02*
D03*
X13226207Y16010458D02*
D03*
X13332272Y15904393D02*
D03*
X13296919Y15939745D02*
D03*
X13190849Y16045810D02*
D03*
X13509052Y15727614D02*
D03*
X13473694Y15762971D02*
D03*
X13579759Y15656905D02*
D03*
X13544408Y15692258D02*
D03*
X13402986Y15833679D02*
D03*
X13367628Y15869035D02*
D03*
X13438338Y15798322D02*
D03*
X12872655Y16364011D02*
D03*
X12837297Y16399368D02*
D03*
X12943362Y16293297D02*
D03*
X12908011Y16328654D02*
D03*
X12766589Y16470076D02*
D03*
X12801945Y16434718D02*
D03*
X13120142Y16116524D02*
D03*
X13155498Y16081168D02*
D03*
X13014076Y16222589D02*
D03*
X12978719Y16257945D02*
D03*
X13049432Y16187231D02*
D03*
D28*
X12801945Y16752921D02*
D03*
X13897961Y15656905D02*
D03*
X14711131Y16470076D02*
D03*
X13615115Y17566090D02*
D03*
X14675775Y16434718D02*
D03*
X14640424Y16399368D02*
D03*
X14605066Y16364011D02*
D03*
X14569708Y16328654D02*
D03*
X14534358Y16293297D02*
D03*
X14499001Y16257945D02*
D03*
X14463644Y16222589D02*
D03*
X14428287Y16187231D02*
D03*
X14392935Y16151880D02*
D03*
X14357579Y16116524D02*
D03*
X14322221Y16081168D02*
D03*
X14286870Y16045810D02*
D03*
X14251514Y16010458D02*
D03*
X14216156Y15975101D02*
D03*
X14180800Y15939745D02*
D03*
X14145448Y15904393D02*
D03*
X14110091Y15869035D02*
D03*
X14074734Y15833679D02*
D03*
X14039383Y15798322D02*
D03*
X14004025Y15762971D02*
D03*
X13968669Y15727614D02*
D03*
X13933311Y15692258D02*
D03*
X13862604Y15621548D02*
D03*
X13579759Y17530734D02*
D03*
X13544408Y17495383D02*
D03*
X13509052Y17460027D02*
D03*
X13473694Y17424669D02*
D03*
X13438338Y17389317D02*
D03*
X13402986Y17353961D02*
D03*
X13367628Y17318604D02*
D03*
X13332272Y17283247D02*
D03*
X13296919Y17247894D02*
D03*
X13261565Y17212540D02*
D03*
X13226207Y17177182D02*
D03*
X13190849Y17141830D02*
D03*
X13155498Y17106473D02*
D03*
X13120142Y17071117D02*
D03*
X13084785Y17035760D02*
D03*
X13049432Y17000407D02*
D03*
X13014076Y16965051D02*
D03*
X12978719Y16929694D02*
D03*
X12943362Y16894344D02*
D03*
X12908011Y16858986D02*
D03*
X12872655Y16823630D02*
D03*
X12837297Y16788272D02*
D03*
X12766589Y16717564D02*
D03*
D29*
X23199806Y11833052D02*
D03*
X23779805D02*
D03*
Y11898051D02*
D03*
X23199806Y11508049D02*
D03*
X23779805D02*
D03*
Y11573053D02*
D03*
Y11638051D02*
D03*
Y11703050D02*
D03*
Y11768054D02*
D03*
Y11963049D02*
D03*
Y12028053D02*
D03*
Y12093052D02*
D03*
Y12158050D02*
D03*
Y12223049D02*
D03*
Y12288053D02*
D03*
Y12353051D02*
D03*
X23199806D02*
D03*
Y12288053D02*
D03*
Y12223049D02*
D03*
Y12158050D02*
D03*
Y12093052D02*
D03*
Y12028053D02*
D03*
Y11963049D02*
D03*
Y11898051D02*
D03*
Y11768054D02*
D03*
Y11703050D02*
D03*
Y11638051D02*
D03*
Y11573053D02*
D03*
D30*
X23489809Y11930553D02*
D03*
D31*
X14350999Y12575362D02*
D03*
X14224001D02*
D03*
X14478000D02*
D03*
X14350999Y11854358D02*
D03*
X14097000D02*
D03*
X14224001D02*
D03*
X14478000D02*
D03*
X14097000Y12575362D02*
D03*
D32*
X21612860Y13616800D02*
D03*
Y13916800D02*
D03*
X25201880Y12387720D02*
D03*
Y12087720D02*
D03*
X20792439Y10761840D02*
D03*
Y11061840D02*
D03*
D33*
X15552420Y19927580D02*
D03*
Y20087579D02*
D03*
D34*
X20500198Y16407242D02*
D03*
X20800201D02*
D03*
X20700201D02*
D03*
X20600203D02*
D03*
D35*
X20225201Y16652240D02*
D03*
X21075198D02*
D03*
D36*
X15110699Y19350877D02*
D03*
X14470700D02*
D03*
X14550700D02*
D03*
X15030699D02*
D03*
D37*
X14665701D02*
D03*
X14715698D02*
D03*
X14615698D02*
D03*
X14865701D02*
D03*
X14915698D02*
D03*
X14765701D02*
D03*
X14815698D02*
D03*
X14965700D02*
D03*
D38*
X16869240Y15895320D02*
D03*
X19319240D02*
D03*
X19169240D02*
D03*
X19219240D02*
D03*
X19269240D02*
D03*
X17419240D02*
D03*
X17469240D02*
D03*
X17519240D02*
D03*
X16919240D02*
D03*
X16969240D02*
D03*
X17019240D02*
D03*
X17069240D02*
D03*
X17119240D02*
D03*
X17169240D02*
D03*
X17219240D02*
D03*
X17269240D02*
D03*
X17319240D02*
D03*
X17369240D02*
D03*
X17569240D02*
D03*
X17619240D02*
D03*
X17669240D02*
D03*
X17719240D02*
D03*
X17769240D02*
D03*
X17819240D02*
D03*
X17869240D02*
D03*
X17919240D02*
D03*
X17969240D02*
D03*
X18019240D02*
D03*
X18069240D02*
D03*
X18369240D02*
D03*
X18469240D02*
D03*
X18119240D02*
D03*
X18169240D02*
D03*
X18219240D02*
D03*
X18269240D02*
D03*
X18319240D02*
D03*
X18419240D02*
D03*
X18519240D02*
D03*
X18769240D02*
D03*
X18569240D02*
D03*
X18619240D02*
D03*
X18669240D02*
D03*
X18719240D02*
D03*
X18819240D02*
D03*
X18869240D02*
D03*
X18919240D02*
D03*
X18969240D02*
D03*
X19019240D02*
D03*
X19069240D02*
D03*
X19119240D02*
D03*
D39*
X19573241Y16157820D02*
D03*
X16615240D02*
D03*
X14038580Y19964980D02*
D03*
X12362180D02*
D03*
D40*
X12692380Y19241080D02*
D03*
D41*
X12946381D02*
D03*
X13708380D02*
D03*
X13200380D02*
D03*
X13454379D02*
D03*
D42*
X26019760Y19959320D02*
D03*
Y19451320D02*
D03*
Y19197321D02*
D03*
Y18943320D02*
D03*
Y18689320D02*
D03*
Y18435320D02*
D03*
Y18181320D02*
D03*
Y17927319D02*
D03*
Y17673320D02*
D03*
Y17419321D02*
D03*
Y17165320D02*
D03*
Y16911320D02*
D03*
Y16657320D02*
D03*
Y16403320D02*
D03*
Y16149319D02*
D03*
Y15895320D02*
D03*
Y15641319D02*
D03*
Y15387320D02*
D03*
Y15133321D02*
D03*
Y19705321D02*
D03*
Y14584680D02*
D03*
Y14330679D02*
D03*
Y14838680D02*
D03*
Y13822681D02*
D03*
Y14076680D02*
D03*
Y12552680D02*
D03*
Y12298680D02*
D03*
Y11790680D02*
D03*
Y12044680D02*
D03*
Y13314680D02*
D03*
Y13568680D02*
D03*
Y12806680D02*
D03*
Y13060680D02*
D03*
Y10520680D02*
D03*
Y10266680D02*
D03*
Y10774680D02*
D03*
Y10012680D02*
D03*
Y11536680D02*
D03*
Y11028680D02*
D03*
Y11282680D02*
D03*
X10480040Y15133321D02*
D03*
Y15387320D02*
D03*
Y15641319D02*
D03*
Y15895320D02*
D03*
Y16149319D02*
D03*
Y16403320D02*
D03*
Y16657320D02*
D03*
Y16911320D02*
D03*
Y17165320D02*
D03*
Y17419321D02*
D03*
Y17673320D02*
D03*
Y17927319D02*
D03*
Y18181320D02*
D03*
Y18435320D02*
D03*
Y18689320D02*
D03*
Y18943320D02*
D03*
Y19197321D02*
D03*
Y19451320D02*
D03*
Y19705321D02*
D03*
Y19959320D02*
D03*
Y10010140D02*
D03*
Y10518140D02*
D03*
Y10772140D02*
D03*
Y11026140D02*
D03*
Y11280140D02*
D03*
Y11534140D02*
D03*
Y11788140D02*
D03*
Y12042140D02*
D03*
Y12296140D02*
D03*
Y12550140D02*
D03*
Y12804140D02*
D03*
Y13058141D02*
D03*
Y13312140D02*
D03*
Y13566141D02*
D03*
Y13820140D02*
D03*
Y14074139D02*
D03*
Y14328140D02*
D03*
Y14836140D02*
D03*
Y10264140D02*
D03*
Y14582140D02*
D03*
D43*
X24252702Y11327618D02*
D03*
X24667699D02*
D03*
D44*
X19313499Y13032739D02*
D03*
X18913499D02*
D03*
X19314160Y11704320D02*
D03*
X18914162D02*
D03*
D45*
X20002499Y13520419D02*
D03*
Y13749020D02*
D03*
D46*
X22385036Y12853844D02*
D03*
X22385020Y12308840D02*
D03*
X19082578Y10407934D02*
D03*
X19082593Y10952932D02*
D03*
D47*
X20648122Y14378940D02*
D03*
X20408118D02*
D03*
D48*
X21574760Y12623800D02*
D03*
Y12903200D02*
D03*
X22489160Y12016740D02*
D03*
Y11737340D02*
D03*
X23319740Y10894060D02*
D03*
Y10614660D02*
D03*
X23037801Y10894060D02*
D03*
Y10614660D02*
D03*
X22755859Y10894060D02*
D03*
Y10614660D02*
D03*
X21864320Y12623800D02*
D03*
Y12903200D02*
D03*
D49*
X14343381Y11640820D02*
D03*
X14190981D02*
D03*
X19966940Y10185400D02*
D03*
X19814540D02*
D03*
X20170140Y12237720D02*
D03*
X20322540D02*
D03*
X19776440Y11864340D02*
D03*
X19624040D02*
D03*
X19151601Y12130339D02*
D03*
X18999200D02*
D03*
X19776440Y12024360D02*
D03*
X19624040D02*
D03*
X19126199Y12606020D02*
D03*
X18973801D02*
D03*
X23776939Y11300460D02*
D03*
X23929340D02*
D03*
X25196902Y13464540D02*
D03*
X25044502D02*
D03*
X22900639Y11567160D02*
D03*
X22748241D02*
D03*
X22900639Y11407140D02*
D03*
X22748241D02*
D03*
X22900639Y11244580D02*
D03*
X22748241D02*
D03*
X19654520Y15349220D02*
D03*
X19806920D02*
D03*
X19654520Y15674339D02*
D03*
X19806920D02*
D03*
X19654520Y15514320D02*
D03*
X19806920D02*
D03*
X17167860Y15595599D02*
D03*
X17015460D02*
D03*
X17167860Y15405099D02*
D03*
X17015460D02*
D03*
X16865601Y15590520D02*
D03*
X16713200D02*
D03*
X16167101Y12143740D02*
D03*
X16319501D02*
D03*
X16619220Y12148820D02*
D03*
X16466820D02*
D03*
X15433040Y14020799D02*
D03*
X15280640D02*
D03*
Y13860780D02*
D03*
X15433040D02*
D03*
Y14180820D02*
D03*
X15280640D02*
D03*
X16774159Y13662660D02*
D03*
X16926559D02*
D03*
X16774159Y13479781D02*
D03*
X16926559D02*
D03*
X16520160Y12740640D02*
D03*
X16672560D02*
D03*
X15580360Y14018260D02*
D03*
X15732761D02*
D03*
X15580360Y14333220D02*
D03*
X15732761D02*
D03*
X15704820Y12331700D02*
D03*
X15857220D02*
D03*
X14828520Y13449300D02*
D03*
X14676120D02*
D03*
X13589000Y12260580D02*
D03*
X13436600D02*
D03*
D50*
X19588480Y10805160D02*
D03*
Y10957560D02*
D03*
Y10505440D02*
D03*
Y10657840D02*
D03*
X16230600Y11960860D02*
D03*
Y11808460D02*
D03*
X15697200Y12001500D02*
D03*
Y11849100D02*
D03*
X19608800Y12694920D02*
D03*
Y12847321D02*
D03*
X19883121Y12694920D02*
D03*
Y12847321D02*
D03*
X24084280Y11996420D02*
D03*
Y11844020D02*
D03*
X22707600Y12021820D02*
D03*
Y11869420D02*
D03*
X23393401Y11257280D02*
D03*
Y11104880D02*
D03*
X24419560Y12401520D02*
D03*
Y12553920D02*
D03*
X24251920Y12401520D02*
D03*
Y12553920D02*
D03*
X23804880Y12872720D02*
D03*
Y13025121D02*
D03*
X22908260Y12169140D02*
D03*
Y12321540D02*
D03*
X22900639Y12553920D02*
D03*
Y12706320D02*
D03*
X23230840Y11104880D02*
D03*
Y11257280D02*
D03*
X19154140Y15549879D02*
D03*
Y15397479D02*
D03*
X18785840Y15549879D02*
D03*
Y15397479D02*
D03*
X18968719Y15549879D02*
D03*
Y15397479D02*
D03*
X19342101D02*
D03*
Y15549879D02*
D03*
X16776700Y12418060D02*
D03*
Y12265660D02*
D03*
X16959579Y12418060D02*
D03*
Y12265660D02*
D03*
X14041119Y13682980D02*
D03*
Y13530580D02*
D03*
X15539720Y11849100D02*
D03*
Y12001500D02*
D03*
X15537180Y12412980D02*
D03*
Y12260580D02*
D03*
X14046201Y13230859D02*
D03*
Y13383260D02*
D03*
X15168880Y12133580D02*
D03*
Y11981180D02*
D03*
X15354300Y12133580D02*
D03*
Y11981180D02*
D03*
D51*
X12689298Y15823659D02*
D03*
X12797062Y15931422D02*
D03*
X13949136Y17916615D02*
D03*
X14056905Y18024384D02*
D03*
X14060896Y17804855D02*
D03*
X14168665Y17912624D02*
D03*
X12125418Y15094678D02*
D03*
X12233182Y15202441D02*
D03*
X12006038Y15214058D02*
D03*
X12113802Y15321822D02*
D03*
X11790138Y15005779D02*
D03*
X11897902Y15113542D02*
D03*
X12939302Y15367542D02*
D03*
X12831538Y15259778D02*
D03*
X13150122Y15580902D02*
D03*
X13042358Y15473138D02*
D03*
X16433258Y13646878D02*
D03*
X16541022Y13754642D02*
D03*
X16311337Y13766258D02*
D03*
X16419102Y13874022D02*
D03*
D52*
X14106616Y15441203D02*
D03*
X14214384Y15333437D02*
D03*
X15161804Y16311336D02*
D03*
X15054036Y16419104D02*
D03*
X12431302Y16804099D02*
D03*
X12323538Y16911862D02*
D03*
X14427744Y18066476D02*
D03*
X14319975Y18174245D02*
D03*
X15042424Y16191956D02*
D03*
X14934656Y16299724D02*
D03*
X12477022Y16125919D02*
D03*
X12369258Y16233682D02*
D03*
X13690057Y15260863D02*
D03*
X13797823Y15153098D02*
D03*
D53*
X24287480Y12077700D02*
D03*
X24566879D02*
D03*
D54*
X14655800Y8505998D02*
D03*
Y8746002D02*
D03*
D55*
X24236681Y10736580D02*
D03*
X24541678D02*
D03*
X25044502Y12827000D02*
D03*
X24739497D02*
D03*
X24074017D02*
D03*
X24379022D02*
D03*
X25044598Y13192760D02*
D03*
X24739600D02*
D03*
X24379022Y13195300D02*
D03*
X24074017D02*
D03*
D56*
X20246339Y11901780D02*
D03*
Y11501780D02*
D03*
D57*
X23754861Y10738099D02*
D03*
Y10928101D02*
D03*
X23534859Y10833100D02*
D03*
D58*
X20271741Y10647619D02*
D03*
Y10802620D02*
D03*
X19989799Y12401580D02*
D03*
Y12246580D02*
D03*
X19331940Y12285340D02*
D03*
Y12130339D02*
D03*
X19306540Y12447260D02*
D03*
Y12602261D02*
D03*
X13205460Y18996660D02*
D03*
Y18841660D02*
D03*
X12953999Y18996660D02*
D03*
Y18841660D02*
D03*
X13459460Y18996660D02*
D03*
Y18841660D02*
D03*
X15554961Y19678680D02*
D03*
Y19523680D02*
D03*
X23947121Y10797479D02*
D03*
Y10952480D02*
D03*
X23653720Y12713940D02*
D03*
Y12868941D02*
D03*
X24102060Y12401520D02*
D03*
Y12556520D02*
D03*
X23959821Y12559060D02*
D03*
Y12404060D02*
D03*
X23065739Y12553920D02*
D03*
Y12708920D02*
D03*
X23220680Y12556460D02*
D03*
Y12711460D02*
D03*
X19489420Y15551180D02*
D03*
Y15396181D02*
D03*
X15257780Y18856960D02*
D03*
Y19011961D02*
D03*
Y18704559D02*
D03*
Y18549559D02*
D03*
X14538960Y19003040D02*
D03*
Y18848039D02*
D03*
X15090140Y19008121D02*
D03*
Y18853120D02*
D03*
X14823441Y9585960D02*
D03*
Y9430959D02*
D03*
X14993620Y9585960D02*
D03*
Y9430959D02*
D03*
X14328140Y9585960D02*
D03*
Y9430959D02*
D03*
X14488161Y9585960D02*
D03*
Y9430959D02*
D03*
X14648180Y9584720D02*
D03*
Y9429719D02*
D03*
X14300200Y13376880D02*
D03*
Y13531880D02*
D03*
X14998700Y12136120D02*
D03*
Y11981119D02*
D03*
D59*
X12632881Y15601759D02*
D03*
X12523279Y15711362D02*
D03*
X13687901Y15039499D02*
D03*
X13578297Y15149101D02*
D03*
D60*
X11906059Y14882939D02*
D03*
X12015662Y14992542D02*
D03*
X12609639Y15032799D02*
D03*
X12719241Y15142401D02*
D03*
X13318681Y15431963D02*
D03*
X13209079Y15322359D02*
D03*
X12988100Y15101379D02*
D03*
X13097701Y15210982D02*
D03*
X12841161Y15017558D02*
D03*
X12731558Y14907957D02*
D03*
D61*
X20045680Y10503921D02*
D03*
X19772630Y10408920D02*
D03*
Y10503921D02*
D03*
Y10598922D02*
D03*
X20045680D02*
D03*
Y10408920D02*
D03*
D62*
X12282483Y15944537D02*
D03*
X12059741Y16032928D02*
D03*
X12194092Y16167279D02*
D03*
D63*
X14813280Y19064606D02*
D03*
X14718279D02*
D03*
X14908281D02*
D03*
X14813280Y18791554D02*
D03*
X14718279D02*
D03*
X14908281D02*
D03*
D64*
X12516953Y15482486D02*
D03*
X12248253Y15440060D02*
D03*
X12361390Y15326923D02*
D03*
X12403816Y15595622D02*
D03*
%TF.MD5,47732602c96183b0336319adbed59718*%
M02*
