%TF.GenerationSoftware,Altium Limited,Altium Designer,22.10.1 (41)*%
G04 Layer_Color=16711935*
%FSLAX45Y45*%
%MOMM*%
%TF.SameCoordinates,FE0E7334-CCE0-4667-BD18-01278DCCDDAB*%
%TF.FilePolarity,Positive*%
%TF.FileFunction,Other,Mechanical_13*%
%TF.Part,Single*%
G01*
G75*
%TA.AperFunction,NonConductor*%
%ADD113C,0.20000*%
%ADD114C,0.12700*%
%ADD146C,0.15240*%
%ADD191C,0.00000*%
%ADD192C,0.02540*%
%ADD193C,0.10000*%
%ADD194R,2.79004X0.60528*%
%ADD195R,2.79004X0.60523*%
%ADD196R,0.60523X2.78999*%
G36*
X10655300Y8931440D02*
X10595300Y9031440D01*
X10655300D01*
X10715300D01*
X10655300Y8931440D01*
D02*
G37*
G36*
X15892780Y11762740D02*
X15847060D01*
Y11821160D01*
X15892780D01*
Y11762740D01*
D02*
G37*
G36*
X15986760Y11963400D02*
X15941040D01*
Y12021820D01*
X15986760D01*
Y11963400D01*
D02*
G37*
G36*
X13759180Y12062460D02*
X13713460D01*
Y12120880D01*
X13759180D01*
Y12062460D01*
D02*
G37*
G36*
X13947141D02*
X13901421D01*
Y12120880D01*
X13947141D01*
Y12062460D01*
D02*
G37*
G36*
X13853160Y12263120D02*
X13807440D01*
Y12321540D01*
X13853160D01*
Y12263120D01*
D02*
G37*
G36*
X12238825Y15955865D02*
X12271154Y15988194D01*
X12312463Y15946886D01*
X12280134Y15914557D01*
X12238825Y15955865D01*
D02*
G37*
G36*
X12030483Y16031300D02*
X12062812Y16063629D01*
X12104121Y16022321D01*
X12071792Y15989992D01*
X12030483Y16031300D01*
D02*
G37*
G36*
X12163391Y16164207D02*
X12195720Y16196536D01*
X12237029Y16155228D01*
X12204700Y16122899D01*
X12163391Y16164207D01*
D02*
G37*
G36*
X12823631Y16506429D02*
X12749394Y16432191D01*
X12728272Y16453313D01*
X12802509Y16527550D01*
X12823631Y16506429D01*
D02*
G37*
G36*
X14714032Y16418018D02*
X14692834Y16396819D01*
X14618657Y16470996D01*
X14639854Y16492195D01*
X14714032Y16418018D01*
D02*
G37*
G36*
X15430499Y18742661D02*
X15384779D01*
Y18801080D01*
X15430499D01*
Y18742661D01*
D02*
G37*
G36*
X15618460D02*
X15572740D01*
Y18801080D01*
X15618460D01*
Y18742661D01*
D02*
G37*
G36*
X15524480Y18943320D02*
X15478760D01*
Y19001740D01*
X15524480D01*
Y18943320D01*
D02*
G37*
G36*
X15592419Y19987579D02*
X15512421D01*
Y20007581D01*
X15542419D01*
Y20027580D01*
X15562421D01*
Y20007581D01*
X15592419D01*
Y19987579D01*
D02*
G37*
G36*
X21612860Y13716800D02*
X21552859Y13816800D01*
X21672861D01*
X21612860Y13716800D01*
D02*
G37*
G36*
X25261880Y12187720D02*
X25141879D01*
X25201880Y12287720D01*
X25261880Y12187720D01*
D02*
G37*
G36*
X16080740Y11762740D02*
X16035020D01*
Y11821160D01*
X16080740D01*
Y11762740D01*
D02*
G37*
G36*
X23774400Y10904220D02*
X23715981D01*
Y10949940D01*
X23774400D01*
Y10904220D01*
D02*
G37*
G36*
X20792439Y10861840D02*
X20732440Y10961840D01*
X20852440D01*
X20792439Y10861840D01*
D02*
G37*
G36*
X23573740Y10810240D02*
X23515320D01*
Y10855960D01*
X23573740D01*
Y10810240D01*
D02*
G37*
G36*
X23774400Y10716260D02*
X23715981D01*
Y10761980D01*
X23774400D01*
Y10716260D01*
D02*
G37*
G36*
X24386540Y9789160D02*
X24340820D01*
Y9847580D01*
X24386540D01*
Y9789160D01*
D02*
G37*
G36*
X24198579D02*
X24152859D01*
Y9847580D01*
X24198579D01*
Y9789160D01*
D02*
G37*
G36*
X24764999Y9784080D02*
X24719279D01*
Y9842500D01*
X24764999D01*
Y9784080D01*
D02*
G37*
G36*
X24577040D02*
X24531320D01*
Y9842500D01*
X24577040D01*
Y9784080D01*
D02*
G37*
G36*
X17218660Y9677400D02*
X17172940D01*
Y9735820D01*
X17218660D01*
Y9677400D01*
D02*
G37*
G36*
X17030701D02*
X16984979D01*
Y9735820D01*
X17030701D01*
Y9677400D01*
D02*
G37*
G36*
X24292560Y9588500D02*
X24246840D01*
Y9646920D01*
X24292560D01*
Y9588500D01*
D02*
G37*
G36*
X24671021Y9583420D02*
X24625301D01*
Y9641840D01*
X24671021D01*
Y9583420D01*
D02*
G37*
G36*
X17124680Y9476740D02*
X17078960D01*
Y9535160D01*
X17124680D01*
Y9476740D01*
D02*
G37*
D113*
X23817419Y11445240D02*
G03*
X23817419Y11445240I-10000J0D01*
G01*
X14488000Y12736360D02*
G03*
X14488000Y12736360I-10000J0D01*
G01*
X20510201Y16247240D02*
G03*
X20510201Y16247240I-10000J0D01*
G01*
X25765540Y9831960D02*
G03*
X25765540Y9831960I-10000J0D01*
G01*
X26156760Y15011360D02*
G03*
X26156760Y15011360I-10000J0D01*
G01*
Y9890720D02*
G03*
X26156760Y9890720I-10000J0D01*
G01*
X10363040Y20081281D02*
G03*
X10363040Y20081281I-10000J0D01*
G01*
Y14958099D02*
G03*
X10363040Y14958099I-10000J0D01*
G01*
D114*
X12480582Y9728652D02*
G03*
X12429365Y9767952I-475662J-566873D01*
G01*
X12133413Y9890538D02*
G03*
X12069409Y9898964I-128500J-728760D01*
G01*
X12317657Y9832447D02*
G03*
X12258015Y9857152I-312736J-670665D01*
G01*
X12700290Y9414874D02*
G03*
X12675585Y9474517I-695373J-253095D01*
G01*
X12739400Y9251970D02*
G03*
X12733674Y9290286I-734484J-90183D01*
G01*
X12611093Y9586222D02*
G03*
X12571793Y9637439I-606177J-424449D01*
G01*
X11940429Y9898965D02*
G03*
X11876425Y9890539I64495J-737185D01*
G01*
X11751825Y9857153D02*
G03*
X11692182Y9832448I253095J-695372D01*
G01*
X11399918Y9760157D02*
G03*
X11319918Y9840157I-80000J0D01*
G01*
X11284917D02*
G03*
X11204917Y9760157I0J-80000D01*
G01*
X11580472Y9767953D02*
G03*
X11454991Y9656937I424446J-606172D01*
G01*
X11399918Y9673908D02*
G03*
X11452212Y9653834I30000J0D01*
G01*
X11164945Y9325694D02*
G03*
X11194394Y9289969I29449J-5724D01*
G01*
X12733675Y9033271D02*
G03*
X12739401Y9071587I-728758J128500D01*
G01*
X12675587Y8849047D02*
G03*
X12700292Y8908689I-670670J312739D01*
G01*
X12571789Y8686115D02*
G03*
X12611088Y8737331I-566873J475663D01*
G01*
X12429365Y8555608D02*
G03*
X12480581Y8594908I-424446J606172D01*
G01*
X12258015Y8466409D02*
G03*
X12317658Y8491114I-253092J695366D01*
G01*
X12069416Y8424597D02*
G03*
X12133420Y8433023I-64495J737184D01*
G01*
X11454992Y8666621D02*
G03*
X11580473Y8555605I549928J495158D01*
G01*
X11452212Y8669726D02*
G03*
X11399918Y8649652I-22295J-20074D01*
G01*
X11194395Y9033592D02*
G03*
X11164945Y8997867I0J-30001D01*
G01*
X11876416Y8433023D02*
G03*
X11940421Y8424596I128500J728759D01*
G01*
X11204917Y8563403D02*
G03*
X11284917Y8483403I80000J0D01*
G01*
X11692183Y8491112D02*
G03*
X11751825Y8466407I312737J670667D01*
G01*
X11319918Y8483403D02*
G03*
X11399918Y8563403I0J80000D01*
G01*
X23269809Y11445550D02*
X23709808D01*
X23269809Y12415550D02*
X23709808D01*
Y11445550D02*
Y12415550D01*
X23269809Y11445550D02*
Y12415550D01*
X14023503Y12478863D02*
X14551503D01*
Y11950863D02*
Y12478863D01*
X14023503Y11950863D02*
Y12478863D01*
Y11950863D02*
X14551503D01*
X25892761Y15010318D02*
Y20082323D01*
Y15010318D02*
Y20082323D01*
Y15010318D02*
X26146759D01*
Y20082323D01*
X25892761D02*
X26146759D01*
X12422581Y9755591D02*
X12429170Y9768088D01*
X12311380Y9814230D02*
X12422581Y9755591D01*
X12311380Y9814230D02*
X12320326Y9831197D01*
X12469769Y9712686D02*
X12482815Y9726773D01*
X12132102Y9871319D02*
X12136349Y9890013D01*
X12069242Y9898979D02*
X12069780Y9884882D01*
X12254692Y9843460D02*
X12257822Y9857222D01*
X12132102Y9871319D02*
X12254692Y9843460D01*
X12682885Y9406468D02*
X12701275Y9412158D01*
X12663470Y9467220D02*
X12675464Y9474774D01*
X12720051Y9286372D02*
X12733625Y9290573D01*
X12737963Y9071778D02*
Y9251782D01*
X12682885Y9406468D02*
X12720051Y9286372D01*
X12562007Y9627260D02*
X12571623Y9637644D01*
X12469769Y9712686D02*
X12562007Y9627260D01*
X12596485Y9573605D02*
X12612751Y9583847D01*
X12596485Y9573605D02*
X12663470Y9467220D01*
X11943420Y9899218D02*
X11944157Y9880067D01*
X12069780Y9884882D01*
X11760352Y9839869D02*
X11880449Y9877034D01*
X11876278Y9890511D02*
X11880449Y9877034D01*
X11754683Y9858187D02*
X11760352Y9839869D01*
X11284915Y9840158D02*
X11319916D01*
X11692077Y9832401D02*
X11699601Y9820453D01*
X11593215Y9753468D02*
X11699601Y9820453D01*
X11582989Y9769709D02*
X11593215Y9753468D01*
X11399916Y9673910D02*
Y9760158D01*
X11204915Y9538157D02*
Y9760158D01*
X11164910Y9325519D02*
X11204915Y9538157D01*
X11323919Y9033591D02*
Y9289969D01*
X11194395D02*
X11323919D01*
X11194395Y9033591D02*
X11323919D01*
X12714336Y9034719D02*
X12733167Y9030437D01*
X12686477Y8912128D02*
X12700391Y8908964D01*
X12686477Y8912128D02*
X12714336Y9034719D01*
X12657247Y8855441D02*
X12674356Y8846419D01*
X12598608Y8744240D02*
X12657247Y8855441D01*
X12598608Y8744240D02*
X12611252Y8737570D01*
X12555698Y8697051D02*
X12569911Y8683889D01*
X12470277Y8604814D02*
X12480788Y8595081D01*
X12470277Y8604814D02*
X12555698Y8697051D01*
X12310237Y8503351D02*
X12416617Y8570336D01*
X12426950Y8553928D01*
X12310237Y8503351D02*
X12317877Y8491215D01*
X12249480Y8483935D02*
X12255221Y8465398D01*
X12129384Y8446770D02*
X12249480Y8483935D01*
X12129384Y8446770D02*
X12133631Y8433059D01*
X12065681Y8443742D02*
X12066422Y8424342D01*
X11399916Y8563402D02*
Y8649650D01*
X11587251Y8568212D02*
X11698458Y8509574D01*
X11580571Y8555538D02*
X11587251Y8568212D01*
X11164910Y8998047D02*
X11204915Y8785403D01*
X11044916Y8721781D02*
Y8801781D01*
X11004916Y8761781D02*
X11084916D01*
X11204915Y8563402D02*
Y8785403D01*
X11873433Y8433557D02*
X11877736Y8452485D01*
X11940052Y8438921D02*
X12065681Y8443742D01*
X11755145Y8480344D02*
X11877736Y8452485D01*
X11940052Y8438921D02*
X11940606Y8424581D01*
X11689405Y8492414D02*
X11698458Y8509574D01*
X11284915Y8483402D02*
X11319916D01*
X11751965Y8466358D02*
X11755145Y8480344D01*
X25892761Y14961682D02*
X26146759D01*
Y9889678D02*
Y14961682D01*
X25892761Y9889678D02*
Y14961682D01*
Y9889678D02*
Y14961682D01*
Y9889678D02*
X26146759D01*
X10607040Y15010318D02*
Y20082323D01*
Y15010318D02*
Y20082323D01*
X10353040D02*
X10607040D01*
X10353040Y15010318D02*
Y20082323D01*
Y15010318D02*
X10607040D01*
Y9887138D02*
Y14959142D01*
Y9887138D02*
Y14959142D01*
X10353040D02*
X10607040D01*
X10353040Y9887138D02*
Y14959142D01*
Y9887138D02*
X10607040D01*
D146*
X13688060Y12258040D02*
X13972540D01*
X13688060Y12125960D02*
Y12258040D01*
Y12125960D02*
X13972540D01*
Y12258040D01*
X24505920Y9646920D02*
Y9779000D01*
X24790401D01*
X24505920Y9646920D02*
X24790401D01*
Y9779000D01*
X24127460Y9652000D02*
Y9784080D01*
X24411940D01*
X24127460Y9652000D02*
X24411940D01*
Y9784080D01*
X23578819Y10690860D02*
Y10975340D01*
Y10690860D02*
X23710899D01*
Y10975340D01*
X23578819D02*
X23710899D01*
X15643860Y18806160D02*
Y18938240D01*
X15359380Y18806160D02*
X15643860D01*
X15359380D02*
Y18938240D01*
X15643860D01*
X16959579Y9540240D02*
X17244060D01*
X16959579D02*
Y9672320D01*
X17244060D01*
Y9540240D02*
Y9672320D01*
X15821660Y11826240D02*
Y11958320D01*
Y11826240D02*
X16106140D01*
X15821660Y11958320D02*
X16106140D01*
Y11826240D02*
Y11958320D01*
X12057424Y15968439D02*
X12150818Y15875044D01*
X12057424Y15968439D02*
X12258582Y16169595D01*
X12351976Y16076202D01*
X12150818Y15875044D02*
X12351976Y16076202D01*
D191*
X22143719Y9364980D02*
G03*
X22143719Y9364980I-7620J0D01*
G01*
X16611600Y9646920D02*
G03*
X16611600Y9585960I0J-30480D01*
G01*
X22555200Y9367520D02*
G03*
X22555200Y9367520I-7620J0D01*
G01*
X21724620Y9364980D02*
G03*
X21724620Y9364980I-7620J0D01*
G01*
X23393401D02*
G03*
X23393401Y9364980I-7620J0D01*
G01*
X22966679D02*
G03*
X22966679Y9364980I-7620J0D01*
G01*
X20060921Y9141460D02*
G03*
X20060921Y9141460I-7620J0D01*
G01*
X19352260D02*
G03*
X19352260Y9141460I-7620J0D01*
G01*
X20083780Y8636000D02*
G03*
X20083780Y8636000I-7620J0D01*
G01*
X20761960Y9144000D02*
G03*
X20761960Y9144000I-7620J0D01*
G01*
X20083780Y9672320D02*
G03*
X20083780Y9672320I-7620J0D01*
G01*
X19939635Y10354060D02*
G03*
X19878674Y10354060I-30480J0D01*
G01*
X14963139Y18958560D02*
G03*
X14963139Y18897600I0J-30480D01*
G01*
D192*
X21991319Y9121140D02*
X22280881D01*
Y9608820D01*
X21991319D02*
X22280881D01*
X21991319Y9121140D02*
Y9608820D01*
X16341339Y9466580D02*
X16392139D01*
X16341339D02*
Y9528810D01*
X16392139Y9466580D02*
Y9528810D01*
X16436340D02*
X16487140D01*
X16436340Y9466580D02*
X16487140D01*
X16531342D02*
X16582141D01*
X16531342D02*
Y9528810D01*
X16436340Y9466580D02*
Y9528810D01*
X16487140Y9466580D02*
Y9528810D01*
X16582141Y9466580D02*
Y9528810D01*
X16531342D02*
X16582141D01*
X16311880D02*
Y9704070D01*
X16341339D02*
X16392139D01*
X16311880Y9528810D02*
X16611600D01*
X16311880Y9704070D02*
X16611600D01*
X16341339Y9528810D02*
X16392139D01*
X16341339Y9704070D02*
Y9766300D01*
X16392139D01*
Y9704070D02*
Y9766300D01*
X16531342Y9704070D02*
X16582141D01*
X16436340D02*
X16487140D01*
X16582141D02*
Y9766300D01*
X16611600Y9528810D02*
Y9704070D01*
X16487140D02*
Y9766300D01*
X16436340D02*
X16487140D01*
X16436340Y9704070D02*
Y9766300D01*
X16531342Y9704070D02*
Y9766300D01*
X16582141D01*
X22402800Y9123680D02*
X22692360D01*
Y9611360D01*
X22402800D02*
X22692360D01*
X22402800Y9123680D02*
Y9611360D01*
X21572220Y9608820D02*
X21861780D01*
X21572220Y9121140D02*
Y9608820D01*
Y9121140D02*
X21861780D01*
Y9608820D01*
X23241000Y9121140D02*
X23530560D01*
Y9608820D01*
X23241000D02*
X23530560D01*
X23241000Y9121140D02*
Y9608820D01*
X22814281Y9121140D02*
X23103841D01*
Y9608820D01*
X22814281D02*
X23103841D01*
X22814281Y9121140D02*
Y9608820D01*
X19809460Y9286240D02*
X20297141D01*
Y8996680D02*
Y9286240D01*
X19809460Y8996680D02*
X20297141D01*
X19809460D02*
Y9286240D01*
X19100800Y8996680D02*
Y9286240D01*
Y8996680D02*
X19588480D01*
Y9286240D01*
X19100800D02*
X19588480D01*
X19931380Y8392160D02*
Y8879840D01*
X20220940D01*
Y8392160D02*
Y8879840D01*
X19931380Y8392160D02*
X20220940D01*
X20510500Y8999220D02*
X20998180D01*
X20510500D02*
Y9288780D01*
X20998180D01*
Y8999220D02*
Y9288780D01*
X20220940Y9428480D02*
Y9916160D01*
X19931380Y9428480D02*
X20220940D01*
X19931380D02*
Y9916160D01*
X20220940D01*
X19996785Y10354061D02*
Y10653781D01*
X19821526Y10354061D02*
X19996785D01*
X19821526D02*
Y10653781D01*
X19996785D01*
X19759296Y10383520D02*
X19821526D01*
X19759296D02*
Y10434320D01*
X19821526D01*
Y10383520D02*
Y10434320D01*
X19759296Y10478521D02*
X19821526D01*
X19759296D02*
Y10529321D01*
X19821526D01*
Y10478521D02*
Y10529321D01*
X19759296Y10573522D02*
X19821526D01*
X19759296D02*
Y10624322D01*
X19821526D01*
Y10573522D02*
Y10624322D01*
X19996785D02*
X20059015D01*
Y10573522D02*
Y10624322D01*
X19996785Y10573522D02*
X20059015D01*
X19996785D02*
Y10624322D01*
Y10529321D02*
X20059015D01*
Y10478521D02*
Y10529321D01*
X19996785Y10478521D02*
X20059015D01*
X19996785D02*
Y10529321D01*
Y10434320D02*
X20059015D01*
Y10383520D02*
Y10434320D01*
X19996785Y10383520D02*
X20059015D01*
X19996785D02*
Y10434320D01*
X14692879Y19077940D02*
X14743678D01*
X14692879Y19015710D02*
Y19077940D01*
X14743678Y19015710D02*
Y19077940D01*
X14787880Y19015710D02*
X14838680D01*
X14787880Y19077940D02*
X14838680D01*
X14882881D02*
X14933681D01*
X14882881Y19015710D02*
Y19077940D01*
X14787880Y19015710D02*
Y19077940D01*
X14838680Y19015710D02*
Y19077940D01*
X14933681Y19015710D02*
Y19077940D01*
X14882881Y19015710D02*
X14933681D01*
X14663420Y18840450D02*
Y19015710D01*
X14692879Y18840450D02*
X14743678D01*
X14663420Y19015710D02*
X14963139D01*
X14663420Y18840450D02*
X14963139D01*
X14692879Y19015710D02*
X14743678D01*
X14692879Y18778220D02*
Y18840450D01*
Y18778220D02*
X14743678D01*
Y18840450D01*
X14882881D02*
X14933681D01*
X14787880D02*
X14838680D01*
X14933681Y18778220D02*
Y18840450D01*
X14963139D02*
Y19015710D01*
X14838680Y18778220D02*
Y18840450D01*
X14787880Y18778220D02*
X14838680D01*
X14787880D02*
Y18840450D01*
X14882881Y18778220D02*
Y18840450D01*
Y18778220D02*
X14933681D01*
D193*
X23516402Y11298779D02*
X23651398D01*
X23516402Y11088781D02*
X23651398D01*
Y11298779D01*
X23516402Y11088781D02*
Y11298779D01*
X21822501Y13974361D02*
X21992500D01*
X21822501Y13884360D02*
X21992500D01*
X21822501D02*
Y13974361D01*
X21992500Y13884360D02*
Y13974361D01*
X14426083Y15791505D02*
X14464973Y15830397D01*
X14500330Y15717261D02*
X14539221Y15756149D01*
X14464973Y15830397D02*
X14539221Y15756149D01*
X14426083Y15791505D02*
X14500330Y15717261D01*
X13664052Y13303519D02*
Y13623518D01*
X13914053D01*
X13664052Y13303519D02*
X13914053D01*
Y13623518D01*
X21846738Y11568120D02*
Y12018122D01*
X22125742Y11568120D02*
Y12018122D01*
X21846738Y11568120D02*
X22125742D01*
X21846738Y12018122D02*
X22125742D01*
X21692860Y13606799D02*
Y13926801D01*
X21532860D02*
X21692860D01*
X21532860Y13606799D02*
X21692860D01*
X21532860D02*
Y13926801D01*
X15592419Y19927580D02*
Y20087579D01*
X15512421Y19927580D02*
X15592419D01*
X15512421D02*
Y20087579D01*
X15592419D01*
X20100198Y17047240D02*
X21200201D01*
Y16517239D02*
Y17047240D01*
X20100198Y16517239D02*
Y17047240D01*
Y16517239D02*
X21200201D01*
X26205542Y8290062D02*
Y9720062D01*
X25305542D02*
X26205542D01*
X25305542Y8290062D02*
X26205542D01*
X25305542D02*
Y9720062D01*
X19837502Y13444717D02*
X20167497D01*
X19837502Y13824722D02*
X20167497D01*
X19837502Y13444717D02*
Y13824722D01*
X20167497Y13444717D02*
Y13824722D01*
X21482259Y12590998D02*
Y12936002D01*
X21667262Y12590998D02*
Y12936002D01*
X21482259Y12590998D02*
X21667262D01*
X21482259Y12936002D02*
X21667262D01*
X22833142Y11749181D02*
X22968138D01*
X22833142Y11959179D02*
X22968138D01*
X22833142Y11749181D02*
Y11959179D01*
X22968138Y11749181D02*
Y11959179D01*
X14142720Y11701780D02*
X14391640D01*
X14142720Y11579860D02*
X14391640D01*
Y11701780D01*
X14142720Y11579860D02*
Y11701780D01*
X19766280Y10246360D02*
X20015199D01*
X19766280Y10124440D02*
X20015199D01*
Y10246360D01*
X19766280Y10124440D02*
Y10246360D01*
X19527521Y10756900D02*
Y11005820D01*
X19649440Y10756900D02*
Y11005820D01*
X19527521D02*
X19649440D01*
X19527521Y10756900D02*
X19649440D01*
X19527521Y10457180D02*
Y10706100D01*
X19649440Y10457180D02*
Y10706100D01*
X19527521D02*
X19649440D01*
X19527521Y10457180D02*
X19649440D01*
X20121880Y12176760D02*
Y12298680D01*
X20370799Y12176760D02*
Y12298680D01*
X20121880Y12176760D02*
X20370799D01*
X20121880Y12298680D02*
X20370799D01*
X19575780Y11803380D02*
Y11925300D01*
X19824699Y11803380D02*
Y11925300D01*
X19575780Y11803380D02*
X19824699D01*
X19575780Y11925300D02*
X19824699D01*
X16169640Y11760200D02*
X16291560D01*
Y12009120D01*
X16169640D02*
X16291560D01*
X16169640Y11760200D02*
Y12009120D01*
X19199860Y12069379D02*
Y12191299D01*
X18950940Y12069379D02*
Y12191299D01*
X19199860D01*
X18950940Y12069379D02*
X19199860D01*
X15758160Y11800840D02*
Y12049760D01*
X15636240Y11800840D02*
X15758160D01*
X15636240D02*
Y12049760D01*
X15758160D01*
X19575780Y11963400D02*
Y12085320D01*
X19824699Y11963400D02*
Y12085320D01*
X19575780Y11963400D02*
X19824699D01*
X19575780Y12085320D02*
X19824699D01*
X19547839Y12895580D02*
X19669760D01*
X19547839Y12646660D02*
X19669760D01*
X19547839D02*
Y12895580D01*
X19669760Y12646660D02*
Y12895580D01*
X19174460Y12545060D02*
Y12666980D01*
X18925540Y12545060D02*
Y12666980D01*
X19174460D01*
X18925540Y12545060D02*
X19174460D01*
X19822160Y12895580D02*
X19944080D01*
X19822160Y12646660D02*
X19944080D01*
X19822160D02*
Y12895580D01*
X19944080Y12646660D02*
Y12895580D01*
X12612068Y15832639D02*
X12788081Y16008652D01*
X12698279Y15746428D02*
X12874292Y15922441D01*
X12788081Y16008652D02*
X12874292Y15922441D01*
X12612068Y15832639D02*
X12698279Y15746428D01*
X14205402Y15256210D02*
X14291611Y15342418D01*
X14029390Y15432222D02*
X14115598Y15518430D01*
X14291611Y15342418D01*
X14029390Y15432222D02*
X14205402Y15256210D01*
X14976810Y16410123D02*
X15152821Y16234109D01*
X15063017Y16496330D02*
X15239030Y16320319D01*
X14976810Y16410123D02*
X15063017Y16496330D01*
X15152821Y16234109D02*
X15239030Y16320319D01*
X14047922Y18101610D02*
X14134129Y18015402D01*
X13871910Y17925598D02*
X13958118Y17839391D01*
X13871910Y17925598D02*
X14047922Y18101610D01*
X13958118Y17839391D02*
X14134129Y18015402D01*
X12246308Y16902881D02*
X12332519Y16989091D01*
X12422321Y16726868D02*
X12508532Y16813078D01*
X12246308Y16902881D02*
X12422321Y16726868D01*
X12332519Y16989091D02*
X12508532Y16813078D01*
X14328958Y18251469D02*
X14504970Y18075458D01*
X14242751Y18165262D02*
X14418762Y17989250D01*
X14504970Y18075458D01*
X14242751Y18165262D02*
X14328958Y18251469D01*
X13983670Y17813838D02*
X14069878Y17727631D01*
X14159682Y17989850D02*
X14245889Y17903642D01*
X14069878Y17727631D02*
X14245889Y17903642D01*
X13983670Y17813838D02*
X14159682Y17989850D01*
X14943639Y16376950D02*
X15119650Y16200938D01*
X14857430Y16290742D02*
X15033443Y16114729D01*
X15119650Y16200938D01*
X14857430Y16290742D02*
X14943639Y16376950D01*
X12048188Y15103659D02*
X12224201Y15279672D01*
X12134399Y15017448D02*
X12310412Y15193462D01*
X12224201Y15279672D02*
X12310412Y15193462D01*
X12048188Y15103659D02*
X12134399Y15017448D01*
X11928808Y15223039D02*
X12104821Y15399052D01*
X12015019Y15136829D02*
X12191032Y15312840D01*
X12104821Y15399052D02*
X12191032Y15312840D01*
X11928808Y15223039D02*
X12015019Y15136829D01*
X11712908Y15014758D02*
X11888921Y15190771D01*
X11799119Y14928548D02*
X11975132Y15104561D01*
X11888921Y15190771D02*
X11975132Y15104561D01*
X11712908Y15014758D02*
X11799119Y14928548D01*
X12930321Y15444772D02*
X13016531Y15358562D01*
X12754308Y15268759D02*
X12840520Y15182549D01*
X12754308Y15268759D02*
X12930321Y15444772D01*
X12840520Y15182549D02*
X13016531Y15358562D01*
X12965128Y15482120D02*
X13141141Y15658131D01*
X13051340Y15395908D02*
X13227351Y15571921D01*
X13141141Y15658131D02*
X13227351Y15571921D01*
X12965128Y15482120D02*
X13051340Y15395908D01*
X12292028Y16224701D02*
X12378239Y16310912D01*
X12468041Y16048688D02*
X12554252Y16134898D01*
X12292028Y16224701D02*
X12468041Y16048688D01*
X12378239Y16310912D02*
X12554252Y16134898D01*
X13788841Y15075868D02*
X13875052Y15162079D01*
X13612828Y15251881D02*
X13699039Y15338092D01*
X13875052Y15162079D01*
X13612828Y15251881D02*
X13788841Y15075868D01*
X22581662Y11704538D02*
Y12049542D01*
X22396658Y11704538D02*
Y12049542D01*
X22581662D01*
X22396658Y11704538D02*
X22581662D01*
X24599683Y11985198D02*
Y12170202D01*
X24254678Y11985198D02*
Y12170202D01*
Y11985198D02*
X24599683D01*
X24254678Y12170202D02*
X24599683D01*
X23728680Y11239500D02*
Y11361420D01*
X23977600Y11239500D02*
Y11361420D01*
X23728680Y11239500D02*
X23977600D01*
X23728680Y11361420D02*
X23977600D01*
X23412242Y10581858D02*
Y10926862D01*
X23227238Y10581858D02*
Y10926862D01*
X23412242D01*
X23227238Y10581858D02*
X23412242D01*
X23130302D02*
Y10926862D01*
X22945297Y10581858D02*
Y10926862D01*
X23130302D01*
X22945297Y10581858D02*
X23130302D01*
X22848363D02*
Y10926862D01*
X22663358Y10581858D02*
Y10926862D01*
X22848363D01*
X22663358Y10581858D02*
X22848363D01*
X24023322Y11795760D02*
X24145241D01*
X24023322Y12044680D02*
X24145241D01*
Y11795760D02*
Y12044680D01*
X24023322Y11795760D02*
Y12044680D01*
X22646640Y11821160D02*
X22768559D01*
X22646640Y12070080D02*
X22768559D01*
Y11821160D02*
Y12070080D01*
X22646640Y11821160D02*
Y12070080D01*
X23332440Y11305540D02*
X23454359D01*
X23332440Y11056620D02*
X23454359D01*
X23332440D02*
Y11305540D01*
X23454359Y11056620D02*
Y11305540D01*
X24480521Y12353260D02*
Y12602180D01*
X24358600Y12353260D02*
Y12602180D01*
Y12353260D02*
X24480521D01*
X24358600Y12602180D02*
X24480521D01*
X24190961Y12353260D02*
X24312880D01*
X24190961Y12602180D02*
X24312880D01*
Y12353260D02*
Y12602180D01*
X24190961Y12353260D02*
Y12602180D01*
X24996242Y13403580D02*
X25245161D01*
X24996242Y13525500D02*
X25245161D01*
X24996242Y13403580D02*
Y13525500D01*
X25245161Y13403580D02*
Y13525500D01*
X23743919Y12824460D02*
X23865840D01*
X23743919Y13073380D02*
X23865840D01*
Y12824460D02*
Y13073380D01*
X23743919Y12824460D02*
Y13073380D01*
X22847301Y12120880D02*
X22969220D01*
X22847301Y12369800D02*
X22969220D01*
Y12120880D02*
Y12369800D01*
X22847301Y12120880D02*
Y12369800D01*
X22699980Y11506200D02*
Y11628120D01*
X22948900Y11506200D02*
Y11628120D01*
X22699980Y11506200D02*
X22948900D01*
X22699980Y11628120D02*
X22948900D01*
X22699980Y11346180D02*
Y11468100D01*
X22948900Y11346180D02*
Y11468100D01*
X22699980Y11346180D02*
X22948900D01*
X22699980Y11468100D02*
X22948900D01*
X22839680Y12505660D02*
X22961600D01*
X22839680Y12754580D02*
X22961600D01*
Y12505660D02*
Y12754580D01*
X22839680Y12505660D02*
Y12754580D01*
X22699980Y11183620D02*
Y11305540D01*
X22948900Y11183620D02*
Y11305540D01*
X22699980Y11183620D02*
X22948900D01*
X22699980Y11305540D02*
X22948900D01*
X23291800Y11056620D02*
Y11305540D01*
X23169881Y11056620D02*
Y11305540D01*
Y11056620D02*
X23291800D01*
X23169881Y11305540D02*
X23291800D01*
X21771819Y12590998D02*
Y12936002D01*
X21956822Y12590998D02*
Y12936002D01*
X21771819Y12590998D02*
X21956822D01*
X21771819Y12936002D02*
X21956822D01*
X19093179Y15349220D02*
X19215100D01*
X19093179Y15598140D02*
X19215100D01*
Y15349220D02*
Y15598140D01*
X19093179Y15349220D02*
Y15598140D01*
X18724879Y15349220D02*
X18846800D01*
X18724879Y15598140D02*
X18846800D01*
Y15349220D02*
Y15598140D01*
X18724879Y15349220D02*
Y15598140D01*
X18907761Y15349220D02*
X19029680D01*
X18907761Y15598140D02*
X19029680D01*
Y15349220D02*
Y15598140D01*
X18907761Y15349220D02*
Y15598140D01*
X19855180Y15288260D02*
Y15410181D01*
X19606261Y15288260D02*
Y15410181D01*
X19855180D01*
X19606261Y15288260D02*
X19855180D01*
Y15613380D02*
Y15735300D01*
X19606261Y15613380D02*
Y15735300D01*
X19855180D01*
X19606261Y15613380D02*
X19855180D01*
Y15453360D02*
Y15575281D01*
X19606261Y15453360D02*
Y15575281D01*
X19855180D01*
X19606261Y15453360D02*
X19855180D01*
X16967200Y15534641D02*
Y15656560D01*
X17216119Y15534641D02*
Y15656560D01*
X16967200Y15534641D02*
X17216119D01*
X16967200Y15656560D02*
X17216119D01*
X16967200Y15344141D02*
Y15466060D01*
X17216119Y15344141D02*
Y15466060D01*
X16967200Y15344141D02*
X17216119D01*
X16967200Y15466060D02*
X17216119D01*
X16913860Y15529559D02*
Y15651480D01*
X16664940Y15529559D02*
Y15651480D01*
X16913860D01*
X16664940Y15529559D02*
X16913860D01*
X19281140Y15349220D02*
Y15598140D01*
X19403059Y15349220D02*
Y15598140D01*
X19281140D02*
X19403059D01*
X19281140Y15349220D02*
X19403059D01*
X16715739Y12217400D02*
Y12466320D01*
Y12217400D02*
X16837660D01*
X16715739Y12466320D02*
X16837660D01*
Y12217400D02*
Y12466320D01*
X16898621Y12217400D02*
X17020540D01*
X16898621Y12466320D02*
X17020540D01*
Y12217400D02*
Y12466320D01*
X16898621Y12217400D02*
Y12466320D01*
X16118840Y12082780D02*
X16367760D01*
Y12204700D01*
X16118840Y12082780D02*
Y12204700D01*
X16367760D01*
X16418559Y12209780D02*
X16667480D01*
X16418559Y12087860D02*
Y12209780D01*
X16667480Y12087860D02*
Y12209780D01*
X16418559Y12087860D02*
X16667480D01*
X15232381Y14081760D02*
X15481300D01*
X15232381Y13959840D02*
X15481300D01*
Y14081760D01*
X15232381Y13959840D02*
Y14081760D01*
Y13921741D02*
X15481300D01*
X15232381Y13799820D02*
X15481300D01*
Y13921741D01*
X15232381Y13799820D02*
Y13921741D01*
X16442239Y13569649D02*
X16618253Y13745660D01*
X16532040Y13831873D02*
X16618253Y13745660D01*
X16356029Y13655859D02*
X16442239Y13569649D01*
X16356029Y13655859D02*
X16532040Y13831873D01*
X16320319Y13689027D02*
X16496332Y13865041D01*
X16410121Y13951253D02*
X16496332Y13865041D01*
X16234108Y13775240D02*
X16320319Y13689027D01*
X16234108Y13775240D02*
X16410121Y13951253D01*
X15232381Y14119859D02*
Y14241780D01*
X15481300Y14119859D02*
Y14241780D01*
X15232381Y14119859D02*
X15481300D01*
X15232381Y14241780D02*
X15481300D01*
X14102080Y13482320D02*
Y13731239D01*
X13980161Y13482320D02*
X14102080D01*
X13980161D02*
Y13731239D01*
X14102080D01*
X15600681Y11800840D02*
Y12049760D01*
X15478760D02*
X15600681D01*
X15478760Y11800840D02*
X15600681D01*
X15478760D02*
Y12049760D01*
X15476221Y12212320D02*
Y12461240D01*
Y12212320D02*
X15598140D01*
X15476221Y12461240D02*
X15598140D01*
Y12212320D02*
Y12461240D01*
X16974820Y13601700D02*
Y13723621D01*
X16725900Y13601700D02*
Y13723621D01*
X16974820D01*
X16725900Y13601700D02*
X16974820D01*
X16725900Y13418820D02*
X16974820D01*
Y13540739D01*
X16725900Y13418820D02*
Y13540739D01*
X16974820D01*
X16720821Y12679680D02*
Y12801601D01*
X16471899Y12679680D02*
Y12801601D01*
X16720821D01*
X16471899Y12679680D02*
X16720821D01*
X14107159Y13182600D02*
Y13431520D01*
X13985240D02*
X14107159D01*
X13985240Y13182600D02*
X14107159D01*
X13985240D02*
Y13431520D01*
X15107919Y11932920D02*
Y12181840D01*
Y11932920D02*
X15229840D01*
X15107919Y12181840D02*
X15229840D01*
Y11932920D02*
Y12181840D01*
X15532100Y13957300D02*
Y14079221D01*
X15781020Y13957300D02*
Y14079221D01*
X15532100Y13957300D02*
X15781020D01*
X15532100Y14079221D02*
X15781020D01*
X15532100Y14272260D02*
X15781020D01*
X15532100Y14394180D02*
X15781020D01*
X15532100Y14272260D02*
Y14394180D01*
X15781020Y14272260D02*
Y14394180D01*
X15905479Y12270740D02*
Y12392660D01*
X15656560Y12270740D02*
Y12392660D01*
X15905479D01*
X15656560Y12270740D02*
X15905479D01*
X20233838Y13943538D02*
X20512842D01*
X20233838Y13493542D02*
X20512842D01*
Y13943538D01*
X20233838Y13493542D02*
Y13943538D01*
X24164178Y10597078D02*
Y10876082D01*
X24614180Y10597078D02*
Y10876082D01*
X24164178D02*
X24614180D01*
X24164178Y10597078D02*
X24614180D01*
X24667001Y12687498D02*
X25116998D01*
X24667001Y12966502D02*
X25116998D01*
Y12687498D02*
Y12966502D01*
X24667001Y12687498D02*
Y12966502D01*
X24001521D02*
X24451518D01*
X24001521Y12687498D02*
X24451518D01*
X24001521D02*
Y12966502D01*
X24451518Y12687498D02*
Y12966502D01*
X25117101Y13053258D02*
Y13332262D01*
X24667097Y13053258D02*
Y13332262D01*
Y13053258D02*
X25117101D01*
X24667097Y13332262D02*
X25117101D01*
X24001521Y13055798D02*
X24451518D01*
X24001521Y13334802D02*
X24451518D01*
Y13055798D02*
Y13334802D01*
X24001521Y13055798D02*
Y13334802D01*
X10575300Y8821440D02*
Y9141440D01*
X10735300D01*
X10575300Y8821440D02*
X10735300D01*
Y9141440D01*
X20113177Y10791601D02*
Y11001599D01*
X19978181Y10791601D02*
Y11001599D01*
X20113177D01*
X19978181Y10791601D02*
X20113177D01*
X24559322Y9393641D02*
Y9483639D01*
Y9393641D02*
X24729318D01*
Y9483639D01*
X24559322D02*
X24729318D01*
X24178320Y9393641D02*
Y9483639D01*
Y9393641D02*
X24348318D01*
Y9483639D01*
X24178320D02*
X24348318D01*
X20316739Y10640121D02*
Y10810118D01*
X20226741Y10640121D02*
Y10810118D01*
X20316739D01*
X20226741Y10640121D02*
X20316739D01*
X21082060Y13922461D02*
Y14012459D01*
X21252058Y13922461D02*
Y14012459D01*
X21082060D02*
X21252058D01*
X21082060Y13922461D02*
X21252058D01*
X24521820Y9116121D02*
X24611818D01*
Y9286118D01*
X24521820D02*
X24611818D01*
X24521820Y9116121D02*
Y9286118D01*
X24140820Y9126281D02*
X24230818D01*
Y9296278D01*
X24140820D02*
X24230818D01*
X24140820Y9126281D02*
Y9296278D01*
X20160101Y12350201D02*
Y12440199D01*
X20330099Y12350201D02*
Y12440199D01*
X20160101D02*
X20330099D01*
X20160101Y12350201D02*
X20330099D01*
X19944801Y12239081D02*
X20034799D01*
X19944801Y12409079D02*
X20034799D01*
X19944801Y12239081D02*
Y12409079D01*
X20034799Y12239081D02*
Y12409079D01*
X19159097Y12247900D02*
Y12337903D01*
X18989101Y12247900D02*
Y12337903D01*
Y12247900D02*
X19159097D01*
X18989101Y12337903D02*
X19159097D01*
X19286942Y12122841D02*
X19376939D01*
X19286942Y12292838D02*
X19376939D01*
X19286942Y12122841D02*
Y12292838D01*
X19376939Y12122841D02*
Y12292838D01*
X19133698Y12402261D02*
Y12492258D01*
X18963701Y12402261D02*
Y12492258D01*
Y12402261D02*
X19133698D01*
X18963701Y12492258D02*
X19133698D01*
X19261542Y12609759D02*
X19351540D01*
X19261542Y12439762D02*
X19351540D01*
Y12609759D01*
X19261542Y12439762D02*
Y12609759D01*
X13160461Y19004158D02*
X13250459D01*
Y18834161D02*
Y19004158D01*
X13160461Y18834161D02*
Y19004158D01*
Y18834161D02*
X13250459D01*
X12909001Y19004158D02*
X12998999D01*
Y18834161D02*
Y19004158D01*
X12909001Y18834161D02*
Y19004158D01*
Y18834161D02*
X12998999D01*
X13414461Y19004158D02*
X13504459D01*
Y18834161D02*
Y19004158D01*
X13414461Y18834161D02*
Y19004158D01*
Y18834161D02*
X13504459D01*
X15509961Y19686179D02*
X15599959D01*
X15509961Y19516180D02*
X15599959D01*
Y19686179D01*
X15509961Y19516180D02*
Y19686179D01*
X12678994Y17190617D02*
X12753238Y17116374D01*
X12717881Y17229510D02*
X12792131Y17155261D01*
X12753238Y17116374D02*
X12792131Y17155261D01*
X12678994Y17190617D02*
X12717881Y17229510D01*
X12486158Y15684843D02*
X12606364Y15564638D01*
X12549796Y15748482D02*
X12670002Y15628276D01*
X12606364Y15564638D02*
X12670002Y15628276D01*
X12486158Y15684843D02*
X12549796Y15748482D01*
X11868938Y14909456D02*
X11989145Y15029662D01*
X11932576Y14845818D02*
X12052782Y14966025D01*
X11868938Y14909456D02*
X11932576Y14845818D01*
X11989145Y15029662D02*
X12052782Y14966025D01*
X12572518Y15059315D02*
X12636156Y14995679D01*
X12692724Y15179523D02*
X12756362Y15115884D01*
X12572518Y15059315D02*
X12692724Y15179523D01*
X12636156Y14995679D02*
X12756362Y15115884D01*
X13292165Y15469083D02*
X13355801Y15405444D01*
X13171957Y15348875D02*
X13235596Y15285239D01*
X13355801Y15405444D01*
X13171957Y15348875D02*
X13292165Y15469083D01*
X12950978Y15127896D02*
X13014616Y15064258D01*
X13071184Y15248102D02*
X13134822Y15184464D01*
X12950978Y15127896D02*
X13071184Y15248102D01*
X13014616Y15064258D02*
X13134822Y15184464D01*
X12694438Y14934474D02*
X12758075Y14870836D01*
X12814644Y15054680D02*
X12878282Y14991042D01*
X12694438Y14934474D02*
X12814644Y15054680D01*
X12758075Y14870836D02*
X12878282Y14991042D01*
X13661385Y15002377D02*
X13725021Y15066016D01*
X13541177Y15122585D02*
X13604816Y15186221D01*
X13541177Y15122585D02*
X13661385Y15002377D01*
X13604816Y15186221D02*
X13725021Y15066016D01*
X23772307Y11059881D02*
Y11149879D01*
X23942310Y11059881D02*
Y11149879D01*
X23772307D02*
X23942310D01*
X23772307Y11059881D02*
X23942310D01*
X23902121Y10789981D02*
X23992119D01*
X23902121Y10959978D02*
X23992119D01*
X23902121Y10789981D02*
Y10959978D01*
X23992119Y10789981D02*
Y10959978D01*
X23608720Y12706441D02*
X23698718D01*
X23608720Y12876439D02*
X23698718D01*
X23608720Y12706441D02*
Y12876439D01*
X23698718Y12706441D02*
Y12876439D01*
X24057060Y12394021D02*
X24147060D01*
X24057060Y12564019D02*
X24147060D01*
X24057060Y12394021D02*
Y12564019D01*
X24147060Y12394021D02*
Y12564019D01*
X23491220Y12511522D02*
Y12601519D01*
X23661218Y12511522D02*
Y12601519D01*
X23491220D02*
X23661218D01*
X23491220Y12511522D02*
X23661218D01*
X23914821Y12566559D02*
X24004819D01*
X23914821Y12396561D02*
X24004819D01*
Y12566559D01*
X23914821Y12396561D02*
Y12566559D01*
X23020741Y12546421D02*
X23110739D01*
X23020741Y12716419D02*
X23110739D01*
X23020741Y12546421D02*
Y12716419D01*
X23110739Y12546421D02*
Y12716419D01*
X23175681Y12718959D02*
X23265678D01*
X23175681Y12548961D02*
X23265678D01*
Y12718959D01*
X23175681Y12548961D02*
Y12718959D01*
X10697760Y9401900D02*
Y9571900D01*
X10607760Y9401900D02*
Y9571900D01*
Y9401900D02*
X10697760D01*
X10607760Y9571900D02*
X10697760D01*
X19534419Y15388681D02*
Y15558679D01*
X19444421Y15388681D02*
Y15558679D01*
X19534419D01*
X19444421Y15388681D02*
X19534419D01*
X15212781Y18849461D02*
Y19019460D01*
X15302779Y18849461D02*
Y19019460D01*
X15212781Y18849461D02*
X15302779D01*
X15212781Y19019460D02*
X15302779D01*
X15212781Y18542061D02*
Y18712057D01*
X15302779Y18542061D02*
Y18712057D01*
X15212781Y18542061D02*
X15302779D01*
X15212781Y18712057D02*
X15302779D01*
X14493961Y18840541D02*
Y19010539D01*
X14583958Y18840541D02*
Y19010539D01*
X14493961Y18840541D02*
X14583958D01*
X14493961Y19010539D02*
X14583958D01*
X15045142Y18845621D02*
Y19015619D01*
X15135139Y18845621D02*
Y19015619D01*
X15045142Y18845621D02*
X15135139D01*
X15045142Y19015619D02*
X15135139D01*
X14778441Y9593458D02*
X14868439D01*
Y9423461D02*
Y9593458D01*
X14778441Y9423461D02*
Y9593458D01*
Y9423461D02*
X14868439D01*
X14948621Y9593458D02*
X15038618D01*
Y9423461D02*
Y9593458D01*
X14948621Y9423461D02*
Y9593458D01*
Y9423461D02*
X15038618D01*
X14283141Y9593458D02*
X14373138D01*
Y9423461D02*
Y9593458D01*
X14283141Y9423461D02*
Y9593458D01*
Y9423461D02*
X14373138D01*
X14443161Y9593458D02*
X14533159D01*
Y9423461D02*
Y9593458D01*
X14443161Y9423461D02*
Y9593458D01*
Y9423461D02*
X14533159D01*
X14603181Y9592218D02*
X14693179D01*
Y9422221D02*
Y9592218D01*
X14603181Y9422221D02*
Y9592218D01*
Y9422221D02*
X14693179D01*
X16812981Y9460321D02*
X16902979D01*
X16812981Y9630319D02*
X16902979D01*
Y9460321D02*
Y9630319D01*
X16812981Y9460321D02*
Y9630319D01*
Y9765121D02*
X16902979D01*
X16812981Y9935119D02*
X16902979D01*
Y9765121D02*
Y9935119D01*
X16812981Y9765121D02*
Y9935119D01*
X16167821Y9457781D02*
X16257819D01*
X16167821Y9627779D02*
X16257819D01*
Y9457781D02*
Y9627779D01*
X16167821Y9457781D02*
Y9627779D01*
X16665662Y9457781D02*
X16755659D01*
X16665662Y9627779D02*
X16755659D01*
Y9457781D02*
Y9627779D01*
X16665662Y9457781D02*
Y9627779D01*
X14375040Y12715961D02*
Y12805959D01*
X14205042Y12715961D02*
X14375040D01*
X14205042Y12805959D02*
X14375040D01*
X14205042Y12715961D02*
Y12805959D01*
X16815979Y12530541D02*
Y12620539D01*
X16645981Y12530541D02*
X16815979D01*
X16645981Y12620539D02*
X16815979D01*
X16645981Y12530541D02*
Y12620539D01*
X16329599Y12268921D02*
Y12358919D01*
X16159602Y12268921D02*
X16329599D01*
X16159602Y12358919D02*
X16329599D01*
X16159602Y12268921D02*
Y12358919D01*
X16452940Y12268921D02*
Y12358919D01*
X16622939D01*
X16452940Y12268921D02*
X16622939D01*
Y12358919D01*
X14255202Y13369382D02*
X14345200D01*
X14255202D02*
Y13539378D01*
X14345200Y13369382D02*
Y13539378D01*
X14255202D02*
X14345200D01*
X14953700Y12143618D02*
X15043700D01*
Y11973621D02*
Y12143618D01*
X14953700Y11973621D02*
Y12143618D01*
Y11973621D02*
X15043700D01*
X15575401Y13813242D02*
Y13903239D01*
X15745399Y13813242D02*
Y13903239D01*
X15575401D02*
X15745399D01*
X15575401Y13813242D02*
X15745399D01*
Y14135822D02*
Y14225819D01*
X15575401Y14135822D02*
Y14225819D01*
Y14135822D02*
X15745399D01*
X15575401Y14225819D02*
X15745399D01*
X15696021Y12131761D02*
Y12221759D01*
X15866019Y12131761D02*
Y12221759D01*
X15696021D02*
X15866019D01*
X15696021Y12131761D02*
X15866019D01*
X19642165Y9639783D02*
X19705803Y9576145D01*
X19521957Y9519575D02*
X19585596Y9455937D01*
X19521957Y9519575D02*
X19642165Y9639783D01*
X19585596Y9455937D02*
X19705803Y9576145D01*
X19516878Y8783665D02*
X19580515Y8847303D01*
X19637085Y8663457D02*
X19700723Y8727095D01*
X19516878Y8783665D02*
X19637085Y8663457D01*
X19580515Y8847303D02*
X19700723Y8727095D01*
X20426196Y8737255D02*
X20489835Y8673617D01*
X20546405Y8857463D02*
X20610043Y8793825D01*
X20489835Y8673617D02*
X20610043Y8793825D01*
X20426196Y8737255D02*
X20546405Y8857463D01*
X20503226Y9463557D02*
X20566862Y9527195D01*
X20383017Y9583765D02*
X20446655Y9647403D01*
X20566862Y9527195D01*
X20383017Y9583765D02*
X20503226Y9463557D01*
X12181073Y15436525D02*
X12407347Y15662799D01*
X12584125Y15486021D01*
X12357851Y15259747D02*
X12584125Y15486021D01*
X12181073Y15436525D02*
X12357851Y15259747D01*
X14627859Y13510260D02*
X14876781D01*
X14627859Y13388341D02*
X14876781D01*
Y13510260D01*
X14627859Y13388341D02*
Y13510260D01*
X15293340Y11932920D02*
Y12181840D01*
X15415260Y11932920D02*
Y12181840D01*
X15293340D02*
X15415260D01*
X15293340Y11932920D02*
X15415260D01*
X13596498Y12040321D02*
Y12130319D01*
X13426501Y12040321D02*
Y12130319D01*
Y12040321D02*
X13596498D01*
X13426501Y12130319D02*
X13596498D01*
X13388341Y12199620D02*
Y12321540D01*
X13637260Y12199620D02*
Y12321540D01*
X13388341Y12199620D02*
X13637260D01*
X13388341Y12321540D02*
X13637260D01*
X25121880Y12077720D02*
Y12397720D01*
Y12077720D02*
X25281880D01*
X25121880Y12397720D02*
X25281880D01*
Y12077720D02*
Y12397720D01*
X20872440Y10751840D02*
Y11071840D01*
X20712440D02*
X20872440D01*
X20712440Y10751840D02*
X20872440D01*
X20712440D02*
Y11071840D01*
X24784140Y11819340D02*
X24954140D01*
X24784140Y11909340D02*
X24954140D01*
Y11819340D02*
Y11909340D01*
X24784140Y11819340D02*
Y11909340D01*
X20425500Y11019240D02*
X20595500D01*
X20425500Y11109240D02*
X20595500D01*
Y11019240D02*
Y11109240D01*
X20425500Y11019240D02*
Y11109240D01*
D194*
X21986240Y11987858D02*
D03*
D195*
X20373340Y13913277D02*
D03*
D196*
X24194443Y10736580D02*
D03*
X24697261Y12827000D02*
D03*
X24421259D02*
D03*
X25086836Y13192764D02*
D03*
X24031781Y13195300D02*
D03*
%TF.MD5,86e238a982d75c536b1861ec6074afe2*%
M02*
