%TF.GenerationSoftware,Altium Limited,Altium Designer,22.10.1 (41)*%
G04 Layer_Color=16711935*
%FSLAX45Y45*%
%MOMM*%
%TF.SameCoordinates,FE0E7334-CCE0-4667-BD18-01278DCCDDAB*%
%TF.FilePolarity,Negative*%
%TF.FileFunction,Soldermask,Bot*%
%TF.Part,Single*%
G01*
G75*
%TA.AperFunction,SMDPad,CuDef*%
%ADD63R,0.55880X0.97790*%
%ADD104R,1.52400X1.27000*%
%ADD109R,1.27000X1.52400*%
%ADD119R,0.65000X1.55000*%
%ADD120R,0.35000X1.55000*%
%ADD121R,0.75000X1.65000*%
%ADD122R,1.25000X2.25000*%
%ADD123R,1.25000X1.65000*%
G04:AMPARAMS|DCode=124|XSize=1.55mm|YSize=3.05mm|CornerRadius=0.4mm|HoleSize=0mm|Usage=FLASHONLY|Rotation=0.000|XOffset=0mm|YOffset=0mm|HoleType=Round|Shape=RoundedRectangle|*
%AMROUNDEDRECTD124*
21,1,1.55000,2.25000,0,0,0.0*
21,1,0.75000,3.05000,0,0,0.0*
1,1,0.80000,0.37500,-1.12500*
1,1,0.80000,-0.37500,-1.12500*
1,1,0.80000,-0.37500,1.12500*
1,1,0.80000,0.37500,1.12500*
%
%ADD124ROUNDEDRECTD124*%
%ADD125R,1.55000X3.05000*%
%ADD126R,2.05000X3.05000*%
%ADD127R,4.55000X2.35000*%
%ADD128R,1.55000X1.45000*%
%ADD129R,1.20400X1.60400*%
%ADD130R,0.90000X0.95000*%
%ADD131R,0.95000X0.90000*%
G04:AMPARAMS|DCode=132|XSize=0.95mm|YSize=0.9mm|CornerRadius=0mm|HoleSize=0mm|Usage=FLASHONLY|Rotation=135.000|XOffset=0mm|YOffset=0mm|HoleType=Round|Shape=Rectangle|*
%AMROTATEDRECTD132*
4,1,4,0.65408,-0.01768,0.01768,-0.65408,-0.65408,0.01768,-0.01768,0.65408,0.65408,-0.01768,0.0*
%
%ADD132ROTATEDRECTD132*%

G04:AMPARAMS|DCode=133|XSize=0.95mm|YSize=0.9mm|CornerRadius=0mm|HoleSize=0mm|Usage=FLASHONLY|Rotation=225.000|XOffset=0mm|YOffset=0mm|HoleType=Round|Shape=Rectangle|*
%AMROTATEDRECTD133*
4,1,4,0.01768,0.65408,0.65408,0.01768,-0.01768,-0.65408,-0.65408,-0.01768,0.01768,0.65408,0.0*
%
%ADD133ROTATEDRECTD133*%

%TA.AperFunction,ComponentPad*%
%ADD134O,1.70100X1.95500*%
%ADD135R,1.70100X1.95500*%
%ADD136C,6.40000*%
%ADD137C,1.05000*%
%ADD138O,1.05000X2.05000*%
%ADD139O,1.05000X2.55000*%
%ADD140O,4.45000X2.25000*%
%ADD141O,2.05000X4.05000*%
%ADD142O,4.05000X2.05000*%
%ADD143C,1.10000*%
%ADD144C,1.35000*%
D63*
X16461740Y9479915D02*
D03*
X16366739D02*
D03*
X16556741D02*
D03*
X16461740Y9752965D02*
D03*
X16366739D02*
D03*
X16556741D02*
D03*
D104*
X22136099Y9141460D02*
D03*
Y9588500D02*
D03*
X22547580Y9144000D02*
D03*
Y9591040D02*
D03*
X21717000Y9141460D02*
D03*
Y9588500D02*
D03*
X23385780Y9141460D02*
D03*
Y9588500D02*
D03*
X22959061Y9141460D02*
D03*
Y9588500D02*
D03*
X20076160Y8859520D02*
D03*
Y8412480D02*
D03*
Y9448800D02*
D03*
Y9895840D02*
D03*
D109*
X20276820Y9141460D02*
D03*
X19829781D02*
D03*
X19121120D02*
D03*
X19568159D02*
D03*
X20530820Y9144000D02*
D03*
X20977859D02*
D03*
D119*
X16709639Y9201262D02*
D03*
X16229640D02*
D03*
X16149640D02*
D03*
X16789639D02*
D03*
D120*
X16644640D02*
D03*
X16494638D02*
D03*
X16444641D02*
D03*
X16594638D02*
D03*
X16544641D02*
D03*
X16294638D02*
D03*
X16394638D02*
D03*
X16344641D02*
D03*
D121*
X14434602Y9847920D02*
D03*
X14324603D02*
D03*
X14764603D02*
D03*
X14544604D02*
D03*
X14654601D02*
D03*
X14984602D02*
D03*
X15094600D02*
D03*
X15204604D02*
D03*
X14874602D02*
D03*
D122*
X13774599Y8787922D02*
D03*
X15327579D02*
D03*
D123*
X13829599Y9747921D02*
D03*
X15327579D02*
D03*
D124*
X18409920Y9240300D02*
D03*
X18155920D02*
D03*
D125*
X17901920D02*
D03*
D126*
X18740120Y8516400D02*
D03*
X17571719D02*
D03*
D127*
X11207420Y9161780D02*
D03*
X12847417D02*
D03*
D128*
X10655300Y8831438D02*
D03*
Y9131442D02*
D03*
D129*
X24553159Y9822962D02*
D03*
X24743161D02*
D03*
X24648160Y9602958D02*
D03*
X24174699Y9828042D02*
D03*
X24364700D02*
D03*
X24269701Y9608038D02*
D03*
X17006819Y9716282D02*
D03*
X17196822D02*
D03*
X17101820Y9496278D02*
D03*
D130*
X24566818Y9438640D02*
D03*
X24721820D02*
D03*
X24185818D02*
D03*
X24340820D02*
D03*
D131*
X24566818Y9123619D02*
D03*
Y9278620D02*
D03*
X24185818Y9133779D02*
D03*
Y9288780D02*
D03*
X10652760Y9409400D02*
D03*
Y9564400D02*
D03*
X16857980Y9467820D02*
D03*
Y9622820D02*
D03*
Y9772620D02*
D03*
Y9927620D02*
D03*
X16212820Y9465280D02*
D03*
Y9620280D02*
D03*
X16710660Y9465280D02*
D03*
Y9620280D02*
D03*
D132*
X19668683Y9602663D02*
D03*
X19559077Y9493057D02*
D03*
X20463316Y8710737D02*
D03*
X20572923Y8820343D02*
D03*
D133*
X19553996Y8810183D02*
D03*
X19663603Y8700577D02*
D03*
X20529742Y9500677D02*
D03*
X20420137Y9610283D02*
D03*
D134*
X24701500Y8491220D02*
D03*
D135*
X24958040D02*
D03*
D136*
X25989279Y20693381D02*
D03*
X10495280Y20703540D02*
D03*
D137*
X25989279Y20921980D02*
D03*
X25760681Y20693381D02*
D03*
X25989279Y20464781D02*
D03*
X26217880Y20693381D02*
D03*
X26150925Y20855026D02*
D03*
X25827634D02*
D03*
Y20531737D02*
D03*
X26150925D02*
D03*
X14244598Y8747923D02*
D03*
X15042601D02*
D03*
X10495280Y20932140D02*
D03*
X10266680Y20703540D02*
D03*
X10495280Y20474940D02*
D03*
X10723880Y20703540D02*
D03*
X10656925Y20865186D02*
D03*
X10333635D02*
D03*
Y20541895D02*
D03*
X10656925D02*
D03*
D138*
X15222704Y19857562D02*
D03*
X14358701D02*
D03*
X16037640Y8694583D02*
D03*
X16901643D02*
D03*
D139*
X15222704Y19442561D02*
D03*
X14358701D02*
D03*
X16037640Y9109578D02*
D03*
X16901643D02*
D03*
D140*
X25755539Y9660062D02*
D03*
D141*
X25275540Y9370060D02*
D03*
D142*
X25755539Y9030061D02*
D03*
D143*
X12377420Y9161780D02*
D03*
D144*
X11632418D02*
D03*
%TF.MD5,8f4fd4991ca6ee4d06f658e09e75e8d2*%
M02*
